G04 #@! TF.FileFunction,Legend,Top*
%FSLAX46Y46*%
G04 Gerber Fmt 4.6, Leading zero omitted, Abs format (unit mm)*
G04 Created by KiCad (PCBNEW 4.0.7) date Monday, February 19, 2018 'AMt' 09:37:46 AM*
%MOMM*%
%LPD*%
G01*
G04 APERTURE LIST*
%ADD10C,0.100000*%
%ADD11C,0.150000*%
%ADD12C,0.300000*%
%ADD13C,0.400000*%
%ADD14C,0.250000*%
%ADD15C,0.120000*%
%ADD16C,0.010000*%
G04 APERTURE END LIST*
D10*
D11*
X177002200Y-166007200D02*
X177002200Y-198007200D01*
X285002200Y-198007200D01*
X285002200Y-166007200D01*
X177002200Y-166007200D01*
D10*
D11*
X10000000Y-10000000D02*
X10000000Y-200007200D01*
X287002200Y-200007200D01*
X287002200Y-10000000D01*
X10000000Y-10000000D01*
D10*
D11*
X12000000Y-12000000D02*
X12000000Y-198007200D01*
X285002200Y-198007200D01*
X285002200Y-12000000D01*
X12000000Y-12000000D01*
D10*
D11*
X60000000Y-12000000D02*
X60000000Y-10000000D01*
D10*
D11*
X110000000Y-12000000D02*
X110000000Y-10000000D01*
D10*
D11*
X160000000Y-12000000D02*
X160000000Y-10000000D01*
D10*
D11*
X210000000Y-12000000D02*
X210000000Y-10000000D01*
D10*
D11*
X260000000Y-12000000D02*
X260000000Y-10000000D01*
D10*
D11*
X35990476Y-11588095D02*
X35247619Y-11588095D01*
X35619048Y-11588095D02*
X35619048Y-10288095D01*
X35495238Y-10473810D01*
X35371429Y-10597619D01*
X35247619Y-10659524D01*
D10*
D11*
X85247619Y-10411905D02*
X85309524Y-10350000D01*
X85433333Y-10288095D01*
X85742857Y-10288095D01*
X85866667Y-10350000D01*
X85928571Y-10411905D01*
X85990476Y-10535714D01*
X85990476Y-10659524D01*
X85928571Y-10845238D01*
X85185714Y-11588095D01*
X85990476Y-11588095D01*
D10*
D11*
X135185714Y-10288095D02*
X135990476Y-10288095D01*
X135557143Y-10783333D01*
X135742857Y-10783333D01*
X135866667Y-10845238D01*
X135928571Y-10907143D01*
X135990476Y-11030952D01*
X135990476Y-11340476D01*
X135928571Y-11464286D01*
X135866667Y-11526190D01*
X135742857Y-11588095D01*
X135371429Y-11588095D01*
X135247619Y-11526190D01*
X135185714Y-11464286D01*
D10*
D11*
X185866667Y-10721429D02*
X185866667Y-11588095D01*
X185557143Y-10226190D02*
X185247619Y-11154762D01*
X186052381Y-11154762D01*
D10*
D11*
X235928571Y-10288095D02*
X235309524Y-10288095D01*
X235247619Y-10907143D01*
X235309524Y-10845238D01*
X235433333Y-10783333D01*
X235742857Y-10783333D01*
X235866667Y-10845238D01*
X235928571Y-10907143D01*
X235990476Y-11030952D01*
X235990476Y-11340476D01*
X235928571Y-11464286D01*
X235866667Y-11526190D01*
X235742857Y-11588095D01*
X235433333Y-11588095D01*
X235309524Y-11526190D01*
X235247619Y-11464286D01*
D10*
D11*
X285866667Y-10288095D02*
X285619048Y-10288095D01*
X285495238Y-10350000D01*
X285433333Y-10411905D01*
X285309524Y-10597619D01*
X285247619Y-10845238D01*
X285247619Y-11340476D01*
X285309524Y-11464286D01*
X285371429Y-11526190D01*
X285495238Y-11588095D01*
X285742857Y-11588095D01*
X285866667Y-11526190D01*
X285928571Y-11464286D01*
X285990476Y-11340476D01*
X285990476Y-11030952D01*
X285928571Y-10907143D01*
X285866667Y-10845238D01*
X285742857Y-10783333D01*
X285495238Y-10783333D01*
X285371429Y-10845238D01*
X285309524Y-10907143D01*
X285247619Y-11030952D01*
D10*
D11*
X60000000Y-198007200D02*
X60000000Y-200007200D01*
D10*
D11*
X110000000Y-198007200D02*
X110000000Y-200007200D01*
D10*
D11*
X160000000Y-198007200D02*
X160000000Y-200007200D01*
D10*
D11*
X210000000Y-198007200D02*
X210000000Y-200007200D01*
D10*
D11*
X260000000Y-198007200D02*
X260000000Y-200007200D01*
D10*
D11*
X35990476Y-199595295D02*
X35247619Y-199595295D01*
X35619048Y-199595295D02*
X35619048Y-198295295D01*
X35495238Y-198481010D01*
X35371429Y-198604819D01*
X35247619Y-198666724D01*
D10*
D11*
X85247619Y-198419105D02*
X85309524Y-198357200D01*
X85433333Y-198295295D01*
X85742857Y-198295295D01*
X85866667Y-198357200D01*
X85928571Y-198419105D01*
X85990476Y-198542914D01*
X85990476Y-198666724D01*
X85928571Y-198852438D01*
X85185714Y-199595295D01*
X85990476Y-199595295D01*
D10*
D11*
X135185714Y-198295295D02*
X135990476Y-198295295D01*
X135557143Y-198790533D01*
X135742857Y-198790533D01*
X135866667Y-198852438D01*
X135928571Y-198914343D01*
X135990476Y-199038152D01*
X135990476Y-199347676D01*
X135928571Y-199471486D01*
X135866667Y-199533390D01*
X135742857Y-199595295D01*
X135371429Y-199595295D01*
X135247619Y-199533390D01*
X135185714Y-199471486D01*
D10*
D11*
X185866667Y-198728629D02*
X185866667Y-199595295D01*
X185557143Y-198233390D02*
X185247619Y-199161962D01*
X186052381Y-199161962D01*
D10*
D11*
X235928571Y-198295295D02*
X235309524Y-198295295D01*
X235247619Y-198914343D01*
X235309524Y-198852438D01*
X235433333Y-198790533D01*
X235742857Y-198790533D01*
X235866667Y-198852438D01*
X235928571Y-198914343D01*
X235990476Y-199038152D01*
X235990476Y-199347676D01*
X235928571Y-199471486D01*
X235866667Y-199533390D01*
X235742857Y-199595295D01*
X235433333Y-199595295D01*
X235309524Y-199533390D01*
X235247619Y-199471486D01*
D10*
D11*
X285866667Y-198295295D02*
X285619048Y-198295295D01*
X285495238Y-198357200D01*
X285433333Y-198419105D01*
X285309524Y-198604819D01*
X285247619Y-198852438D01*
X285247619Y-199347676D01*
X285309524Y-199471486D01*
X285371429Y-199533390D01*
X285495238Y-199595295D01*
X285742857Y-199595295D01*
X285866667Y-199533390D01*
X285928571Y-199471486D01*
X285990476Y-199347676D01*
X285990476Y-199038152D01*
X285928571Y-198914343D01*
X285866667Y-198852438D01*
X285742857Y-198790533D01*
X285495238Y-198790533D01*
X285371429Y-198852438D01*
X285309524Y-198914343D01*
X285247619Y-199038152D01*
D10*
D11*
X10000000Y-60000000D02*
X12000000Y-60000000D01*
D10*
D11*
X10000000Y-110000000D02*
X12000000Y-110000000D01*
D10*
D11*
X10000000Y-160000000D02*
X12000000Y-160000000D01*
D10*
D11*
X10690476Y-35216667D02*
X11309524Y-35216667D01*
X10566667Y-35588095D02*
X11000000Y-34288095D01*
X11433333Y-35588095D01*
D10*
D11*
X11092857Y-84907143D02*
X11278571Y-84969048D01*
X11340476Y-85030952D01*
X11402381Y-85154762D01*
X11402381Y-85340476D01*
X11340476Y-85464286D01*
X11278571Y-85526190D01*
X11154762Y-85588095D01*
X10659524Y-85588095D01*
X10659524Y-84288095D01*
X11092857Y-84288095D01*
X11216667Y-84350000D01*
X11278571Y-84411905D01*
X11340476Y-84535714D01*
X11340476Y-84659524D01*
X11278571Y-84783333D01*
X11216667Y-84845238D01*
X11092857Y-84907143D01*
X10659524Y-84907143D01*
D10*
D11*
X11402381Y-135464286D02*
X11340476Y-135526190D01*
X11154762Y-135588095D01*
X11030952Y-135588095D01*
X10845238Y-135526190D01*
X10721429Y-135402381D01*
X10659524Y-135278571D01*
X10597619Y-135030952D01*
X10597619Y-134845238D01*
X10659524Y-134597619D01*
X10721429Y-134473810D01*
X10845238Y-134350000D01*
X11030952Y-134288095D01*
X11154762Y-134288095D01*
X11340476Y-134350000D01*
X11402381Y-134411905D01*
D10*
D11*
X10659524Y-185588095D02*
X10659524Y-184288095D01*
X10969048Y-184288095D01*
X11154762Y-184350000D01*
X11278571Y-184473810D01*
X11340476Y-184597619D01*
X11402381Y-184845238D01*
X11402381Y-185030952D01*
X11340476Y-185278571D01*
X11278571Y-185402381D01*
X11154762Y-185526190D01*
X10969048Y-185588095D01*
X10659524Y-185588095D01*
D10*
D11*
X287002200Y-60000000D02*
X285002200Y-60000000D01*
D10*
D11*
X287002200Y-110000000D02*
X285002200Y-110000000D01*
D10*
D11*
X287002200Y-160000000D02*
X285002200Y-160000000D01*
D10*
D11*
X285692676Y-35216667D02*
X286311724Y-35216667D01*
X285568867Y-35588095D02*
X286002200Y-34288095D01*
X286435533Y-35588095D01*
D10*
D11*
X286095057Y-84907143D02*
X286280771Y-84969048D01*
X286342676Y-85030952D01*
X286404581Y-85154762D01*
X286404581Y-85340476D01*
X286342676Y-85464286D01*
X286280771Y-85526190D01*
X286156962Y-85588095D01*
X285661724Y-85588095D01*
X285661724Y-84288095D01*
X286095057Y-84288095D01*
X286218867Y-84350000D01*
X286280771Y-84411905D01*
X286342676Y-84535714D01*
X286342676Y-84659524D01*
X286280771Y-84783333D01*
X286218867Y-84845238D01*
X286095057Y-84907143D01*
X285661724Y-84907143D01*
D10*
D11*
X286404581Y-135464286D02*
X286342676Y-135526190D01*
X286156962Y-135588095D01*
X286033152Y-135588095D01*
X285847438Y-135526190D01*
X285723629Y-135402381D01*
X285661724Y-135278571D01*
X285599819Y-135030952D01*
X285599819Y-134845238D01*
X285661724Y-134597619D01*
X285723629Y-134473810D01*
X285847438Y-134350000D01*
X286033152Y-134288095D01*
X286156962Y-134288095D01*
X286342676Y-134350000D01*
X286404581Y-134411905D01*
D10*
D11*
X285661724Y-185588095D02*
X285661724Y-184288095D01*
X285971248Y-184288095D01*
X286156962Y-184350000D01*
X286280771Y-184473810D01*
X286342676Y-184597619D01*
X286404581Y-184845238D01*
X286404581Y-185030952D01*
X286342676Y-185278571D01*
X286280771Y-185402381D01*
X286156962Y-185526190D01*
X285971248Y-185588095D01*
X285661724Y-185588095D01*
D10*
D11*
X200359343Y-193785771D02*
X200359343Y-192285771D01*
X200716486Y-192285771D01*
X200930771Y-192357200D01*
X201073629Y-192500057D01*
X201145057Y-192642914D01*
X201216486Y-192928629D01*
X201216486Y-193142914D01*
X201145057Y-193428629D01*
X201073629Y-193571486D01*
X200930771Y-193714343D01*
X200716486Y-193785771D01*
X200359343Y-193785771D01*
X202502200Y-193785771D02*
X202502200Y-193000057D01*
X202430771Y-192857200D01*
X202287914Y-192785771D01*
X202002200Y-192785771D01*
X201859343Y-192857200D01*
X202502200Y-193714343D02*
X202359343Y-193785771D01*
X202002200Y-193785771D01*
X201859343Y-193714343D01*
X201787914Y-193571486D01*
X201787914Y-193428629D01*
X201859343Y-193285771D01*
X202002200Y-193214343D01*
X202359343Y-193214343D01*
X202502200Y-193142914D01*
X203002200Y-192785771D02*
X203573629Y-192785771D01*
X203216486Y-192285771D02*
X203216486Y-193571486D01*
X203287914Y-193714343D01*
X203430772Y-193785771D01*
X203573629Y-193785771D01*
X204645057Y-193714343D02*
X204502200Y-193785771D01*
X204216486Y-193785771D01*
X204073629Y-193714343D01*
X204002200Y-193571486D01*
X204002200Y-193000057D01*
X204073629Y-192857200D01*
X204216486Y-192785771D01*
X204502200Y-192785771D01*
X204645057Y-192857200D01*
X204716486Y-193000057D01*
X204716486Y-193142914D01*
X204002200Y-193285771D01*
X205359343Y-193642914D02*
X205430771Y-193714343D01*
X205359343Y-193785771D01*
X205287914Y-193714343D01*
X205359343Y-193642914D01*
X205359343Y-193785771D01*
X205359343Y-192857200D02*
X205430771Y-192928629D01*
X205359343Y-193000057D01*
X205287914Y-192928629D01*
X205359343Y-192857200D01*
X205359343Y-193000057D01*
D10*
D11*
X177002200Y-194507200D02*
X285002200Y-194507200D01*
D10*
D11*
X178359343Y-196585771D02*
X178359343Y-195085771D01*
X179216486Y-196585771D02*
X178573629Y-195728629D01*
X179216486Y-195085771D02*
X178359343Y-195942914D01*
X179859343Y-196585771D02*
X179859343Y-195585771D01*
X179859343Y-195085771D02*
X179787914Y-195157200D01*
X179859343Y-195228629D01*
X179930771Y-195157200D01*
X179859343Y-195085771D01*
X179859343Y-195228629D01*
X181430772Y-196442914D02*
X181359343Y-196514343D01*
X181145057Y-196585771D01*
X181002200Y-196585771D01*
X180787915Y-196514343D01*
X180645057Y-196371486D01*
X180573629Y-196228629D01*
X180502200Y-195942914D01*
X180502200Y-195728629D01*
X180573629Y-195442914D01*
X180645057Y-195300057D01*
X180787915Y-195157200D01*
X181002200Y-195085771D01*
X181145057Y-195085771D01*
X181359343Y-195157200D01*
X181430772Y-195228629D01*
X182716486Y-196585771D02*
X182716486Y-195800057D01*
X182645057Y-195657200D01*
X182502200Y-195585771D01*
X182216486Y-195585771D01*
X182073629Y-195657200D01*
X182716486Y-196514343D02*
X182573629Y-196585771D01*
X182216486Y-196585771D01*
X182073629Y-196514343D01*
X182002200Y-196371486D01*
X182002200Y-196228629D01*
X182073629Y-196085771D01*
X182216486Y-196014343D01*
X182573629Y-196014343D01*
X182716486Y-195942914D01*
X184073629Y-196585771D02*
X184073629Y-195085771D01*
X184073629Y-196514343D02*
X183930772Y-196585771D01*
X183645058Y-196585771D01*
X183502200Y-196514343D01*
X183430772Y-196442914D01*
X183359343Y-196300057D01*
X183359343Y-195871486D01*
X183430772Y-195728629D01*
X183502200Y-195657200D01*
X183645058Y-195585771D01*
X183930772Y-195585771D01*
X184073629Y-195657200D01*
X185930772Y-195800057D02*
X186430772Y-195800057D01*
X186645058Y-196585771D02*
X185930772Y-196585771D01*
X185930772Y-195085771D01*
X186645058Y-195085771D01*
X187287915Y-196442914D02*
X187359343Y-196514343D01*
X187287915Y-196585771D01*
X187216486Y-196514343D01*
X187287915Y-196442914D01*
X187287915Y-196585771D01*
X188002201Y-196585771D02*
X188002201Y-195085771D01*
X188359344Y-195085771D01*
X188573629Y-195157200D01*
X188716487Y-195300057D01*
X188787915Y-195442914D01*
X188859344Y-195728629D01*
X188859344Y-195942914D01*
X188787915Y-196228629D01*
X188716487Y-196371486D01*
X188573629Y-196514343D01*
X188359344Y-196585771D01*
X188002201Y-196585771D01*
X189502201Y-196442914D02*
X189573629Y-196514343D01*
X189502201Y-196585771D01*
X189430772Y-196514343D01*
X189502201Y-196442914D01*
X189502201Y-196585771D01*
X190145058Y-196157200D02*
X190859344Y-196157200D01*
X190002201Y-196585771D02*
X190502201Y-195085771D01*
X191002201Y-196585771D01*
X191502201Y-196442914D02*
X191573629Y-196514343D01*
X191502201Y-196585771D01*
X191430772Y-196514343D01*
X191502201Y-196442914D01*
X191502201Y-196585771D01*
X194502201Y-196585771D02*
X194502201Y-195085771D01*
X194645058Y-196014343D02*
X195073629Y-196585771D01*
X195073629Y-195585771D02*
X194502201Y-196157200D01*
X195716487Y-196585771D02*
X195716487Y-195585771D01*
X195716487Y-195085771D02*
X195645058Y-195157200D01*
X195716487Y-195228629D01*
X195787915Y-195157200D01*
X195716487Y-195085771D01*
X195716487Y-195228629D01*
X197073630Y-196514343D02*
X196930773Y-196585771D01*
X196645059Y-196585771D01*
X196502201Y-196514343D01*
X196430773Y-196442914D01*
X196359344Y-196300057D01*
X196359344Y-195871486D01*
X196430773Y-195728629D01*
X196502201Y-195657200D01*
X196645059Y-195585771D01*
X196930773Y-195585771D01*
X197073630Y-195657200D01*
X198359344Y-196585771D02*
X198359344Y-195800057D01*
X198287915Y-195657200D01*
X198145058Y-195585771D01*
X197859344Y-195585771D01*
X197716487Y-195657200D01*
X198359344Y-196514343D02*
X198216487Y-196585771D01*
X197859344Y-196585771D01*
X197716487Y-196514343D01*
X197645058Y-196371486D01*
X197645058Y-196228629D01*
X197716487Y-196085771D01*
X197859344Y-196014343D01*
X198216487Y-196014343D01*
X198359344Y-195942914D01*
X199716487Y-196585771D02*
X199716487Y-195085771D01*
X199716487Y-196514343D02*
X199573630Y-196585771D01*
X199287916Y-196585771D01*
X199145058Y-196514343D01*
X199073630Y-196442914D01*
X199002201Y-196300057D01*
X199002201Y-195871486D01*
X199073630Y-195728629D01*
X199145058Y-195657200D01*
X199287916Y-195585771D01*
X199573630Y-195585771D01*
X199716487Y-195657200D01*
X202216487Y-195585771D02*
X202216487Y-196585771D01*
X201859344Y-195014343D02*
X201502201Y-196085771D01*
X202430773Y-196085771D01*
X203002201Y-196442914D02*
X203073629Y-196514343D01*
X203002201Y-196585771D01*
X202930772Y-196514343D01*
X203002201Y-196442914D01*
X203002201Y-196585771D01*
X204002201Y-195085771D02*
X204145058Y-195085771D01*
X204287915Y-195157200D01*
X204359344Y-195228629D01*
X204430773Y-195371486D01*
X204502201Y-195657200D01*
X204502201Y-196014343D01*
X204430773Y-196300057D01*
X204359344Y-196442914D01*
X204287915Y-196514343D01*
X204145058Y-196585771D01*
X204002201Y-196585771D01*
X203859344Y-196514343D01*
X203787915Y-196442914D01*
X203716487Y-196300057D01*
X203645058Y-196014343D01*
X203645058Y-195657200D01*
X203716487Y-195371486D01*
X203787915Y-195228629D01*
X203859344Y-195157200D01*
X204002201Y-195085771D01*
X205145058Y-196442914D02*
X205216486Y-196514343D01*
X205145058Y-196585771D01*
X205073629Y-196514343D01*
X205145058Y-196442914D01*
X205145058Y-196585771D01*
X205716487Y-195085771D02*
X206716487Y-195085771D01*
X206073630Y-196585771D01*
D10*
D11*
X177002200Y-191507200D02*
X285002200Y-191507200D01*
D10*
D12*
X264216486Y-193785771D02*
X263716486Y-193071486D01*
X263359343Y-193785771D02*
X263359343Y-192285771D01*
X263930771Y-192285771D01*
X264073629Y-192357200D01*
X264145057Y-192428629D01*
X264216486Y-192571486D01*
X264216486Y-192785771D01*
X264145057Y-192928629D01*
X264073629Y-193000057D01*
X263930771Y-193071486D01*
X263359343Y-193071486D01*
X265430771Y-193714343D02*
X265287914Y-193785771D01*
X265002200Y-193785771D01*
X264859343Y-193714343D01*
X264787914Y-193571486D01*
X264787914Y-193000057D01*
X264859343Y-192857200D01*
X265002200Y-192785771D01*
X265287914Y-192785771D01*
X265430771Y-192857200D01*
X265502200Y-193000057D01*
X265502200Y-193142914D01*
X264787914Y-193285771D01*
X266002200Y-192785771D02*
X266359343Y-193785771D01*
X266716485Y-192785771D01*
X267287914Y-193642914D02*
X267359342Y-193714343D01*
X267287914Y-193785771D01*
X267216485Y-193714343D01*
X267287914Y-193642914D01*
X267287914Y-193785771D01*
X267287914Y-192857200D02*
X267359342Y-192928629D01*
X267287914Y-193000057D01*
X267216485Y-192928629D01*
X267287914Y-192857200D01*
X267287914Y-193000057D01*
D10*
D11*
X178287914Y-193714343D02*
X178502200Y-193785771D01*
X178859343Y-193785771D01*
X179002200Y-193714343D01*
X179073629Y-193642914D01*
X179145057Y-193500057D01*
X179145057Y-193357200D01*
X179073629Y-193214343D01*
X179002200Y-193142914D01*
X178859343Y-193071486D01*
X178573629Y-193000057D01*
X178430771Y-192928629D01*
X178359343Y-192857200D01*
X178287914Y-192714343D01*
X178287914Y-192571486D01*
X178359343Y-192428629D01*
X178430771Y-192357200D01*
X178573629Y-192285771D01*
X178930771Y-192285771D01*
X179145057Y-192357200D01*
X179787914Y-193785771D02*
X179787914Y-192785771D01*
X179787914Y-192285771D02*
X179716485Y-192357200D01*
X179787914Y-192428629D01*
X179859342Y-192357200D01*
X179787914Y-192285771D01*
X179787914Y-192428629D01*
X180359343Y-192785771D02*
X181145057Y-192785771D01*
X180359343Y-193785771D01*
X181145057Y-193785771D01*
X182287914Y-193714343D02*
X182145057Y-193785771D01*
X181859343Y-193785771D01*
X181716486Y-193714343D01*
X181645057Y-193571486D01*
X181645057Y-193000057D01*
X181716486Y-192857200D01*
X181859343Y-192785771D01*
X182145057Y-192785771D01*
X182287914Y-192857200D01*
X182359343Y-193000057D01*
X182359343Y-193142914D01*
X181645057Y-193285771D01*
X183002200Y-193642914D02*
X183073628Y-193714343D01*
X183002200Y-193785771D01*
X182930771Y-193714343D01*
X183002200Y-193642914D01*
X183002200Y-193785771D01*
X183002200Y-192857200D02*
X183073628Y-192928629D01*
X183002200Y-193000057D01*
X182930771Y-192928629D01*
X183002200Y-192857200D01*
X183002200Y-193000057D01*
X184787914Y-193357200D02*
X185502200Y-193357200D01*
X184645057Y-193785771D02*
X185145057Y-192285771D01*
X185645057Y-193785771D01*
X186787914Y-192785771D02*
X186787914Y-193785771D01*
X186430771Y-192214343D02*
X186073628Y-193285771D01*
X187002200Y-193285771D01*
D10*
D11*
X263359343Y-196585771D02*
X263359343Y-195085771D01*
X264716486Y-196585771D02*
X264716486Y-195085771D01*
X264716486Y-196514343D02*
X264573629Y-196585771D01*
X264287915Y-196585771D01*
X264145057Y-196514343D01*
X264073629Y-196442914D01*
X264002200Y-196300057D01*
X264002200Y-195871486D01*
X264073629Y-195728629D01*
X264145057Y-195657200D01*
X264287915Y-195585771D01*
X264573629Y-195585771D01*
X264716486Y-195657200D01*
X265430772Y-196442914D02*
X265502200Y-196514343D01*
X265430772Y-196585771D01*
X265359343Y-196514343D01*
X265430772Y-196442914D01*
X265430772Y-196585771D01*
X265430772Y-195657200D02*
X265502200Y-195728629D01*
X265430772Y-195800057D01*
X265359343Y-195728629D01*
X265430772Y-195657200D01*
X265430772Y-195800057D01*
X268073629Y-196585771D02*
X267216486Y-196585771D01*
X267645058Y-196585771D02*
X267645058Y-195085771D01*
X267502201Y-195300057D01*
X267359343Y-195442914D01*
X267216486Y-195514343D01*
X269787914Y-195014343D02*
X268502200Y-196942914D01*
X271073629Y-196585771D02*
X270216486Y-196585771D01*
X270645058Y-196585771D02*
X270645058Y-195085771D01*
X270502201Y-195300057D01*
X270359343Y-195442914D01*
X270216486Y-195514343D01*
D10*
D11*
X177002200Y-187507200D02*
X285002200Y-187507200D01*
D10*
D13*
X178454581Y-188211962D02*
X179597438Y-188211962D01*
X178776010Y-190211962D02*
X179026010Y-188211962D01*
X180014105Y-190211962D02*
X180180771Y-188878629D01*
X180264105Y-188211962D02*
X180156962Y-188307200D01*
X180240295Y-188402438D01*
X180347439Y-188307200D01*
X180264105Y-188211962D01*
X180240295Y-188402438D01*
X180847438Y-188878629D02*
X181609343Y-188878629D01*
X181216486Y-188211962D02*
X181002200Y-189926248D01*
X181073630Y-190116724D01*
X181252201Y-190211962D01*
X181442677Y-190211962D01*
X182395058Y-190211962D02*
X182216487Y-190116724D01*
X182145057Y-189926248D01*
X182359343Y-188211962D01*
X183930772Y-190116724D02*
X183728391Y-190211962D01*
X183347439Y-190211962D01*
X183168867Y-190116724D01*
X183097438Y-189926248D01*
X183192676Y-189164343D01*
X183311724Y-188973867D01*
X183514105Y-188878629D01*
X183895057Y-188878629D01*
X184073629Y-188973867D01*
X184145057Y-189164343D01*
X184121248Y-189354819D01*
X183145057Y-189545295D01*
X184895057Y-190021486D02*
X184978392Y-190116724D01*
X184871248Y-190211962D01*
X184787915Y-190116724D01*
X184895057Y-190021486D01*
X184871248Y-190211962D01*
X185026010Y-188973867D02*
X185109344Y-189069105D01*
X185002200Y-189164343D01*
X184918867Y-189069105D01*
X185026010Y-188973867D01*
X185002200Y-189164343D01*
D10*
D11*
X178859343Y-185600057D02*
X178359343Y-185600057D01*
X178359343Y-186385771D02*
X178359343Y-184885771D01*
X179073629Y-184885771D01*
X179645057Y-186385771D02*
X179645057Y-185385771D01*
X179645057Y-184885771D02*
X179573628Y-184957200D01*
X179645057Y-185028629D01*
X179716485Y-184957200D01*
X179645057Y-184885771D01*
X179645057Y-185028629D01*
X180573629Y-186385771D02*
X180430771Y-186314343D01*
X180359343Y-186171486D01*
X180359343Y-184885771D01*
X181716485Y-186314343D02*
X181573628Y-186385771D01*
X181287914Y-186385771D01*
X181145057Y-186314343D01*
X181073628Y-186171486D01*
X181073628Y-185600057D01*
X181145057Y-185457200D01*
X181287914Y-185385771D01*
X181573628Y-185385771D01*
X181716485Y-185457200D01*
X181787914Y-185600057D01*
X181787914Y-185742914D01*
X181073628Y-185885771D01*
X182430771Y-186242914D02*
X182502199Y-186314343D01*
X182430771Y-186385771D01*
X182359342Y-186314343D01*
X182430771Y-186242914D01*
X182430771Y-186385771D01*
X182430771Y-185457200D02*
X182502199Y-185528629D01*
X182430771Y-185600057D01*
X182359342Y-185528629D01*
X182430771Y-185457200D01*
X182430771Y-185600057D01*
X184216485Y-185957200D02*
X184930771Y-185957200D01*
X184073628Y-186385771D02*
X184573628Y-184885771D01*
X185073628Y-186385771D01*
X185573628Y-185385771D02*
X185573628Y-186385771D01*
X185573628Y-185528629D02*
X185645056Y-185457200D01*
X185787914Y-185385771D01*
X186002199Y-185385771D01*
X186145056Y-185457200D01*
X186216485Y-185600057D01*
X186216485Y-186385771D01*
X187502199Y-186314343D02*
X187359342Y-186385771D01*
X187073628Y-186385771D01*
X186930771Y-186314343D01*
X186859342Y-186171486D01*
X186859342Y-185600057D01*
X186930771Y-185457200D01*
X187073628Y-185385771D01*
X187359342Y-185385771D01*
X187502199Y-185457200D01*
X187573628Y-185600057D01*
X187573628Y-185742914D01*
X186859342Y-185885771D01*
X188216485Y-186385771D02*
X188216485Y-185385771D01*
X188216485Y-185528629D02*
X188287913Y-185457200D01*
X188430771Y-185385771D01*
X188645056Y-185385771D01*
X188787913Y-185457200D01*
X188859342Y-185600057D01*
X188859342Y-186385771D01*
X188859342Y-185600057D02*
X188930771Y-185457200D01*
X189073628Y-185385771D01*
X189287913Y-185385771D01*
X189430771Y-185457200D01*
X189502199Y-185600057D01*
X189502199Y-186385771D01*
X190430771Y-186385771D02*
X190287913Y-186314343D01*
X190216485Y-186242914D01*
X190145056Y-186100057D01*
X190145056Y-185671486D01*
X190216485Y-185528629D01*
X190287913Y-185457200D01*
X190430771Y-185385771D01*
X190645056Y-185385771D01*
X190787913Y-185457200D01*
X190859342Y-185528629D01*
X190930771Y-185671486D01*
X190930771Y-186100057D01*
X190859342Y-186242914D01*
X190787913Y-186314343D01*
X190645056Y-186385771D01*
X190430771Y-186385771D01*
X191573628Y-186385771D02*
X191573628Y-185385771D01*
X191573628Y-185528629D02*
X191645056Y-185457200D01*
X191787914Y-185385771D01*
X192002199Y-185385771D01*
X192145056Y-185457200D01*
X192216485Y-185600057D01*
X192216485Y-186385771D01*
X192216485Y-185600057D02*
X192287914Y-185457200D01*
X192430771Y-185385771D01*
X192645056Y-185385771D01*
X192787914Y-185457200D01*
X192859342Y-185600057D01*
X192859342Y-186385771D01*
X194145056Y-186314343D02*
X194002199Y-186385771D01*
X193716485Y-186385771D01*
X193573628Y-186314343D01*
X193502199Y-186171486D01*
X193502199Y-185600057D01*
X193573628Y-185457200D01*
X193716485Y-185385771D01*
X194002199Y-185385771D01*
X194145056Y-185457200D01*
X194216485Y-185600057D01*
X194216485Y-185742914D01*
X193502199Y-185885771D01*
X194645056Y-185385771D02*
X195216485Y-185385771D01*
X194859342Y-184885771D02*
X194859342Y-186171486D01*
X194930770Y-186314343D01*
X195073628Y-186385771D01*
X195216485Y-186385771D01*
X196287913Y-186314343D02*
X196145056Y-186385771D01*
X195859342Y-186385771D01*
X195716485Y-186314343D01*
X195645056Y-186171486D01*
X195645056Y-185600057D01*
X195716485Y-185457200D01*
X195859342Y-185385771D01*
X196145056Y-185385771D01*
X196287913Y-185457200D01*
X196359342Y-185600057D01*
X196359342Y-185742914D01*
X195645056Y-185885771D01*
X197002199Y-186385771D02*
X197002199Y-185385771D01*
X197002199Y-185671486D02*
X197073627Y-185528629D01*
X197145056Y-185457200D01*
X197287913Y-185385771D01*
X197430770Y-185385771D01*
X197573627Y-186528629D02*
X198716484Y-186528629D01*
X199002198Y-186314343D02*
X199216484Y-186385771D01*
X199573627Y-186385771D01*
X199716484Y-186314343D01*
X199787913Y-186242914D01*
X199859341Y-186100057D01*
X199859341Y-185957200D01*
X199787913Y-185814343D01*
X199716484Y-185742914D01*
X199573627Y-185671486D01*
X199287913Y-185600057D01*
X199145055Y-185528629D01*
X199073627Y-185457200D01*
X199002198Y-185314343D01*
X199002198Y-185171486D01*
X199073627Y-185028629D01*
X199145055Y-184957200D01*
X199287913Y-184885771D01*
X199645055Y-184885771D01*
X199859341Y-184957200D01*
X201145055Y-186314343D02*
X201002198Y-186385771D01*
X200716484Y-186385771D01*
X200573626Y-186314343D01*
X200502198Y-186242914D01*
X200430769Y-186100057D01*
X200430769Y-185671486D01*
X200502198Y-185528629D01*
X200573626Y-185457200D01*
X200716484Y-185385771D01*
X201002198Y-185385771D01*
X201145055Y-185457200D01*
X201787912Y-186385771D02*
X201787912Y-184885771D01*
X202430769Y-186385771D02*
X202430769Y-185600057D01*
X202359340Y-185457200D01*
X202216483Y-185385771D01*
X202002198Y-185385771D01*
X201859340Y-185457200D01*
X201787912Y-185528629D01*
X203716483Y-186314343D02*
X203573626Y-186385771D01*
X203287912Y-186385771D01*
X203145055Y-186314343D01*
X203073626Y-186171486D01*
X203073626Y-185600057D01*
X203145055Y-185457200D01*
X203287912Y-185385771D01*
X203573626Y-185385771D01*
X203716483Y-185457200D01*
X203787912Y-185600057D01*
X203787912Y-185742914D01*
X203073626Y-185885771D01*
X204430769Y-186385771D02*
X204430769Y-185385771D01*
X204430769Y-185528629D02*
X204502197Y-185457200D01*
X204645055Y-185385771D01*
X204859340Y-185385771D01*
X205002197Y-185457200D01*
X205073626Y-185600057D01*
X205073626Y-186385771D01*
X205073626Y-185600057D02*
X205145055Y-185457200D01*
X205287912Y-185385771D01*
X205502197Y-185385771D01*
X205645055Y-185457200D01*
X205716483Y-185600057D01*
X205716483Y-186385771D01*
X207073626Y-186385771D02*
X207073626Y-185600057D01*
X207002197Y-185457200D01*
X206859340Y-185385771D01*
X206573626Y-185385771D01*
X206430769Y-185457200D01*
X207073626Y-186314343D02*
X206930769Y-186385771D01*
X206573626Y-186385771D01*
X206430769Y-186314343D01*
X206359340Y-186171486D01*
X206359340Y-186028629D01*
X206430769Y-185885771D01*
X206573626Y-185814343D01*
X206930769Y-185814343D01*
X207073626Y-185742914D01*
X207573626Y-185385771D02*
X208145055Y-185385771D01*
X207787912Y-184885771D02*
X207787912Y-186171486D01*
X207859340Y-186314343D01*
X208002198Y-186385771D01*
X208145055Y-186385771D01*
X208645055Y-186385771D02*
X208645055Y-185385771D01*
X208645055Y-184885771D02*
X208573626Y-184957200D01*
X208645055Y-185028629D01*
X208716483Y-184957200D01*
X208645055Y-184885771D01*
X208645055Y-185028629D01*
X210002198Y-186314343D02*
X209859341Y-186385771D01*
X209573627Y-186385771D01*
X209430769Y-186314343D01*
X209359341Y-186242914D01*
X209287912Y-186100057D01*
X209287912Y-185671486D01*
X209359341Y-185528629D01*
X209430769Y-185457200D01*
X209573627Y-185385771D01*
X209859341Y-185385771D01*
X210002198Y-185457200D01*
X210287912Y-186528629D02*
X211430769Y-186528629D01*
X211787912Y-185814343D02*
X212930769Y-185814343D01*
X213287912Y-186528629D02*
X214430769Y-186528629D01*
X214716483Y-185957200D02*
X215430769Y-185957200D01*
X214573626Y-186385771D02*
X215073626Y-184885771D01*
X215573626Y-186385771D01*
X216073626Y-185385771D02*
X216073626Y-186385771D01*
X216073626Y-185528629D02*
X216145054Y-185457200D01*
X216287912Y-185385771D01*
X216502197Y-185385771D01*
X216645054Y-185457200D01*
X216716483Y-185600057D01*
X216716483Y-186385771D01*
X218073626Y-186385771D02*
X218073626Y-185600057D01*
X218002197Y-185457200D01*
X217859340Y-185385771D01*
X217573626Y-185385771D01*
X217430769Y-185457200D01*
X218073626Y-186314343D02*
X217930769Y-186385771D01*
X217573626Y-186385771D01*
X217430769Y-186314343D01*
X217359340Y-186171486D01*
X217359340Y-186028629D01*
X217430769Y-185885771D01*
X217573626Y-185814343D01*
X217930769Y-185814343D01*
X218073626Y-185742914D01*
X219002198Y-186385771D02*
X218859340Y-186314343D01*
X218787912Y-186171486D01*
X218787912Y-184885771D01*
X219787912Y-186385771D02*
X219645054Y-186314343D01*
X219573626Y-186242914D01*
X219502197Y-186100057D01*
X219502197Y-185671486D01*
X219573626Y-185528629D01*
X219645054Y-185457200D01*
X219787912Y-185385771D01*
X220002197Y-185385771D01*
X220145054Y-185457200D01*
X220216483Y-185528629D01*
X220287912Y-185671486D01*
X220287912Y-186100057D01*
X220216483Y-186242914D01*
X220145054Y-186314343D01*
X220002197Y-186385771D01*
X219787912Y-186385771D01*
X221573626Y-185385771D02*
X221573626Y-186600057D01*
X221502197Y-186742914D01*
X221430769Y-186814343D01*
X221287912Y-186885771D01*
X221073626Y-186885771D01*
X220930769Y-186814343D01*
X221573626Y-186314343D02*
X221430769Y-186385771D01*
X221145055Y-186385771D01*
X221002197Y-186314343D01*
X220930769Y-186242914D01*
X220859340Y-186100057D01*
X220859340Y-185671486D01*
X220930769Y-185528629D01*
X221002197Y-185457200D01*
X221145055Y-185385771D01*
X221430769Y-185385771D01*
X221573626Y-185457200D01*
X221930769Y-186528629D02*
X223073626Y-186528629D01*
X223716483Y-184885771D02*
X224002197Y-184885771D01*
X224145055Y-184957200D01*
X224287912Y-185100057D01*
X224359340Y-185385771D01*
X224359340Y-185885771D01*
X224287912Y-186171486D01*
X224145055Y-186314343D01*
X224002197Y-186385771D01*
X223716483Y-186385771D01*
X223573626Y-186314343D01*
X223430769Y-186171486D01*
X223359340Y-185885771D01*
X223359340Y-185385771D01*
X223430769Y-185100057D01*
X223573626Y-184957200D01*
X223716483Y-184885771D01*
X225002198Y-185385771D02*
X225002198Y-186385771D01*
X225002198Y-185528629D02*
X225073626Y-185457200D01*
X225216484Y-185385771D01*
X225430769Y-185385771D01*
X225573626Y-185457200D01*
X225645055Y-185600057D01*
X225645055Y-186385771D01*
X226573627Y-186385771D02*
X226430769Y-186314343D01*
X226359341Y-186171486D01*
X226359341Y-184885771D01*
X227002198Y-185385771D02*
X227359341Y-186385771D01*
X227716483Y-185385771D02*
X227359341Y-186385771D01*
X227216483Y-186742914D01*
X227145055Y-186814343D01*
X227002198Y-186885771D01*
X228287912Y-186242914D02*
X228359340Y-186314343D01*
X228287912Y-186385771D01*
X228216483Y-186314343D01*
X228287912Y-186242914D01*
X228287912Y-186385771D01*
X229002198Y-186385771D02*
X229002198Y-184885771D01*
X229145055Y-185814343D02*
X229573626Y-186385771D01*
X229573626Y-185385771D02*
X229002198Y-185957200D01*
X230216484Y-186385771D02*
X230216484Y-185385771D01*
X230216484Y-184885771D02*
X230145055Y-184957200D01*
X230216484Y-185028629D01*
X230287912Y-184957200D01*
X230216484Y-184885771D01*
X230216484Y-185028629D01*
X231573627Y-186314343D02*
X231430770Y-186385771D01*
X231145056Y-186385771D01*
X231002198Y-186314343D01*
X230930770Y-186242914D01*
X230859341Y-186100057D01*
X230859341Y-185671486D01*
X230930770Y-185528629D01*
X231002198Y-185457200D01*
X231145056Y-185385771D01*
X231430770Y-185385771D01*
X231573627Y-185457200D01*
X232859341Y-186385771D02*
X232859341Y-185600057D01*
X232787912Y-185457200D01*
X232645055Y-185385771D01*
X232359341Y-185385771D01*
X232216484Y-185457200D01*
X232859341Y-186314343D02*
X232716484Y-186385771D01*
X232359341Y-186385771D01*
X232216484Y-186314343D01*
X232145055Y-186171486D01*
X232145055Y-186028629D01*
X232216484Y-185885771D01*
X232359341Y-185814343D01*
X232716484Y-185814343D01*
X232859341Y-185742914D01*
X234216484Y-186385771D02*
X234216484Y-184885771D01*
X234216484Y-186314343D02*
X234073627Y-186385771D01*
X233787913Y-186385771D01*
X233645055Y-186314343D01*
X233573627Y-186242914D01*
X233502198Y-186100057D01*
X233502198Y-185671486D01*
X233573627Y-185528629D01*
X233645055Y-185457200D01*
X233787913Y-185385771D01*
X234073627Y-185385771D01*
X234216484Y-185457200D01*
X234573627Y-186528629D02*
X235716484Y-186528629D01*
X236073627Y-185385771D02*
X236073627Y-186885771D01*
X236073627Y-185457200D02*
X236216484Y-185385771D01*
X236502198Y-185385771D01*
X236645055Y-185457200D01*
X236716484Y-185528629D01*
X236787913Y-185671486D01*
X236787913Y-186100057D01*
X236716484Y-186242914D01*
X236645055Y-186314343D01*
X236502198Y-186385771D01*
X236216484Y-186385771D01*
X236073627Y-186314343D01*
X238073627Y-186314343D02*
X237930770Y-186385771D01*
X237645056Y-186385771D01*
X237502198Y-186314343D01*
X237430770Y-186242914D01*
X237359341Y-186100057D01*
X237359341Y-185671486D01*
X237430770Y-185528629D01*
X237502198Y-185457200D01*
X237645056Y-185385771D01*
X237930770Y-185385771D01*
X238073627Y-185457200D01*
X238716484Y-186385771D02*
X238716484Y-184885771D01*
X238716484Y-185457200D02*
X238859341Y-185385771D01*
X239145055Y-185385771D01*
X239287912Y-185457200D01*
X239359341Y-185528629D01*
X239430770Y-185671486D01*
X239430770Y-186100057D01*
X239359341Y-186242914D01*
X239287912Y-186314343D01*
X239145055Y-186385771D01*
X238859341Y-186385771D01*
X238716484Y-186314343D01*
D10*
D11*
X177002200Y-181507200D02*
X285002200Y-181507200D01*
D10*
D11*
X178287914Y-183614343D02*
X178502200Y-183685771D01*
X178859343Y-183685771D01*
X179002200Y-183614343D01*
X179073629Y-183542914D01*
X179145057Y-183400057D01*
X179145057Y-183257200D01*
X179073629Y-183114343D01*
X179002200Y-183042914D01*
X178859343Y-182971486D01*
X178573629Y-182900057D01*
X178430771Y-182828629D01*
X178359343Y-182757200D01*
X178287914Y-182614343D01*
X178287914Y-182471486D01*
X178359343Y-182328629D01*
X178430771Y-182257200D01*
X178573629Y-182185771D01*
X178930771Y-182185771D01*
X179145057Y-182257200D01*
X179787914Y-183685771D02*
X179787914Y-182185771D01*
X180430771Y-183685771D02*
X180430771Y-182900057D01*
X180359342Y-182757200D01*
X180216485Y-182685771D01*
X180002200Y-182685771D01*
X179859342Y-182757200D01*
X179787914Y-182828629D01*
X181716485Y-183614343D02*
X181573628Y-183685771D01*
X181287914Y-183685771D01*
X181145057Y-183614343D01*
X181073628Y-183471486D01*
X181073628Y-182900057D01*
X181145057Y-182757200D01*
X181287914Y-182685771D01*
X181573628Y-182685771D01*
X181716485Y-182757200D01*
X181787914Y-182900057D01*
X181787914Y-183042914D01*
X181073628Y-183185771D01*
X183002199Y-183614343D02*
X182859342Y-183685771D01*
X182573628Y-183685771D01*
X182430771Y-183614343D01*
X182359342Y-183471486D01*
X182359342Y-182900057D01*
X182430771Y-182757200D01*
X182573628Y-182685771D01*
X182859342Y-182685771D01*
X183002199Y-182757200D01*
X183073628Y-182900057D01*
X183073628Y-183042914D01*
X182359342Y-183185771D01*
X183502199Y-182685771D02*
X184073628Y-182685771D01*
X183716485Y-182185771D02*
X183716485Y-183471486D01*
X183787913Y-183614343D01*
X183930771Y-183685771D01*
X184073628Y-183685771D01*
X184573628Y-183542914D02*
X184645056Y-183614343D01*
X184573628Y-183685771D01*
X184502199Y-183614343D01*
X184573628Y-183542914D01*
X184573628Y-183685771D01*
X184573628Y-182757200D02*
X184645056Y-182828629D01*
X184573628Y-182900057D01*
X184502199Y-182828629D01*
X184573628Y-182757200D01*
X184573628Y-182900057D01*
D10*
D11*
X197002200Y-191507200D02*
X197002200Y-194507200D01*
D10*
D11*
X261002200Y-191507200D02*
X261002200Y-198007200D01*
D14*
X98638096Y-119100000D02*
X98542858Y-119052381D01*
X98400001Y-119052381D01*
X98257143Y-119100000D01*
X98161905Y-119195238D01*
X98114286Y-119290476D01*
X98066667Y-119480952D01*
X98066667Y-119623810D01*
X98114286Y-119814286D01*
X98161905Y-119909524D01*
X98257143Y-120004762D01*
X98400001Y-120052381D01*
X98495239Y-120052381D01*
X98638096Y-120004762D01*
X98685715Y-119957143D01*
X98685715Y-119623810D01*
X98495239Y-119623810D01*
X99114286Y-120052381D02*
X99114286Y-119052381D01*
X99685715Y-120052381D01*
X99685715Y-119052381D01*
X100161905Y-120052381D02*
X100161905Y-119052381D01*
X100400000Y-119052381D01*
X100542858Y-119100000D01*
X100638096Y-119195238D01*
X100685715Y-119290476D01*
X100733334Y-119480952D01*
X100733334Y-119623810D01*
X100685715Y-119814286D01*
X100638096Y-119909524D01*
X100542858Y-120004762D01*
X100400000Y-120052381D01*
X100161905Y-120052381D01*
X94466667Y-120252381D02*
X94800000Y-121252381D01*
X95133334Y-120252381D01*
X96038096Y-121157143D02*
X95990477Y-121204762D01*
X95847620Y-121252381D01*
X95752382Y-121252381D01*
X95609524Y-121204762D01*
X95514286Y-121109524D01*
X95466667Y-121014286D01*
X95419048Y-120823810D01*
X95419048Y-120680952D01*
X95466667Y-120490476D01*
X95514286Y-120395238D01*
X95609524Y-120300000D01*
X95752382Y-120252381D01*
X95847620Y-120252381D01*
X95990477Y-120300000D01*
X96038096Y-120347619D01*
X97038096Y-121157143D02*
X96990477Y-121204762D01*
X96847620Y-121252381D01*
X96752382Y-121252381D01*
X96609524Y-121204762D01*
X96514286Y-121109524D01*
X96466667Y-121014286D01*
X96419048Y-120823810D01*
X96419048Y-120680952D01*
X96466667Y-120490476D01*
X96514286Y-120395238D01*
X96609524Y-120300000D01*
X96752382Y-120252381D01*
X96847620Y-120252381D01*
X96990477Y-120300000D01*
X97038096Y-120347619D01*
X92421675Y-112570521D02*
X91850246Y-112570521D01*
X92135960Y-112570521D02*
X92135960Y-111570521D01*
X92040722Y-111713378D01*
X91945484Y-111808616D01*
X91850246Y-111856235D01*
X147238096Y-121100000D02*
X147142858Y-121052381D01*
X147000001Y-121052381D01*
X146857143Y-121100000D01*
X146761905Y-121195238D01*
X146714286Y-121290476D01*
X146666667Y-121480952D01*
X146666667Y-121623810D01*
X146714286Y-121814286D01*
X146761905Y-121909524D01*
X146857143Y-122004762D01*
X147000001Y-122052381D01*
X147095239Y-122052381D01*
X147238096Y-122004762D01*
X147285715Y-121957143D01*
X147285715Y-121623810D01*
X147095239Y-121623810D01*
X147714286Y-122052381D02*
X147714286Y-121052381D01*
X148285715Y-122052381D01*
X148285715Y-121052381D01*
X148761905Y-122052381D02*
X148761905Y-121052381D01*
X149000000Y-121052381D01*
X149142858Y-121100000D01*
X149238096Y-121195238D01*
X149285715Y-121290476D01*
X149333334Y-121480952D01*
X149333334Y-121623810D01*
X149285715Y-121814286D01*
X149238096Y-121909524D01*
X149142858Y-122004762D01*
X149000000Y-122052381D01*
X148761905Y-122052381D01*
X148866667Y-123852381D02*
X149200000Y-124852381D01*
X149533334Y-123852381D01*
X150438096Y-124757143D02*
X150390477Y-124804762D01*
X150247620Y-124852381D01*
X150152382Y-124852381D01*
X150009524Y-124804762D01*
X149914286Y-124709524D01*
X149866667Y-124614286D01*
X149819048Y-124423810D01*
X149819048Y-124280952D01*
X149866667Y-124090476D01*
X149914286Y-123995238D01*
X150009524Y-123900000D01*
X150152382Y-123852381D01*
X150247620Y-123852381D01*
X150390477Y-123900000D01*
X150438096Y-123947619D01*
X151438096Y-124757143D02*
X151390477Y-124804762D01*
X151247620Y-124852381D01*
X151152382Y-124852381D01*
X151009524Y-124804762D01*
X150914286Y-124709524D01*
X150866667Y-124614286D01*
X150819048Y-124423810D01*
X150819048Y-124280952D01*
X150866667Y-124090476D01*
X150914286Y-123995238D01*
X151009524Y-123900000D01*
X151152382Y-123852381D01*
X151247620Y-123852381D01*
X151390477Y-123900000D01*
X151438096Y-123947619D01*
X157765715Y-122512081D02*
X157194286Y-122512081D01*
X157480000Y-122512081D02*
X157480000Y-121512081D01*
X157384762Y-121654938D01*
X157289524Y-121750176D01*
X157194286Y-121797795D01*
D12*
X135838191Y-103211380D02*
X137338191Y-102711380D01*
X135838191Y-102211380D01*
X137195334Y-100854237D02*
X137266763Y-100925666D01*
X137338191Y-101139952D01*
X137338191Y-101282809D01*
X137266763Y-101497094D01*
X137123906Y-101639952D01*
X136981049Y-101711380D01*
X136695334Y-101782809D01*
X136481049Y-101782809D01*
X136195334Y-101711380D01*
X136052477Y-101639952D01*
X135909620Y-101497094D01*
X135838191Y-101282809D01*
X135838191Y-101139952D01*
X135909620Y-100925666D01*
X135981049Y-100854237D01*
X137195334Y-99354237D02*
X137266763Y-99425666D01*
X137338191Y-99639952D01*
X137338191Y-99782809D01*
X137266763Y-99997094D01*
X137123906Y-100139952D01*
X136981049Y-100211380D01*
X136695334Y-100282809D01*
X136481049Y-100282809D01*
X136195334Y-100211380D01*
X136052477Y-100139952D01*
X135909620Y-99997094D01*
X135838191Y-99782809D01*
X135838191Y-99639952D01*
X135909620Y-99425666D01*
X135981049Y-99354237D01*
D15*
X145071540Y-121020120D02*
X144071540Y-121020120D01*
X144071540Y-119660120D02*
X145071540Y-119660120D01*
D11*
X156982160Y-123207780D02*
X156982160Y-111777780D01*
X149362160Y-111777780D02*
X156982160Y-111777780D01*
X149362160Y-123207780D02*
X149362160Y-111777780D01*
X156982160Y-123207780D02*
X149362160Y-123207780D01*
X103103680Y-110746540D02*
X92943680Y-110746540D01*
X92943680Y-128526540D02*
X92943680Y-110746540D01*
X103103680Y-128526540D02*
X92943680Y-128526540D01*
X103103680Y-110746540D02*
X103103680Y-128526540D01*
D15*
X88831940Y-114672820D02*
X89531940Y-114672820D01*
X89531940Y-115872820D02*
X88831940Y-115872820D01*
X125800000Y-125050000D02*
X125800000Y-125750000D01*
X124600000Y-125750000D02*
X124600000Y-125050000D01*
X89350000Y-120800000D02*
X88650000Y-120800000D01*
X88650000Y-119600000D02*
X89350000Y-119600000D01*
X144529020Y-123316440D02*
X145229020Y-123316440D01*
X145229020Y-124516440D02*
X144529020Y-124516440D01*
X162611280Y-122018500D02*
X163311280Y-122018500D01*
X163311280Y-123218500D02*
X162611280Y-123218500D01*
X82834960Y-117781780D02*
X83534960Y-117781780D01*
X83534960Y-118981780D02*
X82834960Y-118981780D01*
X82634960Y-125126600D02*
X83334960Y-125126600D01*
X83334960Y-126326600D02*
X82634960Y-126326600D01*
X89000000Y-123450000D02*
X89000000Y-124150000D01*
X87800000Y-124150000D02*
X87800000Y-123450000D01*
X108800000Y-127750000D02*
X108800000Y-127050000D01*
X110000000Y-127050000D02*
X110000000Y-127750000D01*
X112800000Y-111350000D02*
X112800000Y-110650000D01*
X114000000Y-110650000D02*
X114000000Y-111350000D01*
X162743360Y-116384780D02*
X163443360Y-116384780D01*
X163443360Y-117584780D02*
X162743360Y-117584780D01*
X162222660Y-113689840D02*
X162922660Y-113689840D01*
X162922660Y-114889840D02*
X162222660Y-114889840D01*
X162458880Y-120052540D02*
X163158880Y-120052540D01*
X163158880Y-121252540D02*
X162458880Y-121252540D01*
X140450000Y-106000000D02*
X141150000Y-106000000D01*
X141150000Y-107200000D02*
X140450000Y-107200000D01*
X140650000Y-107800000D02*
X141350000Y-107800000D01*
X141350000Y-109000000D02*
X140650000Y-109000000D01*
X115030000Y-106830000D02*
X137950000Y-106830000D01*
X137950000Y-106830000D02*
X137950000Y-104170000D01*
X137950000Y-104170000D02*
X115030000Y-104170000D01*
X115030000Y-104170000D02*
X115030000Y-106830000D01*
X113760000Y-106830000D02*
X112430000Y-106830000D01*
X112430000Y-106830000D02*
X112430000Y-105500000D01*
X139526040Y-120055760D02*
X139526040Y-119125760D01*
X139526040Y-116895760D02*
X139526040Y-117825760D01*
X139526040Y-116895760D02*
X137366040Y-116895760D01*
X139526040Y-120055760D02*
X138066040Y-120055760D01*
X129427400Y-117087160D02*
X129427400Y-116157160D01*
X129427400Y-113927160D02*
X129427400Y-114857160D01*
X129427400Y-113927160D02*
X127267400Y-113927160D01*
X129427400Y-117087160D02*
X127967400Y-117087160D01*
X82778800Y-114775700D02*
X83778800Y-114775700D01*
X83778800Y-116135700D02*
X82778800Y-116135700D01*
X132357060Y-123823180D02*
X133357060Y-123823180D01*
X133357060Y-125183180D02*
X132357060Y-125183180D01*
X127720000Y-126100000D02*
X127720000Y-125100000D01*
X129080000Y-125100000D02*
X129080000Y-126100000D01*
X89521740Y-112780360D02*
X88521740Y-112780360D01*
X88521740Y-111420360D02*
X89521740Y-111420360D01*
X139475920Y-112937840D02*
X138475920Y-112937840D01*
X138475920Y-111577840D02*
X139475920Y-111577840D01*
X83870160Y-113021660D02*
X82870160Y-113021660D01*
X82870160Y-111661660D02*
X83870160Y-111661660D01*
X144071540Y-115618980D02*
X145071540Y-115618980D01*
X145071540Y-116978980D02*
X144071540Y-116978980D01*
X89303300Y-118693480D02*
X88303300Y-118693480D01*
X88303300Y-117333480D02*
X89303300Y-117333480D01*
X144774540Y-113247720D02*
X143774540Y-113247720D01*
X143774540Y-111887720D02*
X144774540Y-111887720D01*
X83576620Y-123551640D02*
X82576620Y-123551640D01*
X82576620Y-122191640D02*
X83576620Y-122191640D01*
X98390000Y-131400000D02*
X99390000Y-131400000D01*
X99390000Y-132760000D02*
X98390000Y-132760000D01*
X162821060Y-111972640D02*
X161821060Y-111972640D01*
X161821060Y-110612640D02*
X162821060Y-110612640D01*
X108900000Y-123480000D02*
X107900000Y-123480000D01*
X107900000Y-122120000D02*
X108900000Y-122120000D01*
X109680000Y-109100000D02*
X109680000Y-110100000D01*
X108320000Y-110100000D02*
X108320000Y-109100000D01*
X115300000Y-114880000D02*
X114300000Y-114880000D01*
X114300000Y-113520000D02*
X115300000Y-113520000D01*
X110100000Y-120680000D02*
X109100000Y-120680000D01*
X109100000Y-119320000D02*
X110100000Y-119320000D01*
X106537040Y-117739360D02*
X106537040Y-118739360D01*
X105177040Y-118739360D02*
X105177040Y-117739360D01*
X110204960Y-116374460D02*
X109204960Y-116374460D01*
X109204960Y-115014460D02*
X110204960Y-115014460D01*
X109100000Y-113120000D02*
X110100000Y-113120000D01*
X110100000Y-114480000D02*
X109100000Y-114480000D01*
X122860000Y-118700000D02*
X123860000Y-118700000D01*
X123860000Y-120060000D02*
X122860000Y-120060000D01*
X132300000Y-120920000D02*
X133300000Y-120920000D01*
X133300000Y-122280000D02*
X132300000Y-122280000D01*
D16*
G36*
X137651363Y-130442699D02*
X137673155Y-130449976D01*
X137691586Y-130466420D01*
X137706935Y-130495197D01*
X137719481Y-130539474D01*
X137729505Y-130602418D01*
X137737283Y-130687194D01*
X137743096Y-130796971D01*
X137747223Y-130934914D01*
X137749943Y-131104191D01*
X137751535Y-131307968D01*
X137752277Y-131549411D01*
X137752450Y-131831687D01*
X137752332Y-132157964D01*
X137752203Y-132531407D01*
X137752200Y-132590500D01*
X137752122Y-132965884D01*
X137751849Y-133293711D01*
X137751318Y-133577221D01*
X137750469Y-133819658D01*
X137749240Y-134024261D01*
X137747569Y-134194274D01*
X137745395Y-134332939D01*
X137742657Y-134443496D01*
X137739292Y-134529188D01*
X137735241Y-134593257D01*
X137730441Y-134638944D01*
X137724831Y-134669492D01*
X137718349Y-134688141D01*
X137712285Y-134696885D01*
X137701209Y-134703992D01*
X137681001Y-134710213D01*
X137648490Y-134715606D01*
X137600503Y-134720229D01*
X137533867Y-134724140D01*
X137445410Y-134727396D01*
X137331960Y-134730056D01*
X137190344Y-134732175D01*
X137017390Y-134733813D01*
X136809924Y-134735028D01*
X136564776Y-134735876D01*
X136278771Y-134736415D01*
X135948739Y-134736703D01*
X135571505Y-134736798D01*
X135516999Y-134736800D01*
X135133176Y-134736726D01*
X134796980Y-134736467D01*
X134505239Y-134735965D01*
X134254781Y-134735162D01*
X134042432Y-134734000D01*
X133865021Y-134732422D01*
X133719375Y-134730371D01*
X133602322Y-134727787D01*
X133510688Y-134724615D01*
X133441303Y-134720795D01*
X133390992Y-134716271D01*
X133356584Y-134710985D01*
X133334907Y-134704879D01*
X133322787Y-134697895D01*
X133321714Y-134696885D01*
X133314465Y-134685627D01*
X133308138Y-134665152D01*
X133302672Y-134632219D01*
X133298006Y-134583586D01*
X133294078Y-134516011D01*
X133290826Y-134426252D01*
X133288190Y-134311068D01*
X133286107Y-134167217D01*
X133284517Y-133991456D01*
X133283358Y-133780544D01*
X133282568Y-133531239D01*
X133282086Y-133240300D01*
X133281851Y-132904484D01*
X133281800Y-132590500D01*
X133281877Y-132215115D01*
X133282150Y-131887288D01*
X133282681Y-131603778D01*
X133283530Y-131361341D01*
X133284759Y-131156738D01*
X133285948Y-131035729D01*
X133561199Y-131035729D01*
X133571637Y-131060638D01*
X133597944Y-131114844D01*
X133611999Y-131142699D01*
X133622932Y-131165774D01*
X133632174Y-131191420D01*
X133639867Y-131223859D01*
X133646152Y-131267308D01*
X133651172Y-131325988D01*
X133655068Y-131404117D01*
X133657983Y-131505917D01*
X133660057Y-131635605D01*
X133661434Y-131797401D01*
X133662254Y-131995525D01*
X133662659Y-132234197D01*
X133662791Y-132517635D01*
X133662799Y-132654290D01*
X133662439Y-132917726D01*
X133661402Y-133166037D01*
X133659756Y-133394556D01*
X133657568Y-133598618D01*
X133654903Y-133773558D01*
X133651830Y-133914711D01*
X133648415Y-134017410D01*
X133644724Y-134076991D01*
X133642224Y-134090370D01*
X133617800Y-134130136D01*
X133591968Y-134184350D01*
X133562289Y-134254200D01*
X134088794Y-134253811D01*
X134243967Y-134252849D01*
X134378350Y-134250381D01*
X134484999Y-134246674D01*
X134556970Y-134241992D01*
X134587319Y-134236600D01*
X134587094Y-134234761D01*
X134557145Y-134200826D01*
X134521332Y-134142626D01*
X134517244Y-134134811D01*
X134502318Y-134097521D01*
X134491307Y-134047267D01*
X134483669Y-133976556D01*
X134478866Y-133877898D01*
X134476356Y-133743800D01*
X134475601Y-133566772D01*
X134475600Y-133556961D01*
X134476833Y-133379347D01*
X134480396Y-133236876D01*
X134486078Y-133133727D01*
X134493672Y-133074078D01*
X134500414Y-133060400D01*
X134529914Y-133079770D01*
X134567641Y-133126744D01*
X134569915Y-133130250D01*
X134610493Y-133187268D01*
X134644699Y-133225500D01*
X134675147Y-133262632D01*
X134715083Y-133324966D01*
X134728671Y-133348833D01*
X134770820Y-133415930D01*
X134833527Y-133504720D01*
X134904592Y-133598064D01*
X134918542Y-133615533D01*
X135026661Y-133758344D01*
X135117138Y-133894967D01*
X135185389Y-134017349D01*
X135226831Y-134117440D01*
X135237600Y-134175923D01*
X135237600Y-134254200D01*
X136364055Y-134254200D01*
X136351929Y-134240488D01*
X136507600Y-134240488D01*
X136531699Y-134244757D01*
X136598796Y-134248485D01*
X136701089Y-134251448D01*
X136830778Y-134253426D01*
X136980061Y-134254196D01*
X136990200Y-134254200D01*
X137166967Y-134253408D01*
X137298101Y-134250806D01*
X137388747Y-134246056D01*
X137444050Y-134238818D01*
X137469156Y-134228752D01*
X137471992Y-134222450D01*
X137457038Y-134178554D01*
X137433892Y-134141395D01*
X137424698Y-134122692D01*
X137417102Y-134090195D01*
X137410959Y-134039498D01*
X137406127Y-133966196D01*
X137402464Y-133865883D01*
X137399826Y-133734154D01*
X137398070Y-133566604D01*
X137397053Y-133358827D01*
X137396633Y-133106418D01*
X137396600Y-132992045D01*
X137396600Y-131892000D01*
X136531695Y-131892000D01*
X136570447Y-131966938D01*
X136580478Y-131992815D01*
X136588667Y-132031092D01*
X136595192Y-132086607D01*
X136600226Y-132164197D01*
X136603947Y-132268700D01*
X136606529Y-132404954D01*
X136608148Y-132577797D01*
X136608979Y-132792067D01*
X136609200Y-133034750D01*
X136609086Y-133286440D01*
X136608585Y-133492511D01*
X136607455Y-133658147D01*
X136605455Y-133788527D01*
X136602345Y-133888835D01*
X136597883Y-133964251D01*
X136591829Y-134019957D01*
X136583941Y-134061135D01*
X136573979Y-134092967D01*
X136561701Y-134120635D01*
X136558400Y-134127200D01*
X136527490Y-134190636D01*
X136509480Y-134233110D01*
X136507600Y-134240488D01*
X136351929Y-134240488D01*
X136302477Y-134184570D01*
X136258555Y-134135266D01*
X136230373Y-134104290D01*
X136228200Y-134102020D01*
X136170445Y-134038905D01*
X136098963Y-133954689D01*
X136023897Y-133862065D01*
X135955391Y-133773725D01*
X135903588Y-133702361D01*
X135883376Y-133670547D01*
X135843155Y-133606584D01*
X135779662Y-133515299D01*
X135701804Y-133408680D01*
X135618487Y-133298715D01*
X135538617Y-133197390D01*
X135476273Y-133122607D01*
X135415829Y-133045548D01*
X135359159Y-132961943D01*
X135354978Y-132955050D01*
X135227637Y-132756936D01*
X135131994Y-132626356D01*
X135062036Y-132535212D01*
X135143468Y-132447760D01*
X135213660Y-132368661D01*
X135303715Y-132261892D01*
X135403057Y-132140451D01*
X135501107Y-132017339D01*
X135587289Y-131905555D01*
X135616151Y-131866815D01*
X135920941Y-131486892D01*
X136160279Y-131229787D01*
X136359059Y-131028400D01*
X135813747Y-131028400D01*
X135628550Y-131028523D01*
X135487998Y-131029861D01*
X135385937Y-131033867D01*
X135316212Y-131041993D01*
X135272669Y-131055691D01*
X135249153Y-131076416D01*
X135239511Y-131105618D01*
X135237586Y-131144751D01*
X135237600Y-131164390D01*
X135222012Y-131217842D01*
X135182941Y-131285121D01*
X135165299Y-131308362D01*
X135106652Y-131385668D01*
X135043890Y-131476586D01*
X135021802Y-131511000D01*
X134978552Y-131577764D01*
X134944912Y-131624931D01*
X134933239Y-131638000D01*
X134903445Y-131667339D01*
X134854245Y-131723018D01*
X134794522Y-131794108D01*
X134733162Y-131869681D01*
X134679047Y-131938808D01*
X134641063Y-131990561D01*
X134628000Y-132013483D01*
X134611182Y-132042974D01*
X134569146Y-132090717D01*
X134551799Y-132107900D01*
X134475599Y-132180904D01*
X134475600Y-131761088D01*
X134477193Y-131578302D01*
X134482895Y-131435476D01*
X134494093Y-131321840D01*
X134512172Y-131226629D01*
X134538518Y-131139075D01*
X134564164Y-131072850D01*
X134567394Y-131057771D01*
X134558649Y-131046538D01*
X134531705Y-131038591D01*
X134480338Y-131033367D01*
X134398324Y-131030303D01*
X134279439Y-131028838D01*
X134117460Y-131028410D01*
X134071917Y-131028400D01*
X133917083Y-131028746D01*
X133781122Y-131029712D01*
X133671617Y-131031190D01*
X133596151Y-131033071D01*
X133562308Y-131035245D01*
X133561199Y-131035729D01*
X133285948Y-131035729D01*
X133286430Y-130986725D01*
X133288604Y-130848060D01*
X133291342Y-130737503D01*
X133294707Y-130651811D01*
X133298758Y-130587742D01*
X133303558Y-130542055D01*
X133309168Y-130511507D01*
X133315650Y-130492858D01*
X133321714Y-130484114D01*
X133334178Y-130475934D01*
X133356437Y-130468938D01*
X133392191Y-130463034D01*
X133445141Y-130458133D01*
X133518988Y-130454144D01*
X133617431Y-130450978D01*
X133744173Y-130448544D01*
X133902913Y-130446752D01*
X134097353Y-130445511D01*
X134331193Y-130444733D01*
X134608135Y-130444326D01*
X134931878Y-130444200D01*
X136558400Y-130444200D01*
X136558400Y-130540418D01*
X136578479Y-130656335D01*
X136631525Y-130775000D01*
X136706754Y-130875991D01*
X136759006Y-130920244D01*
X136872546Y-130967370D01*
X137003500Y-130977636D01*
X137137628Y-130953918D01*
X137260690Y-130899089D01*
X137358448Y-130816023D01*
X137373800Y-130796147D01*
X137420806Y-130695428D01*
X137442439Y-130579877D01*
X137453690Y-130444199D01*
X137563030Y-130444200D01*
X137596580Y-130442977D01*
X137625931Y-130441421D01*
X137651363Y-130442699D01*
X137651363Y-130442699D01*
G37*
X137651363Y-130442699D02*
X137673155Y-130449976D01*
X137691586Y-130466420D01*
X137706935Y-130495197D01*
X137719481Y-130539474D01*
X137729505Y-130602418D01*
X137737283Y-130687194D01*
X137743096Y-130796971D01*
X137747223Y-130934914D01*
X137749943Y-131104191D01*
X137751535Y-131307968D01*
X137752277Y-131549411D01*
X137752450Y-131831687D01*
X137752332Y-132157964D01*
X137752203Y-132531407D01*
X137752200Y-132590500D01*
X137752122Y-132965884D01*
X137751849Y-133293711D01*
X137751318Y-133577221D01*
X137750469Y-133819658D01*
X137749240Y-134024261D01*
X137747569Y-134194274D01*
X137745395Y-134332939D01*
X137742657Y-134443496D01*
X137739292Y-134529188D01*
X137735241Y-134593257D01*
X137730441Y-134638944D01*
X137724831Y-134669492D01*
X137718349Y-134688141D01*
X137712285Y-134696885D01*
X137701209Y-134703992D01*
X137681001Y-134710213D01*
X137648490Y-134715606D01*
X137600503Y-134720229D01*
X137533867Y-134724140D01*
X137445410Y-134727396D01*
X137331960Y-134730056D01*
X137190344Y-134732175D01*
X137017390Y-134733813D01*
X136809924Y-134735028D01*
X136564776Y-134735876D01*
X136278771Y-134736415D01*
X135948739Y-134736703D01*
X135571505Y-134736798D01*
X135516999Y-134736800D01*
X135133176Y-134736726D01*
X134796980Y-134736467D01*
X134505239Y-134735965D01*
X134254781Y-134735162D01*
X134042432Y-134734000D01*
X133865021Y-134732422D01*
X133719375Y-134730371D01*
X133602322Y-134727787D01*
X133510688Y-134724615D01*
X133441303Y-134720795D01*
X133390992Y-134716271D01*
X133356584Y-134710985D01*
X133334907Y-134704879D01*
X133322787Y-134697895D01*
X133321714Y-134696885D01*
X133314465Y-134685627D01*
X133308138Y-134665152D01*
X133302672Y-134632219D01*
X133298006Y-134583586D01*
X133294078Y-134516011D01*
X133290826Y-134426252D01*
X133288190Y-134311068D01*
X133286107Y-134167217D01*
X133284517Y-133991456D01*
X133283358Y-133780544D01*
X133282568Y-133531239D01*
X133282086Y-133240300D01*
X133281851Y-132904484D01*
X133281800Y-132590500D01*
X133281877Y-132215115D01*
X133282150Y-131887288D01*
X133282681Y-131603778D01*
X133283530Y-131361341D01*
X133284759Y-131156738D01*
X133285948Y-131035729D01*
X133561199Y-131035729D01*
X133571637Y-131060638D01*
X133597944Y-131114844D01*
X133611999Y-131142699D01*
X133622932Y-131165774D01*
X133632174Y-131191420D01*
X133639867Y-131223859D01*
X133646152Y-131267308D01*
X133651172Y-131325988D01*
X133655068Y-131404117D01*
X133657983Y-131505917D01*
X133660057Y-131635605D01*
X133661434Y-131797401D01*
X133662254Y-131995525D01*
X133662659Y-132234197D01*
X133662791Y-132517635D01*
X133662799Y-132654290D01*
X133662439Y-132917726D01*
X133661402Y-133166037D01*
X133659756Y-133394556D01*
X133657568Y-133598618D01*
X133654903Y-133773558D01*
X133651830Y-133914711D01*
X133648415Y-134017410D01*
X133644724Y-134076991D01*
X133642224Y-134090370D01*
X133617800Y-134130136D01*
X133591968Y-134184350D01*
X133562289Y-134254200D01*
X134088794Y-134253811D01*
X134243967Y-134252849D01*
X134378350Y-134250381D01*
X134484999Y-134246674D01*
X134556970Y-134241992D01*
X134587319Y-134236600D01*
X134587094Y-134234761D01*
X134557145Y-134200826D01*
X134521332Y-134142626D01*
X134517244Y-134134811D01*
X134502318Y-134097521D01*
X134491307Y-134047267D01*
X134483669Y-133976556D01*
X134478866Y-133877898D01*
X134476356Y-133743800D01*
X134475601Y-133566772D01*
X134475600Y-133556961D01*
X134476833Y-133379347D01*
X134480396Y-133236876D01*
X134486078Y-133133727D01*
X134493672Y-133074078D01*
X134500414Y-133060400D01*
X134529914Y-133079770D01*
X134567641Y-133126744D01*
X134569915Y-133130250D01*
X134610493Y-133187268D01*
X134644699Y-133225500D01*
X134675147Y-133262632D01*
X134715083Y-133324966D01*
X134728671Y-133348833D01*
X134770820Y-133415930D01*
X134833527Y-133504720D01*
X134904592Y-133598064D01*
X134918542Y-133615533D01*
X135026661Y-133758344D01*
X135117138Y-133894967D01*
X135185389Y-134017349D01*
X135226831Y-134117440D01*
X135237600Y-134175923D01*
X135237600Y-134254200D01*
X136364055Y-134254200D01*
X136351929Y-134240488D01*
X136507600Y-134240488D01*
X136531699Y-134244757D01*
X136598796Y-134248485D01*
X136701089Y-134251448D01*
X136830778Y-134253426D01*
X136980061Y-134254196D01*
X136990200Y-134254200D01*
X137166967Y-134253408D01*
X137298101Y-134250806D01*
X137388747Y-134246056D01*
X137444050Y-134238818D01*
X137469156Y-134228752D01*
X137471992Y-134222450D01*
X137457038Y-134178554D01*
X137433892Y-134141395D01*
X137424698Y-134122692D01*
X137417102Y-134090195D01*
X137410959Y-134039498D01*
X137406127Y-133966196D01*
X137402464Y-133865883D01*
X137399826Y-133734154D01*
X137398070Y-133566604D01*
X137397053Y-133358827D01*
X137396633Y-133106418D01*
X137396600Y-132992045D01*
X137396600Y-131892000D01*
X136531695Y-131892000D01*
X136570447Y-131966938D01*
X136580478Y-131992815D01*
X136588667Y-132031092D01*
X136595192Y-132086607D01*
X136600226Y-132164197D01*
X136603947Y-132268700D01*
X136606529Y-132404954D01*
X136608148Y-132577797D01*
X136608979Y-132792067D01*
X136609200Y-133034750D01*
X136609086Y-133286440D01*
X136608585Y-133492511D01*
X136607455Y-133658147D01*
X136605455Y-133788527D01*
X136602345Y-133888835D01*
X136597883Y-133964251D01*
X136591829Y-134019957D01*
X136583941Y-134061135D01*
X136573979Y-134092967D01*
X136561701Y-134120635D01*
X136558400Y-134127200D01*
X136527490Y-134190636D01*
X136509480Y-134233110D01*
X136507600Y-134240488D01*
X136351929Y-134240488D01*
X136302477Y-134184570D01*
X136258555Y-134135266D01*
X136230373Y-134104290D01*
X136228200Y-134102020D01*
X136170445Y-134038905D01*
X136098963Y-133954689D01*
X136023897Y-133862065D01*
X135955391Y-133773725D01*
X135903588Y-133702361D01*
X135883376Y-133670547D01*
X135843155Y-133606584D01*
X135779662Y-133515299D01*
X135701804Y-133408680D01*
X135618487Y-133298715D01*
X135538617Y-133197390D01*
X135476273Y-133122607D01*
X135415829Y-133045548D01*
X135359159Y-132961943D01*
X135354978Y-132955050D01*
X135227637Y-132756936D01*
X135131994Y-132626356D01*
X135062036Y-132535212D01*
X135143468Y-132447760D01*
X135213660Y-132368661D01*
X135303715Y-132261892D01*
X135403057Y-132140451D01*
X135501107Y-132017339D01*
X135587289Y-131905555D01*
X135616151Y-131866815D01*
X135920941Y-131486892D01*
X136160279Y-131229787D01*
X136359059Y-131028400D01*
X135813747Y-131028400D01*
X135628550Y-131028523D01*
X135487998Y-131029861D01*
X135385937Y-131033867D01*
X135316212Y-131041993D01*
X135272669Y-131055691D01*
X135249153Y-131076416D01*
X135239511Y-131105618D01*
X135237586Y-131144751D01*
X135237600Y-131164390D01*
X135222012Y-131217842D01*
X135182941Y-131285121D01*
X135165299Y-131308362D01*
X135106652Y-131385668D01*
X135043890Y-131476586D01*
X135021802Y-131511000D01*
X134978552Y-131577764D01*
X134944912Y-131624931D01*
X134933239Y-131638000D01*
X134903445Y-131667339D01*
X134854245Y-131723018D01*
X134794522Y-131794108D01*
X134733162Y-131869681D01*
X134679047Y-131938808D01*
X134641063Y-131990561D01*
X134628000Y-132013483D01*
X134611182Y-132042974D01*
X134569146Y-132090717D01*
X134551799Y-132107900D01*
X134475599Y-132180904D01*
X134475600Y-131761088D01*
X134477193Y-131578302D01*
X134482895Y-131435476D01*
X134494093Y-131321840D01*
X134512172Y-131226629D01*
X134538518Y-131139075D01*
X134564164Y-131072850D01*
X134567394Y-131057771D01*
X134558649Y-131046538D01*
X134531705Y-131038591D01*
X134480338Y-131033367D01*
X134398324Y-131030303D01*
X134279439Y-131028838D01*
X134117460Y-131028410D01*
X134071917Y-131028400D01*
X133917083Y-131028746D01*
X133781122Y-131029712D01*
X133671617Y-131031190D01*
X133596151Y-131033071D01*
X133562308Y-131035245D01*
X133561199Y-131035729D01*
X133285948Y-131035729D01*
X133286430Y-130986725D01*
X133288604Y-130848060D01*
X133291342Y-130737503D01*
X133294707Y-130651811D01*
X133298758Y-130587742D01*
X133303558Y-130542055D01*
X133309168Y-130511507D01*
X133315650Y-130492858D01*
X133321714Y-130484114D01*
X133334178Y-130475934D01*
X133356437Y-130468938D01*
X133392191Y-130463034D01*
X133445141Y-130458133D01*
X133518988Y-130454144D01*
X133617431Y-130450978D01*
X133744173Y-130448544D01*
X133902913Y-130446752D01*
X134097353Y-130445511D01*
X134331193Y-130444733D01*
X134608135Y-130444326D01*
X134931878Y-130444200D01*
X136558400Y-130444200D01*
X136558400Y-130540418D01*
X136578479Y-130656335D01*
X136631525Y-130775000D01*
X136706754Y-130875991D01*
X136759006Y-130920244D01*
X136872546Y-130967370D01*
X137003500Y-130977636D01*
X137137628Y-130953918D01*
X137260690Y-130899089D01*
X137358448Y-130816023D01*
X137373800Y-130796147D01*
X137420806Y-130695428D01*
X137442439Y-130579877D01*
X137453690Y-130444199D01*
X137563030Y-130444200D01*
X137596580Y-130442977D01*
X137625931Y-130441421D01*
X137651363Y-130442699D01*
G36*
X139744676Y-131006341D02*
X139785911Y-131016143D01*
X139856879Y-131038829D01*
X139952173Y-131074963D01*
X140059521Y-131119187D01*
X140166653Y-131166147D01*
X140261298Y-131210487D01*
X140331185Y-131246851D01*
X140362064Y-131267598D01*
X140352374Y-131290582D01*
X140320036Y-131345508D01*
X140271464Y-131422651D01*
X140213074Y-131512288D01*
X140151281Y-131604695D01*
X140092502Y-131690151D01*
X140043152Y-131758930D01*
X140010677Y-131800159D01*
X139982236Y-131797624D01*
X139930081Y-131767335D01*
X139886407Y-131733312D01*
X139741298Y-131641226D01*
X139576487Y-131595559D01*
X139418098Y-131594284D01*
X139247398Y-131634902D01*
X139103259Y-131718127D01*
X138986245Y-131842925D01*
X138896919Y-132008260D01*
X138835843Y-132213097D01*
X138803581Y-132456401D01*
X138800426Y-132730200D01*
X138821867Y-132977826D01*
X138866984Y-133183741D01*
X138937630Y-133352105D01*
X139035657Y-133487080D01*
X139162917Y-133592826D01*
X139192579Y-133611151D01*
X139269773Y-133651415D01*
X139341238Y-133672876D01*
X139429027Y-133680676D01*
X139492100Y-133681009D01*
X139651817Y-133665354D01*
X139790547Y-133617392D01*
X139924625Y-133530613D01*
X139974846Y-133488663D01*
X140029092Y-133444162D01*
X140065414Y-133420225D01*
X140073055Y-133418969D01*
X140095216Y-133452288D01*
X140134498Y-133516333D01*
X140185230Y-133601348D01*
X140241743Y-133697575D01*
X140298366Y-133795257D01*
X140349431Y-133884636D01*
X140389265Y-133955956D01*
X140412201Y-133999460D01*
X140415453Y-134008180D01*
X140390218Y-134021554D01*
X140332344Y-134052253D01*
X140254062Y-134093786D01*
X140249457Y-134096230D01*
X140087147Y-134176612D01*
X139944212Y-134231928D01*
X139802272Y-134266986D01*
X139642947Y-134286593D01*
X139492100Y-134294340D01*
X139299285Y-134295569D01*
X139147250Y-134286113D01*
X139056436Y-134270565D01*
X138824201Y-134185718D01*
X138611159Y-134056718D01*
X138421366Y-133887906D01*
X138258878Y-133683623D01*
X138127752Y-133448209D01*
X138032044Y-133186005D01*
X138027548Y-133169632D01*
X137991250Y-132983026D01*
X137972345Y-132768920D01*
X137970823Y-132545257D01*
X137986669Y-132329982D01*
X138019872Y-132141040D01*
X138028297Y-132109044D01*
X138130061Y-131835435D01*
X138272732Y-131589468D01*
X138453804Y-131374653D01*
X138670770Y-131194495D01*
X138692000Y-131180082D01*
X138869644Y-131087504D01*
X139077698Y-131021748D01*
X139302198Y-130984907D01*
X139529178Y-130979073D01*
X139744676Y-131006341D01*
X139744676Y-131006341D01*
G37*
X139744676Y-131006341D02*
X139785911Y-131016143D01*
X139856879Y-131038829D01*
X139952173Y-131074963D01*
X140059521Y-131119187D01*
X140166653Y-131166147D01*
X140261298Y-131210487D01*
X140331185Y-131246851D01*
X140362064Y-131267598D01*
X140352374Y-131290582D01*
X140320036Y-131345508D01*
X140271464Y-131422651D01*
X140213074Y-131512288D01*
X140151281Y-131604695D01*
X140092502Y-131690151D01*
X140043152Y-131758930D01*
X140010677Y-131800159D01*
X139982236Y-131797624D01*
X139930081Y-131767335D01*
X139886407Y-131733312D01*
X139741298Y-131641226D01*
X139576487Y-131595559D01*
X139418098Y-131594284D01*
X139247398Y-131634902D01*
X139103259Y-131718127D01*
X138986245Y-131842925D01*
X138896919Y-132008260D01*
X138835843Y-132213097D01*
X138803581Y-132456401D01*
X138800426Y-132730200D01*
X138821867Y-132977826D01*
X138866984Y-133183741D01*
X138937630Y-133352105D01*
X139035657Y-133487080D01*
X139162917Y-133592826D01*
X139192579Y-133611151D01*
X139269773Y-133651415D01*
X139341238Y-133672876D01*
X139429027Y-133680676D01*
X139492100Y-133681009D01*
X139651817Y-133665354D01*
X139790547Y-133617392D01*
X139924625Y-133530613D01*
X139974846Y-133488663D01*
X140029092Y-133444162D01*
X140065414Y-133420225D01*
X140073055Y-133418969D01*
X140095216Y-133452288D01*
X140134498Y-133516333D01*
X140185230Y-133601348D01*
X140241743Y-133697575D01*
X140298366Y-133795257D01*
X140349431Y-133884636D01*
X140389265Y-133955956D01*
X140412201Y-133999460D01*
X140415453Y-134008180D01*
X140390218Y-134021554D01*
X140332344Y-134052253D01*
X140254062Y-134093786D01*
X140249457Y-134096230D01*
X140087147Y-134176612D01*
X139944212Y-134231928D01*
X139802272Y-134266986D01*
X139642947Y-134286593D01*
X139492100Y-134294340D01*
X139299285Y-134295569D01*
X139147250Y-134286113D01*
X139056436Y-134270565D01*
X138824201Y-134185718D01*
X138611159Y-134056718D01*
X138421366Y-133887906D01*
X138258878Y-133683623D01*
X138127752Y-133448209D01*
X138032044Y-133186005D01*
X138027548Y-133169632D01*
X137991250Y-132983026D01*
X137972345Y-132768920D01*
X137970823Y-132545257D01*
X137986669Y-132329982D01*
X138019872Y-132141040D01*
X138028297Y-132109044D01*
X138130061Y-131835435D01*
X138272732Y-131589468D01*
X138453804Y-131374653D01*
X138670770Y-131194495D01*
X138692000Y-131180082D01*
X138869644Y-131087504D01*
X139077698Y-131021748D01*
X139302198Y-130984907D01*
X139529178Y-130979073D01*
X139744676Y-131006341D01*
G36*
X141827620Y-131852359D02*
X142003576Y-131892264D01*
X142122513Y-131936895D01*
X142215098Y-131992778D01*
X142297779Y-132066360D01*
X142350917Y-132121188D01*
X142394396Y-132172829D01*
X142429291Y-132226992D01*
X142456676Y-132289387D01*
X142477624Y-132365723D01*
X142493209Y-132461710D01*
X142504504Y-132583058D01*
X142512585Y-132735475D01*
X142518523Y-132924670D01*
X142523394Y-133156355D01*
X142525549Y-133277477D01*
X142529807Y-133509434D01*
X142533930Y-133696051D01*
X142538276Y-133842785D01*
X142543203Y-133955095D01*
X142549068Y-134038437D01*
X142556231Y-134098269D01*
X142565049Y-134140049D01*
X142575880Y-134169234D01*
X142585135Y-134185527D01*
X142630171Y-134254200D01*
X141819418Y-134254200D01*
X141803500Y-134100698D01*
X141704102Y-134168483D01*
X141547946Y-134247254D01*
X141367092Y-134293178D01*
X141177295Y-134304137D01*
X140994309Y-134278011D01*
X140960834Y-134268436D01*
X140774429Y-134186112D01*
X140623520Y-134068585D01*
X140510652Y-133919321D01*
X140438375Y-133741786D01*
X140409235Y-133539443D01*
X140408788Y-133517600D01*
X140409452Y-133488545D01*
X141137707Y-133488545D01*
X141141963Y-133577884D01*
X141152090Y-133608502D01*
X141214779Y-133689089D01*
X141309723Y-133743481D01*
X141423327Y-133767352D01*
X141541996Y-133756378D01*
X141579596Y-133744508D01*
X141666783Y-133702968D01*
X141722424Y-133650366D01*
X141752894Y-133575280D01*
X141764566Y-133466289D01*
X141765400Y-133411572D01*
X141765400Y-133212800D01*
X141599484Y-133212800D01*
X141435747Y-133227824D01*
X141297128Y-133270733D01*
X141201676Y-133331555D01*
X141159069Y-133398298D01*
X141137707Y-133488545D01*
X140409452Y-133488545D01*
X140411403Y-133403273D01*
X140425051Y-133315974D01*
X140454550Y-133232311D01*
X140477882Y-133182215D01*
X140582223Y-133025636D01*
X140726604Y-132899758D01*
X140910369Y-132804878D01*
X141132862Y-132741291D01*
X141393426Y-132709295D01*
X141533794Y-132705241D01*
X141772088Y-132704800D01*
X141758196Y-132601228D01*
X141722262Y-132487960D01*
X141650344Y-132409507D01*
X141543724Y-132366163D01*
X141403687Y-132358223D01*
X141231516Y-132385980D01*
X141054509Y-132440144D01*
X140970051Y-132467413D01*
X140905058Y-132482373D01*
X140873195Y-132481908D01*
X140872862Y-132481589D01*
X140855276Y-132449872D01*
X140825180Y-132383912D01*
X140787902Y-132296745D01*
X140748773Y-132201404D01*
X140713122Y-132110925D01*
X140686280Y-132038340D01*
X140673575Y-131996685D01*
X140673200Y-131993302D01*
X140694990Y-131974617D01*
X140738447Y-131968200D01*
X140790031Y-131962037D01*
X140876850Y-131945424D01*
X140985103Y-131921175D01*
X141062297Y-131902173D01*
X141328096Y-131851360D01*
X141586776Y-131834718D01*
X141827620Y-131852359D01*
X141827620Y-131852359D01*
G37*
X141827620Y-131852359D02*
X142003576Y-131892264D01*
X142122513Y-131936895D01*
X142215098Y-131992778D01*
X142297779Y-132066360D01*
X142350917Y-132121188D01*
X142394396Y-132172829D01*
X142429291Y-132226992D01*
X142456676Y-132289387D01*
X142477624Y-132365723D01*
X142493209Y-132461710D01*
X142504504Y-132583058D01*
X142512585Y-132735475D01*
X142518523Y-132924670D01*
X142523394Y-133156355D01*
X142525549Y-133277477D01*
X142529807Y-133509434D01*
X142533930Y-133696051D01*
X142538276Y-133842785D01*
X142543203Y-133955095D01*
X142549068Y-134038437D01*
X142556231Y-134098269D01*
X142565049Y-134140049D01*
X142575880Y-134169234D01*
X142585135Y-134185527D01*
X142630171Y-134254200D01*
X141819418Y-134254200D01*
X141803500Y-134100698D01*
X141704102Y-134168483D01*
X141547946Y-134247254D01*
X141367092Y-134293178D01*
X141177295Y-134304137D01*
X140994309Y-134278011D01*
X140960834Y-134268436D01*
X140774429Y-134186112D01*
X140623520Y-134068585D01*
X140510652Y-133919321D01*
X140438375Y-133741786D01*
X140409235Y-133539443D01*
X140408788Y-133517600D01*
X140409452Y-133488545D01*
X141137707Y-133488545D01*
X141141963Y-133577884D01*
X141152090Y-133608502D01*
X141214779Y-133689089D01*
X141309723Y-133743481D01*
X141423327Y-133767352D01*
X141541996Y-133756378D01*
X141579596Y-133744508D01*
X141666783Y-133702968D01*
X141722424Y-133650366D01*
X141752894Y-133575280D01*
X141764566Y-133466289D01*
X141765400Y-133411572D01*
X141765400Y-133212800D01*
X141599484Y-133212800D01*
X141435747Y-133227824D01*
X141297128Y-133270733D01*
X141201676Y-133331555D01*
X141159069Y-133398298D01*
X141137707Y-133488545D01*
X140409452Y-133488545D01*
X140411403Y-133403273D01*
X140425051Y-133315974D01*
X140454550Y-133232311D01*
X140477882Y-133182215D01*
X140582223Y-133025636D01*
X140726604Y-132899758D01*
X140910369Y-132804878D01*
X141132862Y-132741291D01*
X141393426Y-132709295D01*
X141533794Y-132705241D01*
X141772088Y-132704800D01*
X141758196Y-132601228D01*
X141722262Y-132487960D01*
X141650344Y-132409507D01*
X141543724Y-132366163D01*
X141403687Y-132358223D01*
X141231516Y-132385980D01*
X141054509Y-132440144D01*
X140970051Y-132467413D01*
X140905058Y-132482373D01*
X140873195Y-132481908D01*
X140872862Y-132481589D01*
X140855276Y-132449872D01*
X140825180Y-132383912D01*
X140787902Y-132296745D01*
X140748773Y-132201404D01*
X140713122Y-132110925D01*
X140686280Y-132038340D01*
X140673575Y-131996685D01*
X140673200Y-131993302D01*
X140694990Y-131974617D01*
X140738447Y-131968200D01*
X140790031Y-131962037D01*
X140876850Y-131945424D01*
X140985103Y-131921175D01*
X141062297Y-131902173D01*
X141328096Y-131851360D01*
X141586776Y-131834718D01*
X141827620Y-131852359D01*
G36*
X145047464Y-132457150D02*
X145049006Y-132787052D01*
X145050566Y-133069981D01*
X145052261Y-133309761D01*
X145054208Y-133510219D01*
X145056523Y-133675181D01*
X145059322Y-133808472D01*
X145062724Y-133913918D01*
X145066844Y-133995345D01*
X145071799Y-134056580D01*
X145077707Y-134101447D01*
X145084683Y-134133774D01*
X145092845Y-134157385D01*
X145099802Y-134171650D01*
X145144904Y-134254200D01*
X144330800Y-134254200D01*
X144330800Y-134178000D01*
X144327441Y-134124452D01*
X144319351Y-134101804D01*
X144319227Y-134101800D01*
X144293109Y-134114784D01*
X144240726Y-134147537D01*
X144213903Y-134165421D01*
X144081603Y-134232647D01*
X143921937Y-134279589D01*
X143753022Y-134303338D01*
X143592977Y-134300984D01*
X143492600Y-134281247D01*
X143308538Y-134199939D01*
X143143410Y-134078200D01*
X143008517Y-133925510D01*
X142947155Y-133823694D01*
X142879731Y-133666029D01*
X142835855Y-133499951D01*
X142812714Y-133311403D01*
X142807241Y-133124913D01*
X142808002Y-133111200D01*
X143608136Y-133111200D01*
X143612634Y-133286895D01*
X143626249Y-133420414D01*
X143651477Y-133519949D01*
X143690812Y-133593691D01*
X143746751Y-133649831D01*
X143779016Y-133672170D01*
X143885421Y-133710164D01*
X144011144Y-133707176D01*
X144146203Y-133663728D01*
X144170499Y-133651773D01*
X144267300Y-133601557D01*
X144274142Y-133052487D01*
X144280985Y-132503416D01*
X144213891Y-132459454D01*
X144150360Y-132432707D01*
X144060668Y-132412044D01*
X144002633Y-132405065D01*
X143914255Y-132401970D01*
X143855291Y-132412095D01*
X143804985Y-132440683D01*
X143778927Y-132461568D01*
X143711583Y-132535167D01*
X143662664Y-132630737D01*
X143630341Y-132755234D01*
X143612787Y-132915611D01*
X143608136Y-133111200D01*
X142808002Y-133111200D01*
X142823675Y-132828965D01*
X142871542Y-132569134D01*
X142950171Y-132346509D01*
X143058889Y-132162180D01*
X143197025Y-132017237D01*
X143363906Y-131912768D01*
X143558860Y-131849864D01*
X143598170Y-131842835D01*
X143713703Y-131834575D01*
X143841063Y-131841429D01*
X143967661Y-131860852D01*
X144080912Y-131890299D01*
X144168228Y-131927225D01*
X144216262Y-131967815D01*
X144237127Y-131992282D01*
X144253170Y-131987192D01*
X144264925Y-131948657D01*
X144272924Y-131872788D01*
X144277702Y-131755701D01*
X144279793Y-131593506D01*
X144280000Y-131503670D01*
X144279477Y-131329573D01*
X144277469Y-131198217D01*
X144273311Y-131101550D01*
X144266343Y-131031519D01*
X144255901Y-130980073D01*
X144241322Y-130939158D01*
X144231938Y-130919470D01*
X144183876Y-130825200D01*
X145040228Y-130825200D01*
X145047464Y-132457150D01*
X145047464Y-132457150D01*
G37*
X145047464Y-132457150D02*
X145049006Y-132787052D01*
X145050566Y-133069981D01*
X145052261Y-133309761D01*
X145054208Y-133510219D01*
X145056523Y-133675181D01*
X145059322Y-133808472D01*
X145062724Y-133913918D01*
X145066844Y-133995345D01*
X145071799Y-134056580D01*
X145077707Y-134101447D01*
X145084683Y-134133774D01*
X145092845Y-134157385D01*
X145099802Y-134171650D01*
X145144904Y-134254200D01*
X144330800Y-134254200D01*
X144330800Y-134178000D01*
X144327441Y-134124452D01*
X144319351Y-134101804D01*
X144319227Y-134101800D01*
X144293109Y-134114784D01*
X144240726Y-134147537D01*
X144213903Y-134165421D01*
X144081603Y-134232647D01*
X143921937Y-134279589D01*
X143753022Y-134303338D01*
X143592977Y-134300984D01*
X143492600Y-134281247D01*
X143308538Y-134199939D01*
X143143410Y-134078200D01*
X143008517Y-133925510D01*
X142947155Y-133823694D01*
X142879731Y-133666029D01*
X142835855Y-133499951D01*
X142812714Y-133311403D01*
X142807241Y-133124913D01*
X142808002Y-133111200D01*
X143608136Y-133111200D01*
X143612634Y-133286895D01*
X143626249Y-133420414D01*
X143651477Y-133519949D01*
X143690812Y-133593691D01*
X143746751Y-133649831D01*
X143779016Y-133672170D01*
X143885421Y-133710164D01*
X144011144Y-133707176D01*
X144146203Y-133663728D01*
X144170499Y-133651773D01*
X144267300Y-133601557D01*
X144274142Y-133052487D01*
X144280985Y-132503416D01*
X144213891Y-132459454D01*
X144150360Y-132432707D01*
X144060668Y-132412044D01*
X144002633Y-132405065D01*
X143914255Y-132401970D01*
X143855291Y-132412095D01*
X143804985Y-132440683D01*
X143778927Y-132461568D01*
X143711583Y-132535167D01*
X143662664Y-132630737D01*
X143630341Y-132755234D01*
X143612787Y-132915611D01*
X143608136Y-133111200D01*
X142808002Y-133111200D01*
X142823675Y-132828965D01*
X142871542Y-132569134D01*
X142950171Y-132346509D01*
X143058889Y-132162180D01*
X143197025Y-132017237D01*
X143363906Y-131912768D01*
X143558860Y-131849864D01*
X143598170Y-131842835D01*
X143713703Y-131834575D01*
X143841063Y-131841429D01*
X143967661Y-131860852D01*
X144080912Y-131890299D01*
X144168228Y-131927225D01*
X144216262Y-131967815D01*
X144237127Y-131992282D01*
X144253170Y-131987192D01*
X144264925Y-131948657D01*
X144272924Y-131872788D01*
X144277702Y-131755701D01*
X144279793Y-131593506D01*
X144280000Y-131503670D01*
X144279477Y-131329573D01*
X144277469Y-131198217D01*
X144273311Y-131101550D01*
X144266343Y-131031519D01*
X144255901Y-130980073D01*
X144241322Y-130939158D01*
X144231938Y-130919470D01*
X144183876Y-130825200D01*
X145040228Y-130825200D01*
X145047464Y-132457150D01*
D11*
X143928683Y-119342501D02*
X143595349Y-118866310D01*
X143357254Y-119342501D02*
X143357254Y-118342501D01*
X143738207Y-118342501D01*
X143833445Y-118390120D01*
X143881064Y-118437739D01*
X143928683Y-118532977D01*
X143928683Y-118675834D01*
X143881064Y-118771072D01*
X143833445Y-118818691D01*
X143738207Y-118866310D01*
X143357254Y-118866310D01*
X144881064Y-119342501D02*
X144309635Y-119342501D01*
X144595349Y-119342501D02*
X144595349Y-118342501D01*
X144500111Y-118485358D01*
X144404873Y-118580596D01*
X144309635Y-118628215D01*
X145785826Y-118342501D02*
X145309635Y-118342501D01*
X145262016Y-118818691D01*
X145309635Y-118771072D01*
X145404873Y-118723453D01*
X145642969Y-118723453D01*
X145738207Y-118771072D01*
X145785826Y-118818691D01*
X145833445Y-118913930D01*
X145833445Y-119152025D01*
X145785826Y-119247263D01*
X145738207Y-119294882D01*
X145642969Y-119342501D01*
X145404873Y-119342501D01*
X145309635Y-119294882D01*
X145262016Y-119247263D01*
X152410255Y-123430161D02*
X152410255Y-124239685D01*
X152457874Y-124334923D01*
X152505493Y-124382542D01*
X152600731Y-124430161D01*
X152791208Y-124430161D01*
X152886446Y-124382542D01*
X152934065Y-124334923D01*
X152981684Y-124239685D01*
X152981684Y-123430161D01*
X153410255Y-123525399D02*
X153457874Y-123477780D01*
X153553112Y-123430161D01*
X153791208Y-123430161D01*
X153886446Y-123477780D01*
X153934065Y-123525399D01*
X153981684Y-123620637D01*
X153981684Y-123715875D01*
X153934065Y-123858732D01*
X153362636Y-124430161D01*
X153981684Y-124430161D01*
X95991775Y-109428921D02*
X95991775Y-110238445D01*
X96039394Y-110333683D01*
X96087013Y-110381302D01*
X96182251Y-110428921D01*
X96372728Y-110428921D01*
X96467966Y-110381302D01*
X96515585Y-110333683D01*
X96563204Y-110238445D01*
X96563204Y-109428921D01*
X97563204Y-110428921D02*
X96991775Y-110428921D01*
X97277489Y-110428921D02*
X97277489Y-109428921D01*
X97182251Y-109571778D01*
X97087013Y-109667016D01*
X96991775Y-109714635D01*
X86233334Y-114957143D02*
X86185715Y-115004762D01*
X86042858Y-115052381D01*
X85947620Y-115052381D01*
X85804762Y-115004762D01*
X85709524Y-114909524D01*
X85661905Y-114814286D01*
X85614286Y-114623810D01*
X85614286Y-114480952D01*
X85661905Y-114290476D01*
X85709524Y-114195238D01*
X85804762Y-114100000D01*
X85947620Y-114052381D01*
X86042858Y-114052381D01*
X86185715Y-114100000D01*
X86233334Y-114147619D01*
X87185715Y-115052381D02*
X86614286Y-115052381D01*
X86900000Y-115052381D02*
X86900000Y-114052381D01*
X86804762Y-114195238D01*
X86709524Y-114290476D01*
X86614286Y-114338095D01*
X123433334Y-126357143D02*
X123385715Y-126404762D01*
X123242858Y-126452381D01*
X123147620Y-126452381D01*
X123004762Y-126404762D01*
X122909524Y-126309524D01*
X122861905Y-126214286D01*
X122814286Y-126023810D01*
X122814286Y-125880952D01*
X122861905Y-125690476D01*
X122909524Y-125595238D01*
X123004762Y-125500000D01*
X123147620Y-125452381D01*
X123242858Y-125452381D01*
X123385715Y-125500000D01*
X123433334Y-125547619D01*
X123814286Y-125547619D02*
X123861905Y-125500000D01*
X123957143Y-125452381D01*
X124195239Y-125452381D01*
X124290477Y-125500000D01*
X124338096Y-125547619D01*
X124385715Y-125642857D01*
X124385715Y-125738095D01*
X124338096Y-125880952D01*
X123766667Y-126452381D01*
X124385715Y-126452381D01*
X85833334Y-120757143D02*
X85785715Y-120804762D01*
X85642858Y-120852381D01*
X85547620Y-120852381D01*
X85404762Y-120804762D01*
X85309524Y-120709524D01*
X85261905Y-120614286D01*
X85214286Y-120423810D01*
X85214286Y-120280952D01*
X85261905Y-120090476D01*
X85309524Y-119995238D01*
X85404762Y-119900000D01*
X85547620Y-119852381D01*
X85642858Y-119852381D01*
X85785715Y-119900000D01*
X85833334Y-119947619D01*
X86166667Y-119852381D02*
X86785715Y-119852381D01*
X86452381Y-120233333D01*
X86595239Y-120233333D01*
X86690477Y-120280952D01*
X86738096Y-120328571D01*
X86785715Y-120423810D01*
X86785715Y-120661905D01*
X86738096Y-120757143D01*
X86690477Y-120804762D01*
X86595239Y-120852381D01*
X86309524Y-120852381D01*
X86214286Y-120804762D01*
X86166667Y-120757143D01*
X143433334Y-125757143D02*
X143385715Y-125804762D01*
X143242858Y-125852381D01*
X143147620Y-125852381D01*
X143004762Y-125804762D01*
X142909524Y-125709524D01*
X142861905Y-125614286D01*
X142814286Y-125423810D01*
X142814286Y-125280952D01*
X142861905Y-125090476D01*
X142909524Y-124995238D01*
X143004762Y-124900000D01*
X143147620Y-124852381D01*
X143242858Y-124852381D01*
X143385715Y-124900000D01*
X143433334Y-124947619D01*
X144290477Y-125185714D02*
X144290477Y-125852381D01*
X144052381Y-124804762D02*
X143814286Y-125519048D01*
X144433334Y-125519048D01*
X162794614Y-121725643D02*
X162746995Y-121773262D01*
X162604138Y-121820881D01*
X162508900Y-121820881D01*
X162366042Y-121773262D01*
X162270804Y-121678024D01*
X162223185Y-121582786D01*
X162175566Y-121392310D01*
X162175566Y-121249452D01*
X162223185Y-121058976D01*
X162270804Y-120963738D01*
X162366042Y-120868500D01*
X162508900Y-120820881D01*
X162604138Y-120820881D01*
X162746995Y-120868500D01*
X162794614Y-120916119D01*
X163699376Y-120820881D02*
X163223185Y-120820881D01*
X163175566Y-121297071D01*
X163223185Y-121249452D01*
X163318423Y-121201833D01*
X163556519Y-121201833D01*
X163651757Y-121249452D01*
X163699376Y-121297071D01*
X163746995Y-121392310D01*
X163746995Y-121630405D01*
X163699376Y-121725643D01*
X163651757Y-121773262D01*
X163556519Y-121820881D01*
X163318423Y-121820881D01*
X163223185Y-121773262D01*
X163175566Y-121725643D01*
X80033334Y-118957143D02*
X79985715Y-119004762D01*
X79842858Y-119052381D01*
X79747620Y-119052381D01*
X79604762Y-119004762D01*
X79509524Y-118909524D01*
X79461905Y-118814286D01*
X79414286Y-118623810D01*
X79414286Y-118480952D01*
X79461905Y-118290476D01*
X79509524Y-118195238D01*
X79604762Y-118100000D01*
X79747620Y-118052381D01*
X79842858Y-118052381D01*
X79985715Y-118100000D01*
X80033334Y-118147619D01*
X80890477Y-118052381D02*
X80700000Y-118052381D01*
X80604762Y-118100000D01*
X80557143Y-118147619D01*
X80461905Y-118290476D01*
X80414286Y-118480952D01*
X80414286Y-118861905D01*
X80461905Y-118957143D01*
X80509524Y-119004762D01*
X80604762Y-119052381D01*
X80795239Y-119052381D01*
X80890477Y-119004762D01*
X80938096Y-118957143D01*
X80985715Y-118861905D01*
X80985715Y-118623810D01*
X80938096Y-118528571D01*
X80890477Y-118480952D01*
X80795239Y-118433333D01*
X80604762Y-118433333D01*
X80509524Y-118480952D01*
X80461905Y-118528571D01*
X80414286Y-118623810D01*
X79433334Y-125957143D02*
X79385715Y-126004762D01*
X79242858Y-126052381D01*
X79147620Y-126052381D01*
X79004762Y-126004762D01*
X78909524Y-125909524D01*
X78861905Y-125814286D01*
X78814286Y-125623810D01*
X78814286Y-125480952D01*
X78861905Y-125290476D01*
X78909524Y-125195238D01*
X79004762Y-125100000D01*
X79147620Y-125052381D01*
X79242858Y-125052381D01*
X79385715Y-125100000D01*
X79433334Y-125147619D01*
X79766667Y-125052381D02*
X80433334Y-125052381D01*
X80004762Y-126052381D01*
X89833334Y-125357143D02*
X89785715Y-125404762D01*
X89642858Y-125452381D01*
X89547620Y-125452381D01*
X89404762Y-125404762D01*
X89309524Y-125309524D01*
X89261905Y-125214286D01*
X89214286Y-125023810D01*
X89214286Y-124880952D01*
X89261905Y-124690476D01*
X89309524Y-124595238D01*
X89404762Y-124500000D01*
X89547620Y-124452381D01*
X89642858Y-124452381D01*
X89785715Y-124500000D01*
X89833334Y-124547619D01*
X90404762Y-124880952D02*
X90309524Y-124833333D01*
X90261905Y-124785714D01*
X90214286Y-124690476D01*
X90214286Y-124642857D01*
X90261905Y-124547619D01*
X90309524Y-124500000D01*
X90404762Y-124452381D01*
X90595239Y-124452381D01*
X90690477Y-124500000D01*
X90738096Y-124547619D01*
X90785715Y-124642857D01*
X90785715Y-124690476D01*
X90738096Y-124785714D01*
X90690477Y-124833333D01*
X90595239Y-124880952D01*
X90404762Y-124880952D01*
X90309524Y-124928571D01*
X90261905Y-124976190D01*
X90214286Y-125071429D01*
X90214286Y-125261905D01*
X90261905Y-125357143D01*
X90309524Y-125404762D01*
X90404762Y-125452381D01*
X90595239Y-125452381D01*
X90690477Y-125404762D01*
X90738096Y-125357143D01*
X90785715Y-125261905D01*
X90785715Y-125071429D01*
X90738096Y-124976190D01*
X90690477Y-124928571D01*
X90595239Y-124880952D01*
X111268743Y-127659066D02*
X111316362Y-127706685D01*
X111363981Y-127849542D01*
X111363981Y-127944780D01*
X111316362Y-128087638D01*
X111221124Y-128182876D01*
X111125886Y-128230495D01*
X110935410Y-128278114D01*
X110792552Y-128278114D01*
X110602076Y-128230495D01*
X110506838Y-128182876D01*
X110411600Y-128087638D01*
X110363981Y-127944780D01*
X110363981Y-127849542D01*
X110411600Y-127706685D01*
X110459219Y-127659066D01*
X111363981Y-127182876D02*
X111363981Y-126992400D01*
X111316362Y-126897161D01*
X111268743Y-126849542D01*
X111125886Y-126754304D01*
X110935410Y-126706685D01*
X110554457Y-126706685D01*
X110459219Y-126754304D01*
X110411600Y-126801923D01*
X110363981Y-126897161D01*
X110363981Y-127087638D01*
X110411600Y-127182876D01*
X110459219Y-127230495D01*
X110554457Y-127278114D01*
X110792552Y-127278114D01*
X110887790Y-127230495D01*
X110935410Y-127182876D01*
X110983029Y-127087638D01*
X110983029Y-126897161D01*
X110935410Y-126801923D01*
X110887790Y-126754304D01*
X110792552Y-126706685D01*
X114757143Y-110557143D02*
X114709524Y-110604762D01*
X114566667Y-110652381D01*
X114471429Y-110652381D01*
X114328571Y-110604762D01*
X114233333Y-110509524D01*
X114185714Y-110414286D01*
X114138095Y-110223810D01*
X114138095Y-110080952D01*
X114185714Y-109890476D01*
X114233333Y-109795238D01*
X114328571Y-109700000D01*
X114471429Y-109652381D01*
X114566667Y-109652381D01*
X114709524Y-109700000D01*
X114757143Y-109747619D01*
X115709524Y-110652381D02*
X115138095Y-110652381D01*
X115423809Y-110652381D02*
X115423809Y-109652381D01*
X115328571Y-109795238D01*
X115233333Y-109890476D01*
X115138095Y-109938095D01*
X116328571Y-109652381D02*
X116423810Y-109652381D01*
X116519048Y-109700000D01*
X116566667Y-109747619D01*
X116614286Y-109842857D01*
X116661905Y-110033333D01*
X116661905Y-110271429D01*
X116614286Y-110461905D01*
X116566667Y-110557143D01*
X116519048Y-110604762D01*
X116423810Y-110652381D01*
X116328571Y-110652381D01*
X116233333Y-110604762D01*
X116185714Y-110557143D01*
X116138095Y-110461905D01*
X116090476Y-110271429D01*
X116090476Y-110033333D01*
X116138095Y-109842857D01*
X116185714Y-109747619D01*
X116233333Y-109700000D01*
X116328571Y-109652381D01*
X162450503Y-116091923D02*
X162402884Y-116139542D01*
X162260027Y-116187161D01*
X162164789Y-116187161D01*
X162021931Y-116139542D01*
X161926693Y-116044304D01*
X161879074Y-115949066D01*
X161831455Y-115758590D01*
X161831455Y-115615732D01*
X161879074Y-115425256D01*
X161926693Y-115330018D01*
X162021931Y-115234780D01*
X162164789Y-115187161D01*
X162260027Y-115187161D01*
X162402884Y-115234780D01*
X162450503Y-115282399D01*
X163402884Y-116187161D02*
X162831455Y-116187161D01*
X163117169Y-116187161D02*
X163117169Y-115187161D01*
X163021931Y-115330018D01*
X162926693Y-115425256D01*
X162831455Y-115472875D01*
X164355265Y-116187161D02*
X163783836Y-116187161D01*
X164069550Y-116187161D02*
X164069550Y-115187161D01*
X163974312Y-115330018D01*
X163879074Y-115425256D01*
X163783836Y-115472875D01*
X161929803Y-113396983D02*
X161882184Y-113444602D01*
X161739327Y-113492221D01*
X161644089Y-113492221D01*
X161501231Y-113444602D01*
X161405993Y-113349364D01*
X161358374Y-113254126D01*
X161310755Y-113063650D01*
X161310755Y-112920792D01*
X161358374Y-112730316D01*
X161405993Y-112635078D01*
X161501231Y-112539840D01*
X161644089Y-112492221D01*
X161739327Y-112492221D01*
X161882184Y-112539840D01*
X161929803Y-112587459D01*
X162882184Y-113492221D02*
X162310755Y-113492221D01*
X162596469Y-113492221D02*
X162596469Y-112492221D01*
X162501231Y-112635078D01*
X162405993Y-112730316D01*
X162310755Y-112777935D01*
X163263136Y-112587459D02*
X163310755Y-112539840D01*
X163405993Y-112492221D01*
X163644089Y-112492221D01*
X163739327Y-112539840D01*
X163786946Y-112587459D01*
X163834565Y-112682697D01*
X163834565Y-112777935D01*
X163786946Y-112920792D01*
X163215517Y-113492221D01*
X163834565Y-113492221D01*
X162166023Y-119759683D02*
X162118404Y-119807302D01*
X161975547Y-119854921D01*
X161880309Y-119854921D01*
X161737451Y-119807302D01*
X161642213Y-119712064D01*
X161594594Y-119616826D01*
X161546975Y-119426350D01*
X161546975Y-119283492D01*
X161594594Y-119093016D01*
X161642213Y-118997778D01*
X161737451Y-118902540D01*
X161880309Y-118854921D01*
X161975547Y-118854921D01*
X162118404Y-118902540D01*
X162166023Y-118950159D01*
X163118404Y-119854921D02*
X162546975Y-119854921D01*
X162832689Y-119854921D02*
X162832689Y-118854921D01*
X162737451Y-118997778D01*
X162642213Y-119093016D01*
X162546975Y-119140635D01*
X163451737Y-118854921D02*
X164070785Y-118854921D01*
X163737451Y-119235873D01*
X163880309Y-119235873D01*
X163975547Y-119283492D01*
X164023166Y-119331111D01*
X164070785Y-119426350D01*
X164070785Y-119664445D01*
X164023166Y-119759683D01*
X163975547Y-119807302D01*
X163880309Y-119854921D01*
X163594594Y-119854921D01*
X163499356Y-119807302D01*
X163451737Y-119759683D01*
X140157143Y-105707143D02*
X140109524Y-105754762D01*
X139966667Y-105802381D01*
X139871429Y-105802381D01*
X139728571Y-105754762D01*
X139633333Y-105659524D01*
X139585714Y-105564286D01*
X139538095Y-105373810D01*
X139538095Y-105230952D01*
X139585714Y-105040476D01*
X139633333Y-104945238D01*
X139728571Y-104850000D01*
X139871429Y-104802381D01*
X139966667Y-104802381D01*
X140109524Y-104850000D01*
X140157143Y-104897619D01*
X141109524Y-105802381D02*
X140538095Y-105802381D01*
X140823809Y-105802381D02*
X140823809Y-104802381D01*
X140728571Y-104945238D01*
X140633333Y-105040476D01*
X140538095Y-105088095D01*
X141966667Y-105135714D02*
X141966667Y-105802381D01*
X141728571Y-104754762D02*
X141490476Y-105469048D01*
X142109524Y-105469048D01*
X140357143Y-107507143D02*
X140309524Y-107554762D01*
X140166667Y-107602381D01*
X140071429Y-107602381D01*
X139928571Y-107554762D01*
X139833333Y-107459524D01*
X139785714Y-107364286D01*
X139738095Y-107173810D01*
X139738095Y-107030952D01*
X139785714Y-106840476D01*
X139833333Y-106745238D01*
X139928571Y-106650000D01*
X140071429Y-106602381D01*
X140166667Y-106602381D01*
X140309524Y-106650000D01*
X140357143Y-106697619D01*
X141309524Y-107602381D02*
X140738095Y-107602381D01*
X141023809Y-107602381D02*
X141023809Y-106602381D01*
X140928571Y-106745238D01*
X140833333Y-106840476D01*
X140738095Y-106888095D01*
X142214286Y-106602381D02*
X141738095Y-106602381D01*
X141690476Y-107078571D01*
X141738095Y-107030952D01*
X141833333Y-106983333D01*
X142071429Y-106983333D01*
X142166667Y-107030952D01*
X142214286Y-107078571D01*
X142261905Y-107173810D01*
X142261905Y-107411905D01*
X142214286Y-107507143D01*
X142166667Y-107554762D01*
X142071429Y-107602381D01*
X141833333Y-107602381D01*
X141738095Y-107554762D01*
X141690476Y-107507143D01*
X110882381Y-105833333D02*
X111596667Y-105833333D01*
X111739524Y-105880953D01*
X111834762Y-105976191D01*
X111882381Y-106119048D01*
X111882381Y-106214286D01*
X111882381Y-104833333D02*
X111882381Y-105404762D01*
X111882381Y-105119048D02*
X110882381Y-105119048D01*
X111025238Y-105214286D01*
X111120476Y-105309524D01*
X111168095Y-105404762D01*
X70872381Y-115562857D02*
X70872381Y-116039048D01*
X69872381Y-116039048D01*
X70824762Y-115277143D02*
X70872381Y-115134286D01*
X70872381Y-114896190D01*
X70824762Y-114800952D01*
X70777143Y-114753333D01*
X70681905Y-114705714D01*
X70586667Y-114705714D01*
X70491429Y-114753333D01*
X70443810Y-114800952D01*
X70396190Y-114896190D01*
X70348571Y-115086667D01*
X70300952Y-115181905D01*
X70253333Y-115229524D01*
X70158095Y-115277143D01*
X70062857Y-115277143D01*
X69967619Y-115229524D01*
X69920000Y-115181905D01*
X69872381Y-115086667D01*
X69872381Y-114848571D01*
X69920000Y-114705714D01*
X70872381Y-113753333D02*
X70872381Y-114324762D01*
X70872381Y-114039048D02*
X69872381Y-114039048D01*
X70015238Y-114134286D01*
X70110476Y-114229524D01*
X70158095Y-114324762D01*
X175872381Y-115562857D02*
X175872381Y-116039048D01*
X174872381Y-116039048D01*
X175824762Y-115277143D02*
X175872381Y-115134286D01*
X175872381Y-114896190D01*
X175824762Y-114800952D01*
X175777143Y-114753333D01*
X175681905Y-114705714D01*
X175586667Y-114705714D01*
X175491429Y-114753333D01*
X175443810Y-114800952D01*
X175396190Y-114896190D01*
X175348571Y-115086667D01*
X175300952Y-115181905D01*
X175253333Y-115229524D01*
X175158095Y-115277143D01*
X175062857Y-115277143D01*
X174967619Y-115229524D01*
X174920000Y-115181905D01*
X174872381Y-115086667D01*
X174872381Y-114848571D01*
X174920000Y-114705714D01*
X174967619Y-114324762D02*
X174920000Y-114277143D01*
X174872381Y-114181905D01*
X174872381Y-113943809D01*
X174920000Y-113848571D01*
X174967619Y-113800952D01*
X175062857Y-113753333D01*
X175158095Y-113753333D01*
X175300952Y-113800952D01*
X175872381Y-114372381D01*
X175872381Y-113753333D01*
X138670802Y-116523379D02*
X138575564Y-116475760D01*
X138480326Y-116380522D01*
X138337469Y-116237665D01*
X138242230Y-116190046D01*
X138146992Y-116190046D01*
X138194611Y-116428141D02*
X138099373Y-116380522D01*
X138004135Y-116285284D01*
X137956516Y-116094808D01*
X137956516Y-115761474D01*
X138004135Y-115570998D01*
X138099373Y-115475760D01*
X138194611Y-115428141D01*
X138385088Y-115428141D01*
X138480326Y-115475760D01*
X138575564Y-115570998D01*
X138623183Y-115761474D01*
X138623183Y-116094808D01*
X138575564Y-116285284D01*
X138480326Y-116380522D01*
X138385088Y-116428141D01*
X138194611Y-116428141D01*
X139575564Y-116428141D02*
X139004135Y-116428141D01*
X139289849Y-116428141D02*
X139289849Y-115428141D01*
X139194611Y-115570998D01*
X139099373Y-115666236D01*
X139004135Y-115713855D01*
X128572162Y-113554779D02*
X128476924Y-113507160D01*
X128381686Y-113411922D01*
X128238829Y-113269065D01*
X128143590Y-113221446D01*
X128048352Y-113221446D01*
X128095971Y-113459541D02*
X128000733Y-113411922D01*
X127905495Y-113316684D01*
X127857876Y-113126208D01*
X127857876Y-112792874D01*
X127905495Y-112602398D01*
X128000733Y-112507160D01*
X128095971Y-112459541D01*
X128286448Y-112459541D01*
X128381686Y-112507160D01*
X128476924Y-112602398D01*
X128524543Y-112792874D01*
X128524543Y-113126208D01*
X128476924Y-113316684D01*
X128381686Y-113411922D01*
X128286448Y-113459541D01*
X128095971Y-113459541D01*
X128905495Y-112554779D02*
X128953114Y-112507160D01*
X129048352Y-112459541D01*
X129286448Y-112459541D01*
X129381686Y-112507160D01*
X129429305Y-112554779D01*
X129476924Y-112650017D01*
X129476924Y-112745255D01*
X129429305Y-112888112D01*
X128857876Y-113459541D01*
X129476924Y-113459541D01*
X80233334Y-115852381D02*
X79900000Y-115376190D01*
X79661905Y-115852381D02*
X79661905Y-114852381D01*
X80042858Y-114852381D01*
X80138096Y-114900000D01*
X80185715Y-114947619D01*
X80233334Y-115042857D01*
X80233334Y-115185714D01*
X80185715Y-115280952D01*
X80138096Y-115328571D01*
X80042858Y-115376190D01*
X79661905Y-115376190D01*
X81185715Y-115852381D02*
X80614286Y-115852381D01*
X80900000Y-115852381D02*
X80900000Y-114852381D01*
X80804762Y-114995238D01*
X80709524Y-115090476D01*
X80614286Y-115138095D01*
X132690394Y-126405561D02*
X132357060Y-125929370D01*
X132118965Y-126405561D02*
X132118965Y-125405561D01*
X132499918Y-125405561D01*
X132595156Y-125453180D01*
X132642775Y-125500799D01*
X132690394Y-125596037D01*
X132690394Y-125738894D01*
X132642775Y-125834132D01*
X132595156Y-125881751D01*
X132499918Y-125929370D01*
X132118965Y-125929370D01*
X133071346Y-125500799D02*
X133118965Y-125453180D01*
X133214203Y-125405561D01*
X133452299Y-125405561D01*
X133547537Y-125453180D01*
X133595156Y-125500799D01*
X133642775Y-125596037D01*
X133642775Y-125691275D01*
X133595156Y-125834132D01*
X133023727Y-126405561D01*
X133642775Y-126405561D01*
X130033334Y-127452381D02*
X129700000Y-126976190D01*
X129461905Y-127452381D02*
X129461905Y-126452381D01*
X129842858Y-126452381D01*
X129938096Y-126500000D01*
X129985715Y-126547619D01*
X130033334Y-126642857D01*
X130033334Y-126785714D01*
X129985715Y-126880952D01*
X129938096Y-126928571D01*
X129842858Y-126976190D01*
X129461905Y-126976190D01*
X130366667Y-126452381D02*
X130985715Y-126452381D01*
X130652381Y-126833333D01*
X130795239Y-126833333D01*
X130890477Y-126880952D01*
X130938096Y-126928571D01*
X130985715Y-127023810D01*
X130985715Y-127261905D01*
X130938096Y-127357143D01*
X130890477Y-127404762D01*
X130795239Y-127452381D01*
X130509524Y-127452381D01*
X130414286Y-127404762D01*
X130366667Y-127357143D01*
X88855074Y-111102741D02*
X88521740Y-110626550D01*
X88283645Y-111102741D02*
X88283645Y-110102741D01*
X88664598Y-110102741D01*
X88759836Y-110150360D01*
X88807455Y-110197979D01*
X88855074Y-110293217D01*
X88855074Y-110436074D01*
X88807455Y-110531312D01*
X88759836Y-110578931D01*
X88664598Y-110626550D01*
X88283645Y-110626550D01*
X89712217Y-110436074D02*
X89712217Y-111102741D01*
X89474121Y-110055122D02*
X89236026Y-110769408D01*
X89855074Y-110769408D01*
X138809254Y-111260221D02*
X138475920Y-110784030D01*
X138237825Y-111260221D02*
X138237825Y-110260221D01*
X138618778Y-110260221D01*
X138714016Y-110307840D01*
X138761635Y-110355459D01*
X138809254Y-110450697D01*
X138809254Y-110593554D01*
X138761635Y-110688792D01*
X138714016Y-110736411D01*
X138618778Y-110784030D01*
X138237825Y-110784030D01*
X139714016Y-110260221D02*
X139237825Y-110260221D01*
X139190206Y-110736411D01*
X139237825Y-110688792D01*
X139333063Y-110641173D01*
X139571159Y-110641173D01*
X139666397Y-110688792D01*
X139714016Y-110736411D01*
X139761635Y-110831650D01*
X139761635Y-111069745D01*
X139714016Y-111164983D01*
X139666397Y-111212602D01*
X139571159Y-111260221D01*
X139333063Y-111260221D01*
X139237825Y-111212602D01*
X139190206Y-111164983D01*
X83203494Y-111344041D02*
X82870160Y-110867850D01*
X82632065Y-111344041D02*
X82632065Y-110344041D01*
X83013018Y-110344041D01*
X83108256Y-110391660D01*
X83155875Y-110439279D01*
X83203494Y-110534517D01*
X83203494Y-110677374D01*
X83155875Y-110772612D01*
X83108256Y-110820231D01*
X83013018Y-110867850D01*
X82632065Y-110867850D01*
X84060637Y-110344041D02*
X83870160Y-110344041D01*
X83774922Y-110391660D01*
X83727303Y-110439279D01*
X83632065Y-110582136D01*
X83584446Y-110772612D01*
X83584446Y-111153565D01*
X83632065Y-111248803D01*
X83679684Y-111296422D01*
X83774922Y-111344041D01*
X83965399Y-111344041D01*
X84060637Y-111296422D01*
X84108256Y-111248803D01*
X84155875Y-111153565D01*
X84155875Y-110915470D01*
X84108256Y-110820231D01*
X84060637Y-110772612D01*
X83965399Y-110724993D01*
X83774922Y-110724993D01*
X83679684Y-110772612D01*
X83632065Y-110820231D01*
X83584446Y-110915470D01*
X144404874Y-118201361D02*
X144071540Y-117725170D01*
X143833445Y-118201361D02*
X143833445Y-117201361D01*
X144214398Y-117201361D01*
X144309636Y-117248980D01*
X144357255Y-117296599D01*
X144404874Y-117391837D01*
X144404874Y-117534694D01*
X144357255Y-117629932D01*
X144309636Y-117677551D01*
X144214398Y-117725170D01*
X143833445Y-117725170D01*
X144738207Y-117201361D02*
X145404874Y-117201361D01*
X144976302Y-118201361D01*
X85833334Y-118652381D02*
X85500000Y-118176190D01*
X85261905Y-118652381D02*
X85261905Y-117652381D01*
X85642858Y-117652381D01*
X85738096Y-117700000D01*
X85785715Y-117747619D01*
X85833334Y-117842857D01*
X85833334Y-117985714D01*
X85785715Y-118080952D01*
X85738096Y-118128571D01*
X85642858Y-118176190D01*
X85261905Y-118176190D01*
X86404762Y-118080952D02*
X86309524Y-118033333D01*
X86261905Y-117985714D01*
X86214286Y-117890476D01*
X86214286Y-117842857D01*
X86261905Y-117747619D01*
X86309524Y-117700000D01*
X86404762Y-117652381D01*
X86595239Y-117652381D01*
X86690477Y-117700000D01*
X86738096Y-117747619D01*
X86785715Y-117842857D01*
X86785715Y-117890476D01*
X86738096Y-117985714D01*
X86690477Y-118033333D01*
X86595239Y-118080952D01*
X86404762Y-118080952D01*
X86309524Y-118128571D01*
X86261905Y-118176190D01*
X86214286Y-118271429D01*
X86214286Y-118461905D01*
X86261905Y-118557143D01*
X86309524Y-118604762D01*
X86404762Y-118652381D01*
X86595239Y-118652381D01*
X86690477Y-118604762D01*
X86738096Y-118557143D01*
X86785715Y-118461905D01*
X86785715Y-118271429D01*
X86738096Y-118176190D01*
X86690477Y-118128571D01*
X86595239Y-118080952D01*
X144107874Y-111570101D02*
X143774540Y-111093910D01*
X143536445Y-111570101D02*
X143536445Y-110570101D01*
X143917398Y-110570101D01*
X144012636Y-110617720D01*
X144060255Y-110665339D01*
X144107874Y-110760577D01*
X144107874Y-110903434D01*
X144060255Y-110998672D01*
X144012636Y-111046291D01*
X143917398Y-111093910D01*
X143536445Y-111093910D01*
X144584064Y-111570101D02*
X144774540Y-111570101D01*
X144869779Y-111522482D01*
X144917398Y-111474863D01*
X145012636Y-111332006D01*
X145060255Y-111141530D01*
X145060255Y-110760577D01*
X145012636Y-110665339D01*
X144965017Y-110617720D01*
X144869779Y-110570101D01*
X144679302Y-110570101D01*
X144584064Y-110617720D01*
X144536445Y-110665339D01*
X144488826Y-110760577D01*
X144488826Y-110998672D01*
X144536445Y-111093910D01*
X144584064Y-111141530D01*
X144679302Y-111189149D01*
X144869779Y-111189149D01*
X144965017Y-111141530D01*
X145012636Y-111093910D01*
X145060255Y-110998672D01*
X78957143Y-123452381D02*
X78623809Y-122976190D01*
X78385714Y-123452381D02*
X78385714Y-122452381D01*
X78766667Y-122452381D01*
X78861905Y-122500000D01*
X78909524Y-122547619D01*
X78957143Y-122642857D01*
X78957143Y-122785714D01*
X78909524Y-122880952D01*
X78861905Y-122928571D01*
X78766667Y-122976190D01*
X78385714Y-122976190D01*
X79909524Y-123452381D02*
X79338095Y-123452381D01*
X79623809Y-123452381D02*
X79623809Y-122452381D01*
X79528571Y-122595238D01*
X79433333Y-122690476D01*
X79338095Y-122738095D01*
X80528571Y-122452381D02*
X80623810Y-122452381D01*
X80719048Y-122500000D01*
X80766667Y-122547619D01*
X80814286Y-122642857D01*
X80861905Y-122833333D01*
X80861905Y-123071429D01*
X80814286Y-123261905D01*
X80766667Y-123357143D01*
X80719048Y-123404762D01*
X80623810Y-123452381D01*
X80528571Y-123452381D01*
X80433333Y-123404762D01*
X80385714Y-123357143D01*
X80338095Y-123261905D01*
X80290476Y-123071429D01*
X80290476Y-122833333D01*
X80338095Y-122642857D01*
X80385714Y-122547619D01*
X80433333Y-122500000D01*
X80528571Y-122452381D01*
X98247143Y-133982381D02*
X97913809Y-133506190D01*
X97675714Y-133982381D02*
X97675714Y-132982381D01*
X98056667Y-132982381D01*
X98151905Y-133030000D01*
X98199524Y-133077619D01*
X98247143Y-133172857D01*
X98247143Y-133315714D01*
X98199524Y-133410952D01*
X98151905Y-133458571D01*
X98056667Y-133506190D01*
X97675714Y-133506190D01*
X99199524Y-133982381D02*
X98628095Y-133982381D01*
X98913809Y-133982381D02*
X98913809Y-132982381D01*
X98818571Y-133125238D01*
X98723333Y-133220476D01*
X98628095Y-133268095D01*
X100151905Y-133982381D02*
X99580476Y-133982381D01*
X99866190Y-133982381D02*
X99866190Y-132982381D01*
X99770952Y-133125238D01*
X99675714Y-133220476D01*
X99580476Y-133268095D01*
X161678203Y-110295021D02*
X161344869Y-109818830D01*
X161106774Y-110295021D02*
X161106774Y-109295021D01*
X161487727Y-109295021D01*
X161582965Y-109342640D01*
X161630584Y-109390259D01*
X161678203Y-109485497D01*
X161678203Y-109628354D01*
X161630584Y-109723592D01*
X161582965Y-109771211D01*
X161487727Y-109818830D01*
X161106774Y-109818830D01*
X162630584Y-110295021D02*
X162059155Y-110295021D01*
X162344869Y-110295021D02*
X162344869Y-109295021D01*
X162249631Y-109437878D01*
X162154393Y-109533116D01*
X162059155Y-109580735D01*
X163011536Y-109390259D02*
X163059155Y-109342640D01*
X163154393Y-109295021D01*
X163392489Y-109295021D01*
X163487727Y-109342640D01*
X163535346Y-109390259D01*
X163582965Y-109485497D01*
X163582965Y-109580735D01*
X163535346Y-109723592D01*
X162963917Y-110295021D01*
X163582965Y-110295021D01*
X107757143Y-121802381D02*
X107423809Y-121326190D01*
X107185714Y-121802381D02*
X107185714Y-120802381D01*
X107566667Y-120802381D01*
X107661905Y-120850000D01*
X107709524Y-120897619D01*
X107757143Y-120992857D01*
X107757143Y-121135714D01*
X107709524Y-121230952D01*
X107661905Y-121278571D01*
X107566667Y-121326190D01*
X107185714Y-121326190D01*
X108709524Y-121802381D02*
X108138095Y-121802381D01*
X108423809Y-121802381D02*
X108423809Y-120802381D01*
X108328571Y-120945238D01*
X108233333Y-121040476D01*
X108138095Y-121088095D01*
X109042857Y-120802381D02*
X109661905Y-120802381D01*
X109328571Y-121183333D01*
X109471429Y-121183333D01*
X109566667Y-121230952D01*
X109614286Y-121278571D01*
X109661905Y-121373810D01*
X109661905Y-121611905D01*
X109614286Y-121707143D01*
X109566667Y-121754762D01*
X109471429Y-121802381D01*
X109185714Y-121802381D01*
X109090476Y-121754762D01*
X109042857Y-121707143D01*
X106157143Y-108252381D02*
X105823809Y-107776190D01*
X105585714Y-108252381D02*
X105585714Y-107252381D01*
X105966667Y-107252381D01*
X106061905Y-107300000D01*
X106109524Y-107347619D01*
X106157143Y-107442857D01*
X106157143Y-107585714D01*
X106109524Y-107680952D01*
X106061905Y-107728571D01*
X105966667Y-107776190D01*
X105585714Y-107776190D01*
X107109524Y-108252381D02*
X106538095Y-108252381D01*
X106823809Y-108252381D02*
X106823809Y-107252381D01*
X106728571Y-107395238D01*
X106633333Y-107490476D01*
X106538095Y-107538095D01*
X107966667Y-107585714D02*
X107966667Y-108252381D01*
X107728571Y-107204762D02*
X107490476Y-107919048D01*
X108109524Y-107919048D01*
X117557143Y-114452381D02*
X117223809Y-113976190D01*
X116985714Y-114452381D02*
X116985714Y-113452381D01*
X117366667Y-113452381D01*
X117461905Y-113500000D01*
X117509524Y-113547619D01*
X117557143Y-113642857D01*
X117557143Y-113785714D01*
X117509524Y-113880952D01*
X117461905Y-113928571D01*
X117366667Y-113976190D01*
X116985714Y-113976190D01*
X118509524Y-114452381D02*
X117938095Y-114452381D01*
X118223809Y-114452381D02*
X118223809Y-113452381D01*
X118128571Y-113595238D01*
X118033333Y-113690476D01*
X117938095Y-113738095D01*
X119366667Y-113452381D02*
X119176190Y-113452381D01*
X119080952Y-113500000D01*
X119033333Y-113547619D01*
X118938095Y-113690476D01*
X118890476Y-113880952D01*
X118890476Y-114261905D01*
X118938095Y-114357143D01*
X118985714Y-114404762D01*
X119080952Y-114452381D01*
X119271429Y-114452381D01*
X119366667Y-114404762D01*
X119414286Y-114357143D01*
X119461905Y-114261905D01*
X119461905Y-114023810D01*
X119414286Y-113928571D01*
X119366667Y-113880952D01*
X119271429Y-113833333D01*
X119080952Y-113833333D01*
X118985714Y-113880952D01*
X118938095Y-113928571D01*
X118890476Y-114023810D01*
X108957143Y-119002381D02*
X108623809Y-118526190D01*
X108385714Y-119002381D02*
X108385714Y-118002381D01*
X108766667Y-118002381D01*
X108861905Y-118050000D01*
X108909524Y-118097619D01*
X108957143Y-118192857D01*
X108957143Y-118335714D01*
X108909524Y-118430952D01*
X108861905Y-118478571D01*
X108766667Y-118526190D01*
X108385714Y-118526190D01*
X109909524Y-119002381D02*
X109338095Y-119002381D01*
X109623809Y-119002381D02*
X109623809Y-118002381D01*
X109528571Y-118145238D01*
X109433333Y-118240476D01*
X109338095Y-118288095D01*
X110242857Y-118002381D02*
X110909524Y-118002381D01*
X110480952Y-119002381D01*
X105557143Y-121652381D02*
X105223809Y-121176190D01*
X104985714Y-121652381D02*
X104985714Y-120652381D01*
X105366667Y-120652381D01*
X105461905Y-120700000D01*
X105509524Y-120747619D01*
X105557143Y-120842857D01*
X105557143Y-120985714D01*
X105509524Y-121080952D01*
X105461905Y-121128571D01*
X105366667Y-121176190D01*
X104985714Y-121176190D01*
X106509524Y-121652381D02*
X105938095Y-121652381D01*
X106223809Y-121652381D02*
X106223809Y-120652381D01*
X106128571Y-120795238D01*
X106033333Y-120890476D01*
X105938095Y-120938095D01*
X107080952Y-121080952D02*
X106985714Y-121033333D01*
X106938095Y-120985714D01*
X106890476Y-120890476D01*
X106890476Y-120842857D01*
X106938095Y-120747619D01*
X106985714Y-120700000D01*
X107080952Y-120652381D01*
X107271429Y-120652381D01*
X107366667Y-120700000D01*
X107414286Y-120747619D01*
X107461905Y-120842857D01*
X107461905Y-120890476D01*
X107414286Y-120985714D01*
X107366667Y-121033333D01*
X107271429Y-121080952D01*
X107080952Y-121080952D01*
X106985714Y-121128571D01*
X106938095Y-121176190D01*
X106890476Y-121271429D01*
X106890476Y-121461905D01*
X106938095Y-121557143D01*
X106985714Y-121604762D01*
X107080952Y-121652381D01*
X107271429Y-121652381D01*
X107366667Y-121604762D01*
X107414286Y-121557143D01*
X107461905Y-121461905D01*
X107461905Y-121271429D01*
X107414286Y-121176190D01*
X107366667Y-121128571D01*
X107271429Y-121080952D01*
X110357143Y-112852381D02*
X110023809Y-112376190D01*
X109785714Y-112852381D02*
X109785714Y-111852381D01*
X110166667Y-111852381D01*
X110261905Y-111900000D01*
X110309524Y-111947619D01*
X110357143Y-112042857D01*
X110357143Y-112185714D01*
X110309524Y-112280952D01*
X110261905Y-112328571D01*
X110166667Y-112376190D01*
X109785714Y-112376190D01*
X111309524Y-112852381D02*
X110738095Y-112852381D01*
X111023809Y-112852381D02*
X111023809Y-111852381D01*
X110928571Y-111995238D01*
X110833333Y-112090476D01*
X110738095Y-112138095D01*
X111785714Y-112852381D02*
X111976190Y-112852381D01*
X112071429Y-112804762D01*
X112119048Y-112757143D01*
X112214286Y-112614286D01*
X112261905Y-112423810D01*
X112261905Y-112042857D01*
X112214286Y-111947619D01*
X112166667Y-111900000D01*
X112071429Y-111852381D01*
X111880952Y-111852381D01*
X111785714Y-111900000D01*
X111738095Y-111947619D01*
X111690476Y-112042857D01*
X111690476Y-112280952D01*
X111738095Y-112376190D01*
X111785714Y-112423810D01*
X111880952Y-112471429D01*
X112071429Y-112471429D01*
X112166667Y-112423810D01*
X112214286Y-112376190D01*
X112261905Y-112280952D01*
X112557143Y-116252381D02*
X112223809Y-115776190D01*
X111985714Y-116252381D02*
X111985714Y-115252381D01*
X112366667Y-115252381D01*
X112461905Y-115300000D01*
X112509524Y-115347619D01*
X112557143Y-115442857D01*
X112557143Y-115585714D01*
X112509524Y-115680952D01*
X112461905Y-115728571D01*
X112366667Y-115776190D01*
X111985714Y-115776190D01*
X112938095Y-115347619D02*
X112985714Y-115300000D01*
X113080952Y-115252381D01*
X113319048Y-115252381D01*
X113414286Y-115300000D01*
X113461905Y-115347619D01*
X113509524Y-115442857D01*
X113509524Y-115538095D01*
X113461905Y-115680952D01*
X112890476Y-116252381D01*
X113509524Y-116252381D01*
X114128571Y-115252381D02*
X114223810Y-115252381D01*
X114319048Y-115300000D01*
X114366667Y-115347619D01*
X114414286Y-115442857D01*
X114461905Y-115633333D01*
X114461905Y-115871429D01*
X114414286Y-116061905D01*
X114366667Y-116157143D01*
X114319048Y-116204762D01*
X114223810Y-116252381D01*
X114128571Y-116252381D01*
X114033333Y-116204762D01*
X113985714Y-116157143D01*
X113938095Y-116061905D01*
X113890476Y-115871429D01*
X113890476Y-115633333D01*
X113938095Y-115442857D01*
X113985714Y-115347619D01*
X114033333Y-115300000D01*
X114128571Y-115252381D01*
X122717143Y-121282381D02*
X122383809Y-120806190D01*
X122145714Y-121282381D02*
X122145714Y-120282381D01*
X122526667Y-120282381D01*
X122621905Y-120330000D01*
X122669524Y-120377619D01*
X122717143Y-120472857D01*
X122717143Y-120615714D01*
X122669524Y-120710952D01*
X122621905Y-120758571D01*
X122526667Y-120806190D01*
X122145714Y-120806190D01*
X123098095Y-120377619D02*
X123145714Y-120330000D01*
X123240952Y-120282381D01*
X123479048Y-120282381D01*
X123574286Y-120330000D01*
X123621905Y-120377619D01*
X123669524Y-120472857D01*
X123669524Y-120568095D01*
X123621905Y-120710952D01*
X123050476Y-121282381D01*
X123669524Y-121282381D01*
X124621905Y-121282381D02*
X124050476Y-121282381D01*
X124336190Y-121282381D02*
X124336190Y-120282381D01*
X124240952Y-120425238D01*
X124145714Y-120520476D01*
X124050476Y-120568095D01*
X132157143Y-123502381D02*
X131823809Y-123026190D01*
X131585714Y-123502381D02*
X131585714Y-122502381D01*
X131966667Y-122502381D01*
X132061905Y-122550000D01*
X132109524Y-122597619D01*
X132157143Y-122692857D01*
X132157143Y-122835714D01*
X132109524Y-122930952D01*
X132061905Y-122978571D01*
X131966667Y-123026190D01*
X131585714Y-123026190D01*
X132538095Y-122597619D02*
X132585714Y-122550000D01*
X132680952Y-122502381D01*
X132919048Y-122502381D01*
X133014286Y-122550000D01*
X133061905Y-122597619D01*
X133109524Y-122692857D01*
X133109524Y-122788095D01*
X133061905Y-122930952D01*
X132490476Y-123502381D01*
X133109524Y-123502381D01*
X133490476Y-122597619D02*
X133538095Y-122550000D01*
X133633333Y-122502381D01*
X133871429Y-122502381D01*
X133966667Y-122550000D01*
X134014286Y-122597619D01*
X134061905Y-122692857D01*
X134061905Y-122788095D01*
X134014286Y-122930952D01*
X133442857Y-123502381D01*
X134061905Y-123502381D01*
X73666667Y-90952381D02*
X73333333Y-90476190D01*
X73095238Y-90952381D02*
X73095238Y-89952381D01*
X73476191Y-89952381D01*
X73571429Y-90000000D01*
X73619048Y-90047619D01*
X73666667Y-90142857D01*
X73666667Y-90285714D01*
X73619048Y-90380952D01*
X73571429Y-90428571D01*
X73476191Y-90476190D01*
X73095238Y-90476190D01*
X74095238Y-90428571D02*
X74428572Y-90428571D01*
X74571429Y-90952381D02*
X74095238Y-90952381D01*
X74095238Y-89952381D01*
X74571429Y-89952381D01*
X75333334Y-90428571D02*
X75000000Y-90428571D01*
X75000000Y-90952381D02*
X75000000Y-89952381D01*
X75476191Y-89952381D01*
X76000000Y-89952381D02*
X76000000Y-90190476D01*
X75761905Y-90095238D02*
X76000000Y-90190476D01*
X76238096Y-90095238D01*
X75857143Y-90380952D02*
X76000000Y-90190476D01*
X76142858Y-90380952D01*
X76761905Y-89952381D02*
X76761905Y-90190476D01*
X76523810Y-90095238D02*
X76761905Y-90190476D01*
X77000001Y-90095238D01*
X76619048Y-90380952D02*
X76761905Y-90190476D01*
X76904763Y-90380952D01*
X73666667Y-130952381D02*
X73333333Y-130476190D01*
X73095238Y-130952381D02*
X73095238Y-129952381D01*
X73476191Y-129952381D01*
X73571429Y-130000000D01*
X73619048Y-130047619D01*
X73666667Y-130142857D01*
X73666667Y-130285714D01*
X73619048Y-130380952D01*
X73571429Y-130428571D01*
X73476191Y-130476190D01*
X73095238Y-130476190D01*
X74095238Y-130428571D02*
X74428572Y-130428571D01*
X74571429Y-130952381D02*
X74095238Y-130952381D01*
X74095238Y-129952381D01*
X74571429Y-129952381D01*
X75333334Y-130428571D02*
X75000000Y-130428571D01*
X75000000Y-130952381D02*
X75000000Y-129952381D01*
X75476191Y-129952381D01*
X76000000Y-129952381D02*
X76000000Y-130190476D01*
X75761905Y-130095238D02*
X76000000Y-130190476D01*
X76238096Y-130095238D01*
X75857143Y-130380952D02*
X76000000Y-130190476D01*
X76142858Y-130380952D01*
X76761905Y-129952381D02*
X76761905Y-130190476D01*
X76523810Y-130095238D02*
X76761905Y-130190476D01*
X77000001Y-130095238D01*
X76619048Y-130380952D02*
X76761905Y-130190476D01*
X76904763Y-130380952D01*
X178666667Y-130952381D02*
X178333333Y-130476190D01*
X178095238Y-130952381D02*
X178095238Y-129952381D01*
X178476191Y-129952381D01*
X178571429Y-130000000D01*
X178619048Y-130047619D01*
X178666667Y-130142857D01*
X178666667Y-130285714D01*
X178619048Y-130380952D01*
X178571429Y-130428571D01*
X178476191Y-130476190D01*
X178095238Y-130476190D01*
X179095238Y-130428571D02*
X179428572Y-130428571D01*
X179571429Y-130952381D02*
X179095238Y-130952381D01*
X179095238Y-129952381D01*
X179571429Y-129952381D01*
X180333334Y-130428571D02*
X180000000Y-130428571D01*
X180000000Y-130952381D02*
X180000000Y-129952381D01*
X180476191Y-129952381D01*
X181000000Y-129952381D02*
X181000000Y-130190476D01*
X180761905Y-130095238D02*
X181000000Y-130190476D01*
X181238096Y-130095238D01*
X180857143Y-130380952D02*
X181000000Y-130190476D01*
X181142858Y-130380952D01*
X181761905Y-129952381D02*
X181761905Y-130190476D01*
X181523810Y-130095238D02*
X181761905Y-130190476D01*
X182000001Y-130095238D01*
X181619048Y-130380952D02*
X181761905Y-130190476D01*
X181904763Y-130380952D01*
X178666667Y-90952381D02*
X178333333Y-90476190D01*
X178095238Y-90952381D02*
X178095238Y-89952381D01*
X178476191Y-89952381D01*
X178571429Y-90000000D01*
X178619048Y-90047619D01*
X178666667Y-90142857D01*
X178666667Y-90285714D01*
X178619048Y-90380952D01*
X178571429Y-90428571D01*
X178476191Y-90476190D01*
X178095238Y-90476190D01*
X179095238Y-90428571D02*
X179428572Y-90428571D01*
X179571429Y-90952381D02*
X179095238Y-90952381D01*
X179095238Y-89952381D01*
X179571429Y-89952381D01*
X180333334Y-90428571D02*
X180000000Y-90428571D01*
X180000000Y-90952381D02*
X180000000Y-89952381D01*
X180476191Y-89952381D01*
X181000000Y-89952381D02*
X181000000Y-90190476D01*
X180761905Y-90095238D02*
X181000000Y-90190476D01*
X181238096Y-90095238D01*
X180857143Y-90380952D02*
X181000000Y-90190476D01*
X181142858Y-90380952D01*
X181761905Y-89952381D02*
X181761905Y-90190476D01*
X181523810Y-90095238D02*
X181761905Y-90190476D01*
X182000001Y-90095238D01*
X181619048Y-90380952D02*
X181761905Y-90190476D01*
X181904763Y-90380952D01*
M02*
