G04 #@! TF.FileFunction,Other,Fab,Top*
%FSLAX46Y46*%
G04 Gerber Fmt 4.6, Leading zero omitted, Abs format (unit mm)*
G04 Created by KiCad (PCBNEW 4.0.7) date Monday, February 19, 2018 'AMt' 09:37:46 AM*
%MOMM*%
%LPD*%
G01*
G04 APERTURE LIST*
%ADD10C,0.100000*%
%ADD11C,0.150000*%
%ADD12C,0.300000*%
%ADD13C,0.400000*%
%ADD14C,0.075000*%
G04 APERTURE END LIST*
D10*
D11*
X177002200Y-166007200D02*
X177002200Y-198007200D01*
X285002200Y-198007200D01*
X285002200Y-166007200D01*
X177002200Y-166007200D01*
D10*
D11*
X10000000Y-10000000D02*
X10000000Y-200007200D01*
X287002200Y-200007200D01*
X287002200Y-10000000D01*
X10000000Y-10000000D01*
D10*
D11*
X12000000Y-12000000D02*
X12000000Y-198007200D01*
X285002200Y-198007200D01*
X285002200Y-12000000D01*
X12000000Y-12000000D01*
D10*
D11*
X60000000Y-12000000D02*
X60000000Y-10000000D01*
D10*
D11*
X110000000Y-12000000D02*
X110000000Y-10000000D01*
D10*
D11*
X160000000Y-12000000D02*
X160000000Y-10000000D01*
D10*
D11*
X210000000Y-12000000D02*
X210000000Y-10000000D01*
D10*
D11*
X260000000Y-12000000D02*
X260000000Y-10000000D01*
D10*
D11*
X35990476Y-11588095D02*
X35247619Y-11588095D01*
X35619048Y-11588095D02*
X35619048Y-10288095D01*
X35495238Y-10473810D01*
X35371429Y-10597619D01*
X35247619Y-10659524D01*
D10*
D11*
X85247619Y-10411905D02*
X85309524Y-10350000D01*
X85433333Y-10288095D01*
X85742857Y-10288095D01*
X85866667Y-10350000D01*
X85928571Y-10411905D01*
X85990476Y-10535714D01*
X85990476Y-10659524D01*
X85928571Y-10845238D01*
X85185714Y-11588095D01*
X85990476Y-11588095D01*
D10*
D11*
X135185714Y-10288095D02*
X135990476Y-10288095D01*
X135557143Y-10783333D01*
X135742857Y-10783333D01*
X135866667Y-10845238D01*
X135928571Y-10907143D01*
X135990476Y-11030952D01*
X135990476Y-11340476D01*
X135928571Y-11464286D01*
X135866667Y-11526190D01*
X135742857Y-11588095D01*
X135371429Y-11588095D01*
X135247619Y-11526190D01*
X135185714Y-11464286D01*
D10*
D11*
X185866667Y-10721429D02*
X185866667Y-11588095D01*
X185557143Y-10226190D02*
X185247619Y-11154762D01*
X186052381Y-11154762D01*
D10*
D11*
X235928571Y-10288095D02*
X235309524Y-10288095D01*
X235247619Y-10907143D01*
X235309524Y-10845238D01*
X235433333Y-10783333D01*
X235742857Y-10783333D01*
X235866667Y-10845238D01*
X235928571Y-10907143D01*
X235990476Y-11030952D01*
X235990476Y-11340476D01*
X235928571Y-11464286D01*
X235866667Y-11526190D01*
X235742857Y-11588095D01*
X235433333Y-11588095D01*
X235309524Y-11526190D01*
X235247619Y-11464286D01*
D10*
D11*
X285866667Y-10288095D02*
X285619048Y-10288095D01*
X285495238Y-10350000D01*
X285433333Y-10411905D01*
X285309524Y-10597619D01*
X285247619Y-10845238D01*
X285247619Y-11340476D01*
X285309524Y-11464286D01*
X285371429Y-11526190D01*
X285495238Y-11588095D01*
X285742857Y-11588095D01*
X285866667Y-11526190D01*
X285928571Y-11464286D01*
X285990476Y-11340476D01*
X285990476Y-11030952D01*
X285928571Y-10907143D01*
X285866667Y-10845238D01*
X285742857Y-10783333D01*
X285495238Y-10783333D01*
X285371429Y-10845238D01*
X285309524Y-10907143D01*
X285247619Y-11030952D01*
D10*
D11*
X60000000Y-198007200D02*
X60000000Y-200007200D01*
D10*
D11*
X110000000Y-198007200D02*
X110000000Y-200007200D01*
D10*
D11*
X160000000Y-198007200D02*
X160000000Y-200007200D01*
D10*
D11*
X210000000Y-198007200D02*
X210000000Y-200007200D01*
D10*
D11*
X260000000Y-198007200D02*
X260000000Y-200007200D01*
D10*
D11*
X35990476Y-199595295D02*
X35247619Y-199595295D01*
X35619048Y-199595295D02*
X35619048Y-198295295D01*
X35495238Y-198481010D01*
X35371429Y-198604819D01*
X35247619Y-198666724D01*
D10*
D11*
X85247619Y-198419105D02*
X85309524Y-198357200D01*
X85433333Y-198295295D01*
X85742857Y-198295295D01*
X85866667Y-198357200D01*
X85928571Y-198419105D01*
X85990476Y-198542914D01*
X85990476Y-198666724D01*
X85928571Y-198852438D01*
X85185714Y-199595295D01*
X85990476Y-199595295D01*
D10*
D11*
X135185714Y-198295295D02*
X135990476Y-198295295D01*
X135557143Y-198790533D01*
X135742857Y-198790533D01*
X135866667Y-198852438D01*
X135928571Y-198914343D01*
X135990476Y-199038152D01*
X135990476Y-199347676D01*
X135928571Y-199471486D01*
X135866667Y-199533390D01*
X135742857Y-199595295D01*
X135371429Y-199595295D01*
X135247619Y-199533390D01*
X135185714Y-199471486D01*
D10*
D11*
X185866667Y-198728629D02*
X185866667Y-199595295D01*
X185557143Y-198233390D02*
X185247619Y-199161962D01*
X186052381Y-199161962D01*
D10*
D11*
X235928571Y-198295295D02*
X235309524Y-198295295D01*
X235247619Y-198914343D01*
X235309524Y-198852438D01*
X235433333Y-198790533D01*
X235742857Y-198790533D01*
X235866667Y-198852438D01*
X235928571Y-198914343D01*
X235990476Y-199038152D01*
X235990476Y-199347676D01*
X235928571Y-199471486D01*
X235866667Y-199533390D01*
X235742857Y-199595295D01*
X235433333Y-199595295D01*
X235309524Y-199533390D01*
X235247619Y-199471486D01*
D10*
D11*
X285866667Y-198295295D02*
X285619048Y-198295295D01*
X285495238Y-198357200D01*
X285433333Y-198419105D01*
X285309524Y-198604819D01*
X285247619Y-198852438D01*
X285247619Y-199347676D01*
X285309524Y-199471486D01*
X285371429Y-199533390D01*
X285495238Y-199595295D01*
X285742857Y-199595295D01*
X285866667Y-199533390D01*
X285928571Y-199471486D01*
X285990476Y-199347676D01*
X285990476Y-199038152D01*
X285928571Y-198914343D01*
X285866667Y-198852438D01*
X285742857Y-198790533D01*
X285495238Y-198790533D01*
X285371429Y-198852438D01*
X285309524Y-198914343D01*
X285247619Y-199038152D01*
D10*
D11*
X10000000Y-60000000D02*
X12000000Y-60000000D01*
D10*
D11*
X10000000Y-110000000D02*
X12000000Y-110000000D01*
D10*
D11*
X10000000Y-160000000D02*
X12000000Y-160000000D01*
D10*
D11*
X10690476Y-35216667D02*
X11309524Y-35216667D01*
X10566667Y-35588095D02*
X11000000Y-34288095D01*
X11433333Y-35588095D01*
D10*
D11*
X11092857Y-84907143D02*
X11278571Y-84969048D01*
X11340476Y-85030952D01*
X11402381Y-85154762D01*
X11402381Y-85340476D01*
X11340476Y-85464286D01*
X11278571Y-85526190D01*
X11154762Y-85588095D01*
X10659524Y-85588095D01*
X10659524Y-84288095D01*
X11092857Y-84288095D01*
X11216667Y-84350000D01*
X11278571Y-84411905D01*
X11340476Y-84535714D01*
X11340476Y-84659524D01*
X11278571Y-84783333D01*
X11216667Y-84845238D01*
X11092857Y-84907143D01*
X10659524Y-84907143D01*
D10*
D11*
X11402381Y-135464286D02*
X11340476Y-135526190D01*
X11154762Y-135588095D01*
X11030952Y-135588095D01*
X10845238Y-135526190D01*
X10721429Y-135402381D01*
X10659524Y-135278571D01*
X10597619Y-135030952D01*
X10597619Y-134845238D01*
X10659524Y-134597619D01*
X10721429Y-134473810D01*
X10845238Y-134350000D01*
X11030952Y-134288095D01*
X11154762Y-134288095D01*
X11340476Y-134350000D01*
X11402381Y-134411905D01*
D10*
D11*
X10659524Y-185588095D02*
X10659524Y-184288095D01*
X10969048Y-184288095D01*
X11154762Y-184350000D01*
X11278571Y-184473810D01*
X11340476Y-184597619D01*
X11402381Y-184845238D01*
X11402381Y-185030952D01*
X11340476Y-185278571D01*
X11278571Y-185402381D01*
X11154762Y-185526190D01*
X10969048Y-185588095D01*
X10659524Y-185588095D01*
D10*
D11*
X287002200Y-60000000D02*
X285002200Y-60000000D01*
D10*
D11*
X287002200Y-110000000D02*
X285002200Y-110000000D01*
D10*
D11*
X287002200Y-160000000D02*
X285002200Y-160000000D01*
D10*
D11*
X285692676Y-35216667D02*
X286311724Y-35216667D01*
X285568867Y-35588095D02*
X286002200Y-34288095D01*
X286435533Y-35588095D01*
D10*
D11*
X286095057Y-84907143D02*
X286280771Y-84969048D01*
X286342676Y-85030952D01*
X286404581Y-85154762D01*
X286404581Y-85340476D01*
X286342676Y-85464286D01*
X286280771Y-85526190D01*
X286156962Y-85588095D01*
X285661724Y-85588095D01*
X285661724Y-84288095D01*
X286095057Y-84288095D01*
X286218867Y-84350000D01*
X286280771Y-84411905D01*
X286342676Y-84535714D01*
X286342676Y-84659524D01*
X286280771Y-84783333D01*
X286218867Y-84845238D01*
X286095057Y-84907143D01*
X285661724Y-84907143D01*
D10*
D11*
X286404581Y-135464286D02*
X286342676Y-135526190D01*
X286156962Y-135588095D01*
X286033152Y-135588095D01*
X285847438Y-135526190D01*
X285723629Y-135402381D01*
X285661724Y-135278571D01*
X285599819Y-135030952D01*
X285599819Y-134845238D01*
X285661724Y-134597619D01*
X285723629Y-134473810D01*
X285847438Y-134350000D01*
X286033152Y-134288095D01*
X286156962Y-134288095D01*
X286342676Y-134350000D01*
X286404581Y-134411905D01*
D10*
D11*
X285661724Y-185588095D02*
X285661724Y-184288095D01*
X285971248Y-184288095D01*
X286156962Y-184350000D01*
X286280771Y-184473810D01*
X286342676Y-184597619D01*
X286404581Y-184845238D01*
X286404581Y-185030952D01*
X286342676Y-185278571D01*
X286280771Y-185402381D01*
X286156962Y-185526190D01*
X285971248Y-185588095D01*
X285661724Y-185588095D01*
D10*
D11*
X200359343Y-193785771D02*
X200359343Y-192285771D01*
X200716486Y-192285771D01*
X200930771Y-192357200D01*
X201073629Y-192500057D01*
X201145057Y-192642914D01*
X201216486Y-192928629D01*
X201216486Y-193142914D01*
X201145057Y-193428629D01*
X201073629Y-193571486D01*
X200930771Y-193714343D01*
X200716486Y-193785771D01*
X200359343Y-193785771D01*
X202502200Y-193785771D02*
X202502200Y-193000057D01*
X202430771Y-192857200D01*
X202287914Y-192785771D01*
X202002200Y-192785771D01*
X201859343Y-192857200D01*
X202502200Y-193714343D02*
X202359343Y-193785771D01*
X202002200Y-193785771D01*
X201859343Y-193714343D01*
X201787914Y-193571486D01*
X201787914Y-193428629D01*
X201859343Y-193285771D01*
X202002200Y-193214343D01*
X202359343Y-193214343D01*
X202502200Y-193142914D01*
X203002200Y-192785771D02*
X203573629Y-192785771D01*
X203216486Y-192285771D02*
X203216486Y-193571486D01*
X203287914Y-193714343D01*
X203430772Y-193785771D01*
X203573629Y-193785771D01*
X204645057Y-193714343D02*
X204502200Y-193785771D01*
X204216486Y-193785771D01*
X204073629Y-193714343D01*
X204002200Y-193571486D01*
X204002200Y-193000057D01*
X204073629Y-192857200D01*
X204216486Y-192785771D01*
X204502200Y-192785771D01*
X204645057Y-192857200D01*
X204716486Y-193000057D01*
X204716486Y-193142914D01*
X204002200Y-193285771D01*
X205359343Y-193642914D02*
X205430771Y-193714343D01*
X205359343Y-193785771D01*
X205287914Y-193714343D01*
X205359343Y-193642914D01*
X205359343Y-193785771D01*
X205359343Y-192857200D02*
X205430771Y-192928629D01*
X205359343Y-193000057D01*
X205287914Y-192928629D01*
X205359343Y-192857200D01*
X205359343Y-193000057D01*
D10*
D11*
X177002200Y-194507200D02*
X285002200Y-194507200D01*
D10*
D11*
X178359343Y-196585771D02*
X178359343Y-195085771D01*
X179216486Y-196585771D02*
X178573629Y-195728629D01*
X179216486Y-195085771D02*
X178359343Y-195942914D01*
X179859343Y-196585771D02*
X179859343Y-195585771D01*
X179859343Y-195085771D02*
X179787914Y-195157200D01*
X179859343Y-195228629D01*
X179930771Y-195157200D01*
X179859343Y-195085771D01*
X179859343Y-195228629D01*
X181430772Y-196442914D02*
X181359343Y-196514343D01*
X181145057Y-196585771D01*
X181002200Y-196585771D01*
X180787915Y-196514343D01*
X180645057Y-196371486D01*
X180573629Y-196228629D01*
X180502200Y-195942914D01*
X180502200Y-195728629D01*
X180573629Y-195442914D01*
X180645057Y-195300057D01*
X180787915Y-195157200D01*
X181002200Y-195085771D01*
X181145057Y-195085771D01*
X181359343Y-195157200D01*
X181430772Y-195228629D01*
X182716486Y-196585771D02*
X182716486Y-195800057D01*
X182645057Y-195657200D01*
X182502200Y-195585771D01*
X182216486Y-195585771D01*
X182073629Y-195657200D01*
X182716486Y-196514343D02*
X182573629Y-196585771D01*
X182216486Y-196585771D01*
X182073629Y-196514343D01*
X182002200Y-196371486D01*
X182002200Y-196228629D01*
X182073629Y-196085771D01*
X182216486Y-196014343D01*
X182573629Y-196014343D01*
X182716486Y-195942914D01*
X184073629Y-196585771D02*
X184073629Y-195085771D01*
X184073629Y-196514343D02*
X183930772Y-196585771D01*
X183645058Y-196585771D01*
X183502200Y-196514343D01*
X183430772Y-196442914D01*
X183359343Y-196300057D01*
X183359343Y-195871486D01*
X183430772Y-195728629D01*
X183502200Y-195657200D01*
X183645058Y-195585771D01*
X183930772Y-195585771D01*
X184073629Y-195657200D01*
X185930772Y-195800057D02*
X186430772Y-195800057D01*
X186645058Y-196585771D02*
X185930772Y-196585771D01*
X185930772Y-195085771D01*
X186645058Y-195085771D01*
X187287915Y-196442914D02*
X187359343Y-196514343D01*
X187287915Y-196585771D01*
X187216486Y-196514343D01*
X187287915Y-196442914D01*
X187287915Y-196585771D01*
X188002201Y-196585771D02*
X188002201Y-195085771D01*
X188359344Y-195085771D01*
X188573629Y-195157200D01*
X188716487Y-195300057D01*
X188787915Y-195442914D01*
X188859344Y-195728629D01*
X188859344Y-195942914D01*
X188787915Y-196228629D01*
X188716487Y-196371486D01*
X188573629Y-196514343D01*
X188359344Y-196585771D01*
X188002201Y-196585771D01*
X189502201Y-196442914D02*
X189573629Y-196514343D01*
X189502201Y-196585771D01*
X189430772Y-196514343D01*
X189502201Y-196442914D01*
X189502201Y-196585771D01*
X190145058Y-196157200D02*
X190859344Y-196157200D01*
X190002201Y-196585771D02*
X190502201Y-195085771D01*
X191002201Y-196585771D01*
X191502201Y-196442914D02*
X191573629Y-196514343D01*
X191502201Y-196585771D01*
X191430772Y-196514343D01*
X191502201Y-196442914D01*
X191502201Y-196585771D01*
X194502201Y-196585771D02*
X194502201Y-195085771D01*
X194645058Y-196014343D02*
X195073629Y-196585771D01*
X195073629Y-195585771D02*
X194502201Y-196157200D01*
X195716487Y-196585771D02*
X195716487Y-195585771D01*
X195716487Y-195085771D02*
X195645058Y-195157200D01*
X195716487Y-195228629D01*
X195787915Y-195157200D01*
X195716487Y-195085771D01*
X195716487Y-195228629D01*
X197073630Y-196514343D02*
X196930773Y-196585771D01*
X196645059Y-196585771D01*
X196502201Y-196514343D01*
X196430773Y-196442914D01*
X196359344Y-196300057D01*
X196359344Y-195871486D01*
X196430773Y-195728629D01*
X196502201Y-195657200D01*
X196645059Y-195585771D01*
X196930773Y-195585771D01*
X197073630Y-195657200D01*
X198359344Y-196585771D02*
X198359344Y-195800057D01*
X198287915Y-195657200D01*
X198145058Y-195585771D01*
X197859344Y-195585771D01*
X197716487Y-195657200D01*
X198359344Y-196514343D02*
X198216487Y-196585771D01*
X197859344Y-196585771D01*
X197716487Y-196514343D01*
X197645058Y-196371486D01*
X197645058Y-196228629D01*
X197716487Y-196085771D01*
X197859344Y-196014343D01*
X198216487Y-196014343D01*
X198359344Y-195942914D01*
X199716487Y-196585771D02*
X199716487Y-195085771D01*
X199716487Y-196514343D02*
X199573630Y-196585771D01*
X199287916Y-196585771D01*
X199145058Y-196514343D01*
X199073630Y-196442914D01*
X199002201Y-196300057D01*
X199002201Y-195871486D01*
X199073630Y-195728629D01*
X199145058Y-195657200D01*
X199287916Y-195585771D01*
X199573630Y-195585771D01*
X199716487Y-195657200D01*
X202216487Y-195585771D02*
X202216487Y-196585771D01*
X201859344Y-195014343D02*
X201502201Y-196085771D01*
X202430773Y-196085771D01*
X203002201Y-196442914D02*
X203073629Y-196514343D01*
X203002201Y-196585771D01*
X202930772Y-196514343D01*
X203002201Y-196442914D01*
X203002201Y-196585771D01*
X204002201Y-195085771D02*
X204145058Y-195085771D01*
X204287915Y-195157200D01*
X204359344Y-195228629D01*
X204430773Y-195371486D01*
X204502201Y-195657200D01*
X204502201Y-196014343D01*
X204430773Y-196300057D01*
X204359344Y-196442914D01*
X204287915Y-196514343D01*
X204145058Y-196585771D01*
X204002201Y-196585771D01*
X203859344Y-196514343D01*
X203787915Y-196442914D01*
X203716487Y-196300057D01*
X203645058Y-196014343D01*
X203645058Y-195657200D01*
X203716487Y-195371486D01*
X203787915Y-195228629D01*
X203859344Y-195157200D01*
X204002201Y-195085771D01*
X205145058Y-196442914D02*
X205216486Y-196514343D01*
X205145058Y-196585771D01*
X205073629Y-196514343D01*
X205145058Y-196442914D01*
X205145058Y-196585771D01*
X205716487Y-195085771D02*
X206716487Y-195085771D01*
X206073630Y-196585771D01*
D10*
D11*
X177002200Y-191507200D02*
X285002200Y-191507200D01*
D10*
D12*
X264216486Y-193785771D02*
X263716486Y-193071486D01*
X263359343Y-193785771D02*
X263359343Y-192285771D01*
X263930771Y-192285771D01*
X264073629Y-192357200D01*
X264145057Y-192428629D01*
X264216486Y-192571486D01*
X264216486Y-192785771D01*
X264145057Y-192928629D01*
X264073629Y-193000057D01*
X263930771Y-193071486D01*
X263359343Y-193071486D01*
X265430771Y-193714343D02*
X265287914Y-193785771D01*
X265002200Y-193785771D01*
X264859343Y-193714343D01*
X264787914Y-193571486D01*
X264787914Y-193000057D01*
X264859343Y-192857200D01*
X265002200Y-192785771D01*
X265287914Y-192785771D01*
X265430771Y-192857200D01*
X265502200Y-193000057D01*
X265502200Y-193142914D01*
X264787914Y-193285771D01*
X266002200Y-192785771D02*
X266359343Y-193785771D01*
X266716485Y-192785771D01*
X267287914Y-193642914D02*
X267359342Y-193714343D01*
X267287914Y-193785771D01*
X267216485Y-193714343D01*
X267287914Y-193642914D01*
X267287914Y-193785771D01*
X267287914Y-192857200D02*
X267359342Y-192928629D01*
X267287914Y-193000057D01*
X267216485Y-192928629D01*
X267287914Y-192857200D01*
X267287914Y-193000057D01*
D10*
D11*
X178287914Y-193714343D02*
X178502200Y-193785771D01*
X178859343Y-193785771D01*
X179002200Y-193714343D01*
X179073629Y-193642914D01*
X179145057Y-193500057D01*
X179145057Y-193357200D01*
X179073629Y-193214343D01*
X179002200Y-193142914D01*
X178859343Y-193071486D01*
X178573629Y-193000057D01*
X178430771Y-192928629D01*
X178359343Y-192857200D01*
X178287914Y-192714343D01*
X178287914Y-192571486D01*
X178359343Y-192428629D01*
X178430771Y-192357200D01*
X178573629Y-192285771D01*
X178930771Y-192285771D01*
X179145057Y-192357200D01*
X179787914Y-193785771D02*
X179787914Y-192785771D01*
X179787914Y-192285771D02*
X179716485Y-192357200D01*
X179787914Y-192428629D01*
X179859342Y-192357200D01*
X179787914Y-192285771D01*
X179787914Y-192428629D01*
X180359343Y-192785771D02*
X181145057Y-192785771D01*
X180359343Y-193785771D01*
X181145057Y-193785771D01*
X182287914Y-193714343D02*
X182145057Y-193785771D01*
X181859343Y-193785771D01*
X181716486Y-193714343D01*
X181645057Y-193571486D01*
X181645057Y-193000057D01*
X181716486Y-192857200D01*
X181859343Y-192785771D01*
X182145057Y-192785771D01*
X182287914Y-192857200D01*
X182359343Y-193000057D01*
X182359343Y-193142914D01*
X181645057Y-193285771D01*
X183002200Y-193642914D02*
X183073628Y-193714343D01*
X183002200Y-193785771D01*
X182930771Y-193714343D01*
X183002200Y-193642914D01*
X183002200Y-193785771D01*
X183002200Y-192857200D02*
X183073628Y-192928629D01*
X183002200Y-193000057D01*
X182930771Y-192928629D01*
X183002200Y-192857200D01*
X183002200Y-193000057D01*
X184787914Y-193357200D02*
X185502200Y-193357200D01*
X184645057Y-193785771D02*
X185145057Y-192285771D01*
X185645057Y-193785771D01*
X186787914Y-192785771D02*
X186787914Y-193785771D01*
X186430771Y-192214343D02*
X186073628Y-193285771D01*
X187002200Y-193285771D01*
D10*
D11*
X263359343Y-196585771D02*
X263359343Y-195085771D01*
X264716486Y-196585771D02*
X264716486Y-195085771D01*
X264716486Y-196514343D02*
X264573629Y-196585771D01*
X264287915Y-196585771D01*
X264145057Y-196514343D01*
X264073629Y-196442914D01*
X264002200Y-196300057D01*
X264002200Y-195871486D01*
X264073629Y-195728629D01*
X264145057Y-195657200D01*
X264287915Y-195585771D01*
X264573629Y-195585771D01*
X264716486Y-195657200D01*
X265430772Y-196442914D02*
X265502200Y-196514343D01*
X265430772Y-196585771D01*
X265359343Y-196514343D01*
X265430772Y-196442914D01*
X265430772Y-196585771D01*
X265430772Y-195657200D02*
X265502200Y-195728629D01*
X265430772Y-195800057D01*
X265359343Y-195728629D01*
X265430772Y-195657200D01*
X265430772Y-195800057D01*
X268073629Y-196585771D02*
X267216486Y-196585771D01*
X267645058Y-196585771D02*
X267645058Y-195085771D01*
X267502201Y-195300057D01*
X267359343Y-195442914D01*
X267216486Y-195514343D01*
X269787914Y-195014343D02*
X268502200Y-196942914D01*
X271073629Y-196585771D02*
X270216486Y-196585771D01*
X270645058Y-196585771D02*
X270645058Y-195085771D01*
X270502201Y-195300057D01*
X270359343Y-195442914D01*
X270216486Y-195514343D01*
D10*
D11*
X177002200Y-187507200D02*
X285002200Y-187507200D01*
D10*
D13*
X178454581Y-188211962D02*
X179597438Y-188211962D01*
X178776010Y-190211962D02*
X179026010Y-188211962D01*
X180014105Y-190211962D02*
X180180771Y-188878629D01*
X180264105Y-188211962D02*
X180156962Y-188307200D01*
X180240295Y-188402438D01*
X180347439Y-188307200D01*
X180264105Y-188211962D01*
X180240295Y-188402438D01*
X180847438Y-188878629D02*
X181609343Y-188878629D01*
X181216486Y-188211962D02*
X181002200Y-189926248D01*
X181073630Y-190116724D01*
X181252201Y-190211962D01*
X181442677Y-190211962D01*
X182395058Y-190211962D02*
X182216487Y-190116724D01*
X182145057Y-189926248D01*
X182359343Y-188211962D01*
X183930772Y-190116724D02*
X183728391Y-190211962D01*
X183347439Y-190211962D01*
X183168867Y-190116724D01*
X183097438Y-189926248D01*
X183192676Y-189164343D01*
X183311724Y-188973867D01*
X183514105Y-188878629D01*
X183895057Y-188878629D01*
X184073629Y-188973867D01*
X184145057Y-189164343D01*
X184121248Y-189354819D01*
X183145057Y-189545295D01*
X184895057Y-190021486D02*
X184978392Y-190116724D01*
X184871248Y-190211962D01*
X184787915Y-190116724D01*
X184895057Y-190021486D01*
X184871248Y-190211962D01*
X185026010Y-188973867D02*
X185109344Y-189069105D01*
X185002200Y-189164343D01*
X184918867Y-189069105D01*
X185026010Y-188973867D01*
X185002200Y-189164343D01*
D10*
D11*
X178859343Y-185600057D02*
X178359343Y-185600057D01*
X178359343Y-186385771D02*
X178359343Y-184885771D01*
X179073629Y-184885771D01*
X179645057Y-186385771D02*
X179645057Y-185385771D01*
X179645057Y-184885771D02*
X179573628Y-184957200D01*
X179645057Y-185028629D01*
X179716485Y-184957200D01*
X179645057Y-184885771D01*
X179645057Y-185028629D01*
X180573629Y-186385771D02*
X180430771Y-186314343D01*
X180359343Y-186171486D01*
X180359343Y-184885771D01*
X181716485Y-186314343D02*
X181573628Y-186385771D01*
X181287914Y-186385771D01*
X181145057Y-186314343D01*
X181073628Y-186171486D01*
X181073628Y-185600057D01*
X181145057Y-185457200D01*
X181287914Y-185385771D01*
X181573628Y-185385771D01*
X181716485Y-185457200D01*
X181787914Y-185600057D01*
X181787914Y-185742914D01*
X181073628Y-185885771D01*
X182430771Y-186242914D02*
X182502199Y-186314343D01*
X182430771Y-186385771D01*
X182359342Y-186314343D01*
X182430771Y-186242914D01*
X182430771Y-186385771D01*
X182430771Y-185457200D02*
X182502199Y-185528629D01*
X182430771Y-185600057D01*
X182359342Y-185528629D01*
X182430771Y-185457200D01*
X182430771Y-185600057D01*
X184216485Y-185957200D02*
X184930771Y-185957200D01*
X184073628Y-186385771D02*
X184573628Y-184885771D01*
X185073628Y-186385771D01*
X185573628Y-185385771D02*
X185573628Y-186385771D01*
X185573628Y-185528629D02*
X185645056Y-185457200D01*
X185787914Y-185385771D01*
X186002199Y-185385771D01*
X186145056Y-185457200D01*
X186216485Y-185600057D01*
X186216485Y-186385771D01*
X187502199Y-186314343D02*
X187359342Y-186385771D01*
X187073628Y-186385771D01*
X186930771Y-186314343D01*
X186859342Y-186171486D01*
X186859342Y-185600057D01*
X186930771Y-185457200D01*
X187073628Y-185385771D01*
X187359342Y-185385771D01*
X187502199Y-185457200D01*
X187573628Y-185600057D01*
X187573628Y-185742914D01*
X186859342Y-185885771D01*
X188216485Y-186385771D02*
X188216485Y-185385771D01*
X188216485Y-185528629D02*
X188287913Y-185457200D01*
X188430771Y-185385771D01*
X188645056Y-185385771D01*
X188787913Y-185457200D01*
X188859342Y-185600057D01*
X188859342Y-186385771D01*
X188859342Y-185600057D02*
X188930771Y-185457200D01*
X189073628Y-185385771D01*
X189287913Y-185385771D01*
X189430771Y-185457200D01*
X189502199Y-185600057D01*
X189502199Y-186385771D01*
X190430771Y-186385771D02*
X190287913Y-186314343D01*
X190216485Y-186242914D01*
X190145056Y-186100057D01*
X190145056Y-185671486D01*
X190216485Y-185528629D01*
X190287913Y-185457200D01*
X190430771Y-185385771D01*
X190645056Y-185385771D01*
X190787913Y-185457200D01*
X190859342Y-185528629D01*
X190930771Y-185671486D01*
X190930771Y-186100057D01*
X190859342Y-186242914D01*
X190787913Y-186314343D01*
X190645056Y-186385771D01*
X190430771Y-186385771D01*
X191573628Y-186385771D02*
X191573628Y-185385771D01*
X191573628Y-185528629D02*
X191645056Y-185457200D01*
X191787914Y-185385771D01*
X192002199Y-185385771D01*
X192145056Y-185457200D01*
X192216485Y-185600057D01*
X192216485Y-186385771D01*
X192216485Y-185600057D02*
X192287914Y-185457200D01*
X192430771Y-185385771D01*
X192645056Y-185385771D01*
X192787914Y-185457200D01*
X192859342Y-185600057D01*
X192859342Y-186385771D01*
X194145056Y-186314343D02*
X194002199Y-186385771D01*
X193716485Y-186385771D01*
X193573628Y-186314343D01*
X193502199Y-186171486D01*
X193502199Y-185600057D01*
X193573628Y-185457200D01*
X193716485Y-185385771D01*
X194002199Y-185385771D01*
X194145056Y-185457200D01*
X194216485Y-185600057D01*
X194216485Y-185742914D01*
X193502199Y-185885771D01*
X194645056Y-185385771D02*
X195216485Y-185385771D01*
X194859342Y-184885771D02*
X194859342Y-186171486D01*
X194930770Y-186314343D01*
X195073628Y-186385771D01*
X195216485Y-186385771D01*
X196287913Y-186314343D02*
X196145056Y-186385771D01*
X195859342Y-186385771D01*
X195716485Y-186314343D01*
X195645056Y-186171486D01*
X195645056Y-185600057D01*
X195716485Y-185457200D01*
X195859342Y-185385771D01*
X196145056Y-185385771D01*
X196287913Y-185457200D01*
X196359342Y-185600057D01*
X196359342Y-185742914D01*
X195645056Y-185885771D01*
X197002199Y-186385771D02*
X197002199Y-185385771D01*
X197002199Y-185671486D02*
X197073627Y-185528629D01*
X197145056Y-185457200D01*
X197287913Y-185385771D01*
X197430770Y-185385771D01*
X197573627Y-186528629D02*
X198716484Y-186528629D01*
X199002198Y-186314343D02*
X199216484Y-186385771D01*
X199573627Y-186385771D01*
X199716484Y-186314343D01*
X199787913Y-186242914D01*
X199859341Y-186100057D01*
X199859341Y-185957200D01*
X199787913Y-185814343D01*
X199716484Y-185742914D01*
X199573627Y-185671486D01*
X199287913Y-185600057D01*
X199145055Y-185528629D01*
X199073627Y-185457200D01*
X199002198Y-185314343D01*
X199002198Y-185171486D01*
X199073627Y-185028629D01*
X199145055Y-184957200D01*
X199287913Y-184885771D01*
X199645055Y-184885771D01*
X199859341Y-184957200D01*
X201145055Y-186314343D02*
X201002198Y-186385771D01*
X200716484Y-186385771D01*
X200573626Y-186314343D01*
X200502198Y-186242914D01*
X200430769Y-186100057D01*
X200430769Y-185671486D01*
X200502198Y-185528629D01*
X200573626Y-185457200D01*
X200716484Y-185385771D01*
X201002198Y-185385771D01*
X201145055Y-185457200D01*
X201787912Y-186385771D02*
X201787912Y-184885771D01*
X202430769Y-186385771D02*
X202430769Y-185600057D01*
X202359340Y-185457200D01*
X202216483Y-185385771D01*
X202002198Y-185385771D01*
X201859340Y-185457200D01*
X201787912Y-185528629D01*
X203716483Y-186314343D02*
X203573626Y-186385771D01*
X203287912Y-186385771D01*
X203145055Y-186314343D01*
X203073626Y-186171486D01*
X203073626Y-185600057D01*
X203145055Y-185457200D01*
X203287912Y-185385771D01*
X203573626Y-185385771D01*
X203716483Y-185457200D01*
X203787912Y-185600057D01*
X203787912Y-185742914D01*
X203073626Y-185885771D01*
X204430769Y-186385771D02*
X204430769Y-185385771D01*
X204430769Y-185528629D02*
X204502197Y-185457200D01*
X204645055Y-185385771D01*
X204859340Y-185385771D01*
X205002197Y-185457200D01*
X205073626Y-185600057D01*
X205073626Y-186385771D01*
X205073626Y-185600057D02*
X205145055Y-185457200D01*
X205287912Y-185385771D01*
X205502197Y-185385771D01*
X205645055Y-185457200D01*
X205716483Y-185600057D01*
X205716483Y-186385771D01*
X207073626Y-186385771D02*
X207073626Y-185600057D01*
X207002197Y-185457200D01*
X206859340Y-185385771D01*
X206573626Y-185385771D01*
X206430769Y-185457200D01*
X207073626Y-186314343D02*
X206930769Y-186385771D01*
X206573626Y-186385771D01*
X206430769Y-186314343D01*
X206359340Y-186171486D01*
X206359340Y-186028629D01*
X206430769Y-185885771D01*
X206573626Y-185814343D01*
X206930769Y-185814343D01*
X207073626Y-185742914D01*
X207573626Y-185385771D02*
X208145055Y-185385771D01*
X207787912Y-184885771D02*
X207787912Y-186171486D01*
X207859340Y-186314343D01*
X208002198Y-186385771D01*
X208145055Y-186385771D01*
X208645055Y-186385771D02*
X208645055Y-185385771D01*
X208645055Y-184885771D02*
X208573626Y-184957200D01*
X208645055Y-185028629D01*
X208716483Y-184957200D01*
X208645055Y-184885771D01*
X208645055Y-185028629D01*
X210002198Y-186314343D02*
X209859341Y-186385771D01*
X209573627Y-186385771D01*
X209430769Y-186314343D01*
X209359341Y-186242914D01*
X209287912Y-186100057D01*
X209287912Y-185671486D01*
X209359341Y-185528629D01*
X209430769Y-185457200D01*
X209573627Y-185385771D01*
X209859341Y-185385771D01*
X210002198Y-185457200D01*
X210287912Y-186528629D02*
X211430769Y-186528629D01*
X211787912Y-185814343D02*
X212930769Y-185814343D01*
X213287912Y-186528629D02*
X214430769Y-186528629D01*
X214716483Y-185957200D02*
X215430769Y-185957200D01*
X214573626Y-186385771D02*
X215073626Y-184885771D01*
X215573626Y-186385771D01*
X216073626Y-185385771D02*
X216073626Y-186385771D01*
X216073626Y-185528629D02*
X216145054Y-185457200D01*
X216287912Y-185385771D01*
X216502197Y-185385771D01*
X216645054Y-185457200D01*
X216716483Y-185600057D01*
X216716483Y-186385771D01*
X218073626Y-186385771D02*
X218073626Y-185600057D01*
X218002197Y-185457200D01*
X217859340Y-185385771D01*
X217573626Y-185385771D01*
X217430769Y-185457200D01*
X218073626Y-186314343D02*
X217930769Y-186385771D01*
X217573626Y-186385771D01*
X217430769Y-186314343D01*
X217359340Y-186171486D01*
X217359340Y-186028629D01*
X217430769Y-185885771D01*
X217573626Y-185814343D01*
X217930769Y-185814343D01*
X218073626Y-185742914D01*
X219002198Y-186385771D02*
X218859340Y-186314343D01*
X218787912Y-186171486D01*
X218787912Y-184885771D01*
X219787912Y-186385771D02*
X219645054Y-186314343D01*
X219573626Y-186242914D01*
X219502197Y-186100057D01*
X219502197Y-185671486D01*
X219573626Y-185528629D01*
X219645054Y-185457200D01*
X219787912Y-185385771D01*
X220002197Y-185385771D01*
X220145054Y-185457200D01*
X220216483Y-185528629D01*
X220287912Y-185671486D01*
X220287912Y-186100057D01*
X220216483Y-186242914D01*
X220145054Y-186314343D01*
X220002197Y-186385771D01*
X219787912Y-186385771D01*
X221573626Y-185385771D02*
X221573626Y-186600057D01*
X221502197Y-186742914D01*
X221430769Y-186814343D01*
X221287912Y-186885771D01*
X221073626Y-186885771D01*
X220930769Y-186814343D01*
X221573626Y-186314343D02*
X221430769Y-186385771D01*
X221145055Y-186385771D01*
X221002197Y-186314343D01*
X220930769Y-186242914D01*
X220859340Y-186100057D01*
X220859340Y-185671486D01*
X220930769Y-185528629D01*
X221002197Y-185457200D01*
X221145055Y-185385771D01*
X221430769Y-185385771D01*
X221573626Y-185457200D01*
X221930769Y-186528629D02*
X223073626Y-186528629D01*
X223716483Y-184885771D02*
X224002197Y-184885771D01*
X224145055Y-184957200D01*
X224287912Y-185100057D01*
X224359340Y-185385771D01*
X224359340Y-185885771D01*
X224287912Y-186171486D01*
X224145055Y-186314343D01*
X224002197Y-186385771D01*
X223716483Y-186385771D01*
X223573626Y-186314343D01*
X223430769Y-186171486D01*
X223359340Y-185885771D01*
X223359340Y-185385771D01*
X223430769Y-185100057D01*
X223573626Y-184957200D01*
X223716483Y-184885771D01*
X225002198Y-185385771D02*
X225002198Y-186385771D01*
X225002198Y-185528629D02*
X225073626Y-185457200D01*
X225216484Y-185385771D01*
X225430769Y-185385771D01*
X225573626Y-185457200D01*
X225645055Y-185600057D01*
X225645055Y-186385771D01*
X226573627Y-186385771D02*
X226430769Y-186314343D01*
X226359341Y-186171486D01*
X226359341Y-184885771D01*
X227002198Y-185385771D02*
X227359341Y-186385771D01*
X227716483Y-185385771D02*
X227359341Y-186385771D01*
X227216483Y-186742914D01*
X227145055Y-186814343D01*
X227002198Y-186885771D01*
X228287912Y-186242914D02*
X228359340Y-186314343D01*
X228287912Y-186385771D01*
X228216483Y-186314343D01*
X228287912Y-186242914D01*
X228287912Y-186385771D01*
X229002198Y-186385771D02*
X229002198Y-184885771D01*
X229145055Y-185814343D02*
X229573626Y-186385771D01*
X229573626Y-185385771D02*
X229002198Y-185957200D01*
X230216484Y-186385771D02*
X230216484Y-185385771D01*
X230216484Y-184885771D02*
X230145055Y-184957200D01*
X230216484Y-185028629D01*
X230287912Y-184957200D01*
X230216484Y-184885771D01*
X230216484Y-185028629D01*
X231573627Y-186314343D02*
X231430770Y-186385771D01*
X231145056Y-186385771D01*
X231002198Y-186314343D01*
X230930770Y-186242914D01*
X230859341Y-186100057D01*
X230859341Y-185671486D01*
X230930770Y-185528629D01*
X231002198Y-185457200D01*
X231145056Y-185385771D01*
X231430770Y-185385771D01*
X231573627Y-185457200D01*
X232859341Y-186385771D02*
X232859341Y-185600057D01*
X232787912Y-185457200D01*
X232645055Y-185385771D01*
X232359341Y-185385771D01*
X232216484Y-185457200D01*
X232859341Y-186314343D02*
X232716484Y-186385771D01*
X232359341Y-186385771D01*
X232216484Y-186314343D01*
X232145055Y-186171486D01*
X232145055Y-186028629D01*
X232216484Y-185885771D01*
X232359341Y-185814343D01*
X232716484Y-185814343D01*
X232859341Y-185742914D01*
X234216484Y-186385771D02*
X234216484Y-184885771D01*
X234216484Y-186314343D02*
X234073627Y-186385771D01*
X233787913Y-186385771D01*
X233645055Y-186314343D01*
X233573627Y-186242914D01*
X233502198Y-186100057D01*
X233502198Y-185671486D01*
X233573627Y-185528629D01*
X233645055Y-185457200D01*
X233787913Y-185385771D01*
X234073627Y-185385771D01*
X234216484Y-185457200D01*
X234573627Y-186528629D02*
X235716484Y-186528629D01*
X236073627Y-185385771D02*
X236073627Y-186885771D01*
X236073627Y-185457200D02*
X236216484Y-185385771D01*
X236502198Y-185385771D01*
X236645055Y-185457200D01*
X236716484Y-185528629D01*
X236787913Y-185671486D01*
X236787913Y-186100057D01*
X236716484Y-186242914D01*
X236645055Y-186314343D01*
X236502198Y-186385771D01*
X236216484Y-186385771D01*
X236073627Y-186314343D01*
X238073627Y-186314343D02*
X237930770Y-186385771D01*
X237645056Y-186385771D01*
X237502198Y-186314343D01*
X237430770Y-186242914D01*
X237359341Y-186100057D01*
X237359341Y-185671486D01*
X237430770Y-185528629D01*
X237502198Y-185457200D01*
X237645056Y-185385771D01*
X237930770Y-185385771D01*
X238073627Y-185457200D01*
X238716484Y-186385771D02*
X238716484Y-184885771D01*
X238716484Y-185457200D02*
X238859341Y-185385771D01*
X239145055Y-185385771D01*
X239287912Y-185457200D01*
X239359341Y-185528629D01*
X239430770Y-185671486D01*
X239430770Y-186100057D01*
X239359341Y-186242914D01*
X239287912Y-186314343D01*
X239145055Y-186385771D01*
X238859341Y-186385771D01*
X238716484Y-186314343D01*
D10*
D11*
X177002200Y-181507200D02*
X285002200Y-181507200D01*
D10*
D11*
X178287914Y-183614343D02*
X178502200Y-183685771D01*
X178859343Y-183685771D01*
X179002200Y-183614343D01*
X179073629Y-183542914D01*
X179145057Y-183400057D01*
X179145057Y-183257200D01*
X179073629Y-183114343D01*
X179002200Y-183042914D01*
X178859343Y-182971486D01*
X178573629Y-182900057D01*
X178430771Y-182828629D01*
X178359343Y-182757200D01*
X178287914Y-182614343D01*
X178287914Y-182471486D01*
X178359343Y-182328629D01*
X178430771Y-182257200D01*
X178573629Y-182185771D01*
X178930771Y-182185771D01*
X179145057Y-182257200D01*
X179787914Y-183685771D02*
X179787914Y-182185771D01*
X180430771Y-183685771D02*
X180430771Y-182900057D01*
X180359342Y-182757200D01*
X180216485Y-182685771D01*
X180002200Y-182685771D01*
X179859342Y-182757200D01*
X179787914Y-182828629D01*
X181716485Y-183614343D02*
X181573628Y-183685771D01*
X181287914Y-183685771D01*
X181145057Y-183614343D01*
X181073628Y-183471486D01*
X181073628Y-182900057D01*
X181145057Y-182757200D01*
X181287914Y-182685771D01*
X181573628Y-182685771D01*
X181716485Y-182757200D01*
X181787914Y-182900057D01*
X181787914Y-183042914D01*
X181073628Y-183185771D01*
X183002199Y-183614343D02*
X182859342Y-183685771D01*
X182573628Y-183685771D01*
X182430771Y-183614343D01*
X182359342Y-183471486D01*
X182359342Y-182900057D01*
X182430771Y-182757200D01*
X182573628Y-182685771D01*
X182859342Y-182685771D01*
X183002199Y-182757200D01*
X183073628Y-182900057D01*
X183073628Y-183042914D01*
X182359342Y-183185771D01*
X183502199Y-182685771D02*
X184073628Y-182685771D01*
X183716485Y-182185771D02*
X183716485Y-183471486D01*
X183787913Y-183614343D01*
X183930771Y-183685771D01*
X184073628Y-183685771D01*
X184573628Y-183542914D02*
X184645056Y-183614343D01*
X184573628Y-183685771D01*
X184502199Y-183614343D01*
X184573628Y-183542914D01*
X184573628Y-183685771D01*
X184573628Y-182757200D02*
X184645056Y-182828629D01*
X184573628Y-182900057D01*
X184502199Y-182828629D01*
X184573628Y-182757200D01*
X184573628Y-182900057D01*
D10*
D11*
X197002200Y-191507200D02*
X197002200Y-194507200D01*
D10*
D11*
X261002200Y-191507200D02*
X261002200Y-198007200D01*
D10*
X143771540Y-120740120D02*
X143771540Y-119940120D01*
X145371540Y-120740120D02*
X143771540Y-120740120D01*
X145371540Y-119940120D02*
X145371540Y-120740120D01*
X143771540Y-119940120D02*
X145371540Y-119940120D01*
X88381940Y-115672820D02*
X88381940Y-114872820D01*
X89981940Y-115672820D02*
X88381940Y-115672820D01*
X89981940Y-114872820D02*
X89981940Y-115672820D01*
X88381940Y-114872820D02*
X89981940Y-114872820D01*
X124800000Y-124600000D02*
X125600000Y-124600000D01*
X124800000Y-126200000D02*
X124800000Y-124600000D01*
X125600000Y-126200000D02*
X124800000Y-126200000D01*
X125600000Y-124600000D02*
X125600000Y-126200000D01*
X89800000Y-119800000D02*
X89800000Y-120600000D01*
X88200000Y-119800000D02*
X89800000Y-119800000D01*
X88200000Y-120600000D02*
X88200000Y-119800000D01*
X89800000Y-120600000D02*
X88200000Y-120600000D01*
X144079020Y-124316440D02*
X144079020Y-123516440D01*
X145679020Y-124316440D02*
X144079020Y-124316440D01*
X145679020Y-123516440D02*
X145679020Y-124316440D01*
X144079020Y-123516440D02*
X145679020Y-123516440D01*
X162161280Y-123018500D02*
X162161280Y-122218500D01*
X163761280Y-123018500D02*
X162161280Y-123018500D01*
X163761280Y-122218500D02*
X163761280Y-123018500D01*
X162161280Y-122218500D02*
X163761280Y-122218500D01*
X82384960Y-118781780D02*
X82384960Y-117981780D01*
X83984960Y-118781780D02*
X82384960Y-118781780D01*
X83984960Y-117981780D02*
X83984960Y-118781780D01*
X82384960Y-117981780D02*
X83984960Y-117981780D01*
X82184960Y-126126600D02*
X82184960Y-125326600D01*
X83784960Y-126126600D02*
X82184960Y-126126600D01*
X83784960Y-125326600D02*
X83784960Y-126126600D01*
X82184960Y-125326600D02*
X83784960Y-125326600D01*
X88000000Y-123000000D02*
X88800000Y-123000000D01*
X88000000Y-124600000D02*
X88000000Y-123000000D01*
X88800000Y-124600000D02*
X88000000Y-124600000D01*
X88800000Y-123000000D02*
X88800000Y-124600000D01*
X109800000Y-128200000D02*
X109000000Y-128200000D01*
X109800000Y-126600000D02*
X109800000Y-128200000D01*
X109000000Y-126600000D02*
X109800000Y-126600000D01*
X109000000Y-128200000D02*
X109000000Y-126600000D01*
X113800000Y-111800000D02*
X113000000Y-111800000D01*
X113800000Y-110200000D02*
X113800000Y-111800000D01*
X113000000Y-110200000D02*
X113800000Y-110200000D01*
X113000000Y-111800000D02*
X113000000Y-110200000D01*
X162293360Y-117384780D02*
X162293360Y-116584780D01*
X163893360Y-117384780D02*
X162293360Y-117384780D01*
X163893360Y-116584780D02*
X163893360Y-117384780D01*
X162293360Y-116584780D02*
X163893360Y-116584780D01*
X161772660Y-114689840D02*
X161772660Y-113889840D01*
X163372660Y-114689840D02*
X161772660Y-114689840D01*
X163372660Y-113889840D02*
X163372660Y-114689840D01*
X161772660Y-113889840D02*
X163372660Y-113889840D01*
X162008880Y-121052540D02*
X162008880Y-120252540D01*
X163608880Y-121052540D02*
X162008880Y-121052540D01*
X163608880Y-120252540D02*
X163608880Y-121052540D01*
X162008880Y-120252540D02*
X163608880Y-120252540D01*
X140000000Y-107000000D02*
X140000000Y-106200000D01*
X141600000Y-107000000D02*
X140000000Y-107000000D01*
X141600000Y-106200000D02*
X141600000Y-107000000D01*
X140000000Y-106200000D02*
X141600000Y-106200000D01*
X140200000Y-108800000D02*
X140200000Y-108000000D01*
X141800000Y-108800000D02*
X140200000Y-108800000D01*
X141800000Y-108000000D02*
X141800000Y-108800000D01*
X140200000Y-108000000D02*
X141800000Y-108000000D01*
X112490000Y-106770000D02*
X137890000Y-106770000D01*
X137890000Y-106770000D02*
X137890000Y-104230000D01*
X137890000Y-104230000D02*
X112490000Y-104230000D01*
X112490000Y-104230000D02*
X112490000Y-106770000D01*
X138066040Y-117525760D02*
X138066040Y-119975760D01*
X138616040Y-116955760D02*
X139466040Y-116955760D01*
X138066040Y-117525760D02*
X138616040Y-116955760D01*
X139466040Y-116955760D02*
X139466040Y-119995760D01*
X138066040Y-119995760D02*
X139466040Y-119995760D01*
X127967400Y-114557160D02*
X127967400Y-117007160D01*
X128517400Y-113987160D02*
X129367400Y-113987160D01*
X127967400Y-114557160D02*
X128517400Y-113987160D01*
X129367400Y-113987160D02*
X129367400Y-117027160D01*
X127967400Y-117027160D02*
X129367400Y-117027160D01*
X84078800Y-115055700D02*
X84078800Y-115855700D01*
X82478800Y-115055700D02*
X84078800Y-115055700D01*
X82478800Y-115855700D02*
X82478800Y-115055700D01*
X84078800Y-115855700D02*
X82478800Y-115855700D01*
X133657060Y-124103180D02*
X133657060Y-124903180D01*
X132057060Y-124103180D02*
X133657060Y-124103180D01*
X132057060Y-124903180D02*
X132057060Y-124103180D01*
X133657060Y-124903180D02*
X132057060Y-124903180D01*
X128000000Y-124800000D02*
X128800000Y-124800000D01*
X128000000Y-126400000D02*
X128000000Y-124800000D01*
X128800000Y-126400000D02*
X128000000Y-126400000D01*
X128800000Y-124800000D02*
X128800000Y-126400000D01*
X88221740Y-112500360D02*
X88221740Y-111700360D01*
X89821740Y-112500360D02*
X88221740Y-112500360D01*
X89821740Y-111700360D02*
X89821740Y-112500360D01*
X88221740Y-111700360D02*
X89821740Y-111700360D01*
X138175920Y-112657840D02*
X138175920Y-111857840D01*
X139775920Y-112657840D02*
X138175920Y-112657840D01*
X139775920Y-111857840D02*
X139775920Y-112657840D01*
X138175920Y-111857840D02*
X139775920Y-111857840D01*
X82570160Y-112741660D02*
X82570160Y-111941660D01*
X84170160Y-112741660D02*
X82570160Y-112741660D01*
X84170160Y-111941660D02*
X84170160Y-112741660D01*
X82570160Y-111941660D02*
X84170160Y-111941660D01*
X145371540Y-115898980D02*
X145371540Y-116698980D01*
X143771540Y-115898980D02*
X145371540Y-115898980D01*
X143771540Y-116698980D02*
X143771540Y-115898980D01*
X145371540Y-116698980D02*
X143771540Y-116698980D01*
X88003300Y-118413480D02*
X88003300Y-117613480D01*
X89603300Y-118413480D02*
X88003300Y-118413480D01*
X89603300Y-117613480D02*
X89603300Y-118413480D01*
X88003300Y-117613480D02*
X89603300Y-117613480D01*
X143474540Y-112967720D02*
X143474540Y-112167720D01*
X145074540Y-112967720D02*
X143474540Y-112967720D01*
X145074540Y-112167720D02*
X145074540Y-112967720D01*
X143474540Y-112167720D02*
X145074540Y-112167720D01*
X82276620Y-123271640D02*
X82276620Y-122471640D01*
X83876620Y-123271640D02*
X82276620Y-123271640D01*
X83876620Y-122471640D02*
X83876620Y-123271640D01*
X82276620Y-122471640D02*
X83876620Y-122471640D01*
X99690000Y-131680000D02*
X99690000Y-132480000D01*
X98090000Y-131680000D02*
X99690000Y-131680000D01*
X98090000Y-132480000D02*
X98090000Y-131680000D01*
X99690000Y-132480000D02*
X98090000Y-132480000D01*
X161521060Y-111692640D02*
X161521060Y-110892640D01*
X163121060Y-111692640D02*
X161521060Y-111692640D01*
X163121060Y-110892640D02*
X163121060Y-111692640D01*
X161521060Y-110892640D02*
X163121060Y-110892640D01*
X107600000Y-123200000D02*
X107600000Y-122400000D01*
X109200000Y-123200000D02*
X107600000Y-123200000D01*
X109200000Y-122400000D02*
X109200000Y-123200000D01*
X107600000Y-122400000D02*
X109200000Y-122400000D01*
X109400000Y-110400000D02*
X108600000Y-110400000D01*
X109400000Y-108800000D02*
X109400000Y-110400000D01*
X108600000Y-108800000D02*
X109400000Y-108800000D01*
X108600000Y-110400000D02*
X108600000Y-108800000D01*
X114000000Y-114600000D02*
X114000000Y-113800000D01*
X115600000Y-114600000D02*
X114000000Y-114600000D01*
X115600000Y-113800000D02*
X115600000Y-114600000D01*
X114000000Y-113800000D02*
X115600000Y-113800000D01*
X108800000Y-120400000D02*
X108800000Y-119600000D01*
X110400000Y-120400000D02*
X108800000Y-120400000D01*
X110400000Y-119600000D02*
X110400000Y-120400000D01*
X108800000Y-119600000D02*
X110400000Y-119600000D01*
X106257040Y-119039360D02*
X105457040Y-119039360D01*
X106257040Y-117439360D02*
X106257040Y-119039360D01*
X105457040Y-117439360D02*
X106257040Y-117439360D01*
X105457040Y-119039360D02*
X105457040Y-117439360D01*
X108904960Y-116094460D02*
X108904960Y-115294460D01*
X110504960Y-116094460D02*
X108904960Y-116094460D01*
X110504960Y-115294460D02*
X110504960Y-116094460D01*
X108904960Y-115294460D02*
X110504960Y-115294460D01*
X110400000Y-113400000D02*
X110400000Y-114200000D01*
X108800000Y-113400000D02*
X110400000Y-113400000D01*
X108800000Y-114200000D02*
X108800000Y-113400000D01*
X110400000Y-114200000D02*
X108800000Y-114200000D01*
X124160000Y-118980000D02*
X124160000Y-119780000D01*
X122560000Y-118980000D02*
X124160000Y-118980000D01*
X122560000Y-119780000D02*
X122560000Y-118980000D01*
X124160000Y-119780000D02*
X122560000Y-119780000D01*
X133600000Y-121200000D02*
X133600000Y-122000000D01*
X132000000Y-121200000D02*
X133600000Y-121200000D01*
X132000000Y-122000000D02*
X132000000Y-121200000D01*
X133600000Y-122000000D02*
X132000000Y-122000000D01*
D11*
X163071429Y-93685714D02*
X163309524Y-94352381D01*
X163547620Y-93685714D01*
X163928572Y-94352381D02*
X163928572Y-93685714D01*
X163928572Y-93352381D02*
X163880953Y-93400000D01*
X163928572Y-93447619D01*
X163976191Y-93400000D01*
X163928572Y-93352381D01*
X163928572Y-93447619D01*
X164833334Y-94352381D02*
X164833334Y-93828571D01*
X164785715Y-93733333D01*
X164690477Y-93685714D01*
X164500000Y-93685714D01*
X164404762Y-93733333D01*
X164833334Y-94304762D02*
X164738096Y-94352381D01*
X164500000Y-94352381D01*
X164404762Y-94304762D01*
X164357143Y-94209524D01*
X164357143Y-94114286D01*
X164404762Y-94019048D01*
X164500000Y-93971429D01*
X164738096Y-93971429D01*
X164833334Y-93923810D01*
X104071429Y-126085714D02*
X104309524Y-126752381D01*
X104547620Y-126085714D01*
X104928572Y-126752381D02*
X104928572Y-126085714D01*
X104928572Y-125752381D02*
X104880953Y-125800000D01*
X104928572Y-125847619D01*
X104976191Y-125800000D01*
X104928572Y-125752381D01*
X104928572Y-125847619D01*
X105833334Y-126752381D02*
X105833334Y-126228571D01*
X105785715Y-126133333D01*
X105690477Y-126085714D01*
X105500000Y-126085714D01*
X105404762Y-126133333D01*
X105833334Y-126704762D02*
X105738096Y-126752381D01*
X105500000Y-126752381D01*
X105404762Y-126704762D01*
X105357143Y-126609524D01*
X105357143Y-126514286D01*
X105404762Y-126419048D01*
X105500000Y-126371429D01*
X105738096Y-126371429D01*
X105833334Y-126323810D01*
X85271429Y-128085714D02*
X85509524Y-128752381D01*
X85747620Y-128085714D01*
X86128572Y-128752381D02*
X86128572Y-128085714D01*
X86128572Y-127752381D02*
X86080953Y-127800000D01*
X86128572Y-127847619D01*
X86176191Y-127800000D01*
X86128572Y-127752381D01*
X86128572Y-127847619D01*
X87033334Y-128752381D02*
X87033334Y-128228571D01*
X86985715Y-128133333D01*
X86890477Y-128085714D01*
X86700000Y-128085714D01*
X86604762Y-128133333D01*
X87033334Y-128704762D02*
X86938096Y-128752381D01*
X86700000Y-128752381D01*
X86604762Y-128704762D01*
X86557143Y-128609524D01*
X86557143Y-128514286D01*
X86604762Y-128419048D01*
X86700000Y-128371429D01*
X86938096Y-128371429D01*
X87033334Y-128323810D01*
X97271429Y-122285714D02*
X97509524Y-122952381D01*
X97747620Y-122285714D01*
X98128572Y-122952381D02*
X98128572Y-122285714D01*
X98128572Y-121952381D02*
X98080953Y-122000000D01*
X98128572Y-122047619D01*
X98176191Y-122000000D01*
X98128572Y-121952381D01*
X98128572Y-122047619D01*
X99033334Y-122952381D02*
X99033334Y-122428571D01*
X98985715Y-122333333D01*
X98890477Y-122285714D01*
X98700000Y-122285714D01*
X98604762Y-122333333D01*
X99033334Y-122904762D02*
X98938096Y-122952381D01*
X98700000Y-122952381D01*
X98604762Y-122904762D01*
X98557143Y-122809524D01*
X98557143Y-122714286D01*
X98604762Y-122619048D01*
X98700000Y-122571429D01*
X98938096Y-122571429D01*
X99033334Y-122523810D01*
X97071429Y-112885714D02*
X97309524Y-113552381D01*
X97547620Y-112885714D01*
X97928572Y-113552381D02*
X97928572Y-112885714D01*
X97928572Y-112552381D02*
X97880953Y-112600000D01*
X97928572Y-112647619D01*
X97976191Y-112600000D01*
X97928572Y-112552381D01*
X97928572Y-112647619D01*
X98833334Y-113552381D02*
X98833334Y-113028571D01*
X98785715Y-112933333D01*
X98690477Y-112885714D01*
X98500000Y-112885714D01*
X98404762Y-112933333D01*
X98833334Y-113504762D02*
X98738096Y-113552381D01*
X98500000Y-113552381D01*
X98404762Y-113504762D01*
X98357143Y-113409524D01*
X98357143Y-113314286D01*
X98404762Y-113219048D01*
X98500000Y-113171429D01*
X98738096Y-113171429D01*
X98833334Y-113123810D01*
X113271429Y-128485714D02*
X113509524Y-129152381D01*
X113747620Y-128485714D01*
X114128572Y-129152381D02*
X114128572Y-128485714D01*
X114128572Y-128152381D02*
X114080953Y-128200000D01*
X114128572Y-128247619D01*
X114176191Y-128200000D01*
X114128572Y-128152381D01*
X114128572Y-128247619D01*
X115033334Y-129152381D02*
X115033334Y-128628571D01*
X114985715Y-128533333D01*
X114890477Y-128485714D01*
X114700000Y-128485714D01*
X114604762Y-128533333D01*
X115033334Y-129104762D02*
X114938096Y-129152381D01*
X114700000Y-129152381D01*
X114604762Y-129104762D01*
X114557143Y-129009524D01*
X114557143Y-128914286D01*
X114604762Y-128819048D01*
X114700000Y-128771429D01*
X114938096Y-128771429D01*
X115033334Y-128723810D01*
X137871429Y-122485714D02*
X138109524Y-123152381D01*
X138347620Y-122485714D01*
X138728572Y-123152381D02*
X138728572Y-122485714D01*
X138728572Y-122152381D02*
X138680953Y-122200000D01*
X138728572Y-122247619D01*
X138776191Y-122200000D01*
X138728572Y-122152381D01*
X138728572Y-122247619D01*
X139633334Y-123152381D02*
X139633334Y-122628571D01*
X139585715Y-122533333D01*
X139490477Y-122485714D01*
X139300000Y-122485714D01*
X139204762Y-122533333D01*
X139633334Y-123104762D02*
X139538096Y-123152381D01*
X139300000Y-123152381D01*
X139204762Y-123104762D01*
X139157143Y-123009524D01*
X139157143Y-122914286D01*
X139204762Y-122819048D01*
X139300000Y-122771429D01*
X139538096Y-122771429D01*
X139633334Y-122723810D01*
X166671429Y-125885714D02*
X166909524Y-126552381D01*
X167147620Y-125885714D01*
X167528572Y-126552381D02*
X167528572Y-125885714D01*
X167528572Y-125552381D02*
X167480953Y-125600000D01*
X167528572Y-125647619D01*
X167576191Y-125600000D01*
X167528572Y-125552381D01*
X167528572Y-125647619D01*
X168433334Y-126552381D02*
X168433334Y-126028571D01*
X168385715Y-125933333D01*
X168290477Y-125885714D01*
X168100000Y-125885714D01*
X168004762Y-125933333D01*
X168433334Y-126504762D02*
X168338096Y-126552381D01*
X168100000Y-126552381D01*
X168004762Y-126504762D01*
X167957143Y-126409524D01*
X167957143Y-126314286D01*
X168004762Y-126219048D01*
X168100000Y-126171429D01*
X168338096Y-126171429D01*
X168433334Y-126123810D01*
X170071429Y-113685714D02*
X170309524Y-114352381D01*
X170547620Y-113685714D01*
X170928572Y-114352381D02*
X170928572Y-113685714D01*
X170928572Y-113352381D02*
X170880953Y-113400000D01*
X170928572Y-113447619D01*
X170976191Y-113400000D01*
X170928572Y-113352381D01*
X170928572Y-113447619D01*
X171833334Y-114352381D02*
X171833334Y-113828571D01*
X171785715Y-113733333D01*
X171690477Y-113685714D01*
X171500000Y-113685714D01*
X171404762Y-113733333D01*
X171833334Y-114304762D02*
X171738096Y-114352381D01*
X171500000Y-114352381D01*
X171404762Y-114304762D01*
X171357143Y-114209524D01*
X171357143Y-114114286D01*
X171404762Y-114019048D01*
X171500000Y-113971429D01*
X171738096Y-113971429D01*
X171833334Y-113923810D01*
X154871429Y-103485714D02*
X155109524Y-104152381D01*
X155347620Y-103485714D01*
X155728572Y-104152381D02*
X155728572Y-103485714D01*
X155728572Y-103152381D02*
X155680953Y-103200000D01*
X155728572Y-103247619D01*
X155776191Y-103200000D01*
X155728572Y-103152381D01*
X155728572Y-103247619D01*
X156633334Y-104152381D02*
X156633334Y-103628571D01*
X156585715Y-103533333D01*
X156490477Y-103485714D01*
X156300000Y-103485714D01*
X156204762Y-103533333D01*
X156633334Y-104104762D02*
X156538096Y-104152381D01*
X156300000Y-104152381D01*
X156204762Y-104104762D01*
X156157143Y-104009524D01*
X156157143Y-103914286D01*
X156204762Y-103819048D01*
X156300000Y-103771429D01*
X156538096Y-103771429D01*
X156633334Y-103723810D01*
X141471429Y-96085714D02*
X141709524Y-96752381D01*
X141947620Y-96085714D01*
X142328572Y-96752381D02*
X142328572Y-96085714D01*
X142328572Y-95752381D02*
X142280953Y-95800000D01*
X142328572Y-95847619D01*
X142376191Y-95800000D01*
X142328572Y-95752381D01*
X142328572Y-95847619D01*
X143233334Y-96752381D02*
X143233334Y-96228571D01*
X143185715Y-96133333D01*
X143090477Y-96085714D01*
X142900000Y-96085714D01*
X142804762Y-96133333D01*
X143233334Y-96704762D02*
X143138096Y-96752381D01*
X142900000Y-96752381D01*
X142804762Y-96704762D01*
X142757143Y-96609524D01*
X142757143Y-96514286D01*
X142804762Y-96419048D01*
X142900000Y-96371429D01*
X143138096Y-96371429D01*
X143233334Y-96323810D01*
X116671429Y-119285714D02*
X116909524Y-119952381D01*
X117147620Y-119285714D01*
X117528572Y-119952381D02*
X117528572Y-119285714D01*
X117528572Y-118952381D02*
X117480953Y-119000000D01*
X117528572Y-119047619D01*
X117576191Y-119000000D01*
X117528572Y-118952381D01*
X117528572Y-119047619D01*
X118433334Y-119952381D02*
X118433334Y-119428571D01*
X118385715Y-119333333D01*
X118290477Y-119285714D01*
X118100000Y-119285714D01*
X118004762Y-119333333D01*
X118433334Y-119904762D02*
X118338096Y-119952381D01*
X118100000Y-119952381D01*
X118004762Y-119904762D01*
X117957143Y-119809524D01*
X117957143Y-119714286D01*
X118004762Y-119619048D01*
X118100000Y-119571429D01*
X118338096Y-119571429D01*
X118433334Y-119523810D01*
X122671429Y-113885714D02*
X122909524Y-114552381D01*
X123147620Y-113885714D01*
X123528572Y-114552381D02*
X123528572Y-113885714D01*
X123528572Y-113552381D02*
X123480953Y-113600000D01*
X123528572Y-113647619D01*
X123576191Y-113600000D01*
X123528572Y-113552381D01*
X123528572Y-113647619D01*
X124433334Y-114552381D02*
X124433334Y-114028571D01*
X124385715Y-113933333D01*
X124290477Y-113885714D01*
X124100000Y-113885714D01*
X124004762Y-113933333D01*
X124433334Y-114504762D02*
X124338096Y-114552381D01*
X124100000Y-114552381D01*
X124004762Y-114504762D01*
X123957143Y-114409524D01*
X123957143Y-114314286D01*
X124004762Y-114219048D01*
X124100000Y-114171429D01*
X124338096Y-114171429D01*
X124433334Y-114123810D01*
X92071429Y-98685714D02*
X92309524Y-99352381D01*
X92547620Y-98685714D01*
X92928572Y-99352381D02*
X92928572Y-98685714D01*
X92928572Y-98352381D02*
X92880953Y-98400000D01*
X92928572Y-98447619D01*
X92976191Y-98400000D01*
X92928572Y-98352381D01*
X92928572Y-98447619D01*
X93833334Y-99352381D02*
X93833334Y-98828571D01*
X93785715Y-98733333D01*
X93690477Y-98685714D01*
X93500000Y-98685714D01*
X93404762Y-98733333D01*
X93833334Y-99304762D02*
X93738096Y-99352381D01*
X93500000Y-99352381D01*
X93404762Y-99304762D01*
X93357143Y-99209524D01*
X93357143Y-99114286D01*
X93404762Y-99019048D01*
X93500000Y-98971429D01*
X93738096Y-98971429D01*
X93833334Y-98923810D01*
X86071429Y-98685714D02*
X86309524Y-99352381D01*
X86547620Y-98685714D01*
X86928572Y-99352381D02*
X86928572Y-98685714D01*
X86928572Y-98352381D02*
X86880953Y-98400000D01*
X86928572Y-98447619D01*
X86976191Y-98400000D01*
X86928572Y-98352381D01*
X86928572Y-98447619D01*
X87833334Y-99352381D02*
X87833334Y-98828571D01*
X87785715Y-98733333D01*
X87690477Y-98685714D01*
X87500000Y-98685714D01*
X87404762Y-98733333D01*
X87833334Y-99304762D02*
X87738096Y-99352381D01*
X87500000Y-99352381D01*
X87404762Y-99304762D01*
X87357143Y-99209524D01*
X87357143Y-99114286D01*
X87404762Y-99019048D01*
X87500000Y-98971429D01*
X87738096Y-98971429D01*
X87833334Y-98923810D01*
X143881064Y-122342501D02*
X143309635Y-122342501D01*
X143595349Y-122342501D02*
X143595349Y-121342501D01*
X143500111Y-121485358D01*
X143404873Y-121580596D01*
X143309635Y-121628215D01*
X144500111Y-121342501D02*
X144595350Y-121342501D01*
X144690588Y-121390120D01*
X144738207Y-121437739D01*
X144785826Y-121532977D01*
X144833445Y-121723453D01*
X144833445Y-121961549D01*
X144785826Y-122152025D01*
X144738207Y-122247263D01*
X144690588Y-122294882D01*
X144595350Y-122342501D01*
X144500111Y-122342501D01*
X144404873Y-122294882D01*
X144357254Y-122247263D01*
X144309635Y-122152025D01*
X144262016Y-121961549D01*
X144262016Y-121723453D01*
X144309635Y-121532977D01*
X144357254Y-121437739D01*
X144404873Y-121390120D01*
X144500111Y-121342501D01*
X145262016Y-122342501D02*
X145262016Y-121342501D01*
X145833445Y-122342501D02*
X145404873Y-121771072D01*
X145833445Y-121342501D02*
X145262016Y-121913930D01*
D14*
X144314398Y-120521072D02*
X144181064Y-120330596D01*
X144085826Y-120521072D02*
X144085826Y-120121072D01*
X144238207Y-120121072D01*
X144276302Y-120140120D01*
X144295350Y-120159168D01*
X144314398Y-120197263D01*
X144314398Y-120254406D01*
X144295350Y-120292501D01*
X144276302Y-120311549D01*
X144238207Y-120330596D01*
X144085826Y-120330596D01*
X144695350Y-120521072D02*
X144466778Y-120521072D01*
X144581064Y-120521072D02*
X144581064Y-120121072D01*
X144542969Y-120178215D01*
X144504874Y-120216310D01*
X144466778Y-120235358D01*
X145057254Y-120121072D02*
X144866778Y-120121072D01*
X144847730Y-120311549D01*
X144866778Y-120292501D01*
X144904873Y-120273453D01*
X145000111Y-120273453D01*
X145038207Y-120292501D01*
X145057254Y-120311549D01*
X145076302Y-120349644D01*
X145076302Y-120444882D01*
X145057254Y-120482977D01*
X145038207Y-120502025D01*
X145000111Y-120521072D01*
X144904873Y-120521072D01*
X144866778Y-120502025D01*
X144847730Y-120482977D01*
D11*
X150505493Y-125430161D02*
X150505493Y-124430161D01*
X150838827Y-125144447D01*
X151172160Y-124430161D01*
X151172160Y-125430161D01*
X151600731Y-125144447D02*
X152076922Y-125144447D01*
X151505493Y-125430161D02*
X151838826Y-124430161D01*
X152172160Y-125430161D01*
X152410255Y-124430161D02*
X153076922Y-125430161D01*
X153076922Y-124430161D02*
X152410255Y-125430161D01*
X153410255Y-124525399D02*
X153457874Y-124477780D01*
X153553112Y-124430161D01*
X153791208Y-124430161D01*
X153886446Y-124477780D01*
X153934065Y-124525399D01*
X153981684Y-124620637D01*
X153981684Y-124715875D01*
X153934065Y-124858732D01*
X153362636Y-125430161D01*
X153981684Y-125430161D01*
X154315017Y-124430161D02*
X154934065Y-124430161D01*
X154600731Y-124811113D01*
X154743589Y-124811113D01*
X154838827Y-124858732D01*
X154886446Y-124906351D01*
X154934065Y-125001590D01*
X154934065Y-125239685D01*
X154886446Y-125334923D01*
X154838827Y-125382542D01*
X154743589Y-125430161D01*
X154457874Y-125430161D01*
X154362636Y-125382542D01*
X154315017Y-125334923D01*
X155315017Y-124525399D02*
X155362636Y-124477780D01*
X155457874Y-124430161D01*
X155695970Y-124430161D01*
X155791208Y-124477780D01*
X155838827Y-124525399D01*
X155886446Y-124620637D01*
X155886446Y-124715875D01*
X155838827Y-124858732D01*
X155267398Y-125430161D01*
X155886446Y-125430161D01*
X95063204Y-109428921D02*
X94587013Y-109428921D01*
X94587013Y-108428921D01*
X95396537Y-109428921D02*
X95396537Y-108428921D01*
X95729871Y-109143207D01*
X96063204Y-108428921D01*
X96063204Y-109428921D01*
X96444156Y-108428921D02*
X97063204Y-108428921D01*
X96729870Y-108809873D01*
X96872728Y-108809873D01*
X96967966Y-108857492D01*
X97015585Y-108905111D01*
X97063204Y-109000350D01*
X97063204Y-109238445D01*
X97015585Y-109333683D01*
X96967966Y-109381302D01*
X96872728Y-109428921D01*
X96587013Y-109428921D01*
X96491775Y-109381302D01*
X96444156Y-109333683D01*
X97444156Y-108524159D02*
X97491775Y-108476540D01*
X97587013Y-108428921D01*
X97825109Y-108428921D01*
X97920347Y-108476540D01*
X97967966Y-108524159D01*
X98015585Y-108619397D01*
X98015585Y-108714635D01*
X97967966Y-108857492D01*
X97396537Y-109428921D01*
X98015585Y-109428921D01*
X98872728Y-108762254D02*
X98872728Y-109428921D01*
X98634632Y-108381302D02*
X98396537Y-109095588D01*
X99015585Y-109095588D01*
X88539083Y-117225201D02*
X87967654Y-117225201D01*
X88253368Y-117225201D02*
X88253368Y-116225201D01*
X88158130Y-116368058D01*
X88062892Y-116463296D01*
X87967654Y-116510915D01*
X89158130Y-116225201D02*
X89253369Y-116225201D01*
X89348607Y-116272820D01*
X89396226Y-116320439D01*
X89443845Y-116415677D01*
X89491464Y-116606153D01*
X89491464Y-116844249D01*
X89443845Y-117034725D01*
X89396226Y-117129963D01*
X89348607Y-117177582D01*
X89253369Y-117225201D01*
X89158130Y-117225201D01*
X89062892Y-117177582D01*
X89015273Y-117129963D01*
X88967654Y-117034725D01*
X88920035Y-116844249D01*
X88920035Y-116606153D01*
X88967654Y-116415677D01*
X89015273Y-116320439D01*
X89062892Y-116272820D01*
X89158130Y-116225201D01*
X89920035Y-116558534D02*
X89920035Y-117225201D01*
X89920035Y-116653772D02*
X89967654Y-116606153D01*
X90062892Y-116558534D01*
X90205750Y-116558534D01*
X90300988Y-116606153D01*
X90348607Y-116701391D01*
X90348607Y-117225201D01*
X89015274Y-114379963D02*
X88967655Y-114427582D01*
X88824798Y-114475201D01*
X88729560Y-114475201D01*
X88586702Y-114427582D01*
X88491464Y-114332344D01*
X88443845Y-114237106D01*
X88396226Y-114046630D01*
X88396226Y-113903772D01*
X88443845Y-113713296D01*
X88491464Y-113618058D01*
X88586702Y-113522820D01*
X88729560Y-113475201D01*
X88824798Y-113475201D01*
X88967655Y-113522820D01*
X89015274Y-113570439D01*
X89967655Y-114475201D02*
X89396226Y-114475201D01*
X89681940Y-114475201D02*
X89681940Y-113475201D01*
X89586702Y-113618058D01*
X89491464Y-113713296D01*
X89396226Y-113760915D01*
X124152381Y-126042857D02*
X124152381Y-126614286D01*
X124152381Y-126328572D02*
X123152381Y-126328572D01*
X123295238Y-126423810D01*
X123390476Y-126519048D01*
X123438095Y-126614286D01*
X123485714Y-125185714D02*
X124152381Y-125185714D01*
X123485714Y-125614286D02*
X124009524Y-125614286D01*
X124104762Y-125566667D01*
X124152381Y-125471429D01*
X124152381Y-125328571D01*
X124104762Y-125233333D01*
X124057143Y-125185714D01*
X123247619Y-124757143D02*
X123200000Y-124709524D01*
X123152381Y-124614286D01*
X123152381Y-124376190D01*
X123200000Y-124280952D01*
X123247619Y-124233333D01*
X123342857Y-124185714D01*
X123438095Y-124185714D01*
X123580952Y-124233333D01*
X124152381Y-124804762D01*
X124152381Y-124185714D01*
X126807143Y-125566666D02*
X126854762Y-125614285D01*
X126902381Y-125757142D01*
X126902381Y-125852380D01*
X126854762Y-125995238D01*
X126759524Y-126090476D01*
X126664286Y-126138095D01*
X126473810Y-126185714D01*
X126330952Y-126185714D01*
X126140476Y-126138095D01*
X126045238Y-126090476D01*
X125950000Y-125995238D01*
X125902381Y-125852380D01*
X125902381Y-125757142D01*
X125950000Y-125614285D01*
X125997619Y-125566666D01*
X125997619Y-125185714D02*
X125950000Y-125138095D01*
X125902381Y-125042857D01*
X125902381Y-124804761D01*
X125950000Y-124709523D01*
X125997619Y-124661904D01*
X126092857Y-124614285D01*
X126188095Y-124614285D01*
X126330952Y-124661904D01*
X126902381Y-125233333D01*
X126902381Y-124614285D01*
X87880953Y-119152381D02*
X87309524Y-119152381D01*
X87595238Y-119152381D02*
X87595238Y-118152381D01*
X87500000Y-118295238D01*
X87404762Y-118390476D01*
X87309524Y-118438095D01*
X88785715Y-118152381D02*
X88309524Y-118152381D01*
X88261905Y-118628571D01*
X88309524Y-118580952D01*
X88404762Y-118533333D01*
X88642858Y-118533333D01*
X88738096Y-118580952D01*
X88785715Y-118628571D01*
X88833334Y-118723810D01*
X88833334Y-118961905D01*
X88785715Y-119057143D01*
X88738096Y-119104762D01*
X88642858Y-119152381D01*
X88404762Y-119152381D01*
X88309524Y-119104762D01*
X88261905Y-119057143D01*
X89452381Y-118152381D02*
X89547620Y-118152381D01*
X89642858Y-118200000D01*
X89690477Y-118247619D01*
X89738096Y-118342857D01*
X89785715Y-118533333D01*
X89785715Y-118771429D01*
X89738096Y-118961905D01*
X89690477Y-119057143D01*
X89642858Y-119104762D01*
X89547620Y-119152381D01*
X89452381Y-119152381D01*
X89357143Y-119104762D01*
X89309524Y-119057143D01*
X89261905Y-118961905D01*
X89214286Y-118771429D01*
X89214286Y-118533333D01*
X89261905Y-118342857D01*
X89309524Y-118247619D01*
X89357143Y-118200000D01*
X89452381Y-118152381D01*
X90214286Y-118485714D02*
X90214286Y-119152381D01*
X90214286Y-118580952D02*
X90261905Y-118533333D01*
X90357143Y-118485714D01*
X90500001Y-118485714D01*
X90595239Y-118533333D01*
X90642858Y-118628571D01*
X90642858Y-119152381D01*
X88833334Y-121807143D02*
X88785715Y-121854762D01*
X88642858Y-121902381D01*
X88547620Y-121902381D01*
X88404762Y-121854762D01*
X88309524Y-121759524D01*
X88261905Y-121664286D01*
X88214286Y-121473810D01*
X88214286Y-121330952D01*
X88261905Y-121140476D01*
X88309524Y-121045238D01*
X88404762Y-120950000D01*
X88547620Y-120902381D01*
X88642858Y-120902381D01*
X88785715Y-120950000D01*
X88833334Y-120997619D01*
X89166667Y-120902381D02*
X89785715Y-120902381D01*
X89452381Y-121283333D01*
X89595239Y-121283333D01*
X89690477Y-121330952D01*
X89738096Y-121378571D01*
X89785715Y-121473810D01*
X89785715Y-121711905D01*
X89738096Y-121807143D01*
X89690477Y-121854762D01*
X89595239Y-121902381D01*
X89309524Y-121902381D01*
X89214286Y-121854762D01*
X89166667Y-121807143D01*
X143807592Y-125868821D02*
X143236163Y-125868821D01*
X143521877Y-125868821D02*
X143521877Y-124868821D01*
X143426639Y-125011678D01*
X143331401Y-125106916D01*
X143236163Y-125154535D01*
X144426639Y-124868821D02*
X144521878Y-124868821D01*
X144617116Y-124916440D01*
X144664735Y-124964059D01*
X144712354Y-125059297D01*
X144759973Y-125249773D01*
X144759973Y-125487869D01*
X144712354Y-125678345D01*
X144664735Y-125773583D01*
X144617116Y-125821202D01*
X144521878Y-125868821D01*
X144426639Y-125868821D01*
X144331401Y-125821202D01*
X144283782Y-125773583D01*
X144236163Y-125678345D01*
X144188544Y-125487869D01*
X144188544Y-125249773D01*
X144236163Y-125059297D01*
X144283782Y-124964059D01*
X144331401Y-124916440D01*
X144426639Y-124868821D01*
X145617116Y-125202154D02*
X145617116Y-125868821D01*
X145188544Y-125202154D02*
X145188544Y-125725964D01*
X145236163Y-125821202D01*
X145331401Y-125868821D01*
X145474259Y-125868821D01*
X145569497Y-125821202D01*
X145617116Y-125773583D01*
X146426640Y-125345011D02*
X146093306Y-125345011D01*
X146093306Y-125868821D02*
X146093306Y-124868821D01*
X146569497Y-124868821D01*
X144712354Y-123023583D02*
X144664735Y-123071202D01*
X144521878Y-123118821D01*
X144426640Y-123118821D01*
X144283782Y-123071202D01*
X144188544Y-122975964D01*
X144140925Y-122880726D01*
X144093306Y-122690250D01*
X144093306Y-122547392D01*
X144140925Y-122356916D01*
X144188544Y-122261678D01*
X144283782Y-122166440D01*
X144426640Y-122118821D01*
X144521878Y-122118821D01*
X144664735Y-122166440D01*
X144712354Y-122214059D01*
X145569497Y-122452154D02*
X145569497Y-123118821D01*
X145331401Y-122071202D02*
X145093306Y-122785488D01*
X145712354Y-122785488D01*
X162366042Y-124570881D02*
X161794613Y-124570881D01*
X162080327Y-124570881D02*
X162080327Y-123570881D01*
X161985089Y-123713738D01*
X161889851Y-123808976D01*
X161794613Y-123856595D01*
X163223185Y-123904214D02*
X163223185Y-124570881D01*
X162794613Y-123904214D02*
X162794613Y-124428024D01*
X162842232Y-124523262D01*
X162937470Y-124570881D01*
X163080328Y-124570881D01*
X163175566Y-124523262D01*
X163223185Y-124475643D01*
X164032709Y-124047071D02*
X163699375Y-124047071D01*
X163699375Y-124570881D02*
X163699375Y-123570881D01*
X164175566Y-123570881D01*
X162794614Y-121725643D02*
X162746995Y-121773262D01*
X162604138Y-121820881D01*
X162508900Y-121820881D01*
X162366042Y-121773262D01*
X162270804Y-121678024D01*
X162223185Y-121582786D01*
X162175566Y-121392310D01*
X162175566Y-121249452D01*
X162223185Y-121058976D01*
X162270804Y-120963738D01*
X162366042Y-120868500D01*
X162508900Y-120820881D01*
X162604138Y-120820881D01*
X162746995Y-120868500D01*
X162794614Y-120916119D01*
X163699376Y-120820881D02*
X163223185Y-120820881D01*
X163175566Y-121297071D01*
X163223185Y-121249452D01*
X163318423Y-121201833D01*
X163556519Y-121201833D01*
X163651757Y-121249452D01*
X163699376Y-121297071D01*
X163746995Y-121392310D01*
X163746995Y-121630405D01*
X163699376Y-121725643D01*
X163651757Y-121773262D01*
X163556519Y-121820881D01*
X163318423Y-121820881D01*
X163223185Y-121773262D01*
X163175566Y-121725643D01*
X83018294Y-120334161D02*
X82446865Y-120334161D01*
X82732579Y-120334161D02*
X82732579Y-119334161D01*
X82637341Y-119477018D01*
X82542103Y-119572256D01*
X82446865Y-119619875D01*
X83446865Y-119667494D02*
X83446865Y-120334161D01*
X83446865Y-119762732D02*
X83494484Y-119715113D01*
X83589722Y-119667494D01*
X83732580Y-119667494D01*
X83827818Y-119715113D01*
X83875437Y-119810351D01*
X83875437Y-120334161D01*
X83018294Y-117488923D02*
X82970675Y-117536542D01*
X82827818Y-117584161D01*
X82732580Y-117584161D01*
X82589722Y-117536542D01*
X82494484Y-117441304D01*
X82446865Y-117346066D01*
X82399246Y-117155590D01*
X82399246Y-117012732D01*
X82446865Y-116822256D01*
X82494484Y-116727018D01*
X82589722Y-116631780D01*
X82732580Y-116584161D01*
X82827818Y-116584161D01*
X82970675Y-116631780D01*
X83018294Y-116679399D01*
X83875437Y-116584161D02*
X83684960Y-116584161D01*
X83589722Y-116631780D01*
X83542103Y-116679399D01*
X83446865Y-116822256D01*
X83399246Y-117012732D01*
X83399246Y-117393685D01*
X83446865Y-117488923D01*
X83494484Y-117536542D01*
X83589722Y-117584161D01*
X83780199Y-117584161D01*
X83875437Y-117536542D01*
X83923056Y-117488923D01*
X83970675Y-117393685D01*
X83970675Y-117155590D01*
X83923056Y-117060351D01*
X83875437Y-117012732D01*
X83780199Y-116965113D01*
X83589722Y-116965113D01*
X83494484Y-117012732D01*
X83446865Y-117060351D01*
X83399246Y-117155590D01*
X82818294Y-127678981D02*
X82246865Y-127678981D01*
X82532579Y-127678981D02*
X82532579Y-126678981D01*
X82437341Y-126821838D01*
X82342103Y-126917076D01*
X82246865Y-126964695D01*
X83246865Y-127012314D02*
X83246865Y-127678981D01*
X83246865Y-127107552D02*
X83294484Y-127059933D01*
X83389722Y-127012314D01*
X83532580Y-127012314D01*
X83627818Y-127059933D01*
X83675437Y-127155171D01*
X83675437Y-127678981D01*
X82818294Y-124833743D02*
X82770675Y-124881362D01*
X82627818Y-124928981D01*
X82532580Y-124928981D01*
X82389722Y-124881362D01*
X82294484Y-124786124D01*
X82246865Y-124690886D01*
X82199246Y-124500410D01*
X82199246Y-124357552D01*
X82246865Y-124167076D01*
X82294484Y-124071838D01*
X82389722Y-123976600D01*
X82532580Y-123928981D01*
X82627818Y-123928981D01*
X82770675Y-123976600D01*
X82818294Y-124024219D01*
X83151627Y-123928981D02*
X83818294Y-123928981D01*
X83389722Y-124928981D01*
X87352381Y-124442857D02*
X87352381Y-125014286D01*
X87352381Y-124728572D02*
X86352381Y-124728572D01*
X86495238Y-124823810D01*
X86590476Y-124919048D01*
X86638095Y-125014286D01*
X86447619Y-124061905D02*
X86400000Y-124014286D01*
X86352381Y-123919048D01*
X86352381Y-123680952D01*
X86400000Y-123585714D01*
X86447619Y-123538095D01*
X86542857Y-123490476D01*
X86638095Y-123490476D01*
X86780952Y-123538095D01*
X87352381Y-124109524D01*
X87352381Y-123490476D01*
X86685714Y-123061905D02*
X87685714Y-123061905D01*
X86733333Y-123061905D02*
X86685714Y-122966667D01*
X86685714Y-122776190D01*
X86733333Y-122680952D01*
X86780952Y-122633333D01*
X86876190Y-122585714D01*
X87161905Y-122585714D01*
X87257143Y-122633333D01*
X87304762Y-122680952D01*
X87352381Y-122776190D01*
X87352381Y-122966667D01*
X87304762Y-123061905D01*
X90007143Y-123966666D02*
X90054762Y-124014285D01*
X90102381Y-124157142D01*
X90102381Y-124252380D01*
X90054762Y-124395238D01*
X89959524Y-124490476D01*
X89864286Y-124538095D01*
X89673810Y-124585714D01*
X89530952Y-124585714D01*
X89340476Y-124538095D01*
X89245238Y-124490476D01*
X89150000Y-124395238D01*
X89102381Y-124252380D01*
X89102381Y-124157142D01*
X89150000Y-124014285D01*
X89197619Y-123966666D01*
X89530952Y-123395238D02*
X89483333Y-123490476D01*
X89435714Y-123538095D01*
X89340476Y-123585714D01*
X89292857Y-123585714D01*
X89197619Y-123538095D01*
X89150000Y-123490476D01*
X89102381Y-123395238D01*
X89102381Y-123204761D01*
X89150000Y-123109523D01*
X89197619Y-123061904D01*
X89292857Y-123014285D01*
X89340476Y-123014285D01*
X89435714Y-123061904D01*
X89483333Y-123109523D01*
X89530952Y-123204761D01*
X89530952Y-123395238D01*
X89578571Y-123490476D01*
X89626190Y-123538095D01*
X89721429Y-123585714D01*
X89911905Y-123585714D01*
X90007143Y-123538095D01*
X90054762Y-123490476D01*
X90102381Y-123395238D01*
X90102381Y-123204761D01*
X90054762Y-123109523D01*
X90007143Y-123061904D01*
X89911905Y-123014285D01*
X89721429Y-123014285D01*
X89626190Y-123061904D01*
X89578571Y-123109523D01*
X89530952Y-123204761D01*
X111352381Y-128042857D02*
X111352381Y-128614286D01*
X111352381Y-128328572D02*
X110352381Y-128328572D01*
X110495238Y-128423810D01*
X110590476Y-128519048D01*
X110638095Y-128614286D01*
X110352381Y-127423810D02*
X110352381Y-127328571D01*
X110400000Y-127233333D01*
X110447619Y-127185714D01*
X110542857Y-127138095D01*
X110733333Y-127090476D01*
X110971429Y-127090476D01*
X111161905Y-127138095D01*
X111257143Y-127185714D01*
X111304762Y-127233333D01*
X111352381Y-127328571D01*
X111352381Y-127423810D01*
X111304762Y-127519048D01*
X111257143Y-127566667D01*
X111161905Y-127614286D01*
X110971429Y-127661905D01*
X110733333Y-127661905D01*
X110542857Y-127614286D01*
X110447619Y-127566667D01*
X110400000Y-127519048D01*
X110352381Y-127423810D01*
X110685714Y-126661905D02*
X111352381Y-126661905D01*
X110780952Y-126661905D02*
X110733333Y-126614286D01*
X110685714Y-126519048D01*
X110685714Y-126376190D01*
X110733333Y-126280952D01*
X110828571Y-126233333D01*
X111352381Y-126233333D01*
X108507143Y-127566666D02*
X108554762Y-127614285D01*
X108602381Y-127757142D01*
X108602381Y-127852380D01*
X108554762Y-127995238D01*
X108459524Y-128090476D01*
X108364286Y-128138095D01*
X108173810Y-128185714D01*
X108030952Y-128185714D01*
X107840476Y-128138095D01*
X107745238Y-128090476D01*
X107650000Y-127995238D01*
X107602381Y-127852380D01*
X107602381Y-127757142D01*
X107650000Y-127614285D01*
X107697619Y-127566666D01*
X108602381Y-127090476D02*
X108602381Y-126900000D01*
X108554762Y-126804761D01*
X108507143Y-126757142D01*
X108364286Y-126661904D01*
X108173810Y-126614285D01*
X107792857Y-126614285D01*
X107697619Y-126661904D01*
X107650000Y-126709523D01*
X107602381Y-126804761D01*
X107602381Y-126995238D01*
X107650000Y-127090476D01*
X107697619Y-127138095D01*
X107792857Y-127185714D01*
X108030952Y-127185714D01*
X108126190Y-127138095D01*
X108173810Y-127090476D01*
X108221429Y-126995238D01*
X108221429Y-126804761D01*
X108173810Y-126709523D01*
X108126190Y-126661904D01*
X108030952Y-126614285D01*
X115257143Y-114166667D02*
X115304762Y-114214286D01*
X115352381Y-114357143D01*
X115352381Y-114452381D01*
X115304762Y-114595239D01*
X115209524Y-114690477D01*
X115114286Y-114738096D01*
X114923810Y-114785715D01*
X114780952Y-114785715D01*
X114590476Y-114738096D01*
X114495238Y-114690477D01*
X114400000Y-114595239D01*
X114352381Y-114452381D01*
X114352381Y-114357143D01*
X114400000Y-114214286D01*
X114447619Y-114166667D01*
X115352381Y-113738096D02*
X114352381Y-113738096D01*
X114352381Y-113357143D01*
X114400000Y-113261905D01*
X114447619Y-113214286D01*
X114542857Y-113166667D01*
X114685714Y-113166667D01*
X114780952Y-113214286D01*
X114828571Y-113261905D01*
X114876190Y-113357143D01*
X114876190Y-113738096D01*
X115352381Y-112214286D02*
X115352381Y-112785715D01*
X115352381Y-112500001D02*
X114352381Y-112500001D01*
X114495238Y-112595239D01*
X114590476Y-112690477D01*
X114638095Y-112785715D01*
X115447619Y-112023810D02*
X115447619Y-111261905D01*
X115304762Y-111071429D02*
X115352381Y-110928572D01*
X115352381Y-110690476D01*
X115304762Y-110595238D01*
X115257143Y-110547619D01*
X115161905Y-110500000D01*
X115066667Y-110500000D01*
X114971429Y-110547619D01*
X114923810Y-110595238D01*
X114876190Y-110690476D01*
X114828571Y-110880953D01*
X114780952Y-110976191D01*
X114733333Y-111023810D01*
X114638095Y-111071429D01*
X114542857Y-111071429D01*
X114447619Y-111023810D01*
X114400000Y-110976191D01*
X114352381Y-110880953D01*
X114352381Y-110642857D01*
X114400000Y-110500000D01*
X115352381Y-110071429D02*
X114685714Y-110071429D01*
X114780952Y-110071429D02*
X114733333Y-110023810D01*
X114685714Y-109928572D01*
X114685714Y-109785714D01*
X114733333Y-109690476D01*
X114828571Y-109642857D01*
X115352381Y-109642857D01*
X114828571Y-109642857D02*
X114733333Y-109595238D01*
X114685714Y-109500000D01*
X114685714Y-109357143D01*
X114733333Y-109261905D01*
X114828571Y-109214286D01*
X115352381Y-109214286D01*
X115352381Y-108309524D02*
X114828571Y-108309524D01*
X114733333Y-108357143D01*
X114685714Y-108452381D01*
X114685714Y-108642858D01*
X114733333Y-108738096D01*
X115304762Y-108309524D02*
X115352381Y-108404762D01*
X115352381Y-108642858D01*
X115304762Y-108738096D01*
X115209524Y-108785715D01*
X115114286Y-108785715D01*
X115019048Y-108738096D01*
X114971429Y-108642858D01*
X114971429Y-108404762D01*
X114923810Y-108309524D01*
X115352381Y-107690477D02*
X115304762Y-107785715D01*
X115209524Y-107833334D01*
X114352381Y-107833334D01*
X115352381Y-107166667D02*
X115304762Y-107261905D01*
X115209524Y-107309524D01*
X114352381Y-107309524D01*
X112507143Y-111642857D02*
X112554762Y-111690476D01*
X112602381Y-111833333D01*
X112602381Y-111928571D01*
X112554762Y-112071429D01*
X112459524Y-112166667D01*
X112364286Y-112214286D01*
X112173810Y-112261905D01*
X112030952Y-112261905D01*
X111840476Y-112214286D01*
X111745238Y-112166667D01*
X111650000Y-112071429D01*
X111602381Y-111928571D01*
X111602381Y-111833333D01*
X111650000Y-111690476D01*
X111697619Y-111642857D01*
X112602381Y-110690476D02*
X112602381Y-111261905D01*
X112602381Y-110976191D02*
X111602381Y-110976191D01*
X111745238Y-111071429D01*
X111840476Y-111166667D01*
X111888095Y-111261905D01*
X111602381Y-110071429D02*
X111602381Y-109976190D01*
X111650000Y-109880952D01*
X111697619Y-109833333D01*
X111792857Y-109785714D01*
X111983333Y-109738095D01*
X112221429Y-109738095D01*
X112411905Y-109785714D01*
X112507143Y-109833333D01*
X112554762Y-109880952D01*
X112602381Y-109976190D01*
X112602381Y-110071429D01*
X112554762Y-110166667D01*
X112507143Y-110214286D01*
X112411905Y-110261905D01*
X112221429Y-110309524D01*
X111983333Y-110309524D01*
X111792857Y-110261905D01*
X111697619Y-110214286D01*
X111650000Y-110166667D01*
X111602381Y-110071429D01*
X162498122Y-118937161D02*
X161926693Y-118937161D01*
X162212407Y-118937161D02*
X162212407Y-117937161D01*
X162117169Y-118080018D01*
X162021931Y-118175256D01*
X161926693Y-118222875D01*
X163355265Y-118270494D02*
X163355265Y-118937161D01*
X162926693Y-118270494D02*
X162926693Y-118794304D01*
X162974312Y-118889542D01*
X163069550Y-118937161D01*
X163212408Y-118937161D01*
X163307646Y-118889542D01*
X163355265Y-118841923D01*
X164164789Y-118413351D02*
X163831455Y-118413351D01*
X163831455Y-118937161D02*
X163831455Y-117937161D01*
X164307646Y-117937161D01*
X162450503Y-116091923D02*
X162402884Y-116139542D01*
X162260027Y-116187161D01*
X162164789Y-116187161D01*
X162021931Y-116139542D01*
X161926693Y-116044304D01*
X161879074Y-115949066D01*
X161831455Y-115758590D01*
X161831455Y-115615732D01*
X161879074Y-115425256D01*
X161926693Y-115330018D01*
X162021931Y-115234780D01*
X162164789Y-115187161D01*
X162260027Y-115187161D01*
X162402884Y-115234780D01*
X162450503Y-115282399D01*
X163402884Y-116187161D02*
X162831455Y-116187161D01*
X163117169Y-116187161D02*
X163117169Y-115187161D01*
X163021931Y-115330018D01*
X162926693Y-115425256D01*
X162831455Y-115472875D01*
X164355265Y-116187161D02*
X163783836Y-116187161D01*
X164069550Y-116187161D02*
X164069550Y-115187161D01*
X163974312Y-115330018D01*
X163879074Y-115425256D01*
X163783836Y-115472875D01*
X161977422Y-116242221D02*
X161405993Y-116242221D01*
X161691707Y-116242221D02*
X161691707Y-115242221D01*
X161596469Y-115385078D01*
X161501231Y-115480316D01*
X161405993Y-115527935D01*
X162834565Y-115575554D02*
X162834565Y-116242221D01*
X162405993Y-115575554D02*
X162405993Y-116099364D01*
X162453612Y-116194602D01*
X162548850Y-116242221D01*
X162691708Y-116242221D01*
X162786946Y-116194602D01*
X162834565Y-116146983D01*
X163644089Y-115718411D02*
X163310755Y-115718411D01*
X163310755Y-116242221D02*
X163310755Y-115242221D01*
X163786946Y-115242221D01*
X161929803Y-113396983D02*
X161882184Y-113444602D01*
X161739327Y-113492221D01*
X161644089Y-113492221D01*
X161501231Y-113444602D01*
X161405993Y-113349364D01*
X161358374Y-113254126D01*
X161310755Y-113063650D01*
X161310755Y-112920792D01*
X161358374Y-112730316D01*
X161405993Y-112635078D01*
X161501231Y-112539840D01*
X161644089Y-112492221D01*
X161739327Y-112492221D01*
X161882184Y-112539840D01*
X161929803Y-112587459D01*
X162882184Y-113492221D02*
X162310755Y-113492221D01*
X162596469Y-113492221D02*
X162596469Y-112492221D01*
X162501231Y-112635078D01*
X162405993Y-112730316D01*
X162310755Y-112777935D01*
X163263136Y-112587459D02*
X163310755Y-112539840D01*
X163405993Y-112492221D01*
X163644089Y-112492221D01*
X163739327Y-112539840D01*
X163786946Y-112587459D01*
X163834565Y-112682697D01*
X163834565Y-112777935D01*
X163786946Y-112920792D01*
X163215517Y-113492221D01*
X163834565Y-113492221D01*
X162213642Y-122604921D02*
X161642213Y-122604921D01*
X161927927Y-122604921D02*
X161927927Y-121604921D01*
X161832689Y-121747778D01*
X161737451Y-121843016D01*
X161642213Y-121890635D01*
X163070785Y-121938254D02*
X163070785Y-122604921D01*
X162642213Y-121938254D02*
X162642213Y-122462064D01*
X162689832Y-122557302D01*
X162785070Y-122604921D01*
X162927928Y-122604921D01*
X163023166Y-122557302D01*
X163070785Y-122509683D01*
X163880309Y-122081111D02*
X163546975Y-122081111D01*
X163546975Y-122604921D02*
X163546975Y-121604921D01*
X164023166Y-121604921D01*
X162166023Y-119759683D02*
X162118404Y-119807302D01*
X161975547Y-119854921D01*
X161880309Y-119854921D01*
X161737451Y-119807302D01*
X161642213Y-119712064D01*
X161594594Y-119616826D01*
X161546975Y-119426350D01*
X161546975Y-119283492D01*
X161594594Y-119093016D01*
X161642213Y-118997778D01*
X161737451Y-118902540D01*
X161880309Y-118854921D01*
X161975547Y-118854921D01*
X162118404Y-118902540D01*
X162166023Y-118950159D01*
X163118404Y-119854921D02*
X162546975Y-119854921D01*
X162832689Y-119854921D02*
X162832689Y-118854921D01*
X162737451Y-118997778D01*
X162642213Y-119093016D01*
X162546975Y-119140635D01*
X163451737Y-118854921D02*
X164070785Y-118854921D01*
X163737451Y-119235873D01*
X163880309Y-119235873D01*
X163975547Y-119283492D01*
X164023166Y-119331111D01*
X164070785Y-119426350D01*
X164070785Y-119664445D01*
X164023166Y-119759683D01*
X163975547Y-119807302D01*
X163880309Y-119854921D01*
X163594594Y-119854921D01*
X163499356Y-119807302D01*
X163451737Y-119759683D01*
X139728572Y-108552381D02*
X139157143Y-108552381D01*
X139442857Y-108552381D02*
X139442857Y-107552381D01*
X139347619Y-107695238D01*
X139252381Y-107790476D01*
X139157143Y-107838095D01*
X140347619Y-107552381D02*
X140442858Y-107552381D01*
X140538096Y-107600000D01*
X140585715Y-107647619D01*
X140633334Y-107742857D01*
X140680953Y-107933333D01*
X140680953Y-108171429D01*
X140633334Y-108361905D01*
X140585715Y-108457143D01*
X140538096Y-108504762D01*
X140442858Y-108552381D01*
X140347619Y-108552381D01*
X140252381Y-108504762D01*
X140204762Y-108457143D01*
X140157143Y-108361905D01*
X140109524Y-108171429D01*
X140109524Y-107933333D01*
X140157143Y-107742857D01*
X140204762Y-107647619D01*
X140252381Y-107600000D01*
X140347619Y-107552381D01*
X141538096Y-107885714D02*
X141538096Y-108552381D01*
X141109524Y-107885714D02*
X141109524Y-108409524D01*
X141157143Y-108504762D01*
X141252381Y-108552381D01*
X141395239Y-108552381D01*
X141490477Y-108504762D01*
X141538096Y-108457143D01*
X142347620Y-108028571D02*
X142014286Y-108028571D01*
X142014286Y-108552381D02*
X142014286Y-107552381D01*
X142490477Y-107552381D01*
X143557143Y-106957143D02*
X143509524Y-107004762D01*
X143366667Y-107052381D01*
X143271429Y-107052381D01*
X143128571Y-107004762D01*
X143033333Y-106909524D01*
X142985714Y-106814286D01*
X142938095Y-106623810D01*
X142938095Y-106480952D01*
X142985714Y-106290476D01*
X143033333Y-106195238D01*
X143128571Y-106100000D01*
X143271429Y-106052381D01*
X143366667Y-106052381D01*
X143509524Y-106100000D01*
X143557143Y-106147619D01*
X144509524Y-107052381D02*
X143938095Y-107052381D01*
X144223809Y-107052381D02*
X144223809Y-106052381D01*
X144128571Y-106195238D01*
X144033333Y-106290476D01*
X143938095Y-106338095D01*
X145366667Y-106385714D02*
X145366667Y-107052381D01*
X145128571Y-106004762D02*
X144890476Y-106719048D01*
X145509524Y-106719048D01*
X139928572Y-110352381D02*
X139357143Y-110352381D01*
X139642857Y-110352381D02*
X139642857Y-109352381D01*
X139547619Y-109495238D01*
X139452381Y-109590476D01*
X139357143Y-109638095D01*
X140547619Y-109352381D02*
X140642858Y-109352381D01*
X140738096Y-109400000D01*
X140785715Y-109447619D01*
X140833334Y-109542857D01*
X140880953Y-109733333D01*
X140880953Y-109971429D01*
X140833334Y-110161905D01*
X140785715Y-110257143D01*
X140738096Y-110304762D01*
X140642858Y-110352381D01*
X140547619Y-110352381D01*
X140452381Y-110304762D01*
X140404762Y-110257143D01*
X140357143Y-110161905D01*
X140309524Y-109971429D01*
X140309524Y-109733333D01*
X140357143Y-109542857D01*
X140404762Y-109447619D01*
X140452381Y-109400000D01*
X140547619Y-109352381D01*
X141738096Y-109685714D02*
X141738096Y-110352381D01*
X141309524Y-109685714D02*
X141309524Y-110209524D01*
X141357143Y-110304762D01*
X141452381Y-110352381D01*
X141595239Y-110352381D01*
X141690477Y-110304762D01*
X141738096Y-110257143D01*
X142547620Y-109828571D02*
X142214286Y-109828571D01*
X142214286Y-110352381D02*
X142214286Y-109352381D01*
X142690477Y-109352381D01*
X143557143Y-108557143D02*
X143509524Y-108604762D01*
X143366667Y-108652381D01*
X143271429Y-108652381D01*
X143128571Y-108604762D01*
X143033333Y-108509524D01*
X142985714Y-108414286D01*
X142938095Y-108223810D01*
X142938095Y-108080952D01*
X142985714Y-107890476D01*
X143033333Y-107795238D01*
X143128571Y-107700000D01*
X143271429Y-107652381D01*
X143366667Y-107652381D01*
X143509524Y-107700000D01*
X143557143Y-107747619D01*
X144509524Y-108652381D02*
X143938095Y-108652381D01*
X144223809Y-108652381D02*
X144223809Y-107652381D01*
X144128571Y-107795238D01*
X144033333Y-107890476D01*
X143938095Y-107938095D01*
X145414286Y-107652381D02*
X144938095Y-107652381D01*
X144890476Y-108128571D01*
X144938095Y-108080952D01*
X145033333Y-108033333D01*
X145271429Y-108033333D01*
X145366667Y-108080952D01*
X145414286Y-108128571D01*
X145461905Y-108223810D01*
X145461905Y-108461905D01*
X145414286Y-108557143D01*
X145366667Y-108604762D01*
X145271429Y-108652381D01*
X145033333Y-108652381D01*
X144938095Y-108604762D01*
X144890476Y-108557143D01*
X114766666Y-108557143D02*
X114719047Y-108604762D01*
X114576190Y-108652381D01*
X114480952Y-108652381D01*
X114338094Y-108604762D01*
X114242856Y-108509524D01*
X114195237Y-108414286D01*
X114147618Y-108223810D01*
X114147618Y-108080952D01*
X114195237Y-107890476D01*
X114242856Y-107795238D01*
X114338094Y-107700000D01*
X114480952Y-107652381D01*
X114576190Y-107652381D01*
X114719047Y-107700000D01*
X114766666Y-107747619D01*
X115338094Y-108652381D02*
X115242856Y-108604762D01*
X115195237Y-108557143D01*
X115147618Y-108461905D01*
X115147618Y-108176190D01*
X115195237Y-108080952D01*
X115242856Y-108033333D01*
X115338094Y-107985714D01*
X115480952Y-107985714D01*
X115576190Y-108033333D01*
X115623809Y-108080952D01*
X115671428Y-108176190D01*
X115671428Y-108461905D01*
X115623809Y-108557143D01*
X115576190Y-108604762D01*
X115480952Y-108652381D01*
X115338094Y-108652381D01*
X116099999Y-107985714D02*
X116099999Y-108652381D01*
X116099999Y-108080952D02*
X116147618Y-108033333D01*
X116242856Y-107985714D01*
X116385714Y-107985714D01*
X116480952Y-108033333D01*
X116528571Y-108128571D01*
X116528571Y-108652381D01*
X117004761Y-107985714D02*
X117004761Y-108652381D01*
X117004761Y-108080952D02*
X117052380Y-108033333D01*
X117147618Y-107985714D01*
X117290476Y-107985714D01*
X117385714Y-108033333D01*
X117433333Y-108128571D01*
X117433333Y-108652381D01*
X117671428Y-108747619D02*
X118433333Y-108747619D01*
X118861904Y-107652381D02*
X118957143Y-107652381D01*
X119052381Y-107700000D01*
X119100000Y-107747619D01*
X119147619Y-107842857D01*
X119195238Y-108033333D01*
X119195238Y-108271429D01*
X119147619Y-108461905D01*
X119100000Y-108557143D01*
X119052381Y-108604762D01*
X118957143Y-108652381D01*
X118861904Y-108652381D01*
X118766666Y-108604762D01*
X118719047Y-108557143D01*
X118671428Y-108461905D01*
X118623809Y-108271429D01*
X118623809Y-108033333D01*
X118671428Y-107842857D01*
X118719047Y-107747619D01*
X118766666Y-107700000D01*
X118861904Y-107652381D01*
X120147619Y-108652381D02*
X119576190Y-108652381D01*
X119861904Y-108652381D02*
X119861904Y-107652381D01*
X119766666Y-107795238D01*
X119671428Y-107890476D01*
X119576190Y-107938095D01*
X120480952Y-108652381D02*
X121004762Y-107985714D01*
X120480952Y-107985714D02*
X121004762Y-108652381D01*
X121909524Y-108652381D02*
X121338095Y-108652381D01*
X121623809Y-108652381D02*
X121623809Y-107652381D01*
X121528571Y-107795238D01*
X121433333Y-107890476D01*
X121338095Y-107938095D01*
X122528571Y-107652381D02*
X122623810Y-107652381D01*
X122719048Y-107700000D01*
X122766667Y-107747619D01*
X122814286Y-107842857D01*
X122861905Y-108033333D01*
X122861905Y-108271429D01*
X122814286Y-108461905D01*
X122766667Y-108557143D01*
X122719048Y-108604762D01*
X122623810Y-108652381D01*
X122528571Y-108652381D01*
X122433333Y-108604762D01*
X122385714Y-108557143D01*
X122338095Y-108461905D01*
X122290476Y-108271429D01*
X122290476Y-108033333D01*
X122338095Y-107842857D01*
X122385714Y-107747619D01*
X122433333Y-107700000D01*
X122528571Y-107652381D01*
X123052381Y-108747619D02*
X123814286Y-108747619D01*
X124052381Y-108652381D02*
X124052381Y-107652381D01*
X124385715Y-108366667D01*
X124719048Y-107652381D01*
X124719048Y-108652381D01*
X125623810Y-108652381D02*
X125623810Y-108128571D01*
X125576191Y-108033333D01*
X125480953Y-107985714D01*
X125290476Y-107985714D01*
X125195238Y-108033333D01*
X125623810Y-108604762D02*
X125528572Y-108652381D01*
X125290476Y-108652381D01*
X125195238Y-108604762D01*
X125147619Y-108509524D01*
X125147619Y-108414286D01*
X125195238Y-108319048D01*
X125290476Y-108271429D01*
X125528572Y-108271429D01*
X125623810Y-108223810D01*
X126242857Y-108652381D02*
X126147619Y-108604762D01*
X126100000Y-108509524D01*
X126100000Y-107652381D01*
X127004763Y-108604762D02*
X126909525Y-108652381D01*
X126719048Y-108652381D01*
X126623810Y-108604762D01*
X126576191Y-108509524D01*
X126576191Y-108128571D01*
X126623810Y-108033333D01*
X126719048Y-107985714D01*
X126909525Y-107985714D01*
X127004763Y-108033333D01*
X127052382Y-108128571D01*
X127052382Y-108223810D01*
X126576191Y-108319048D01*
X110882381Y-105833333D02*
X111596667Y-105833333D01*
X111739524Y-105880953D01*
X111834762Y-105976191D01*
X111882381Y-106119048D01*
X111882381Y-106214286D01*
X111882381Y-104833333D02*
X111882381Y-105404762D01*
X111882381Y-105119048D02*
X110882381Y-105119048D01*
X111025238Y-105214286D01*
X111120476Y-105309524D01*
X111168095Y-105404762D01*
X69824762Y-117681905D02*
X69872381Y-117539048D01*
X69872381Y-117300952D01*
X69824762Y-117205714D01*
X69777143Y-117158095D01*
X69681905Y-117110476D01*
X69586667Y-117110476D01*
X69491429Y-117158095D01*
X69443810Y-117205714D01*
X69396190Y-117300952D01*
X69348571Y-117491429D01*
X69300952Y-117586667D01*
X69253333Y-117634286D01*
X69158095Y-117681905D01*
X69062857Y-117681905D01*
X68967619Y-117634286D01*
X68920000Y-117586667D01*
X68872381Y-117491429D01*
X68872381Y-117253333D01*
X68920000Y-117110476D01*
X69205714Y-116681905D02*
X70205714Y-116681905D01*
X69253333Y-116681905D02*
X69205714Y-116586667D01*
X69205714Y-116396190D01*
X69253333Y-116300952D01*
X69300952Y-116253333D01*
X69396190Y-116205714D01*
X69681905Y-116205714D01*
X69777143Y-116253333D01*
X69824762Y-116300952D01*
X69872381Y-116396190D01*
X69872381Y-116586667D01*
X69824762Y-116681905D01*
X69824762Y-115396190D02*
X69872381Y-115491428D01*
X69872381Y-115681905D01*
X69824762Y-115777143D01*
X69729524Y-115824762D01*
X69348571Y-115824762D01*
X69253333Y-115777143D01*
X69205714Y-115681905D01*
X69205714Y-115491428D01*
X69253333Y-115396190D01*
X69348571Y-115348571D01*
X69443810Y-115348571D01*
X69539048Y-115824762D01*
X69872381Y-114491428D02*
X69348571Y-114491428D01*
X69253333Y-114539047D01*
X69205714Y-114634285D01*
X69205714Y-114824762D01*
X69253333Y-114920000D01*
X69824762Y-114491428D02*
X69872381Y-114586666D01*
X69872381Y-114824762D01*
X69824762Y-114920000D01*
X69729524Y-114967619D01*
X69634286Y-114967619D01*
X69539048Y-114920000D01*
X69491429Y-114824762D01*
X69491429Y-114586666D01*
X69443810Y-114491428D01*
X69872381Y-114015238D02*
X68872381Y-114015238D01*
X69491429Y-113920000D02*
X69872381Y-113634285D01*
X69205714Y-113634285D02*
X69586667Y-114015238D01*
X69824762Y-112824761D02*
X69872381Y-112919999D01*
X69872381Y-113110476D01*
X69824762Y-113205714D01*
X69729524Y-113253333D01*
X69348571Y-113253333D01*
X69253333Y-113205714D01*
X69205714Y-113110476D01*
X69205714Y-112919999D01*
X69253333Y-112824761D01*
X69348571Y-112777142D01*
X69443810Y-112777142D01*
X69539048Y-113253333D01*
X69872381Y-112348571D02*
X69205714Y-112348571D01*
X69396190Y-112348571D02*
X69300952Y-112300952D01*
X69253333Y-112253333D01*
X69205714Y-112158095D01*
X69205714Y-112062856D01*
X174824762Y-117681905D02*
X174872381Y-117539048D01*
X174872381Y-117300952D01*
X174824762Y-117205714D01*
X174777143Y-117158095D01*
X174681905Y-117110476D01*
X174586667Y-117110476D01*
X174491429Y-117158095D01*
X174443810Y-117205714D01*
X174396190Y-117300952D01*
X174348571Y-117491429D01*
X174300952Y-117586667D01*
X174253333Y-117634286D01*
X174158095Y-117681905D01*
X174062857Y-117681905D01*
X173967619Y-117634286D01*
X173920000Y-117586667D01*
X173872381Y-117491429D01*
X173872381Y-117253333D01*
X173920000Y-117110476D01*
X174205714Y-116681905D02*
X175205714Y-116681905D01*
X174253333Y-116681905D02*
X174205714Y-116586667D01*
X174205714Y-116396190D01*
X174253333Y-116300952D01*
X174300952Y-116253333D01*
X174396190Y-116205714D01*
X174681905Y-116205714D01*
X174777143Y-116253333D01*
X174824762Y-116300952D01*
X174872381Y-116396190D01*
X174872381Y-116586667D01*
X174824762Y-116681905D01*
X174824762Y-115396190D02*
X174872381Y-115491428D01*
X174872381Y-115681905D01*
X174824762Y-115777143D01*
X174729524Y-115824762D01*
X174348571Y-115824762D01*
X174253333Y-115777143D01*
X174205714Y-115681905D01*
X174205714Y-115491428D01*
X174253333Y-115396190D01*
X174348571Y-115348571D01*
X174443810Y-115348571D01*
X174539048Y-115824762D01*
X174872381Y-114491428D02*
X174348571Y-114491428D01*
X174253333Y-114539047D01*
X174205714Y-114634285D01*
X174205714Y-114824762D01*
X174253333Y-114920000D01*
X174824762Y-114491428D02*
X174872381Y-114586666D01*
X174872381Y-114824762D01*
X174824762Y-114920000D01*
X174729524Y-114967619D01*
X174634286Y-114967619D01*
X174539048Y-114920000D01*
X174491429Y-114824762D01*
X174491429Y-114586666D01*
X174443810Y-114491428D01*
X174872381Y-114015238D02*
X173872381Y-114015238D01*
X174491429Y-113920000D02*
X174872381Y-113634285D01*
X174205714Y-113634285D02*
X174586667Y-114015238D01*
X174824762Y-112824761D02*
X174872381Y-112919999D01*
X174872381Y-113110476D01*
X174824762Y-113205714D01*
X174729524Y-113253333D01*
X174348571Y-113253333D01*
X174253333Y-113205714D01*
X174205714Y-113110476D01*
X174205714Y-112919999D01*
X174253333Y-112824761D01*
X174348571Y-112777142D01*
X174443810Y-112777142D01*
X174539048Y-113253333D01*
X174872381Y-112348571D02*
X174205714Y-112348571D01*
X174396190Y-112348571D02*
X174300952Y-112300952D01*
X174253333Y-112253333D01*
X174205714Y-112158095D01*
X174205714Y-112062856D01*
X136908898Y-120904331D02*
X137051755Y-120951950D01*
X137099374Y-120999570D01*
X137146993Y-121094808D01*
X137146993Y-121237665D01*
X137099374Y-121332903D01*
X137051755Y-121380522D01*
X136956517Y-121428141D01*
X136575564Y-121428141D01*
X136575564Y-120428141D01*
X136908898Y-120428141D01*
X137004136Y-120475760D01*
X137051755Y-120523379D01*
X137099374Y-120618617D01*
X137099374Y-120713855D01*
X137051755Y-120809093D01*
X137004136Y-120856712D01*
X136908898Y-120904331D01*
X136575564Y-120904331D01*
X138146993Y-121332903D02*
X138099374Y-121380522D01*
X137956517Y-121428141D01*
X137861279Y-121428141D01*
X137718421Y-121380522D01*
X137623183Y-121285284D01*
X137575564Y-121190046D01*
X137527945Y-120999570D01*
X137527945Y-120856712D01*
X137575564Y-120666236D01*
X137623183Y-120570998D01*
X137718421Y-120475760D01*
X137861279Y-120428141D01*
X137956517Y-120428141D01*
X138099374Y-120475760D01*
X138146993Y-120523379D01*
X138718421Y-120856712D02*
X138623183Y-120809093D01*
X138575564Y-120761474D01*
X138527945Y-120666236D01*
X138527945Y-120618617D01*
X138575564Y-120523379D01*
X138623183Y-120475760D01*
X138718421Y-120428141D01*
X138908898Y-120428141D01*
X139004136Y-120475760D01*
X139051755Y-120523379D01*
X139099374Y-120618617D01*
X139099374Y-120666236D01*
X139051755Y-120761474D01*
X139004136Y-120809093D01*
X138908898Y-120856712D01*
X138718421Y-120856712D01*
X138623183Y-120904331D01*
X138575564Y-120951950D01*
X138527945Y-121047189D01*
X138527945Y-121237665D01*
X138575564Y-121332903D01*
X138623183Y-121380522D01*
X138718421Y-121428141D01*
X138908898Y-121428141D01*
X139004136Y-121380522D01*
X139051755Y-121332903D01*
X139099374Y-121237665D01*
X139099374Y-121047189D01*
X139051755Y-120951950D01*
X139004136Y-120904331D01*
X138908898Y-120856712D01*
X140004136Y-120428141D02*
X139527945Y-120428141D01*
X139480326Y-120904331D01*
X139527945Y-120856712D01*
X139623183Y-120809093D01*
X139861279Y-120809093D01*
X139956517Y-120856712D01*
X140004136Y-120904331D01*
X140051755Y-120999570D01*
X140051755Y-121237665D01*
X140004136Y-121332903D01*
X139956517Y-121380522D01*
X139861279Y-121428141D01*
X139623183Y-121428141D01*
X139527945Y-121380522D01*
X139480326Y-121332903D01*
X140385088Y-120428141D02*
X141051755Y-120428141D01*
X140623183Y-121428141D01*
D14*
X139039850Y-118523379D02*
X139016040Y-118570998D01*
X138968421Y-118618617D01*
X138896992Y-118690046D01*
X138873183Y-118737665D01*
X138873183Y-118785284D01*
X138992230Y-118761474D02*
X138968421Y-118809093D01*
X138920802Y-118856712D01*
X138825564Y-118880522D01*
X138658897Y-118880522D01*
X138563659Y-118856712D01*
X138516040Y-118809093D01*
X138492230Y-118761474D01*
X138492230Y-118666236D01*
X138516040Y-118618617D01*
X138563659Y-118570998D01*
X138658897Y-118547189D01*
X138825564Y-118547189D01*
X138920802Y-118570998D01*
X138968421Y-118618617D01*
X138992230Y-118666236D01*
X138992230Y-118761474D01*
X138992230Y-118070998D02*
X138992230Y-118356712D01*
X138992230Y-118213855D02*
X138492230Y-118213855D01*
X138563659Y-118261474D01*
X138611278Y-118309093D01*
X138635088Y-118356712D01*
D11*
X126810258Y-117935731D02*
X126953115Y-117983350D01*
X127000734Y-118030970D01*
X127048353Y-118126208D01*
X127048353Y-118269065D01*
X127000734Y-118364303D01*
X126953115Y-118411922D01*
X126857877Y-118459541D01*
X126476924Y-118459541D01*
X126476924Y-117459541D01*
X126810258Y-117459541D01*
X126905496Y-117507160D01*
X126953115Y-117554779D01*
X127000734Y-117650017D01*
X127000734Y-117745255D01*
X126953115Y-117840493D01*
X126905496Y-117888112D01*
X126810258Y-117935731D01*
X126476924Y-117935731D01*
X128048353Y-118364303D02*
X128000734Y-118411922D01*
X127857877Y-118459541D01*
X127762639Y-118459541D01*
X127619781Y-118411922D01*
X127524543Y-118316684D01*
X127476924Y-118221446D01*
X127429305Y-118030970D01*
X127429305Y-117888112D01*
X127476924Y-117697636D01*
X127524543Y-117602398D01*
X127619781Y-117507160D01*
X127762639Y-117459541D01*
X127857877Y-117459541D01*
X128000734Y-117507160D01*
X128048353Y-117554779D01*
X128619781Y-117888112D02*
X128524543Y-117840493D01*
X128476924Y-117792874D01*
X128429305Y-117697636D01*
X128429305Y-117650017D01*
X128476924Y-117554779D01*
X128524543Y-117507160D01*
X128619781Y-117459541D01*
X128810258Y-117459541D01*
X128905496Y-117507160D01*
X128953115Y-117554779D01*
X129000734Y-117650017D01*
X129000734Y-117697636D01*
X128953115Y-117792874D01*
X128905496Y-117840493D01*
X128810258Y-117888112D01*
X128619781Y-117888112D01*
X128524543Y-117935731D01*
X128476924Y-117983350D01*
X128429305Y-118078589D01*
X128429305Y-118269065D01*
X128476924Y-118364303D01*
X128524543Y-118411922D01*
X128619781Y-118459541D01*
X128810258Y-118459541D01*
X128905496Y-118411922D01*
X128953115Y-118364303D01*
X129000734Y-118269065D01*
X129000734Y-118078589D01*
X128953115Y-117983350D01*
X128905496Y-117935731D01*
X128810258Y-117888112D01*
X129905496Y-117459541D02*
X129429305Y-117459541D01*
X129381686Y-117935731D01*
X129429305Y-117888112D01*
X129524543Y-117840493D01*
X129762639Y-117840493D01*
X129857877Y-117888112D01*
X129905496Y-117935731D01*
X129953115Y-118030970D01*
X129953115Y-118269065D01*
X129905496Y-118364303D01*
X129857877Y-118411922D01*
X129762639Y-118459541D01*
X129524543Y-118459541D01*
X129429305Y-118411922D01*
X129381686Y-118364303D01*
X130286448Y-117459541D02*
X130953115Y-117459541D01*
X130524543Y-118459541D01*
D14*
X128941210Y-115554779D02*
X128917400Y-115602398D01*
X128869781Y-115650017D01*
X128798352Y-115721446D01*
X128774543Y-115769065D01*
X128774543Y-115816684D01*
X128893590Y-115792874D02*
X128869781Y-115840493D01*
X128822162Y-115888112D01*
X128726924Y-115911922D01*
X128560257Y-115911922D01*
X128465019Y-115888112D01*
X128417400Y-115840493D01*
X128393590Y-115792874D01*
X128393590Y-115697636D01*
X128417400Y-115650017D01*
X128465019Y-115602398D01*
X128560257Y-115578589D01*
X128726924Y-115578589D01*
X128822162Y-115602398D01*
X128869781Y-115650017D01*
X128893590Y-115697636D01*
X128893590Y-115792874D01*
X128441210Y-115388112D02*
X128417400Y-115364302D01*
X128393590Y-115316683D01*
X128393590Y-115197636D01*
X128417400Y-115150017D01*
X128441210Y-115126207D01*
X128488829Y-115102398D01*
X128536448Y-115102398D01*
X128607876Y-115126207D01*
X128893590Y-115411921D01*
X128893590Y-115102398D01*
D11*
X82588324Y-114358081D02*
X82016895Y-114358081D01*
X82302609Y-114358081D02*
X82302609Y-113358081D01*
X82207371Y-113500938D01*
X82112133Y-113596176D01*
X82016895Y-113643795D01*
X83207371Y-113358081D02*
X83302610Y-113358081D01*
X83397848Y-113405700D01*
X83445467Y-113453319D01*
X83493086Y-113548557D01*
X83540705Y-113739033D01*
X83540705Y-113977129D01*
X83493086Y-114167605D01*
X83445467Y-114262843D01*
X83397848Y-114310462D01*
X83302610Y-114358081D01*
X83207371Y-114358081D01*
X83112133Y-114310462D01*
X83064514Y-114262843D01*
X83016895Y-114167605D01*
X82969276Y-113977129D01*
X82969276Y-113739033D01*
X83016895Y-113548557D01*
X83064514Y-113453319D01*
X83112133Y-113405700D01*
X83207371Y-113358081D01*
X83969276Y-114358081D02*
X83969276Y-113358081D01*
X84540705Y-114358081D02*
X84112133Y-113786652D01*
X84540705Y-113358081D02*
X83969276Y-113929510D01*
D14*
X83212134Y-115636652D02*
X83078800Y-115446176D01*
X82983562Y-115636652D02*
X82983562Y-115236652D01*
X83135943Y-115236652D01*
X83174038Y-115255700D01*
X83193086Y-115274748D01*
X83212134Y-115312843D01*
X83212134Y-115369986D01*
X83193086Y-115408081D01*
X83174038Y-115427129D01*
X83135943Y-115446176D01*
X82983562Y-115446176D01*
X83593086Y-115636652D02*
X83364514Y-115636652D01*
X83478800Y-115636652D02*
X83478800Y-115236652D01*
X83440705Y-115293795D01*
X83402610Y-115331890D01*
X83364514Y-115350938D01*
D11*
X132642775Y-123405561D02*
X132071346Y-123405561D01*
X132357060Y-123405561D02*
X132357060Y-122405561D01*
X132261822Y-122548418D01*
X132166584Y-122643656D01*
X132071346Y-122691275D01*
X133071346Y-123405561D02*
X133071346Y-122405561D01*
X133642775Y-123405561D02*
X133214203Y-122834132D01*
X133642775Y-122405561D02*
X133071346Y-122976990D01*
D14*
X132790394Y-124684132D02*
X132657060Y-124493656D01*
X132561822Y-124684132D02*
X132561822Y-124284132D01*
X132714203Y-124284132D01*
X132752298Y-124303180D01*
X132771346Y-124322228D01*
X132790394Y-124360323D01*
X132790394Y-124417466D01*
X132771346Y-124455561D01*
X132752298Y-124474609D01*
X132714203Y-124493656D01*
X132561822Y-124493656D01*
X132942774Y-124322228D02*
X132961822Y-124303180D01*
X132999917Y-124284132D01*
X133095155Y-124284132D01*
X133133251Y-124303180D01*
X133152298Y-124322228D01*
X133171346Y-124360323D01*
X133171346Y-124398418D01*
X133152298Y-124455561D01*
X132923727Y-124684132D01*
X133171346Y-124684132D01*
D11*
X127302381Y-125814285D02*
X127302381Y-126385714D01*
X127302381Y-126100000D02*
X126302381Y-126100000D01*
X126445238Y-126195238D01*
X126540476Y-126290476D01*
X126588095Y-126385714D01*
X127302381Y-125385714D02*
X126302381Y-125385714D01*
X127302381Y-124814285D02*
X126730952Y-125242857D01*
X126302381Y-124814285D02*
X126873810Y-125385714D01*
D14*
X128580952Y-125666666D02*
X128390476Y-125800000D01*
X128580952Y-125895238D02*
X128180952Y-125895238D01*
X128180952Y-125742857D01*
X128200000Y-125704762D01*
X128219048Y-125685714D01*
X128257143Y-125666666D01*
X128314286Y-125666666D01*
X128352381Y-125685714D01*
X128371429Y-125704762D01*
X128390476Y-125742857D01*
X128390476Y-125895238D01*
X128180952Y-125533333D02*
X128180952Y-125285714D01*
X128333333Y-125419047D01*
X128333333Y-125361905D01*
X128352381Y-125323809D01*
X128371429Y-125304762D01*
X128409524Y-125285714D01*
X128504762Y-125285714D01*
X128542857Y-125304762D01*
X128561905Y-125323809D01*
X128580952Y-125361905D01*
X128580952Y-125476190D01*
X128561905Y-125514286D01*
X128542857Y-125533333D01*
D11*
X88236026Y-113102741D02*
X88045549Y-113102741D01*
X87950311Y-113150360D01*
X87902692Y-113197979D01*
X87807454Y-113340836D01*
X87759835Y-113531312D01*
X87759835Y-113912265D01*
X87807454Y-114007503D01*
X87855073Y-114055122D01*
X87950311Y-114102741D01*
X88140788Y-114102741D01*
X88236026Y-114055122D01*
X88283645Y-114007503D01*
X88331264Y-113912265D01*
X88331264Y-113674170D01*
X88283645Y-113578931D01*
X88236026Y-113531312D01*
X88140788Y-113483693D01*
X87950311Y-113483693D01*
X87855073Y-113531312D01*
X87807454Y-113578931D01*
X87759835Y-113674170D01*
X88712216Y-113197979D02*
X88759835Y-113150360D01*
X88855073Y-113102741D01*
X89093169Y-113102741D01*
X89188407Y-113150360D01*
X89236026Y-113197979D01*
X89283645Y-113293217D01*
X89283645Y-113388455D01*
X89236026Y-113531312D01*
X88664597Y-114102741D01*
X89283645Y-114102741D01*
X89712216Y-114102741D02*
X89712216Y-113102741D01*
X90283645Y-114102741D02*
X89855073Y-113531312D01*
X90283645Y-113102741D02*
X89712216Y-113674170D01*
D14*
X88955074Y-112281312D02*
X88821740Y-112090836D01*
X88726502Y-112281312D02*
X88726502Y-111881312D01*
X88878883Y-111881312D01*
X88916978Y-111900360D01*
X88936026Y-111919408D01*
X88955074Y-111957503D01*
X88955074Y-112014646D01*
X88936026Y-112052741D01*
X88916978Y-112071789D01*
X88878883Y-112090836D01*
X88726502Y-112090836D01*
X89297931Y-112014646D02*
X89297931Y-112281312D01*
X89202693Y-111862265D02*
X89107454Y-112147979D01*
X89355074Y-112147979D01*
D11*
X138761635Y-114260221D02*
X138190206Y-114260221D01*
X138475920Y-114260221D02*
X138475920Y-113260221D01*
X138380682Y-113403078D01*
X138285444Y-113498316D01*
X138190206Y-113545935D01*
X139190206Y-114260221D02*
X139190206Y-113260221D01*
X139761635Y-114260221D02*
X139333063Y-113688792D01*
X139761635Y-113260221D02*
X139190206Y-113831650D01*
D14*
X138909254Y-112438792D02*
X138775920Y-112248316D01*
X138680682Y-112438792D02*
X138680682Y-112038792D01*
X138833063Y-112038792D01*
X138871158Y-112057840D01*
X138890206Y-112076888D01*
X138909254Y-112114983D01*
X138909254Y-112172126D01*
X138890206Y-112210221D01*
X138871158Y-112229269D01*
X138833063Y-112248316D01*
X138680682Y-112248316D01*
X139271158Y-112038792D02*
X139080682Y-112038792D01*
X139061634Y-112229269D01*
X139080682Y-112210221D01*
X139118777Y-112191173D01*
X139214015Y-112191173D01*
X139252111Y-112210221D01*
X139271158Y-112229269D01*
X139290206Y-112267364D01*
X139290206Y-112362602D01*
X139271158Y-112400697D01*
X139252111Y-112419745D01*
X139214015Y-112438792D01*
X139118777Y-112438792D01*
X139080682Y-112419745D01*
X139061634Y-112400697D01*
D11*
X82584446Y-113344041D02*
X82393969Y-113344041D01*
X82298731Y-113391660D01*
X82251112Y-113439279D01*
X82155874Y-113582136D01*
X82108255Y-113772612D01*
X82108255Y-114153565D01*
X82155874Y-114248803D01*
X82203493Y-114296422D01*
X82298731Y-114344041D01*
X82489208Y-114344041D01*
X82584446Y-114296422D01*
X82632065Y-114248803D01*
X82679684Y-114153565D01*
X82679684Y-113915470D01*
X82632065Y-113820231D01*
X82584446Y-113772612D01*
X82489208Y-113724993D01*
X82298731Y-113724993D01*
X82203493Y-113772612D01*
X82155874Y-113820231D01*
X82108255Y-113915470D01*
X83108255Y-114344041D02*
X83108255Y-113344041D01*
X83679684Y-114344041D02*
X83251112Y-113772612D01*
X83679684Y-113344041D02*
X83108255Y-113915470D01*
X84060636Y-113439279D02*
X84108255Y-113391660D01*
X84203493Y-113344041D01*
X84441589Y-113344041D01*
X84536827Y-113391660D01*
X84584446Y-113439279D01*
X84632065Y-113534517D01*
X84632065Y-113629755D01*
X84584446Y-113772612D01*
X84013017Y-114344041D01*
X84632065Y-114344041D01*
D14*
X83303494Y-112522612D02*
X83170160Y-112332136D01*
X83074922Y-112522612D02*
X83074922Y-112122612D01*
X83227303Y-112122612D01*
X83265398Y-112141660D01*
X83284446Y-112160708D01*
X83303494Y-112198803D01*
X83303494Y-112255946D01*
X83284446Y-112294041D01*
X83265398Y-112313089D01*
X83227303Y-112332136D01*
X83074922Y-112332136D01*
X83646351Y-112122612D02*
X83570160Y-112122612D01*
X83532065Y-112141660D01*
X83513017Y-112160708D01*
X83474922Y-112217850D01*
X83455874Y-112294041D01*
X83455874Y-112446422D01*
X83474922Y-112484517D01*
X83493970Y-112503565D01*
X83532065Y-112522612D01*
X83608255Y-112522612D01*
X83646351Y-112503565D01*
X83665398Y-112484517D01*
X83684446Y-112446422D01*
X83684446Y-112351184D01*
X83665398Y-112313089D01*
X83646351Y-112294041D01*
X83608255Y-112274993D01*
X83532065Y-112274993D01*
X83493970Y-112294041D01*
X83474922Y-112313089D01*
X83455874Y-112351184D01*
D11*
X143881064Y-115201361D02*
X143309635Y-115201361D01*
X143595349Y-115201361D02*
X143595349Y-114201361D01*
X143500111Y-114344218D01*
X143404873Y-114439456D01*
X143309635Y-114487075D01*
X144500111Y-114201361D02*
X144595350Y-114201361D01*
X144690588Y-114248980D01*
X144738207Y-114296599D01*
X144785826Y-114391837D01*
X144833445Y-114582313D01*
X144833445Y-114820409D01*
X144785826Y-115010885D01*
X144738207Y-115106123D01*
X144690588Y-115153742D01*
X144595350Y-115201361D01*
X144500111Y-115201361D01*
X144404873Y-115153742D01*
X144357254Y-115106123D01*
X144309635Y-115010885D01*
X144262016Y-114820409D01*
X144262016Y-114582313D01*
X144309635Y-114391837D01*
X144357254Y-114296599D01*
X144404873Y-114248980D01*
X144500111Y-114201361D01*
X145262016Y-115201361D02*
X145262016Y-114201361D01*
X145833445Y-115201361D02*
X145404873Y-114629932D01*
X145833445Y-114201361D02*
X145262016Y-114772790D01*
D14*
X144504874Y-116479932D02*
X144371540Y-116289456D01*
X144276302Y-116479932D02*
X144276302Y-116079932D01*
X144428683Y-116079932D01*
X144466778Y-116098980D01*
X144485826Y-116118028D01*
X144504874Y-116156123D01*
X144504874Y-116213266D01*
X144485826Y-116251361D01*
X144466778Y-116270409D01*
X144428683Y-116289456D01*
X144276302Y-116289456D01*
X144638207Y-116079932D02*
X144904874Y-116079932D01*
X144733445Y-116479932D01*
D11*
X88589015Y-120015861D02*
X88017586Y-120015861D01*
X88303300Y-120015861D02*
X88303300Y-119015861D01*
X88208062Y-119158718D01*
X88112824Y-119253956D01*
X88017586Y-119301575D01*
X89017586Y-120015861D02*
X89017586Y-119015861D01*
X89589015Y-120015861D02*
X89160443Y-119444432D01*
X89589015Y-119015861D02*
X89017586Y-119587290D01*
D14*
X88736634Y-118194432D02*
X88603300Y-118003956D01*
X88508062Y-118194432D02*
X88508062Y-117794432D01*
X88660443Y-117794432D01*
X88698538Y-117813480D01*
X88717586Y-117832528D01*
X88736634Y-117870623D01*
X88736634Y-117927766D01*
X88717586Y-117965861D01*
X88698538Y-117984909D01*
X88660443Y-118003956D01*
X88508062Y-118003956D01*
X88965205Y-117965861D02*
X88927110Y-117946813D01*
X88908062Y-117927766D01*
X88889014Y-117889670D01*
X88889014Y-117870623D01*
X88908062Y-117832528D01*
X88927110Y-117813480D01*
X88965205Y-117794432D01*
X89041395Y-117794432D01*
X89079491Y-117813480D01*
X89098538Y-117832528D01*
X89117586Y-117870623D01*
X89117586Y-117889670D01*
X89098538Y-117927766D01*
X89079491Y-117946813D01*
X89041395Y-117965861D01*
X88965205Y-117965861D01*
X88927110Y-117984909D01*
X88908062Y-118003956D01*
X88889014Y-118042051D01*
X88889014Y-118118242D01*
X88908062Y-118156337D01*
X88927110Y-118175385D01*
X88965205Y-118194432D01*
X89041395Y-118194432D01*
X89079491Y-118175385D01*
X89098538Y-118156337D01*
X89117586Y-118118242D01*
X89117586Y-118042051D01*
X89098538Y-118003956D01*
X89079491Y-117984909D01*
X89041395Y-117965861D01*
D11*
X143584064Y-114570101D02*
X143012635Y-114570101D01*
X143298349Y-114570101D02*
X143298349Y-113570101D01*
X143203111Y-113712958D01*
X143107873Y-113808196D01*
X143012635Y-113855815D01*
X144203111Y-113570101D02*
X144298350Y-113570101D01*
X144393588Y-113617720D01*
X144441207Y-113665339D01*
X144488826Y-113760577D01*
X144536445Y-113951053D01*
X144536445Y-114189149D01*
X144488826Y-114379625D01*
X144441207Y-114474863D01*
X144393588Y-114522482D01*
X144298350Y-114570101D01*
X144203111Y-114570101D01*
X144107873Y-114522482D01*
X144060254Y-114474863D01*
X144012635Y-114379625D01*
X143965016Y-114189149D01*
X143965016Y-113951053D01*
X144012635Y-113760577D01*
X144060254Y-113665339D01*
X144107873Y-113617720D01*
X144203111Y-113570101D01*
X144965016Y-114570101D02*
X144965016Y-113570101D01*
X145536445Y-114570101D02*
X145107873Y-113998672D01*
X145536445Y-113570101D02*
X144965016Y-114141530D01*
D14*
X144207874Y-112748672D02*
X144074540Y-112558196D01*
X143979302Y-112748672D02*
X143979302Y-112348672D01*
X144131683Y-112348672D01*
X144169778Y-112367720D01*
X144188826Y-112386768D01*
X144207874Y-112424863D01*
X144207874Y-112482006D01*
X144188826Y-112520101D01*
X144169778Y-112539149D01*
X144131683Y-112558196D01*
X143979302Y-112558196D01*
X144398350Y-112748672D02*
X144474540Y-112748672D01*
X144512635Y-112729625D01*
X144531683Y-112710577D01*
X144569778Y-112653434D01*
X144588826Y-112577244D01*
X144588826Y-112424863D01*
X144569778Y-112386768D01*
X144550731Y-112367720D01*
X144512635Y-112348672D01*
X144436445Y-112348672D01*
X144398350Y-112367720D01*
X144379302Y-112386768D01*
X144360254Y-112424863D01*
X144360254Y-112520101D01*
X144379302Y-112558196D01*
X144398350Y-112577244D01*
X144436445Y-112596291D01*
X144512635Y-112596291D01*
X144550731Y-112577244D01*
X144569778Y-112558196D01*
X144588826Y-112520101D01*
D11*
X82481382Y-124874021D02*
X81909953Y-124874021D01*
X82195667Y-124874021D02*
X82195667Y-123874021D01*
X82100429Y-124016878D01*
X82005191Y-124112116D01*
X81909953Y-124159735D01*
X83052810Y-124302592D02*
X82957572Y-124254973D01*
X82909953Y-124207354D01*
X82862334Y-124112116D01*
X82862334Y-124064497D01*
X82909953Y-123969259D01*
X82957572Y-123921640D01*
X83052810Y-123874021D01*
X83243287Y-123874021D01*
X83338525Y-123921640D01*
X83386144Y-123969259D01*
X83433763Y-124064497D01*
X83433763Y-124112116D01*
X83386144Y-124207354D01*
X83338525Y-124254973D01*
X83243287Y-124302592D01*
X83052810Y-124302592D01*
X82957572Y-124350211D01*
X82909953Y-124397830D01*
X82862334Y-124493069D01*
X82862334Y-124683545D01*
X82909953Y-124778783D01*
X82957572Y-124826402D01*
X83052810Y-124874021D01*
X83243287Y-124874021D01*
X83338525Y-124826402D01*
X83386144Y-124778783D01*
X83433763Y-124683545D01*
X83433763Y-124493069D01*
X83386144Y-124397830D01*
X83338525Y-124350211D01*
X83243287Y-124302592D01*
X83862334Y-124874021D02*
X83862334Y-123874021D01*
X83957572Y-124493069D02*
X84243287Y-124874021D01*
X84243287Y-124207354D02*
X83862334Y-124588307D01*
D14*
X82819478Y-123052592D02*
X82686144Y-122862116D01*
X82590906Y-123052592D02*
X82590906Y-122652592D01*
X82743287Y-122652592D01*
X82781382Y-122671640D01*
X82800430Y-122690688D01*
X82819478Y-122728783D01*
X82819478Y-122785926D01*
X82800430Y-122824021D01*
X82781382Y-122843069D01*
X82743287Y-122862116D01*
X82590906Y-122862116D01*
X83200430Y-123052592D02*
X82971858Y-123052592D01*
X83086144Y-123052592D02*
X83086144Y-122652592D01*
X83048049Y-122709735D01*
X83009954Y-122747830D01*
X82971858Y-122766878D01*
X83448049Y-122652592D02*
X83486144Y-122652592D01*
X83524239Y-122671640D01*
X83543287Y-122690688D01*
X83562334Y-122728783D01*
X83581382Y-122804973D01*
X83581382Y-122900211D01*
X83562334Y-122976402D01*
X83543287Y-123014497D01*
X83524239Y-123033545D01*
X83486144Y-123052592D01*
X83448049Y-123052592D01*
X83409953Y-123033545D01*
X83390906Y-123014497D01*
X83371858Y-122976402D01*
X83352810Y-122900211D01*
X83352810Y-122804973D01*
X83371858Y-122728783D01*
X83390906Y-122690688D01*
X83409953Y-122671640D01*
X83448049Y-122652592D01*
D11*
X98199524Y-130982381D02*
X97628095Y-130982381D01*
X97913809Y-130982381D02*
X97913809Y-129982381D01*
X97818571Y-130125238D01*
X97723333Y-130220476D01*
X97628095Y-130268095D01*
X98818571Y-129982381D02*
X98913810Y-129982381D01*
X99009048Y-130030000D01*
X99056667Y-130077619D01*
X99104286Y-130172857D01*
X99151905Y-130363333D01*
X99151905Y-130601429D01*
X99104286Y-130791905D01*
X99056667Y-130887143D01*
X99009048Y-130934762D01*
X98913810Y-130982381D01*
X98818571Y-130982381D01*
X98723333Y-130934762D01*
X98675714Y-130887143D01*
X98628095Y-130791905D01*
X98580476Y-130601429D01*
X98580476Y-130363333D01*
X98628095Y-130172857D01*
X98675714Y-130077619D01*
X98723333Y-130030000D01*
X98818571Y-129982381D01*
X99580476Y-130982381D02*
X99580476Y-129982381D01*
X100151905Y-130982381D02*
X99723333Y-130410952D01*
X100151905Y-129982381D02*
X99580476Y-130553810D01*
D14*
X98632858Y-132260952D02*
X98499524Y-132070476D01*
X98404286Y-132260952D02*
X98404286Y-131860952D01*
X98556667Y-131860952D01*
X98594762Y-131880000D01*
X98613810Y-131899048D01*
X98632858Y-131937143D01*
X98632858Y-131994286D01*
X98613810Y-132032381D01*
X98594762Y-132051429D01*
X98556667Y-132070476D01*
X98404286Y-132070476D01*
X99013810Y-132260952D02*
X98785238Y-132260952D01*
X98899524Y-132260952D02*
X98899524Y-131860952D01*
X98861429Y-131918095D01*
X98823334Y-131956190D01*
X98785238Y-131975238D01*
X99394762Y-132260952D02*
X99166190Y-132260952D01*
X99280476Y-132260952D02*
X99280476Y-131860952D01*
X99242381Y-131918095D01*
X99204286Y-131956190D01*
X99166190Y-131975238D01*
D11*
X161630584Y-113295021D02*
X161059155Y-113295021D01*
X161344869Y-113295021D02*
X161344869Y-112295021D01*
X161249631Y-112437878D01*
X161154393Y-112533116D01*
X161059155Y-112580735D01*
X162249631Y-112295021D02*
X162344870Y-112295021D01*
X162440108Y-112342640D01*
X162487727Y-112390259D01*
X162535346Y-112485497D01*
X162582965Y-112675973D01*
X162582965Y-112914069D01*
X162535346Y-113104545D01*
X162487727Y-113199783D01*
X162440108Y-113247402D01*
X162344870Y-113295021D01*
X162249631Y-113295021D01*
X162154393Y-113247402D01*
X162106774Y-113199783D01*
X162059155Y-113104545D01*
X162011536Y-112914069D01*
X162011536Y-112675973D01*
X162059155Y-112485497D01*
X162106774Y-112390259D01*
X162154393Y-112342640D01*
X162249631Y-112295021D01*
X163011536Y-113295021D02*
X163011536Y-112295021D01*
X163582965Y-113295021D02*
X163154393Y-112723592D01*
X163582965Y-112295021D02*
X163011536Y-112866450D01*
D14*
X162063918Y-111473592D02*
X161930584Y-111283116D01*
X161835346Y-111473592D02*
X161835346Y-111073592D01*
X161987727Y-111073592D01*
X162025822Y-111092640D01*
X162044870Y-111111688D01*
X162063918Y-111149783D01*
X162063918Y-111206926D01*
X162044870Y-111245021D01*
X162025822Y-111264069D01*
X161987727Y-111283116D01*
X161835346Y-111283116D01*
X162444870Y-111473592D02*
X162216298Y-111473592D01*
X162330584Y-111473592D02*
X162330584Y-111073592D01*
X162292489Y-111130735D01*
X162254394Y-111168830D01*
X162216298Y-111187878D01*
X162597250Y-111111688D02*
X162616298Y-111092640D01*
X162654393Y-111073592D01*
X162749631Y-111073592D01*
X162787727Y-111092640D01*
X162806774Y-111111688D01*
X162825822Y-111149783D01*
X162825822Y-111187878D01*
X162806774Y-111245021D01*
X162578203Y-111473592D01*
X162825822Y-111473592D01*
D11*
X107233334Y-124802381D02*
X106661905Y-124802381D01*
X106947619Y-124802381D02*
X106947619Y-123802381D01*
X106852381Y-123945238D01*
X106757143Y-124040476D01*
X106661905Y-124088095D01*
X107614286Y-123897619D02*
X107661905Y-123850000D01*
X107757143Y-123802381D01*
X107995239Y-123802381D01*
X108090477Y-123850000D01*
X108138096Y-123897619D01*
X108185715Y-123992857D01*
X108185715Y-124088095D01*
X108138096Y-124230952D01*
X107566667Y-124802381D01*
X108185715Y-124802381D01*
X108804762Y-123802381D02*
X108900001Y-123802381D01*
X108995239Y-123850000D01*
X109042858Y-123897619D01*
X109090477Y-123992857D01*
X109138096Y-124183333D01*
X109138096Y-124421429D01*
X109090477Y-124611905D01*
X109042858Y-124707143D01*
X108995239Y-124754762D01*
X108900001Y-124802381D01*
X108804762Y-124802381D01*
X108709524Y-124754762D01*
X108661905Y-124707143D01*
X108614286Y-124611905D01*
X108566667Y-124421429D01*
X108566667Y-124183333D01*
X108614286Y-123992857D01*
X108661905Y-123897619D01*
X108709524Y-123850000D01*
X108804762Y-123802381D01*
X109566667Y-124802381D02*
X109566667Y-123802381D01*
X110138096Y-124802381D02*
X109709524Y-124230952D01*
X110138096Y-123802381D02*
X109566667Y-124373810D01*
D14*
X108142858Y-122980952D02*
X108009524Y-122790476D01*
X107914286Y-122980952D02*
X107914286Y-122580952D01*
X108066667Y-122580952D01*
X108104762Y-122600000D01*
X108123810Y-122619048D01*
X108142858Y-122657143D01*
X108142858Y-122714286D01*
X108123810Y-122752381D01*
X108104762Y-122771429D01*
X108066667Y-122790476D01*
X107914286Y-122790476D01*
X108523810Y-122980952D02*
X108295238Y-122980952D01*
X108409524Y-122980952D02*
X108409524Y-122580952D01*
X108371429Y-122638095D01*
X108333334Y-122676190D01*
X108295238Y-122695238D01*
X108657143Y-122580952D02*
X108904762Y-122580952D01*
X108771429Y-122733333D01*
X108828571Y-122733333D01*
X108866667Y-122752381D01*
X108885714Y-122771429D01*
X108904762Y-122809524D01*
X108904762Y-122904762D01*
X108885714Y-122942857D01*
X108866667Y-122961905D01*
X108828571Y-122980952D01*
X108714286Y-122980952D01*
X108676190Y-122961905D01*
X108657143Y-122942857D01*
D11*
X110002381Y-110980952D02*
X110002381Y-110361904D01*
X110383333Y-110695238D01*
X110383333Y-110552380D01*
X110430952Y-110457142D01*
X110478571Y-110409523D01*
X110573810Y-110361904D01*
X110811905Y-110361904D01*
X110907143Y-110409523D01*
X110954762Y-110457142D01*
X111002381Y-110552380D01*
X111002381Y-110838095D01*
X110954762Y-110933333D01*
X110907143Y-110980952D01*
X111002381Y-109933333D02*
X110002381Y-109933333D01*
X110716667Y-109599999D01*
X110002381Y-109266666D01*
X111002381Y-109266666D01*
X110002381Y-108885714D02*
X110002381Y-108266666D01*
X110383333Y-108600000D01*
X110383333Y-108457142D01*
X110430952Y-108361904D01*
X110478571Y-108314285D01*
X110573810Y-108266666D01*
X110811905Y-108266666D01*
X110907143Y-108314285D01*
X110954762Y-108361904D01*
X111002381Y-108457142D01*
X111002381Y-108742857D01*
X110954762Y-108838095D01*
X110907143Y-108885714D01*
D14*
X109180952Y-109857142D02*
X108990476Y-109990476D01*
X109180952Y-110085714D02*
X108780952Y-110085714D01*
X108780952Y-109933333D01*
X108800000Y-109895238D01*
X108819048Y-109876190D01*
X108857143Y-109857142D01*
X108914286Y-109857142D01*
X108952381Y-109876190D01*
X108971429Y-109895238D01*
X108990476Y-109933333D01*
X108990476Y-110085714D01*
X109180952Y-109476190D02*
X109180952Y-109704762D01*
X109180952Y-109590476D02*
X108780952Y-109590476D01*
X108838095Y-109628571D01*
X108876190Y-109666666D01*
X108895238Y-109704762D01*
X108914286Y-109133333D02*
X109180952Y-109133333D01*
X108761905Y-109228571D02*
X109047619Y-109323810D01*
X109047619Y-109076190D01*
D11*
X113490476Y-115202381D02*
X114157143Y-115202381D01*
X113728571Y-116202381D01*
X115014286Y-115202381D02*
X114538095Y-115202381D01*
X114490476Y-115678571D01*
X114538095Y-115630952D01*
X114633333Y-115583333D01*
X114871429Y-115583333D01*
X114966667Y-115630952D01*
X115014286Y-115678571D01*
X115061905Y-115773810D01*
X115061905Y-116011905D01*
X115014286Y-116107143D01*
X114966667Y-116154762D01*
X114871429Y-116202381D01*
X114633333Y-116202381D01*
X114538095Y-116154762D01*
X114490476Y-116107143D01*
X115490476Y-116202381D02*
X115490476Y-115202381D01*
X116061905Y-116202381D02*
X115633333Y-115630952D01*
X116061905Y-115202381D02*
X115490476Y-115773810D01*
D14*
X114542858Y-114380952D02*
X114409524Y-114190476D01*
X114314286Y-114380952D02*
X114314286Y-113980952D01*
X114466667Y-113980952D01*
X114504762Y-114000000D01*
X114523810Y-114019048D01*
X114542858Y-114057143D01*
X114542858Y-114114286D01*
X114523810Y-114152381D01*
X114504762Y-114171429D01*
X114466667Y-114190476D01*
X114314286Y-114190476D01*
X114923810Y-114380952D02*
X114695238Y-114380952D01*
X114809524Y-114380952D02*
X114809524Y-113980952D01*
X114771429Y-114038095D01*
X114733334Y-114076190D01*
X114695238Y-114095238D01*
X115266667Y-113980952D02*
X115190476Y-113980952D01*
X115152381Y-114000000D01*
X115133333Y-114019048D01*
X115095238Y-114076190D01*
X115076190Y-114152381D01*
X115076190Y-114304762D01*
X115095238Y-114342857D01*
X115114286Y-114361905D01*
X115152381Y-114380952D01*
X115228571Y-114380952D01*
X115266667Y-114361905D01*
X115285714Y-114342857D01*
X115304762Y-114304762D01*
X115304762Y-114209524D01*
X115285714Y-114171429D01*
X115266667Y-114152381D01*
X115228571Y-114133333D01*
X115152381Y-114133333D01*
X115114286Y-114152381D01*
X115095238Y-114171429D01*
X115076190Y-114209524D01*
D11*
X108290476Y-121002381D02*
X108957143Y-121002381D01*
X108528571Y-122002381D01*
X109814286Y-121002381D02*
X109338095Y-121002381D01*
X109290476Y-121478571D01*
X109338095Y-121430952D01*
X109433333Y-121383333D01*
X109671429Y-121383333D01*
X109766667Y-121430952D01*
X109814286Y-121478571D01*
X109861905Y-121573810D01*
X109861905Y-121811905D01*
X109814286Y-121907143D01*
X109766667Y-121954762D01*
X109671429Y-122002381D01*
X109433333Y-122002381D01*
X109338095Y-121954762D01*
X109290476Y-121907143D01*
X110290476Y-122002381D02*
X110290476Y-121002381D01*
X110861905Y-122002381D02*
X110433333Y-121430952D01*
X110861905Y-121002381D02*
X110290476Y-121573810D01*
D14*
X109342858Y-120180952D02*
X109209524Y-119990476D01*
X109114286Y-120180952D02*
X109114286Y-119780952D01*
X109266667Y-119780952D01*
X109304762Y-119800000D01*
X109323810Y-119819048D01*
X109342858Y-119857143D01*
X109342858Y-119914286D01*
X109323810Y-119952381D01*
X109304762Y-119971429D01*
X109266667Y-119990476D01*
X109114286Y-119990476D01*
X109723810Y-120180952D02*
X109495238Y-120180952D01*
X109609524Y-120180952D02*
X109609524Y-119780952D01*
X109571429Y-119838095D01*
X109533334Y-119876190D01*
X109495238Y-119895238D01*
X109857143Y-119780952D02*
X110123810Y-119780952D01*
X109952381Y-120180952D01*
D11*
X107192754Y-119501264D02*
X107859421Y-119501264D01*
X106811802Y-119739360D02*
X107526088Y-119977455D01*
X107526088Y-119358407D01*
X107859421Y-118977455D02*
X106859421Y-118977455D01*
X107859421Y-118406026D02*
X107287992Y-118834598D01*
X106859421Y-118406026D02*
X107430850Y-118977455D01*
X106859421Y-117501264D02*
X106859421Y-117977455D01*
X107335611Y-118025074D01*
X107287992Y-117977455D01*
X107240373Y-117882217D01*
X107240373Y-117644121D01*
X107287992Y-117548883D01*
X107335611Y-117501264D01*
X107430850Y-117453645D01*
X107668945Y-117453645D01*
X107764183Y-117501264D01*
X107811802Y-117548883D01*
X107859421Y-117644121D01*
X107859421Y-117882217D01*
X107811802Y-117977455D01*
X107764183Y-118025074D01*
X106859421Y-117120312D02*
X106859421Y-116501264D01*
X107240373Y-116834598D01*
X107240373Y-116691740D01*
X107287992Y-116596502D01*
X107335611Y-116548883D01*
X107430850Y-116501264D01*
X107668945Y-116501264D01*
X107764183Y-116548883D01*
X107811802Y-116596502D01*
X107859421Y-116691740D01*
X107859421Y-116977455D01*
X107811802Y-117072693D01*
X107764183Y-117120312D01*
D14*
X106037992Y-118496502D02*
X105847516Y-118629836D01*
X106037992Y-118725074D02*
X105637992Y-118725074D01*
X105637992Y-118572693D01*
X105657040Y-118534598D01*
X105676088Y-118515550D01*
X105714183Y-118496502D01*
X105771326Y-118496502D01*
X105809421Y-118515550D01*
X105828469Y-118534598D01*
X105847516Y-118572693D01*
X105847516Y-118725074D01*
X106037992Y-118115550D02*
X106037992Y-118344122D01*
X106037992Y-118229836D02*
X105637992Y-118229836D01*
X105695135Y-118267931D01*
X105733230Y-118306026D01*
X105752278Y-118344122D01*
X105809421Y-117886979D02*
X105790373Y-117925074D01*
X105771326Y-117944122D01*
X105733230Y-117963170D01*
X105714183Y-117963170D01*
X105676088Y-117944122D01*
X105657040Y-117925074D01*
X105637992Y-117886979D01*
X105637992Y-117810789D01*
X105657040Y-117772693D01*
X105676088Y-117753646D01*
X105714183Y-117734598D01*
X105733230Y-117734598D01*
X105771326Y-117753646D01*
X105790373Y-117772693D01*
X105809421Y-117810789D01*
X105809421Y-117886979D01*
X105828469Y-117925074D01*
X105847516Y-117944122D01*
X105885611Y-117963170D01*
X105961802Y-117963170D01*
X105999897Y-117944122D01*
X106018945Y-117925074D01*
X106037992Y-117886979D01*
X106037992Y-117810789D01*
X106018945Y-117772693D01*
X105999897Y-117753646D01*
X105961802Y-117734598D01*
X105885611Y-117734598D01*
X105847516Y-117753646D01*
X105828469Y-117772693D01*
X105809421Y-117810789D01*
D11*
X110014484Y-117696841D02*
X109681150Y-117220650D01*
X109443055Y-117696841D02*
X109443055Y-116696841D01*
X109824008Y-116696841D01*
X109919246Y-116744460D01*
X109966865Y-116792079D01*
X110014484Y-116887317D01*
X110014484Y-117030174D01*
X109966865Y-117125412D01*
X109919246Y-117173031D01*
X109824008Y-117220650D01*
X109443055Y-117220650D01*
D14*
X109447818Y-115875412D02*
X109314484Y-115684936D01*
X109219246Y-115875412D02*
X109219246Y-115475412D01*
X109371627Y-115475412D01*
X109409722Y-115494460D01*
X109428770Y-115513508D01*
X109447818Y-115551603D01*
X109447818Y-115608746D01*
X109428770Y-115646841D01*
X109409722Y-115665889D01*
X109371627Y-115684936D01*
X109219246Y-115684936D01*
X109828770Y-115875412D02*
X109600198Y-115875412D01*
X109714484Y-115875412D02*
X109714484Y-115475412D01*
X109676389Y-115532555D01*
X109638294Y-115570650D01*
X109600198Y-115589698D01*
X110019246Y-115875412D02*
X110095436Y-115875412D01*
X110133531Y-115856365D01*
X110152579Y-115837317D01*
X110190674Y-115780174D01*
X110209722Y-115703984D01*
X110209722Y-115551603D01*
X110190674Y-115513508D01*
X110171627Y-115494460D01*
X110133531Y-115475412D01*
X110057341Y-115475412D01*
X110019246Y-115494460D01*
X110000198Y-115513508D01*
X109981150Y-115551603D01*
X109981150Y-115646841D01*
X110000198Y-115684936D01*
X110019246Y-115703984D01*
X110057341Y-115723031D01*
X110133531Y-115723031D01*
X110171627Y-115703984D01*
X110190674Y-115684936D01*
X110209722Y-115646841D01*
D11*
X109909524Y-112702381D02*
X109576190Y-112226190D01*
X109338095Y-112702381D02*
X109338095Y-111702381D01*
X109719048Y-111702381D01*
X109814286Y-111750000D01*
X109861905Y-111797619D01*
X109909524Y-111892857D01*
X109909524Y-112035714D01*
X109861905Y-112130952D01*
X109814286Y-112178571D01*
X109719048Y-112226190D01*
X109338095Y-112226190D01*
D14*
X109342858Y-113980952D02*
X109209524Y-113790476D01*
X109114286Y-113980952D02*
X109114286Y-113580952D01*
X109266667Y-113580952D01*
X109304762Y-113600000D01*
X109323810Y-113619048D01*
X109342858Y-113657143D01*
X109342858Y-113714286D01*
X109323810Y-113752381D01*
X109304762Y-113771429D01*
X109266667Y-113790476D01*
X109114286Y-113790476D01*
X109495238Y-113619048D02*
X109514286Y-113600000D01*
X109552381Y-113580952D01*
X109647619Y-113580952D01*
X109685715Y-113600000D01*
X109704762Y-113619048D01*
X109723810Y-113657143D01*
X109723810Y-113695238D01*
X109704762Y-113752381D01*
X109476191Y-113980952D01*
X109723810Y-113980952D01*
X109971429Y-113580952D02*
X110009524Y-113580952D01*
X110047619Y-113600000D01*
X110066667Y-113619048D01*
X110085714Y-113657143D01*
X110104762Y-113733333D01*
X110104762Y-113828571D01*
X110085714Y-113904762D01*
X110066667Y-113942857D01*
X110047619Y-113961905D01*
X110009524Y-113980952D01*
X109971429Y-113980952D01*
X109933333Y-113961905D01*
X109914286Y-113942857D01*
X109895238Y-113904762D01*
X109876190Y-113828571D01*
X109876190Y-113733333D01*
X109895238Y-113657143D01*
X109914286Y-113619048D01*
X109933333Y-113600000D01*
X109971429Y-113580952D01*
D11*
X122193334Y-118282381D02*
X121621905Y-118282381D01*
X121907619Y-118282381D02*
X121907619Y-117282381D01*
X121812381Y-117425238D01*
X121717143Y-117520476D01*
X121621905Y-117568095D01*
X122574286Y-117377619D02*
X122621905Y-117330000D01*
X122717143Y-117282381D01*
X122955239Y-117282381D01*
X123050477Y-117330000D01*
X123098096Y-117377619D01*
X123145715Y-117472857D01*
X123145715Y-117568095D01*
X123098096Y-117710952D01*
X122526667Y-118282381D01*
X123145715Y-118282381D01*
X123764762Y-117282381D02*
X123860001Y-117282381D01*
X123955239Y-117330000D01*
X124002858Y-117377619D01*
X124050477Y-117472857D01*
X124098096Y-117663333D01*
X124098096Y-117901429D01*
X124050477Y-118091905D01*
X124002858Y-118187143D01*
X123955239Y-118234762D01*
X123860001Y-118282381D01*
X123764762Y-118282381D01*
X123669524Y-118234762D01*
X123621905Y-118187143D01*
X123574286Y-118091905D01*
X123526667Y-117901429D01*
X123526667Y-117663333D01*
X123574286Y-117472857D01*
X123621905Y-117377619D01*
X123669524Y-117330000D01*
X123764762Y-117282381D01*
X124526667Y-118282381D02*
X124526667Y-117282381D01*
X125098096Y-118282381D02*
X124669524Y-117710952D01*
X125098096Y-117282381D02*
X124526667Y-117853810D01*
D14*
X123102858Y-119560952D02*
X122969524Y-119370476D01*
X122874286Y-119560952D02*
X122874286Y-119160952D01*
X123026667Y-119160952D01*
X123064762Y-119180000D01*
X123083810Y-119199048D01*
X123102858Y-119237143D01*
X123102858Y-119294286D01*
X123083810Y-119332381D01*
X123064762Y-119351429D01*
X123026667Y-119370476D01*
X122874286Y-119370476D01*
X123255238Y-119199048D02*
X123274286Y-119180000D01*
X123312381Y-119160952D01*
X123407619Y-119160952D01*
X123445715Y-119180000D01*
X123464762Y-119199048D01*
X123483810Y-119237143D01*
X123483810Y-119275238D01*
X123464762Y-119332381D01*
X123236191Y-119560952D01*
X123483810Y-119560952D01*
X123864762Y-119560952D02*
X123636190Y-119560952D01*
X123750476Y-119560952D02*
X123750476Y-119160952D01*
X123712381Y-119218095D01*
X123674286Y-119256190D01*
X123636190Y-119275238D01*
D11*
X132109524Y-120502381D02*
X131538095Y-120502381D01*
X131823809Y-120502381D02*
X131823809Y-119502381D01*
X131728571Y-119645238D01*
X131633333Y-119740476D01*
X131538095Y-119788095D01*
X132728571Y-119502381D02*
X132823810Y-119502381D01*
X132919048Y-119550000D01*
X132966667Y-119597619D01*
X133014286Y-119692857D01*
X133061905Y-119883333D01*
X133061905Y-120121429D01*
X133014286Y-120311905D01*
X132966667Y-120407143D01*
X132919048Y-120454762D01*
X132823810Y-120502381D01*
X132728571Y-120502381D01*
X132633333Y-120454762D01*
X132585714Y-120407143D01*
X132538095Y-120311905D01*
X132490476Y-120121429D01*
X132490476Y-119883333D01*
X132538095Y-119692857D01*
X132585714Y-119597619D01*
X132633333Y-119550000D01*
X132728571Y-119502381D01*
X133490476Y-120502381D02*
X133490476Y-119502381D01*
X134061905Y-120502381D02*
X133633333Y-119930952D01*
X134061905Y-119502381D02*
X133490476Y-120073810D01*
D14*
X132542858Y-121780952D02*
X132409524Y-121590476D01*
X132314286Y-121780952D02*
X132314286Y-121380952D01*
X132466667Y-121380952D01*
X132504762Y-121400000D01*
X132523810Y-121419048D01*
X132542858Y-121457143D01*
X132542858Y-121514286D01*
X132523810Y-121552381D01*
X132504762Y-121571429D01*
X132466667Y-121590476D01*
X132314286Y-121590476D01*
X132695238Y-121419048D02*
X132714286Y-121400000D01*
X132752381Y-121380952D01*
X132847619Y-121380952D01*
X132885715Y-121400000D01*
X132904762Y-121419048D01*
X132923810Y-121457143D01*
X132923810Y-121495238D01*
X132904762Y-121552381D01*
X132676191Y-121780952D01*
X132923810Y-121780952D01*
X133076190Y-121419048D02*
X133095238Y-121400000D01*
X133133333Y-121380952D01*
X133228571Y-121380952D01*
X133266667Y-121400000D01*
X133285714Y-121419048D01*
X133304762Y-121457143D01*
X133304762Y-121495238D01*
X133285714Y-121552381D01*
X133057143Y-121780952D01*
X133304762Y-121780952D01*
D11*
X67309524Y-99952381D02*
X67309524Y-98952381D01*
X67642858Y-99666667D01*
X67976191Y-98952381D01*
X67976191Y-99952381D01*
X68595238Y-99952381D02*
X68500000Y-99904762D01*
X68452381Y-99857143D01*
X68404762Y-99761905D01*
X68404762Y-99476190D01*
X68452381Y-99380952D01*
X68500000Y-99333333D01*
X68595238Y-99285714D01*
X68738096Y-99285714D01*
X68833334Y-99333333D01*
X68880953Y-99380952D01*
X68928572Y-99476190D01*
X68928572Y-99761905D01*
X68880953Y-99857143D01*
X68833334Y-99904762D01*
X68738096Y-99952381D01*
X68595238Y-99952381D01*
X69785715Y-99285714D02*
X69785715Y-99952381D01*
X69357143Y-99285714D02*
X69357143Y-99809524D01*
X69404762Y-99904762D01*
X69500000Y-99952381D01*
X69642858Y-99952381D01*
X69738096Y-99904762D01*
X69785715Y-99857143D01*
X70261905Y-99285714D02*
X70261905Y-99952381D01*
X70261905Y-99380952D02*
X70309524Y-99333333D01*
X70404762Y-99285714D01*
X70547620Y-99285714D01*
X70642858Y-99333333D01*
X70690477Y-99428571D01*
X70690477Y-99952381D01*
X71023810Y-99285714D02*
X71404762Y-99285714D01*
X71166667Y-98952381D02*
X71166667Y-99809524D01*
X71214286Y-99904762D01*
X71309524Y-99952381D01*
X71404762Y-99952381D01*
X71738096Y-99952381D02*
X71738096Y-99285714D01*
X71738096Y-98952381D02*
X71690477Y-99000000D01*
X71738096Y-99047619D01*
X71785715Y-99000000D01*
X71738096Y-98952381D01*
X71738096Y-99047619D01*
X72214286Y-99285714D02*
X72214286Y-99952381D01*
X72214286Y-99380952D02*
X72261905Y-99333333D01*
X72357143Y-99285714D01*
X72500001Y-99285714D01*
X72595239Y-99333333D01*
X72642858Y-99428571D01*
X72642858Y-99952381D01*
X73547620Y-99285714D02*
X73547620Y-100095238D01*
X73500001Y-100190476D01*
X73452382Y-100238095D01*
X73357143Y-100285714D01*
X73214286Y-100285714D01*
X73119048Y-100238095D01*
X73547620Y-99904762D02*
X73452382Y-99952381D01*
X73261905Y-99952381D01*
X73166667Y-99904762D01*
X73119048Y-99857143D01*
X73071429Y-99761905D01*
X73071429Y-99476190D01*
X73119048Y-99380952D01*
X73166667Y-99333333D01*
X73261905Y-99285714D01*
X73452382Y-99285714D01*
X73547620Y-99333333D01*
X74023810Y-99952381D02*
X74023810Y-98952381D01*
X74023810Y-99428571D02*
X74595239Y-99428571D01*
X74595239Y-99952381D02*
X74595239Y-98952381D01*
X75214286Y-99952381D02*
X75119048Y-99904762D01*
X75071429Y-99857143D01*
X75023810Y-99761905D01*
X75023810Y-99476190D01*
X75071429Y-99380952D01*
X75119048Y-99333333D01*
X75214286Y-99285714D01*
X75357144Y-99285714D01*
X75452382Y-99333333D01*
X75500001Y-99380952D01*
X75547620Y-99476190D01*
X75547620Y-99761905D01*
X75500001Y-99857143D01*
X75452382Y-99904762D01*
X75357144Y-99952381D01*
X75214286Y-99952381D01*
X76119048Y-99952381D02*
X76023810Y-99904762D01*
X75976191Y-99809524D01*
X75976191Y-98952381D01*
X76880954Y-99904762D02*
X76785716Y-99952381D01*
X76595239Y-99952381D01*
X76500001Y-99904762D01*
X76452382Y-99809524D01*
X76452382Y-99428571D01*
X76500001Y-99333333D01*
X76595239Y-99285714D01*
X76785716Y-99285714D01*
X76880954Y-99333333D01*
X76928573Y-99428571D01*
X76928573Y-99523810D01*
X76452382Y-99619048D01*
X77119049Y-100047619D02*
X77880954Y-100047619D01*
X78023811Y-98952381D02*
X78642859Y-98952381D01*
X78309525Y-99333333D01*
X78452383Y-99333333D01*
X78547621Y-99380952D01*
X78595240Y-99428571D01*
X78642859Y-99523810D01*
X78642859Y-99761905D01*
X78595240Y-99857143D01*
X78547621Y-99904762D01*
X78452383Y-99952381D01*
X78166668Y-99952381D01*
X78071430Y-99904762D01*
X78023811Y-99857143D01*
X79071430Y-99857143D02*
X79119049Y-99904762D01*
X79071430Y-99952381D01*
X79023811Y-99904762D01*
X79071430Y-99857143D01*
X79071430Y-99952381D01*
X80023811Y-98952381D02*
X79547620Y-98952381D01*
X79500001Y-99428571D01*
X79547620Y-99380952D01*
X79642858Y-99333333D01*
X79880954Y-99333333D01*
X79976192Y-99380952D01*
X80023811Y-99428571D01*
X80071430Y-99523810D01*
X80071430Y-99761905D01*
X80023811Y-99857143D01*
X79976192Y-99904762D01*
X79880954Y-99952381D01*
X79642858Y-99952381D01*
X79547620Y-99904762D01*
X79500001Y-99857143D01*
X80500001Y-99952381D02*
X80500001Y-99285714D01*
X80500001Y-99380952D02*
X80547620Y-99333333D01*
X80642858Y-99285714D01*
X80785716Y-99285714D01*
X80880954Y-99333333D01*
X80928573Y-99428571D01*
X80928573Y-99952381D01*
X80928573Y-99428571D02*
X80976192Y-99333333D01*
X81071430Y-99285714D01*
X81214287Y-99285714D01*
X81309525Y-99333333D01*
X81357144Y-99428571D01*
X81357144Y-99952381D01*
X81833334Y-99952381D02*
X81833334Y-99285714D01*
X81833334Y-99380952D02*
X81880953Y-99333333D01*
X81976191Y-99285714D01*
X82119049Y-99285714D01*
X82214287Y-99333333D01*
X82261906Y-99428571D01*
X82261906Y-99952381D01*
X82261906Y-99428571D02*
X82309525Y-99333333D01*
X82404763Y-99285714D01*
X82547620Y-99285714D01*
X82642858Y-99333333D01*
X82690477Y-99428571D01*
X82690477Y-99952381D01*
X73966667Y-95452381D02*
X73633333Y-94976190D01*
X73395238Y-95452381D02*
X73395238Y-94452381D01*
X73776191Y-94452381D01*
X73871429Y-94500000D01*
X73919048Y-94547619D01*
X73966667Y-94642857D01*
X73966667Y-94785714D01*
X73919048Y-94880952D01*
X73871429Y-94928571D01*
X73776191Y-94976190D01*
X73395238Y-94976190D01*
X74395238Y-94928571D02*
X74728572Y-94928571D01*
X74871429Y-95452381D02*
X74395238Y-95452381D01*
X74395238Y-94452381D01*
X74871429Y-94452381D01*
X75633334Y-94928571D02*
X75300000Y-94928571D01*
X75300000Y-95452381D02*
X75300000Y-94452381D01*
X75776191Y-94452381D01*
X76300000Y-94452381D02*
X76300000Y-94690476D01*
X76061905Y-94595238D02*
X76300000Y-94690476D01*
X76538096Y-94595238D01*
X76157143Y-94880952D02*
X76300000Y-94690476D01*
X76442858Y-94880952D01*
X77061905Y-94452381D02*
X77061905Y-94690476D01*
X76823810Y-94595238D02*
X77061905Y-94690476D01*
X77300001Y-94595238D01*
X76919048Y-94880952D02*
X77061905Y-94690476D01*
X77204763Y-94880952D01*
X67309524Y-139952381D02*
X67309524Y-138952381D01*
X67642858Y-139666667D01*
X67976191Y-138952381D01*
X67976191Y-139952381D01*
X68595238Y-139952381D02*
X68500000Y-139904762D01*
X68452381Y-139857143D01*
X68404762Y-139761905D01*
X68404762Y-139476190D01*
X68452381Y-139380952D01*
X68500000Y-139333333D01*
X68595238Y-139285714D01*
X68738096Y-139285714D01*
X68833334Y-139333333D01*
X68880953Y-139380952D01*
X68928572Y-139476190D01*
X68928572Y-139761905D01*
X68880953Y-139857143D01*
X68833334Y-139904762D01*
X68738096Y-139952381D01*
X68595238Y-139952381D01*
X69785715Y-139285714D02*
X69785715Y-139952381D01*
X69357143Y-139285714D02*
X69357143Y-139809524D01*
X69404762Y-139904762D01*
X69500000Y-139952381D01*
X69642858Y-139952381D01*
X69738096Y-139904762D01*
X69785715Y-139857143D01*
X70261905Y-139285714D02*
X70261905Y-139952381D01*
X70261905Y-139380952D02*
X70309524Y-139333333D01*
X70404762Y-139285714D01*
X70547620Y-139285714D01*
X70642858Y-139333333D01*
X70690477Y-139428571D01*
X70690477Y-139952381D01*
X71023810Y-139285714D02*
X71404762Y-139285714D01*
X71166667Y-138952381D02*
X71166667Y-139809524D01*
X71214286Y-139904762D01*
X71309524Y-139952381D01*
X71404762Y-139952381D01*
X71738096Y-139952381D02*
X71738096Y-139285714D01*
X71738096Y-138952381D02*
X71690477Y-139000000D01*
X71738096Y-139047619D01*
X71785715Y-139000000D01*
X71738096Y-138952381D01*
X71738096Y-139047619D01*
X72214286Y-139285714D02*
X72214286Y-139952381D01*
X72214286Y-139380952D02*
X72261905Y-139333333D01*
X72357143Y-139285714D01*
X72500001Y-139285714D01*
X72595239Y-139333333D01*
X72642858Y-139428571D01*
X72642858Y-139952381D01*
X73547620Y-139285714D02*
X73547620Y-140095238D01*
X73500001Y-140190476D01*
X73452382Y-140238095D01*
X73357143Y-140285714D01*
X73214286Y-140285714D01*
X73119048Y-140238095D01*
X73547620Y-139904762D02*
X73452382Y-139952381D01*
X73261905Y-139952381D01*
X73166667Y-139904762D01*
X73119048Y-139857143D01*
X73071429Y-139761905D01*
X73071429Y-139476190D01*
X73119048Y-139380952D01*
X73166667Y-139333333D01*
X73261905Y-139285714D01*
X73452382Y-139285714D01*
X73547620Y-139333333D01*
X74023810Y-139952381D02*
X74023810Y-138952381D01*
X74023810Y-139428571D02*
X74595239Y-139428571D01*
X74595239Y-139952381D02*
X74595239Y-138952381D01*
X75214286Y-139952381D02*
X75119048Y-139904762D01*
X75071429Y-139857143D01*
X75023810Y-139761905D01*
X75023810Y-139476190D01*
X75071429Y-139380952D01*
X75119048Y-139333333D01*
X75214286Y-139285714D01*
X75357144Y-139285714D01*
X75452382Y-139333333D01*
X75500001Y-139380952D01*
X75547620Y-139476190D01*
X75547620Y-139761905D01*
X75500001Y-139857143D01*
X75452382Y-139904762D01*
X75357144Y-139952381D01*
X75214286Y-139952381D01*
X76119048Y-139952381D02*
X76023810Y-139904762D01*
X75976191Y-139809524D01*
X75976191Y-138952381D01*
X76880954Y-139904762D02*
X76785716Y-139952381D01*
X76595239Y-139952381D01*
X76500001Y-139904762D01*
X76452382Y-139809524D01*
X76452382Y-139428571D01*
X76500001Y-139333333D01*
X76595239Y-139285714D01*
X76785716Y-139285714D01*
X76880954Y-139333333D01*
X76928573Y-139428571D01*
X76928573Y-139523810D01*
X76452382Y-139619048D01*
X77119049Y-140047619D02*
X77880954Y-140047619D01*
X78023811Y-138952381D02*
X78642859Y-138952381D01*
X78309525Y-139333333D01*
X78452383Y-139333333D01*
X78547621Y-139380952D01*
X78595240Y-139428571D01*
X78642859Y-139523810D01*
X78642859Y-139761905D01*
X78595240Y-139857143D01*
X78547621Y-139904762D01*
X78452383Y-139952381D01*
X78166668Y-139952381D01*
X78071430Y-139904762D01*
X78023811Y-139857143D01*
X79071430Y-139857143D02*
X79119049Y-139904762D01*
X79071430Y-139952381D01*
X79023811Y-139904762D01*
X79071430Y-139857143D01*
X79071430Y-139952381D01*
X80023811Y-138952381D02*
X79547620Y-138952381D01*
X79500001Y-139428571D01*
X79547620Y-139380952D01*
X79642858Y-139333333D01*
X79880954Y-139333333D01*
X79976192Y-139380952D01*
X80023811Y-139428571D01*
X80071430Y-139523810D01*
X80071430Y-139761905D01*
X80023811Y-139857143D01*
X79976192Y-139904762D01*
X79880954Y-139952381D01*
X79642858Y-139952381D01*
X79547620Y-139904762D01*
X79500001Y-139857143D01*
X80500001Y-139952381D02*
X80500001Y-139285714D01*
X80500001Y-139380952D02*
X80547620Y-139333333D01*
X80642858Y-139285714D01*
X80785716Y-139285714D01*
X80880954Y-139333333D01*
X80928573Y-139428571D01*
X80928573Y-139952381D01*
X80928573Y-139428571D02*
X80976192Y-139333333D01*
X81071430Y-139285714D01*
X81214287Y-139285714D01*
X81309525Y-139333333D01*
X81357144Y-139428571D01*
X81357144Y-139952381D01*
X81833334Y-139952381D02*
X81833334Y-139285714D01*
X81833334Y-139380952D02*
X81880953Y-139333333D01*
X81976191Y-139285714D01*
X82119049Y-139285714D01*
X82214287Y-139333333D01*
X82261906Y-139428571D01*
X82261906Y-139952381D01*
X82261906Y-139428571D02*
X82309525Y-139333333D01*
X82404763Y-139285714D01*
X82547620Y-139285714D01*
X82642858Y-139333333D01*
X82690477Y-139428571D01*
X82690477Y-139952381D01*
X73966667Y-135452381D02*
X73633333Y-134976190D01*
X73395238Y-135452381D02*
X73395238Y-134452381D01*
X73776191Y-134452381D01*
X73871429Y-134500000D01*
X73919048Y-134547619D01*
X73966667Y-134642857D01*
X73966667Y-134785714D01*
X73919048Y-134880952D01*
X73871429Y-134928571D01*
X73776191Y-134976190D01*
X73395238Y-134976190D01*
X74395238Y-134928571D02*
X74728572Y-134928571D01*
X74871429Y-135452381D02*
X74395238Y-135452381D01*
X74395238Y-134452381D01*
X74871429Y-134452381D01*
X75633334Y-134928571D02*
X75300000Y-134928571D01*
X75300000Y-135452381D02*
X75300000Y-134452381D01*
X75776191Y-134452381D01*
X76300000Y-134452381D02*
X76300000Y-134690476D01*
X76061905Y-134595238D02*
X76300000Y-134690476D01*
X76538096Y-134595238D01*
X76157143Y-134880952D02*
X76300000Y-134690476D01*
X76442858Y-134880952D01*
X77061905Y-134452381D02*
X77061905Y-134690476D01*
X76823810Y-134595238D02*
X77061905Y-134690476D01*
X77300001Y-134595238D01*
X76919048Y-134880952D02*
X77061905Y-134690476D01*
X77204763Y-134880952D01*
X172309524Y-139952381D02*
X172309524Y-138952381D01*
X172642858Y-139666667D01*
X172976191Y-138952381D01*
X172976191Y-139952381D01*
X173595238Y-139952381D02*
X173500000Y-139904762D01*
X173452381Y-139857143D01*
X173404762Y-139761905D01*
X173404762Y-139476190D01*
X173452381Y-139380952D01*
X173500000Y-139333333D01*
X173595238Y-139285714D01*
X173738096Y-139285714D01*
X173833334Y-139333333D01*
X173880953Y-139380952D01*
X173928572Y-139476190D01*
X173928572Y-139761905D01*
X173880953Y-139857143D01*
X173833334Y-139904762D01*
X173738096Y-139952381D01*
X173595238Y-139952381D01*
X174785715Y-139285714D02*
X174785715Y-139952381D01*
X174357143Y-139285714D02*
X174357143Y-139809524D01*
X174404762Y-139904762D01*
X174500000Y-139952381D01*
X174642858Y-139952381D01*
X174738096Y-139904762D01*
X174785715Y-139857143D01*
X175261905Y-139285714D02*
X175261905Y-139952381D01*
X175261905Y-139380952D02*
X175309524Y-139333333D01*
X175404762Y-139285714D01*
X175547620Y-139285714D01*
X175642858Y-139333333D01*
X175690477Y-139428571D01*
X175690477Y-139952381D01*
X176023810Y-139285714D02*
X176404762Y-139285714D01*
X176166667Y-138952381D02*
X176166667Y-139809524D01*
X176214286Y-139904762D01*
X176309524Y-139952381D01*
X176404762Y-139952381D01*
X176738096Y-139952381D02*
X176738096Y-139285714D01*
X176738096Y-138952381D02*
X176690477Y-139000000D01*
X176738096Y-139047619D01*
X176785715Y-139000000D01*
X176738096Y-138952381D01*
X176738096Y-139047619D01*
X177214286Y-139285714D02*
X177214286Y-139952381D01*
X177214286Y-139380952D02*
X177261905Y-139333333D01*
X177357143Y-139285714D01*
X177500001Y-139285714D01*
X177595239Y-139333333D01*
X177642858Y-139428571D01*
X177642858Y-139952381D01*
X178547620Y-139285714D02*
X178547620Y-140095238D01*
X178500001Y-140190476D01*
X178452382Y-140238095D01*
X178357143Y-140285714D01*
X178214286Y-140285714D01*
X178119048Y-140238095D01*
X178547620Y-139904762D02*
X178452382Y-139952381D01*
X178261905Y-139952381D01*
X178166667Y-139904762D01*
X178119048Y-139857143D01*
X178071429Y-139761905D01*
X178071429Y-139476190D01*
X178119048Y-139380952D01*
X178166667Y-139333333D01*
X178261905Y-139285714D01*
X178452382Y-139285714D01*
X178547620Y-139333333D01*
X179023810Y-139952381D02*
X179023810Y-138952381D01*
X179023810Y-139428571D02*
X179595239Y-139428571D01*
X179595239Y-139952381D02*
X179595239Y-138952381D01*
X180214286Y-139952381D02*
X180119048Y-139904762D01*
X180071429Y-139857143D01*
X180023810Y-139761905D01*
X180023810Y-139476190D01*
X180071429Y-139380952D01*
X180119048Y-139333333D01*
X180214286Y-139285714D01*
X180357144Y-139285714D01*
X180452382Y-139333333D01*
X180500001Y-139380952D01*
X180547620Y-139476190D01*
X180547620Y-139761905D01*
X180500001Y-139857143D01*
X180452382Y-139904762D01*
X180357144Y-139952381D01*
X180214286Y-139952381D01*
X181119048Y-139952381D02*
X181023810Y-139904762D01*
X180976191Y-139809524D01*
X180976191Y-138952381D01*
X181880954Y-139904762D02*
X181785716Y-139952381D01*
X181595239Y-139952381D01*
X181500001Y-139904762D01*
X181452382Y-139809524D01*
X181452382Y-139428571D01*
X181500001Y-139333333D01*
X181595239Y-139285714D01*
X181785716Y-139285714D01*
X181880954Y-139333333D01*
X181928573Y-139428571D01*
X181928573Y-139523810D01*
X181452382Y-139619048D01*
X182119049Y-140047619D02*
X182880954Y-140047619D01*
X183023811Y-138952381D02*
X183642859Y-138952381D01*
X183309525Y-139333333D01*
X183452383Y-139333333D01*
X183547621Y-139380952D01*
X183595240Y-139428571D01*
X183642859Y-139523810D01*
X183642859Y-139761905D01*
X183595240Y-139857143D01*
X183547621Y-139904762D01*
X183452383Y-139952381D01*
X183166668Y-139952381D01*
X183071430Y-139904762D01*
X183023811Y-139857143D01*
X184071430Y-139857143D02*
X184119049Y-139904762D01*
X184071430Y-139952381D01*
X184023811Y-139904762D01*
X184071430Y-139857143D01*
X184071430Y-139952381D01*
X185023811Y-138952381D02*
X184547620Y-138952381D01*
X184500001Y-139428571D01*
X184547620Y-139380952D01*
X184642858Y-139333333D01*
X184880954Y-139333333D01*
X184976192Y-139380952D01*
X185023811Y-139428571D01*
X185071430Y-139523810D01*
X185071430Y-139761905D01*
X185023811Y-139857143D01*
X184976192Y-139904762D01*
X184880954Y-139952381D01*
X184642858Y-139952381D01*
X184547620Y-139904762D01*
X184500001Y-139857143D01*
X185500001Y-139952381D02*
X185500001Y-139285714D01*
X185500001Y-139380952D02*
X185547620Y-139333333D01*
X185642858Y-139285714D01*
X185785716Y-139285714D01*
X185880954Y-139333333D01*
X185928573Y-139428571D01*
X185928573Y-139952381D01*
X185928573Y-139428571D02*
X185976192Y-139333333D01*
X186071430Y-139285714D01*
X186214287Y-139285714D01*
X186309525Y-139333333D01*
X186357144Y-139428571D01*
X186357144Y-139952381D01*
X186833334Y-139952381D02*
X186833334Y-139285714D01*
X186833334Y-139380952D02*
X186880953Y-139333333D01*
X186976191Y-139285714D01*
X187119049Y-139285714D01*
X187214287Y-139333333D01*
X187261906Y-139428571D01*
X187261906Y-139952381D01*
X187261906Y-139428571D02*
X187309525Y-139333333D01*
X187404763Y-139285714D01*
X187547620Y-139285714D01*
X187642858Y-139333333D01*
X187690477Y-139428571D01*
X187690477Y-139952381D01*
X178966667Y-135452381D02*
X178633333Y-134976190D01*
X178395238Y-135452381D02*
X178395238Y-134452381D01*
X178776191Y-134452381D01*
X178871429Y-134500000D01*
X178919048Y-134547619D01*
X178966667Y-134642857D01*
X178966667Y-134785714D01*
X178919048Y-134880952D01*
X178871429Y-134928571D01*
X178776191Y-134976190D01*
X178395238Y-134976190D01*
X179395238Y-134928571D02*
X179728572Y-134928571D01*
X179871429Y-135452381D02*
X179395238Y-135452381D01*
X179395238Y-134452381D01*
X179871429Y-134452381D01*
X180633334Y-134928571D02*
X180300000Y-134928571D01*
X180300000Y-135452381D02*
X180300000Y-134452381D01*
X180776191Y-134452381D01*
X181300000Y-134452381D02*
X181300000Y-134690476D01*
X181061905Y-134595238D02*
X181300000Y-134690476D01*
X181538096Y-134595238D01*
X181157143Y-134880952D02*
X181300000Y-134690476D01*
X181442858Y-134880952D01*
X182061905Y-134452381D02*
X182061905Y-134690476D01*
X181823810Y-134595238D02*
X182061905Y-134690476D01*
X182300001Y-134595238D01*
X181919048Y-134880952D02*
X182061905Y-134690476D01*
X182204763Y-134880952D01*
X172309524Y-99952381D02*
X172309524Y-98952381D01*
X172642858Y-99666667D01*
X172976191Y-98952381D01*
X172976191Y-99952381D01*
X173595238Y-99952381D02*
X173500000Y-99904762D01*
X173452381Y-99857143D01*
X173404762Y-99761905D01*
X173404762Y-99476190D01*
X173452381Y-99380952D01*
X173500000Y-99333333D01*
X173595238Y-99285714D01*
X173738096Y-99285714D01*
X173833334Y-99333333D01*
X173880953Y-99380952D01*
X173928572Y-99476190D01*
X173928572Y-99761905D01*
X173880953Y-99857143D01*
X173833334Y-99904762D01*
X173738096Y-99952381D01*
X173595238Y-99952381D01*
X174785715Y-99285714D02*
X174785715Y-99952381D01*
X174357143Y-99285714D02*
X174357143Y-99809524D01*
X174404762Y-99904762D01*
X174500000Y-99952381D01*
X174642858Y-99952381D01*
X174738096Y-99904762D01*
X174785715Y-99857143D01*
X175261905Y-99285714D02*
X175261905Y-99952381D01*
X175261905Y-99380952D02*
X175309524Y-99333333D01*
X175404762Y-99285714D01*
X175547620Y-99285714D01*
X175642858Y-99333333D01*
X175690477Y-99428571D01*
X175690477Y-99952381D01*
X176023810Y-99285714D02*
X176404762Y-99285714D01*
X176166667Y-98952381D02*
X176166667Y-99809524D01*
X176214286Y-99904762D01*
X176309524Y-99952381D01*
X176404762Y-99952381D01*
X176738096Y-99952381D02*
X176738096Y-99285714D01*
X176738096Y-98952381D02*
X176690477Y-99000000D01*
X176738096Y-99047619D01*
X176785715Y-99000000D01*
X176738096Y-98952381D01*
X176738096Y-99047619D01*
X177214286Y-99285714D02*
X177214286Y-99952381D01*
X177214286Y-99380952D02*
X177261905Y-99333333D01*
X177357143Y-99285714D01*
X177500001Y-99285714D01*
X177595239Y-99333333D01*
X177642858Y-99428571D01*
X177642858Y-99952381D01*
X178547620Y-99285714D02*
X178547620Y-100095238D01*
X178500001Y-100190476D01*
X178452382Y-100238095D01*
X178357143Y-100285714D01*
X178214286Y-100285714D01*
X178119048Y-100238095D01*
X178547620Y-99904762D02*
X178452382Y-99952381D01*
X178261905Y-99952381D01*
X178166667Y-99904762D01*
X178119048Y-99857143D01*
X178071429Y-99761905D01*
X178071429Y-99476190D01*
X178119048Y-99380952D01*
X178166667Y-99333333D01*
X178261905Y-99285714D01*
X178452382Y-99285714D01*
X178547620Y-99333333D01*
X179023810Y-99952381D02*
X179023810Y-98952381D01*
X179023810Y-99428571D02*
X179595239Y-99428571D01*
X179595239Y-99952381D02*
X179595239Y-98952381D01*
X180214286Y-99952381D02*
X180119048Y-99904762D01*
X180071429Y-99857143D01*
X180023810Y-99761905D01*
X180023810Y-99476190D01*
X180071429Y-99380952D01*
X180119048Y-99333333D01*
X180214286Y-99285714D01*
X180357144Y-99285714D01*
X180452382Y-99333333D01*
X180500001Y-99380952D01*
X180547620Y-99476190D01*
X180547620Y-99761905D01*
X180500001Y-99857143D01*
X180452382Y-99904762D01*
X180357144Y-99952381D01*
X180214286Y-99952381D01*
X181119048Y-99952381D02*
X181023810Y-99904762D01*
X180976191Y-99809524D01*
X180976191Y-98952381D01*
X181880954Y-99904762D02*
X181785716Y-99952381D01*
X181595239Y-99952381D01*
X181500001Y-99904762D01*
X181452382Y-99809524D01*
X181452382Y-99428571D01*
X181500001Y-99333333D01*
X181595239Y-99285714D01*
X181785716Y-99285714D01*
X181880954Y-99333333D01*
X181928573Y-99428571D01*
X181928573Y-99523810D01*
X181452382Y-99619048D01*
X182119049Y-100047619D02*
X182880954Y-100047619D01*
X183023811Y-98952381D02*
X183642859Y-98952381D01*
X183309525Y-99333333D01*
X183452383Y-99333333D01*
X183547621Y-99380952D01*
X183595240Y-99428571D01*
X183642859Y-99523810D01*
X183642859Y-99761905D01*
X183595240Y-99857143D01*
X183547621Y-99904762D01*
X183452383Y-99952381D01*
X183166668Y-99952381D01*
X183071430Y-99904762D01*
X183023811Y-99857143D01*
X184071430Y-99857143D02*
X184119049Y-99904762D01*
X184071430Y-99952381D01*
X184023811Y-99904762D01*
X184071430Y-99857143D01*
X184071430Y-99952381D01*
X185023811Y-98952381D02*
X184547620Y-98952381D01*
X184500001Y-99428571D01*
X184547620Y-99380952D01*
X184642858Y-99333333D01*
X184880954Y-99333333D01*
X184976192Y-99380952D01*
X185023811Y-99428571D01*
X185071430Y-99523810D01*
X185071430Y-99761905D01*
X185023811Y-99857143D01*
X184976192Y-99904762D01*
X184880954Y-99952381D01*
X184642858Y-99952381D01*
X184547620Y-99904762D01*
X184500001Y-99857143D01*
X185500001Y-99952381D02*
X185500001Y-99285714D01*
X185500001Y-99380952D02*
X185547620Y-99333333D01*
X185642858Y-99285714D01*
X185785716Y-99285714D01*
X185880954Y-99333333D01*
X185928573Y-99428571D01*
X185928573Y-99952381D01*
X185928573Y-99428571D02*
X185976192Y-99333333D01*
X186071430Y-99285714D01*
X186214287Y-99285714D01*
X186309525Y-99333333D01*
X186357144Y-99428571D01*
X186357144Y-99952381D01*
X186833334Y-99952381D02*
X186833334Y-99285714D01*
X186833334Y-99380952D02*
X186880953Y-99333333D01*
X186976191Y-99285714D01*
X187119049Y-99285714D01*
X187214287Y-99333333D01*
X187261906Y-99428571D01*
X187261906Y-99952381D01*
X187261906Y-99428571D02*
X187309525Y-99333333D01*
X187404763Y-99285714D01*
X187547620Y-99285714D01*
X187642858Y-99333333D01*
X187690477Y-99428571D01*
X187690477Y-99952381D01*
X178966667Y-95452381D02*
X178633333Y-94976190D01*
X178395238Y-95452381D02*
X178395238Y-94452381D01*
X178776191Y-94452381D01*
X178871429Y-94500000D01*
X178919048Y-94547619D01*
X178966667Y-94642857D01*
X178966667Y-94785714D01*
X178919048Y-94880952D01*
X178871429Y-94928571D01*
X178776191Y-94976190D01*
X178395238Y-94976190D01*
X179395238Y-94928571D02*
X179728572Y-94928571D01*
X179871429Y-95452381D02*
X179395238Y-95452381D01*
X179395238Y-94452381D01*
X179871429Y-94452381D01*
X180633334Y-94928571D02*
X180300000Y-94928571D01*
X180300000Y-95452381D02*
X180300000Y-94452381D01*
X180776191Y-94452381D01*
X181300000Y-94452381D02*
X181300000Y-94690476D01*
X181061905Y-94595238D02*
X181300000Y-94690476D01*
X181538096Y-94595238D01*
X181157143Y-94880952D02*
X181300000Y-94690476D01*
X181442858Y-94880952D01*
X182061905Y-94452381D02*
X182061905Y-94690476D01*
X181823810Y-94595238D02*
X182061905Y-94690476D01*
X182300001Y-94595238D01*
X181919048Y-94880952D02*
X182061905Y-94690476D01*
X182204763Y-94880952D01*
M02*
