M48
;DRILL file {KiCad 4.0.7} date Monday, February 19, 2018 'AMt' 09:40:54 AM
;FORMAT={-:-/ absolute / inch / decimal}
FMAT,2
INCH,TZ
T1C0.016
T2C0.024
T3C0.030
T4C0.039
%
G90
G05
M72
T1
X3.1626Y-4.4641
X3.1626Y-4.6317
X3.378Y-4.7244
X3.9528Y-4.7244
X3.9606Y-4.6693
X4.1181Y-4.9921
X4.1811Y-4.7638
X4.2126Y-4.4488
X4.2441Y-4.8976
X4.2913Y-4.2047
X4.3228Y-4.8819
X4.4016Y-4.3937
X4.4094Y-4.3071
X4.8346Y-4.9134
X4.937Y-5.0315
X5.0236Y-4.6457
X5.0472Y-5.0551
X5.1438Y-4.2796
X5.5827Y-4.5827
X5.7087Y-4.2205
X5.7244Y-4.8189
X5.7638Y-4.4331
X5.8246Y-4.567
X5.8661Y-4.7402
X5.9764Y-4.748
X6.2848Y-4.7032
X6.2908Y-4.8848
X6.4409Y-4.378
X6.5118Y-4.3701
X6.5118Y-4.5039
X6.5276Y-4.748
T2
X3.3937Y-5.1732
X3.4252Y-3.8268
X3.4252Y-4.0157
X3.6Y-4.65
X3.6614Y-4.0157
X3.8583Y-4.5748
X3.8661Y-4.9449
X4.1339Y-5.0945
X4.4961Y-5.189
X4.5591Y-3.8661
X4.6299Y-4.8268
X4.8661Y-4.6142
X5.05Y-4.05
X5.3678Y-4.4762
X5.3768Y-4.2734
X5.4646Y-4.9528
X5.6063Y-3.9134
X6.1339Y-4.2047
X6.4567Y-3.8189
X6.5984Y-5.0866
X6.7323Y-4.6063
T3
X2.9528Y-4.3244
X2.9528Y-4.7244
X7.0866Y-4.3244
X7.0866Y-4.7244
T4
X4.4787Y-4.1535
X4.5787Y-4.1535
X4.6787Y-4.1535
X4.7787Y-4.1535
X4.8787Y-4.1535
X4.9787Y-4.1535
X5.0787Y-4.1535
X5.1787Y-4.1535
X5.2787Y-4.1535
X5.3787Y-4.1535
T0
M30
