G04 #@! TF.FileFunction,Copper,L2,Bot,Signal*
%FSLAX46Y46*%
G04 Gerber Fmt 4.6, Leading zero omitted, Abs format (unit mm)*
G04 Created by KiCad (PCBNEW 4.0.7) date Monday, February 19, 2018 'AMt' 09:37:46 AM*
%MOMM*%
%LPD*%
G01*
G04 APERTURE LIST*
%ADD10C,0.100000*%
%ADD11C,0.150000*%
%ADD12C,0.300000*%
%ADD13C,0.400000*%
%ADD14C,0.800000*%
%ADD15R,1.700000X1.700000*%
%ADD16O,1.700000X1.700000*%
%ADD17C,1.524000*%
%ADD18C,0.600000*%
%ADD19C,1.200000*%
%ADD20C,0.250000*%
%ADD21C,0.500000*%
%ADD22C,0.254000*%
G04 APERTURE END LIST*
D10*
D11*
X177002200Y-166007200D02*
X177002200Y-198007200D01*
X285002200Y-198007200D01*
X285002200Y-166007200D01*
X177002200Y-166007200D01*
D10*
D11*
X10000000Y-10000000D02*
X10000000Y-200007200D01*
X287002200Y-200007200D01*
X287002200Y-10000000D01*
X10000000Y-10000000D01*
D10*
D11*
X12000000Y-12000000D02*
X12000000Y-198007200D01*
X285002200Y-198007200D01*
X285002200Y-12000000D01*
X12000000Y-12000000D01*
D10*
D11*
X60000000Y-12000000D02*
X60000000Y-10000000D01*
D10*
D11*
X110000000Y-12000000D02*
X110000000Y-10000000D01*
D10*
D11*
X160000000Y-12000000D02*
X160000000Y-10000000D01*
D10*
D11*
X210000000Y-12000000D02*
X210000000Y-10000000D01*
D10*
D11*
X260000000Y-12000000D02*
X260000000Y-10000000D01*
D10*
D11*
X35990476Y-11588095D02*
X35247619Y-11588095D01*
X35619048Y-11588095D02*
X35619048Y-10288095D01*
X35495238Y-10473810D01*
X35371429Y-10597619D01*
X35247619Y-10659524D01*
D10*
D11*
X85247619Y-10411905D02*
X85309524Y-10350000D01*
X85433333Y-10288095D01*
X85742857Y-10288095D01*
X85866667Y-10350000D01*
X85928571Y-10411905D01*
X85990476Y-10535714D01*
X85990476Y-10659524D01*
X85928571Y-10845238D01*
X85185714Y-11588095D01*
X85990476Y-11588095D01*
D10*
D11*
X135185714Y-10288095D02*
X135990476Y-10288095D01*
X135557143Y-10783333D01*
X135742857Y-10783333D01*
X135866667Y-10845238D01*
X135928571Y-10907143D01*
X135990476Y-11030952D01*
X135990476Y-11340476D01*
X135928571Y-11464286D01*
X135866667Y-11526190D01*
X135742857Y-11588095D01*
X135371429Y-11588095D01*
X135247619Y-11526190D01*
X135185714Y-11464286D01*
D10*
D11*
X185866667Y-10721429D02*
X185866667Y-11588095D01*
X185557143Y-10226190D02*
X185247619Y-11154762D01*
X186052381Y-11154762D01*
D10*
D11*
X235928571Y-10288095D02*
X235309524Y-10288095D01*
X235247619Y-10907143D01*
X235309524Y-10845238D01*
X235433333Y-10783333D01*
X235742857Y-10783333D01*
X235866667Y-10845238D01*
X235928571Y-10907143D01*
X235990476Y-11030952D01*
X235990476Y-11340476D01*
X235928571Y-11464286D01*
X235866667Y-11526190D01*
X235742857Y-11588095D01*
X235433333Y-11588095D01*
X235309524Y-11526190D01*
X235247619Y-11464286D01*
D10*
D11*
X285866667Y-10288095D02*
X285619048Y-10288095D01*
X285495238Y-10350000D01*
X285433333Y-10411905D01*
X285309524Y-10597619D01*
X285247619Y-10845238D01*
X285247619Y-11340476D01*
X285309524Y-11464286D01*
X285371429Y-11526190D01*
X285495238Y-11588095D01*
X285742857Y-11588095D01*
X285866667Y-11526190D01*
X285928571Y-11464286D01*
X285990476Y-11340476D01*
X285990476Y-11030952D01*
X285928571Y-10907143D01*
X285866667Y-10845238D01*
X285742857Y-10783333D01*
X285495238Y-10783333D01*
X285371429Y-10845238D01*
X285309524Y-10907143D01*
X285247619Y-11030952D01*
D10*
D11*
X60000000Y-198007200D02*
X60000000Y-200007200D01*
D10*
D11*
X110000000Y-198007200D02*
X110000000Y-200007200D01*
D10*
D11*
X160000000Y-198007200D02*
X160000000Y-200007200D01*
D10*
D11*
X210000000Y-198007200D02*
X210000000Y-200007200D01*
D10*
D11*
X260000000Y-198007200D02*
X260000000Y-200007200D01*
D10*
D11*
X35990476Y-199595295D02*
X35247619Y-199595295D01*
X35619048Y-199595295D02*
X35619048Y-198295295D01*
X35495238Y-198481010D01*
X35371429Y-198604819D01*
X35247619Y-198666724D01*
D10*
D11*
X85247619Y-198419105D02*
X85309524Y-198357200D01*
X85433333Y-198295295D01*
X85742857Y-198295295D01*
X85866667Y-198357200D01*
X85928571Y-198419105D01*
X85990476Y-198542914D01*
X85990476Y-198666724D01*
X85928571Y-198852438D01*
X85185714Y-199595295D01*
X85990476Y-199595295D01*
D10*
D11*
X135185714Y-198295295D02*
X135990476Y-198295295D01*
X135557143Y-198790533D01*
X135742857Y-198790533D01*
X135866667Y-198852438D01*
X135928571Y-198914343D01*
X135990476Y-199038152D01*
X135990476Y-199347676D01*
X135928571Y-199471486D01*
X135866667Y-199533390D01*
X135742857Y-199595295D01*
X135371429Y-199595295D01*
X135247619Y-199533390D01*
X135185714Y-199471486D01*
D10*
D11*
X185866667Y-198728629D02*
X185866667Y-199595295D01*
X185557143Y-198233390D02*
X185247619Y-199161962D01*
X186052381Y-199161962D01*
D10*
D11*
X235928571Y-198295295D02*
X235309524Y-198295295D01*
X235247619Y-198914343D01*
X235309524Y-198852438D01*
X235433333Y-198790533D01*
X235742857Y-198790533D01*
X235866667Y-198852438D01*
X235928571Y-198914343D01*
X235990476Y-199038152D01*
X235990476Y-199347676D01*
X235928571Y-199471486D01*
X235866667Y-199533390D01*
X235742857Y-199595295D01*
X235433333Y-199595295D01*
X235309524Y-199533390D01*
X235247619Y-199471486D01*
D10*
D11*
X285866667Y-198295295D02*
X285619048Y-198295295D01*
X285495238Y-198357200D01*
X285433333Y-198419105D01*
X285309524Y-198604819D01*
X285247619Y-198852438D01*
X285247619Y-199347676D01*
X285309524Y-199471486D01*
X285371429Y-199533390D01*
X285495238Y-199595295D01*
X285742857Y-199595295D01*
X285866667Y-199533390D01*
X285928571Y-199471486D01*
X285990476Y-199347676D01*
X285990476Y-199038152D01*
X285928571Y-198914343D01*
X285866667Y-198852438D01*
X285742857Y-198790533D01*
X285495238Y-198790533D01*
X285371429Y-198852438D01*
X285309524Y-198914343D01*
X285247619Y-199038152D01*
D10*
D11*
X10000000Y-60000000D02*
X12000000Y-60000000D01*
D10*
D11*
X10000000Y-110000000D02*
X12000000Y-110000000D01*
D10*
D11*
X10000000Y-160000000D02*
X12000000Y-160000000D01*
D10*
D11*
X10690476Y-35216667D02*
X11309524Y-35216667D01*
X10566667Y-35588095D02*
X11000000Y-34288095D01*
X11433333Y-35588095D01*
D10*
D11*
X11092857Y-84907143D02*
X11278571Y-84969048D01*
X11340476Y-85030952D01*
X11402381Y-85154762D01*
X11402381Y-85340476D01*
X11340476Y-85464286D01*
X11278571Y-85526190D01*
X11154762Y-85588095D01*
X10659524Y-85588095D01*
X10659524Y-84288095D01*
X11092857Y-84288095D01*
X11216667Y-84350000D01*
X11278571Y-84411905D01*
X11340476Y-84535714D01*
X11340476Y-84659524D01*
X11278571Y-84783333D01*
X11216667Y-84845238D01*
X11092857Y-84907143D01*
X10659524Y-84907143D01*
D10*
D11*
X11402381Y-135464286D02*
X11340476Y-135526190D01*
X11154762Y-135588095D01*
X11030952Y-135588095D01*
X10845238Y-135526190D01*
X10721429Y-135402381D01*
X10659524Y-135278571D01*
X10597619Y-135030952D01*
X10597619Y-134845238D01*
X10659524Y-134597619D01*
X10721429Y-134473810D01*
X10845238Y-134350000D01*
X11030952Y-134288095D01*
X11154762Y-134288095D01*
X11340476Y-134350000D01*
X11402381Y-134411905D01*
D10*
D11*
X10659524Y-185588095D02*
X10659524Y-184288095D01*
X10969048Y-184288095D01*
X11154762Y-184350000D01*
X11278571Y-184473810D01*
X11340476Y-184597619D01*
X11402381Y-184845238D01*
X11402381Y-185030952D01*
X11340476Y-185278571D01*
X11278571Y-185402381D01*
X11154762Y-185526190D01*
X10969048Y-185588095D01*
X10659524Y-185588095D01*
D10*
D11*
X287002200Y-60000000D02*
X285002200Y-60000000D01*
D10*
D11*
X287002200Y-110000000D02*
X285002200Y-110000000D01*
D10*
D11*
X287002200Y-160000000D02*
X285002200Y-160000000D01*
D10*
D11*
X285692676Y-35216667D02*
X286311724Y-35216667D01*
X285568867Y-35588095D02*
X286002200Y-34288095D01*
X286435533Y-35588095D01*
D10*
D11*
X286095057Y-84907143D02*
X286280771Y-84969048D01*
X286342676Y-85030952D01*
X286404581Y-85154762D01*
X286404581Y-85340476D01*
X286342676Y-85464286D01*
X286280771Y-85526190D01*
X286156962Y-85588095D01*
X285661724Y-85588095D01*
X285661724Y-84288095D01*
X286095057Y-84288095D01*
X286218867Y-84350000D01*
X286280771Y-84411905D01*
X286342676Y-84535714D01*
X286342676Y-84659524D01*
X286280771Y-84783333D01*
X286218867Y-84845238D01*
X286095057Y-84907143D01*
X285661724Y-84907143D01*
D10*
D11*
X286404581Y-135464286D02*
X286342676Y-135526190D01*
X286156962Y-135588095D01*
X286033152Y-135588095D01*
X285847438Y-135526190D01*
X285723629Y-135402381D01*
X285661724Y-135278571D01*
X285599819Y-135030952D01*
X285599819Y-134845238D01*
X285661724Y-134597619D01*
X285723629Y-134473810D01*
X285847438Y-134350000D01*
X286033152Y-134288095D01*
X286156962Y-134288095D01*
X286342676Y-134350000D01*
X286404581Y-134411905D01*
D10*
D11*
X285661724Y-185588095D02*
X285661724Y-184288095D01*
X285971248Y-184288095D01*
X286156962Y-184350000D01*
X286280771Y-184473810D01*
X286342676Y-184597619D01*
X286404581Y-184845238D01*
X286404581Y-185030952D01*
X286342676Y-185278571D01*
X286280771Y-185402381D01*
X286156962Y-185526190D01*
X285971248Y-185588095D01*
X285661724Y-185588095D01*
D10*
D11*
X200359343Y-193785771D02*
X200359343Y-192285771D01*
X200716486Y-192285771D01*
X200930771Y-192357200D01*
X201073629Y-192500057D01*
X201145057Y-192642914D01*
X201216486Y-192928629D01*
X201216486Y-193142914D01*
X201145057Y-193428629D01*
X201073629Y-193571486D01*
X200930771Y-193714343D01*
X200716486Y-193785771D01*
X200359343Y-193785771D01*
X202502200Y-193785771D02*
X202502200Y-193000057D01*
X202430771Y-192857200D01*
X202287914Y-192785771D01*
X202002200Y-192785771D01*
X201859343Y-192857200D01*
X202502200Y-193714343D02*
X202359343Y-193785771D01*
X202002200Y-193785771D01*
X201859343Y-193714343D01*
X201787914Y-193571486D01*
X201787914Y-193428629D01*
X201859343Y-193285771D01*
X202002200Y-193214343D01*
X202359343Y-193214343D01*
X202502200Y-193142914D01*
X203002200Y-192785771D02*
X203573629Y-192785771D01*
X203216486Y-192285771D02*
X203216486Y-193571486D01*
X203287914Y-193714343D01*
X203430772Y-193785771D01*
X203573629Y-193785771D01*
X204645057Y-193714343D02*
X204502200Y-193785771D01*
X204216486Y-193785771D01*
X204073629Y-193714343D01*
X204002200Y-193571486D01*
X204002200Y-193000057D01*
X204073629Y-192857200D01*
X204216486Y-192785771D01*
X204502200Y-192785771D01*
X204645057Y-192857200D01*
X204716486Y-193000057D01*
X204716486Y-193142914D01*
X204002200Y-193285771D01*
X205359343Y-193642914D02*
X205430771Y-193714343D01*
X205359343Y-193785771D01*
X205287914Y-193714343D01*
X205359343Y-193642914D01*
X205359343Y-193785771D01*
X205359343Y-192857200D02*
X205430771Y-192928629D01*
X205359343Y-193000057D01*
X205287914Y-192928629D01*
X205359343Y-192857200D01*
X205359343Y-193000057D01*
D10*
D11*
X177002200Y-194507200D02*
X285002200Y-194507200D01*
D10*
D11*
X178359343Y-196585771D02*
X178359343Y-195085771D01*
X179216486Y-196585771D02*
X178573629Y-195728629D01*
X179216486Y-195085771D02*
X178359343Y-195942914D01*
X179859343Y-196585771D02*
X179859343Y-195585771D01*
X179859343Y-195085771D02*
X179787914Y-195157200D01*
X179859343Y-195228629D01*
X179930771Y-195157200D01*
X179859343Y-195085771D01*
X179859343Y-195228629D01*
X181430772Y-196442914D02*
X181359343Y-196514343D01*
X181145057Y-196585771D01*
X181002200Y-196585771D01*
X180787915Y-196514343D01*
X180645057Y-196371486D01*
X180573629Y-196228629D01*
X180502200Y-195942914D01*
X180502200Y-195728629D01*
X180573629Y-195442914D01*
X180645057Y-195300057D01*
X180787915Y-195157200D01*
X181002200Y-195085771D01*
X181145057Y-195085771D01*
X181359343Y-195157200D01*
X181430772Y-195228629D01*
X182716486Y-196585771D02*
X182716486Y-195800057D01*
X182645057Y-195657200D01*
X182502200Y-195585771D01*
X182216486Y-195585771D01*
X182073629Y-195657200D01*
X182716486Y-196514343D02*
X182573629Y-196585771D01*
X182216486Y-196585771D01*
X182073629Y-196514343D01*
X182002200Y-196371486D01*
X182002200Y-196228629D01*
X182073629Y-196085771D01*
X182216486Y-196014343D01*
X182573629Y-196014343D01*
X182716486Y-195942914D01*
X184073629Y-196585771D02*
X184073629Y-195085771D01*
X184073629Y-196514343D02*
X183930772Y-196585771D01*
X183645058Y-196585771D01*
X183502200Y-196514343D01*
X183430772Y-196442914D01*
X183359343Y-196300057D01*
X183359343Y-195871486D01*
X183430772Y-195728629D01*
X183502200Y-195657200D01*
X183645058Y-195585771D01*
X183930772Y-195585771D01*
X184073629Y-195657200D01*
X185930772Y-195800057D02*
X186430772Y-195800057D01*
X186645058Y-196585771D02*
X185930772Y-196585771D01*
X185930772Y-195085771D01*
X186645058Y-195085771D01*
X187287915Y-196442914D02*
X187359343Y-196514343D01*
X187287915Y-196585771D01*
X187216486Y-196514343D01*
X187287915Y-196442914D01*
X187287915Y-196585771D01*
X188002201Y-196585771D02*
X188002201Y-195085771D01*
X188359344Y-195085771D01*
X188573629Y-195157200D01*
X188716487Y-195300057D01*
X188787915Y-195442914D01*
X188859344Y-195728629D01*
X188859344Y-195942914D01*
X188787915Y-196228629D01*
X188716487Y-196371486D01*
X188573629Y-196514343D01*
X188359344Y-196585771D01*
X188002201Y-196585771D01*
X189502201Y-196442914D02*
X189573629Y-196514343D01*
X189502201Y-196585771D01*
X189430772Y-196514343D01*
X189502201Y-196442914D01*
X189502201Y-196585771D01*
X190145058Y-196157200D02*
X190859344Y-196157200D01*
X190002201Y-196585771D02*
X190502201Y-195085771D01*
X191002201Y-196585771D01*
X191502201Y-196442914D02*
X191573629Y-196514343D01*
X191502201Y-196585771D01*
X191430772Y-196514343D01*
X191502201Y-196442914D01*
X191502201Y-196585771D01*
X194502201Y-196585771D02*
X194502201Y-195085771D01*
X194645058Y-196014343D02*
X195073629Y-196585771D01*
X195073629Y-195585771D02*
X194502201Y-196157200D01*
X195716487Y-196585771D02*
X195716487Y-195585771D01*
X195716487Y-195085771D02*
X195645058Y-195157200D01*
X195716487Y-195228629D01*
X195787915Y-195157200D01*
X195716487Y-195085771D01*
X195716487Y-195228629D01*
X197073630Y-196514343D02*
X196930773Y-196585771D01*
X196645059Y-196585771D01*
X196502201Y-196514343D01*
X196430773Y-196442914D01*
X196359344Y-196300057D01*
X196359344Y-195871486D01*
X196430773Y-195728629D01*
X196502201Y-195657200D01*
X196645059Y-195585771D01*
X196930773Y-195585771D01*
X197073630Y-195657200D01*
X198359344Y-196585771D02*
X198359344Y-195800057D01*
X198287915Y-195657200D01*
X198145058Y-195585771D01*
X197859344Y-195585771D01*
X197716487Y-195657200D01*
X198359344Y-196514343D02*
X198216487Y-196585771D01*
X197859344Y-196585771D01*
X197716487Y-196514343D01*
X197645058Y-196371486D01*
X197645058Y-196228629D01*
X197716487Y-196085771D01*
X197859344Y-196014343D01*
X198216487Y-196014343D01*
X198359344Y-195942914D01*
X199716487Y-196585771D02*
X199716487Y-195085771D01*
X199716487Y-196514343D02*
X199573630Y-196585771D01*
X199287916Y-196585771D01*
X199145058Y-196514343D01*
X199073630Y-196442914D01*
X199002201Y-196300057D01*
X199002201Y-195871486D01*
X199073630Y-195728629D01*
X199145058Y-195657200D01*
X199287916Y-195585771D01*
X199573630Y-195585771D01*
X199716487Y-195657200D01*
X202216487Y-195585771D02*
X202216487Y-196585771D01*
X201859344Y-195014343D02*
X201502201Y-196085771D01*
X202430773Y-196085771D01*
X203002201Y-196442914D02*
X203073629Y-196514343D01*
X203002201Y-196585771D01*
X202930772Y-196514343D01*
X203002201Y-196442914D01*
X203002201Y-196585771D01*
X204002201Y-195085771D02*
X204145058Y-195085771D01*
X204287915Y-195157200D01*
X204359344Y-195228629D01*
X204430773Y-195371486D01*
X204502201Y-195657200D01*
X204502201Y-196014343D01*
X204430773Y-196300057D01*
X204359344Y-196442914D01*
X204287915Y-196514343D01*
X204145058Y-196585771D01*
X204002201Y-196585771D01*
X203859344Y-196514343D01*
X203787915Y-196442914D01*
X203716487Y-196300057D01*
X203645058Y-196014343D01*
X203645058Y-195657200D01*
X203716487Y-195371486D01*
X203787915Y-195228629D01*
X203859344Y-195157200D01*
X204002201Y-195085771D01*
X205145058Y-196442914D02*
X205216486Y-196514343D01*
X205145058Y-196585771D01*
X205073629Y-196514343D01*
X205145058Y-196442914D01*
X205145058Y-196585771D01*
X205716487Y-195085771D02*
X206716487Y-195085771D01*
X206073630Y-196585771D01*
D10*
D11*
X177002200Y-191507200D02*
X285002200Y-191507200D01*
D10*
D12*
X264216486Y-193785771D02*
X263716486Y-193071486D01*
X263359343Y-193785771D02*
X263359343Y-192285771D01*
X263930771Y-192285771D01*
X264073629Y-192357200D01*
X264145057Y-192428629D01*
X264216486Y-192571486D01*
X264216486Y-192785771D01*
X264145057Y-192928629D01*
X264073629Y-193000057D01*
X263930771Y-193071486D01*
X263359343Y-193071486D01*
X265430771Y-193714343D02*
X265287914Y-193785771D01*
X265002200Y-193785771D01*
X264859343Y-193714343D01*
X264787914Y-193571486D01*
X264787914Y-193000057D01*
X264859343Y-192857200D01*
X265002200Y-192785771D01*
X265287914Y-192785771D01*
X265430771Y-192857200D01*
X265502200Y-193000057D01*
X265502200Y-193142914D01*
X264787914Y-193285771D01*
X266002200Y-192785771D02*
X266359343Y-193785771D01*
X266716485Y-192785771D01*
X267287914Y-193642914D02*
X267359342Y-193714343D01*
X267287914Y-193785771D01*
X267216485Y-193714343D01*
X267287914Y-193642914D01*
X267287914Y-193785771D01*
X267287914Y-192857200D02*
X267359342Y-192928629D01*
X267287914Y-193000057D01*
X267216485Y-192928629D01*
X267287914Y-192857200D01*
X267287914Y-193000057D01*
D10*
D11*
X178287914Y-193714343D02*
X178502200Y-193785771D01*
X178859343Y-193785771D01*
X179002200Y-193714343D01*
X179073629Y-193642914D01*
X179145057Y-193500057D01*
X179145057Y-193357200D01*
X179073629Y-193214343D01*
X179002200Y-193142914D01*
X178859343Y-193071486D01*
X178573629Y-193000057D01*
X178430771Y-192928629D01*
X178359343Y-192857200D01*
X178287914Y-192714343D01*
X178287914Y-192571486D01*
X178359343Y-192428629D01*
X178430771Y-192357200D01*
X178573629Y-192285771D01*
X178930771Y-192285771D01*
X179145057Y-192357200D01*
X179787914Y-193785771D02*
X179787914Y-192785771D01*
X179787914Y-192285771D02*
X179716485Y-192357200D01*
X179787914Y-192428629D01*
X179859342Y-192357200D01*
X179787914Y-192285771D01*
X179787914Y-192428629D01*
X180359343Y-192785771D02*
X181145057Y-192785771D01*
X180359343Y-193785771D01*
X181145057Y-193785771D01*
X182287914Y-193714343D02*
X182145057Y-193785771D01*
X181859343Y-193785771D01*
X181716486Y-193714343D01*
X181645057Y-193571486D01*
X181645057Y-193000057D01*
X181716486Y-192857200D01*
X181859343Y-192785771D01*
X182145057Y-192785771D01*
X182287914Y-192857200D01*
X182359343Y-193000057D01*
X182359343Y-193142914D01*
X181645057Y-193285771D01*
X183002200Y-193642914D02*
X183073628Y-193714343D01*
X183002200Y-193785771D01*
X182930771Y-193714343D01*
X183002200Y-193642914D01*
X183002200Y-193785771D01*
X183002200Y-192857200D02*
X183073628Y-192928629D01*
X183002200Y-193000057D01*
X182930771Y-192928629D01*
X183002200Y-192857200D01*
X183002200Y-193000057D01*
X184787914Y-193357200D02*
X185502200Y-193357200D01*
X184645057Y-193785771D02*
X185145057Y-192285771D01*
X185645057Y-193785771D01*
X186787914Y-192785771D02*
X186787914Y-193785771D01*
X186430771Y-192214343D02*
X186073628Y-193285771D01*
X187002200Y-193285771D01*
D10*
D11*
X263359343Y-196585771D02*
X263359343Y-195085771D01*
X264716486Y-196585771D02*
X264716486Y-195085771D01*
X264716486Y-196514343D02*
X264573629Y-196585771D01*
X264287915Y-196585771D01*
X264145057Y-196514343D01*
X264073629Y-196442914D01*
X264002200Y-196300057D01*
X264002200Y-195871486D01*
X264073629Y-195728629D01*
X264145057Y-195657200D01*
X264287915Y-195585771D01*
X264573629Y-195585771D01*
X264716486Y-195657200D01*
X265430772Y-196442914D02*
X265502200Y-196514343D01*
X265430772Y-196585771D01*
X265359343Y-196514343D01*
X265430772Y-196442914D01*
X265430772Y-196585771D01*
X265430772Y-195657200D02*
X265502200Y-195728629D01*
X265430772Y-195800057D01*
X265359343Y-195728629D01*
X265430772Y-195657200D01*
X265430772Y-195800057D01*
X268073629Y-196585771D02*
X267216486Y-196585771D01*
X267645058Y-196585771D02*
X267645058Y-195085771D01*
X267502201Y-195300057D01*
X267359343Y-195442914D01*
X267216486Y-195514343D01*
X269787914Y-195014343D02*
X268502200Y-196942914D01*
X271073629Y-196585771D02*
X270216486Y-196585771D01*
X270645058Y-196585771D02*
X270645058Y-195085771D01*
X270502201Y-195300057D01*
X270359343Y-195442914D01*
X270216486Y-195514343D01*
D10*
D11*
X177002200Y-187507200D02*
X285002200Y-187507200D01*
D10*
D13*
X178454581Y-188211962D02*
X179597438Y-188211962D01*
X178776010Y-190211962D02*
X179026010Y-188211962D01*
X180014105Y-190211962D02*
X180180771Y-188878629D01*
X180264105Y-188211962D02*
X180156962Y-188307200D01*
X180240295Y-188402438D01*
X180347439Y-188307200D01*
X180264105Y-188211962D01*
X180240295Y-188402438D01*
X180847438Y-188878629D02*
X181609343Y-188878629D01*
X181216486Y-188211962D02*
X181002200Y-189926248D01*
X181073630Y-190116724D01*
X181252201Y-190211962D01*
X181442677Y-190211962D01*
X182395058Y-190211962D02*
X182216487Y-190116724D01*
X182145057Y-189926248D01*
X182359343Y-188211962D01*
X183930772Y-190116724D02*
X183728391Y-190211962D01*
X183347439Y-190211962D01*
X183168867Y-190116724D01*
X183097438Y-189926248D01*
X183192676Y-189164343D01*
X183311724Y-188973867D01*
X183514105Y-188878629D01*
X183895057Y-188878629D01*
X184073629Y-188973867D01*
X184145057Y-189164343D01*
X184121248Y-189354819D01*
X183145057Y-189545295D01*
X184895057Y-190021486D02*
X184978392Y-190116724D01*
X184871248Y-190211962D01*
X184787915Y-190116724D01*
X184895057Y-190021486D01*
X184871248Y-190211962D01*
X185026010Y-188973867D02*
X185109344Y-189069105D01*
X185002200Y-189164343D01*
X184918867Y-189069105D01*
X185026010Y-188973867D01*
X185002200Y-189164343D01*
D10*
D11*
X178859343Y-185600057D02*
X178359343Y-185600057D01*
X178359343Y-186385771D02*
X178359343Y-184885771D01*
X179073629Y-184885771D01*
X179645057Y-186385771D02*
X179645057Y-185385771D01*
X179645057Y-184885771D02*
X179573628Y-184957200D01*
X179645057Y-185028629D01*
X179716485Y-184957200D01*
X179645057Y-184885771D01*
X179645057Y-185028629D01*
X180573629Y-186385771D02*
X180430771Y-186314343D01*
X180359343Y-186171486D01*
X180359343Y-184885771D01*
X181716485Y-186314343D02*
X181573628Y-186385771D01*
X181287914Y-186385771D01*
X181145057Y-186314343D01*
X181073628Y-186171486D01*
X181073628Y-185600057D01*
X181145057Y-185457200D01*
X181287914Y-185385771D01*
X181573628Y-185385771D01*
X181716485Y-185457200D01*
X181787914Y-185600057D01*
X181787914Y-185742914D01*
X181073628Y-185885771D01*
X182430771Y-186242914D02*
X182502199Y-186314343D01*
X182430771Y-186385771D01*
X182359342Y-186314343D01*
X182430771Y-186242914D01*
X182430771Y-186385771D01*
X182430771Y-185457200D02*
X182502199Y-185528629D01*
X182430771Y-185600057D01*
X182359342Y-185528629D01*
X182430771Y-185457200D01*
X182430771Y-185600057D01*
X184216485Y-185957200D02*
X184930771Y-185957200D01*
X184073628Y-186385771D02*
X184573628Y-184885771D01*
X185073628Y-186385771D01*
X185573628Y-185385771D02*
X185573628Y-186385771D01*
X185573628Y-185528629D02*
X185645056Y-185457200D01*
X185787914Y-185385771D01*
X186002199Y-185385771D01*
X186145056Y-185457200D01*
X186216485Y-185600057D01*
X186216485Y-186385771D01*
X187502199Y-186314343D02*
X187359342Y-186385771D01*
X187073628Y-186385771D01*
X186930771Y-186314343D01*
X186859342Y-186171486D01*
X186859342Y-185600057D01*
X186930771Y-185457200D01*
X187073628Y-185385771D01*
X187359342Y-185385771D01*
X187502199Y-185457200D01*
X187573628Y-185600057D01*
X187573628Y-185742914D01*
X186859342Y-185885771D01*
X188216485Y-186385771D02*
X188216485Y-185385771D01*
X188216485Y-185528629D02*
X188287913Y-185457200D01*
X188430771Y-185385771D01*
X188645056Y-185385771D01*
X188787913Y-185457200D01*
X188859342Y-185600057D01*
X188859342Y-186385771D01*
X188859342Y-185600057D02*
X188930771Y-185457200D01*
X189073628Y-185385771D01*
X189287913Y-185385771D01*
X189430771Y-185457200D01*
X189502199Y-185600057D01*
X189502199Y-186385771D01*
X190430771Y-186385771D02*
X190287913Y-186314343D01*
X190216485Y-186242914D01*
X190145056Y-186100057D01*
X190145056Y-185671486D01*
X190216485Y-185528629D01*
X190287913Y-185457200D01*
X190430771Y-185385771D01*
X190645056Y-185385771D01*
X190787913Y-185457200D01*
X190859342Y-185528629D01*
X190930771Y-185671486D01*
X190930771Y-186100057D01*
X190859342Y-186242914D01*
X190787913Y-186314343D01*
X190645056Y-186385771D01*
X190430771Y-186385771D01*
X191573628Y-186385771D02*
X191573628Y-185385771D01*
X191573628Y-185528629D02*
X191645056Y-185457200D01*
X191787914Y-185385771D01*
X192002199Y-185385771D01*
X192145056Y-185457200D01*
X192216485Y-185600057D01*
X192216485Y-186385771D01*
X192216485Y-185600057D02*
X192287914Y-185457200D01*
X192430771Y-185385771D01*
X192645056Y-185385771D01*
X192787914Y-185457200D01*
X192859342Y-185600057D01*
X192859342Y-186385771D01*
X194145056Y-186314343D02*
X194002199Y-186385771D01*
X193716485Y-186385771D01*
X193573628Y-186314343D01*
X193502199Y-186171486D01*
X193502199Y-185600057D01*
X193573628Y-185457200D01*
X193716485Y-185385771D01*
X194002199Y-185385771D01*
X194145056Y-185457200D01*
X194216485Y-185600057D01*
X194216485Y-185742914D01*
X193502199Y-185885771D01*
X194645056Y-185385771D02*
X195216485Y-185385771D01*
X194859342Y-184885771D02*
X194859342Y-186171486D01*
X194930770Y-186314343D01*
X195073628Y-186385771D01*
X195216485Y-186385771D01*
X196287913Y-186314343D02*
X196145056Y-186385771D01*
X195859342Y-186385771D01*
X195716485Y-186314343D01*
X195645056Y-186171486D01*
X195645056Y-185600057D01*
X195716485Y-185457200D01*
X195859342Y-185385771D01*
X196145056Y-185385771D01*
X196287913Y-185457200D01*
X196359342Y-185600057D01*
X196359342Y-185742914D01*
X195645056Y-185885771D01*
X197002199Y-186385771D02*
X197002199Y-185385771D01*
X197002199Y-185671486D02*
X197073627Y-185528629D01*
X197145056Y-185457200D01*
X197287913Y-185385771D01*
X197430770Y-185385771D01*
X197573627Y-186528629D02*
X198716484Y-186528629D01*
X199002198Y-186314343D02*
X199216484Y-186385771D01*
X199573627Y-186385771D01*
X199716484Y-186314343D01*
X199787913Y-186242914D01*
X199859341Y-186100057D01*
X199859341Y-185957200D01*
X199787913Y-185814343D01*
X199716484Y-185742914D01*
X199573627Y-185671486D01*
X199287913Y-185600057D01*
X199145055Y-185528629D01*
X199073627Y-185457200D01*
X199002198Y-185314343D01*
X199002198Y-185171486D01*
X199073627Y-185028629D01*
X199145055Y-184957200D01*
X199287913Y-184885771D01*
X199645055Y-184885771D01*
X199859341Y-184957200D01*
X201145055Y-186314343D02*
X201002198Y-186385771D01*
X200716484Y-186385771D01*
X200573626Y-186314343D01*
X200502198Y-186242914D01*
X200430769Y-186100057D01*
X200430769Y-185671486D01*
X200502198Y-185528629D01*
X200573626Y-185457200D01*
X200716484Y-185385771D01*
X201002198Y-185385771D01*
X201145055Y-185457200D01*
X201787912Y-186385771D02*
X201787912Y-184885771D01*
X202430769Y-186385771D02*
X202430769Y-185600057D01*
X202359340Y-185457200D01*
X202216483Y-185385771D01*
X202002198Y-185385771D01*
X201859340Y-185457200D01*
X201787912Y-185528629D01*
X203716483Y-186314343D02*
X203573626Y-186385771D01*
X203287912Y-186385771D01*
X203145055Y-186314343D01*
X203073626Y-186171486D01*
X203073626Y-185600057D01*
X203145055Y-185457200D01*
X203287912Y-185385771D01*
X203573626Y-185385771D01*
X203716483Y-185457200D01*
X203787912Y-185600057D01*
X203787912Y-185742914D01*
X203073626Y-185885771D01*
X204430769Y-186385771D02*
X204430769Y-185385771D01*
X204430769Y-185528629D02*
X204502197Y-185457200D01*
X204645055Y-185385771D01*
X204859340Y-185385771D01*
X205002197Y-185457200D01*
X205073626Y-185600057D01*
X205073626Y-186385771D01*
X205073626Y-185600057D02*
X205145055Y-185457200D01*
X205287912Y-185385771D01*
X205502197Y-185385771D01*
X205645055Y-185457200D01*
X205716483Y-185600057D01*
X205716483Y-186385771D01*
X207073626Y-186385771D02*
X207073626Y-185600057D01*
X207002197Y-185457200D01*
X206859340Y-185385771D01*
X206573626Y-185385771D01*
X206430769Y-185457200D01*
X207073626Y-186314343D02*
X206930769Y-186385771D01*
X206573626Y-186385771D01*
X206430769Y-186314343D01*
X206359340Y-186171486D01*
X206359340Y-186028629D01*
X206430769Y-185885771D01*
X206573626Y-185814343D01*
X206930769Y-185814343D01*
X207073626Y-185742914D01*
X207573626Y-185385771D02*
X208145055Y-185385771D01*
X207787912Y-184885771D02*
X207787912Y-186171486D01*
X207859340Y-186314343D01*
X208002198Y-186385771D01*
X208145055Y-186385771D01*
X208645055Y-186385771D02*
X208645055Y-185385771D01*
X208645055Y-184885771D02*
X208573626Y-184957200D01*
X208645055Y-185028629D01*
X208716483Y-184957200D01*
X208645055Y-184885771D01*
X208645055Y-185028629D01*
X210002198Y-186314343D02*
X209859341Y-186385771D01*
X209573627Y-186385771D01*
X209430769Y-186314343D01*
X209359341Y-186242914D01*
X209287912Y-186100057D01*
X209287912Y-185671486D01*
X209359341Y-185528629D01*
X209430769Y-185457200D01*
X209573627Y-185385771D01*
X209859341Y-185385771D01*
X210002198Y-185457200D01*
X210287912Y-186528629D02*
X211430769Y-186528629D01*
X211787912Y-185814343D02*
X212930769Y-185814343D01*
X213287912Y-186528629D02*
X214430769Y-186528629D01*
X214716483Y-185957200D02*
X215430769Y-185957200D01*
X214573626Y-186385771D02*
X215073626Y-184885771D01*
X215573626Y-186385771D01*
X216073626Y-185385771D02*
X216073626Y-186385771D01*
X216073626Y-185528629D02*
X216145054Y-185457200D01*
X216287912Y-185385771D01*
X216502197Y-185385771D01*
X216645054Y-185457200D01*
X216716483Y-185600057D01*
X216716483Y-186385771D01*
X218073626Y-186385771D02*
X218073626Y-185600057D01*
X218002197Y-185457200D01*
X217859340Y-185385771D01*
X217573626Y-185385771D01*
X217430769Y-185457200D01*
X218073626Y-186314343D02*
X217930769Y-186385771D01*
X217573626Y-186385771D01*
X217430769Y-186314343D01*
X217359340Y-186171486D01*
X217359340Y-186028629D01*
X217430769Y-185885771D01*
X217573626Y-185814343D01*
X217930769Y-185814343D01*
X218073626Y-185742914D01*
X219002198Y-186385771D02*
X218859340Y-186314343D01*
X218787912Y-186171486D01*
X218787912Y-184885771D01*
X219787912Y-186385771D02*
X219645054Y-186314343D01*
X219573626Y-186242914D01*
X219502197Y-186100057D01*
X219502197Y-185671486D01*
X219573626Y-185528629D01*
X219645054Y-185457200D01*
X219787912Y-185385771D01*
X220002197Y-185385771D01*
X220145054Y-185457200D01*
X220216483Y-185528629D01*
X220287912Y-185671486D01*
X220287912Y-186100057D01*
X220216483Y-186242914D01*
X220145054Y-186314343D01*
X220002197Y-186385771D01*
X219787912Y-186385771D01*
X221573626Y-185385771D02*
X221573626Y-186600057D01*
X221502197Y-186742914D01*
X221430769Y-186814343D01*
X221287912Y-186885771D01*
X221073626Y-186885771D01*
X220930769Y-186814343D01*
X221573626Y-186314343D02*
X221430769Y-186385771D01*
X221145055Y-186385771D01*
X221002197Y-186314343D01*
X220930769Y-186242914D01*
X220859340Y-186100057D01*
X220859340Y-185671486D01*
X220930769Y-185528629D01*
X221002197Y-185457200D01*
X221145055Y-185385771D01*
X221430769Y-185385771D01*
X221573626Y-185457200D01*
X221930769Y-186528629D02*
X223073626Y-186528629D01*
X223716483Y-184885771D02*
X224002197Y-184885771D01*
X224145055Y-184957200D01*
X224287912Y-185100057D01*
X224359340Y-185385771D01*
X224359340Y-185885771D01*
X224287912Y-186171486D01*
X224145055Y-186314343D01*
X224002197Y-186385771D01*
X223716483Y-186385771D01*
X223573626Y-186314343D01*
X223430769Y-186171486D01*
X223359340Y-185885771D01*
X223359340Y-185385771D01*
X223430769Y-185100057D01*
X223573626Y-184957200D01*
X223716483Y-184885771D01*
X225002198Y-185385771D02*
X225002198Y-186385771D01*
X225002198Y-185528629D02*
X225073626Y-185457200D01*
X225216484Y-185385771D01*
X225430769Y-185385771D01*
X225573626Y-185457200D01*
X225645055Y-185600057D01*
X225645055Y-186385771D01*
X226573627Y-186385771D02*
X226430769Y-186314343D01*
X226359341Y-186171486D01*
X226359341Y-184885771D01*
X227002198Y-185385771D02*
X227359341Y-186385771D01*
X227716483Y-185385771D02*
X227359341Y-186385771D01*
X227216483Y-186742914D01*
X227145055Y-186814343D01*
X227002198Y-186885771D01*
X228287912Y-186242914D02*
X228359340Y-186314343D01*
X228287912Y-186385771D01*
X228216483Y-186314343D01*
X228287912Y-186242914D01*
X228287912Y-186385771D01*
X229002198Y-186385771D02*
X229002198Y-184885771D01*
X229145055Y-185814343D02*
X229573626Y-186385771D01*
X229573626Y-185385771D02*
X229002198Y-185957200D01*
X230216484Y-186385771D02*
X230216484Y-185385771D01*
X230216484Y-184885771D02*
X230145055Y-184957200D01*
X230216484Y-185028629D01*
X230287912Y-184957200D01*
X230216484Y-184885771D01*
X230216484Y-185028629D01*
X231573627Y-186314343D02*
X231430770Y-186385771D01*
X231145056Y-186385771D01*
X231002198Y-186314343D01*
X230930770Y-186242914D01*
X230859341Y-186100057D01*
X230859341Y-185671486D01*
X230930770Y-185528629D01*
X231002198Y-185457200D01*
X231145056Y-185385771D01*
X231430770Y-185385771D01*
X231573627Y-185457200D01*
X232859341Y-186385771D02*
X232859341Y-185600057D01*
X232787912Y-185457200D01*
X232645055Y-185385771D01*
X232359341Y-185385771D01*
X232216484Y-185457200D01*
X232859341Y-186314343D02*
X232716484Y-186385771D01*
X232359341Y-186385771D01*
X232216484Y-186314343D01*
X232145055Y-186171486D01*
X232145055Y-186028629D01*
X232216484Y-185885771D01*
X232359341Y-185814343D01*
X232716484Y-185814343D01*
X232859341Y-185742914D01*
X234216484Y-186385771D02*
X234216484Y-184885771D01*
X234216484Y-186314343D02*
X234073627Y-186385771D01*
X233787913Y-186385771D01*
X233645055Y-186314343D01*
X233573627Y-186242914D01*
X233502198Y-186100057D01*
X233502198Y-185671486D01*
X233573627Y-185528629D01*
X233645055Y-185457200D01*
X233787913Y-185385771D01*
X234073627Y-185385771D01*
X234216484Y-185457200D01*
X234573627Y-186528629D02*
X235716484Y-186528629D01*
X236073627Y-185385771D02*
X236073627Y-186885771D01*
X236073627Y-185457200D02*
X236216484Y-185385771D01*
X236502198Y-185385771D01*
X236645055Y-185457200D01*
X236716484Y-185528629D01*
X236787913Y-185671486D01*
X236787913Y-186100057D01*
X236716484Y-186242914D01*
X236645055Y-186314343D01*
X236502198Y-186385771D01*
X236216484Y-186385771D01*
X236073627Y-186314343D01*
X238073627Y-186314343D02*
X237930770Y-186385771D01*
X237645056Y-186385771D01*
X237502198Y-186314343D01*
X237430770Y-186242914D01*
X237359341Y-186100057D01*
X237359341Y-185671486D01*
X237430770Y-185528629D01*
X237502198Y-185457200D01*
X237645056Y-185385771D01*
X237930770Y-185385771D01*
X238073627Y-185457200D01*
X238716484Y-186385771D02*
X238716484Y-184885771D01*
X238716484Y-185457200D02*
X238859341Y-185385771D01*
X239145055Y-185385771D01*
X239287912Y-185457200D01*
X239359341Y-185528629D01*
X239430770Y-185671486D01*
X239430770Y-186100057D01*
X239359341Y-186242914D01*
X239287912Y-186314343D01*
X239145055Y-186385771D01*
X238859341Y-186385771D01*
X238716484Y-186314343D01*
D10*
D11*
X177002200Y-181507200D02*
X285002200Y-181507200D01*
D10*
D11*
X178287914Y-183614343D02*
X178502200Y-183685771D01*
X178859343Y-183685771D01*
X179002200Y-183614343D01*
X179073629Y-183542914D01*
X179145057Y-183400057D01*
X179145057Y-183257200D01*
X179073629Y-183114343D01*
X179002200Y-183042914D01*
X178859343Y-182971486D01*
X178573629Y-182900057D01*
X178430771Y-182828629D01*
X178359343Y-182757200D01*
X178287914Y-182614343D01*
X178287914Y-182471486D01*
X178359343Y-182328629D01*
X178430771Y-182257200D01*
X178573629Y-182185771D01*
X178930771Y-182185771D01*
X179145057Y-182257200D01*
X179787914Y-183685771D02*
X179787914Y-182185771D01*
X180430771Y-183685771D02*
X180430771Y-182900057D01*
X180359342Y-182757200D01*
X180216485Y-182685771D01*
X180002200Y-182685771D01*
X179859342Y-182757200D01*
X179787914Y-182828629D01*
X181716485Y-183614343D02*
X181573628Y-183685771D01*
X181287914Y-183685771D01*
X181145057Y-183614343D01*
X181073628Y-183471486D01*
X181073628Y-182900057D01*
X181145057Y-182757200D01*
X181287914Y-182685771D01*
X181573628Y-182685771D01*
X181716485Y-182757200D01*
X181787914Y-182900057D01*
X181787914Y-183042914D01*
X181073628Y-183185771D01*
X183002199Y-183614343D02*
X182859342Y-183685771D01*
X182573628Y-183685771D01*
X182430771Y-183614343D01*
X182359342Y-183471486D01*
X182359342Y-182900057D01*
X182430771Y-182757200D01*
X182573628Y-182685771D01*
X182859342Y-182685771D01*
X183002199Y-182757200D01*
X183073628Y-182900057D01*
X183073628Y-183042914D01*
X182359342Y-183185771D01*
X183502199Y-182685771D02*
X184073628Y-182685771D01*
X183716485Y-182185771D02*
X183716485Y-183471486D01*
X183787913Y-183614343D01*
X183930771Y-183685771D01*
X184073628Y-183685771D01*
X184573628Y-183542914D02*
X184645056Y-183614343D01*
X184573628Y-183685771D01*
X184502199Y-183614343D01*
X184573628Y-183542914D01*
X184573628Y-183685771D01*
X184573628Y-182757200D02*
X184645056Y-182828629D01*
X184573628Y-182900057D01*
X184502199Y-182828629D01*
X184573628Y-182757200D01*
X184573628Y-182900057D01*
D10*
D11*
X197002200Y-191507200D02*
X197002200Y-194507200D01*
D10*
D11*
X261002200Y-191507200D02*
X261002200Y-198007200D01*
D14*
X164000000Y-97000000D03*
X105000000Y-129400000D03*
X86200000Y-131400000D03*
X98200000Y-125600000D03*
X98000000Y-116200000D03*
X114200000Y-131800000D03*
X138800000Y-125800000D03*
X167600000Y-129200000D03*
X171000000Y-117000000D03*
X155800000Y-106800000D03*
X142400000Y-99400000D03*
X117600000Y-122600000D03*
X123600000Y-117200000D03*
X93000000Y-102000000D03*
X87000000Y-102000000D03*
X115800000Y-98200000D03*
X87000000Y-97200000D03*
D15*
X113760000Y-105500000D03*
D16*
X116300000Y-105500000D03*
X118840000Y-105500000D03*
X121380000Y-105500000D03*
X123920000Y-105500000D03*
X126460000Y-105500000D03*
X129000000Y-105500000D03*
X131540000Y-105500000D03*
X134080000Y-105500000D03*
X136620000Y-105500000D03*
D17*
X75000000Y-120000000D03*
X75000000Y-109840000D03*
X180000000Y-120000000D03*
X180000000Y-109840000D03*
D18*
X122800000Y-124800000D03*
X107800000Y-124400000D03*
X112000000Y-109400000D03*
X149000000Y-120400000D03*
X165400000Y-111000000D03*
X107000000Y-113000000D03*
X109000000Y-106800000D03*
X100400000Y-120000000D03*
X100600000Y-118600000D03*
X85800000Y-120000000D03*
X128200000Y-128400000D03*
X125400000Y-127800000D03*
X127600000Y-118000000D03*
X145400000Y-122400000D03*
X151800000Y-120600000D03*
X141800000Y-116400000D03*
X146400000Y-112600000D03*
X145000000Y-107200000D03*
X163600000Y-111200000D03*
X165400000Y-114400000D03*
X165800000Y-120600000D03*
X159786320Y-124073920D03*
X159633920Y-119461280D03*
X80330040Y-117645180D03*
X80330040Y-113388140D03*
X111800000Y-111600000D03*
X109800000Y-124000000D03*
D19*
X128270000Y-102870000D03*
X91440000Y-118110000D03*
X136570720Y-108544360D03*
X136342120Y-113695480D03*
D18*
X147944840Y-116001800D03*
X130652520Y-108701840D03*
X106200000Y-121000000D03*
X104600000Y-126800000D03*
D20*
X108200000Y-124800000D02*
X122800000Y-124800000D01*
X107800000Y-124400000D02*
X108200000Y-124800000D01*
X112000000Y-109400000D02*
X111600000Y-109400000D01*
X149000000Y-120400000D02*
X148600000Y-120000000D01*
X165400000Y-111000000D02*
X165400000Y-110400000D01*
X107000000Y-113000000D02*
X107000000Y-112200000D01*
X108800000Y-106600000D02*
X108600000Y-106600000D01*
X109000000Y-106800000D02*
X108800000Y-106600000D01*
X101600000Y-119600000D02*
X101200000Y-119600000D01*
X100800000Y-120000000D02*
X100400000Y-120000000D01*
X101200000Y-119600000D02*
X100800000Y-120000000D01*
X100600000Y-118600000D02*
X100200000Y-118600000D01*
X85800000Y-120000000D02*
X85800000Y-119400000D01*
X128000000Y-128600000D02*
X127600000Y-128600000D01*
X128200000Y-128400000D02*
X128000000Y-128600000D01*
X125400000Y-127800000D02*
X125400000Y-128600000D01*
X145400000Y-122400000D02*
X145000000Y-122000000D01*
X134080000Y-105500000D02*
X134080000Y-104480000D01*
X134080000Y-104480000D02*
X133200000Y-103600000D01*
X134080000Y-105500000D02*
X134080000Y-106680000D01*
X134080000Y-106680000D02*
X135000000Y-107600000D01*
X165600000Y-120600000D02*
X165800000Y-120800000D01*
X165800000Y-120600000D02*
X165600000Y-120600000D01*
X159633920Y-119461280D02*
X159633920Y-123921520D01*
X159633920Y-123921520D02*
X159786320Y-124073920D01*
X80330040Y-113388140D02*
X80330040Y-117645180D01*
X111800000Y-122000000D02*
X111800000Y-111600000D01*
X109800000Y-124000000D02*
X111800000Y-122000000D01*
D21*
X91440000Y-106680000D02*
X95250000Y-102870000D01*
X95250000Y-102870000D02*
X128270000Y-102870000D01*
X91440000Y-118110000D02*
X91440000Y-106680000D01*
X136342120Y-113695480D02*
X136342120Y-108772960D01*
X136342120Y-108772960D02*
X136570720Y-108544360D01*
D20*
X136037320Y-115006120D02*
X146949160Y-115006120D01*
X146949160Y-115006120D02*
X147944840Y-116001800D01*
X135265160Y-114233960D02*
X136037320Y-115006120D01*
X135265160Y-113314480D02*
X135265160Y-114233960D01*
X130652520Y-108701840D02*
X135265160Y-113314480D01*
X106200000Y-125200000D02*
X106200000Y-121000000D01*
X104600000Y-126800000D02*
X106200000Y-125200000D01*
D22*
G36*
X184023000Y-139315000D02*
X71247000Y-139315000D01*
X71247000Y-135472325D01*
X72614587Y-135472325D01*
X72976916Y-136349229D01*
X73647242Y-137020726D01*
X74523513Y-137384585D01*
X75472325Y-137385413D01*
X76349229Y-137023084D01*
X77020726Y-136352758D01*
X77384585Y-135476487D01*
X77384588Y-135472325D01*
X177614587Y-135472325D01*
X177976916Y-136349229D01*
X178647242Y-137020726D01*
X179523513Y-137384585D01*
X180472325Y-137385413D01*
X181349229Y-137023084D01*
X182020726Y-136352758D01*
X182384585Y-135476487D01*
X182385413Y-134527675D01*
X182023084Y-133650771D01*
X181352758Y-132979274D01*
X180476487Y-132615415D01*
X179527675Y-132614587D01*
X178650771Y-132976916D01*
X177979274Y-133647242D01*
X177615415Y-134523513D01*
X177614587Y-135472325D01*
X77384588Y-135472325D01*
X77385413Y-134527675D01*
X77023084Y-133650771D01*
X76352758Y-132979274D01*
X75476487Y-132615415D01*
X74527675Y-132614587D01*
X73650771Y-132976916D01*
X72979274Y-133647242D01*
X72615415Y-134523513D01*
X72614587Y-135472325D01*
X71247000Y-135472325D01*
X71247000Y-131604971D01*
X85164821Y-131604971D01*
X85322058Y-131985515D01*
X85612954Y-132276919D01*
X85993223Y-132434820D01*
X86404971Y-132435179D01*
X86785515Y-132277942D01*
X87058962Y-132004971D01*
X113164821Y-132004971D01*
X113322058Y-132385515D01*
X113612954Y-132676919D01*
X113993223Y-132834820D01*
X114404971Y-132835179D01*
X114785515Y-132677942D01*
X115076919Y-132387046D01*
X115234820Y-132006777D01*
X115235179Y-131595029D01*
X115077942Y-131214485D01*
X114787046Y-130923081D01*
X114406777Y-130765180D01*
X113995029Y-130764821D01*
X113614485Y-130922058D01*
X113323081Y-131212954D01*
X113165180Y-131593223D01*
X113164821Y-132004971D01*
X87058962Y-132004971D01*
X87076919Y-131987046D01*
X87234820Y-131606777D01*
X87235179Y-131195029D01*
X87077942Y-130814485D01*
X86787046Y-130523081D01*
X86406777Y-130365180D01*
X85995029Y-130364821D01*
X85614485Y-130522058D01*
X85323081Y-130812954D01*
X85165180Y-131193223D01*
X85164821Y-131604971D01*
X71247000Y-131604971D01*
X71247000Y-129604971D01*
X103964821Y-129604971D01*
X104122058Y-129985515D01*
X104412954Y-130276919D01*
X104793223Y-130434820D01*
X105204971Y-130435179D01*
X105585515Y-130277942D01*
X105876919Y-129987046D01*
X106034820Y-129606777D01*
X106034995Y-129404971D01*
X166564821Y-129404971D01*
X166722058Y-129785515D01*
X167012954Y-130076919D01*
X167393223Y-130234820D01*
X167804971Y-130235179D01*
X168185515Y-130077942D01*
X168476919Y-129787046D01*
X168634820Y-129406777D01*
X168635179Y-128995029D01*
X168477942Y-128614485D01*
X168187046Y-128323081D01*
X167806777Y-128165180D01*
X167395029Y-128164821D01*
X167014485Y-128322058D01*
X166723081Y-128612954D01*
X166565180Y-128993223D01*
X166564821Y-129404971D01*
X106034995Y-129404971D01*
X106035179Y-129195029D01*
X105877942Y-128814485D01*
X105587046Y-128523081D01*
X105206777Y-128365180D01*
X104795029Y-128364821D01*
X104414485Y-128522058D01*
X104123081Y-128812954D01*
X103965180Y-129193223D01*
X103964821Y-129604971D01*
X71247000Y-129604971D01*
X71247000Y-126985167D01*
X103664838Y-126985167D01*
X103806883Y-127328943D01*
X104069673Y-127592192D01*
X104413201Y-127734838D01*
X104785167Y-127735162D01*
X105128943Y-127593117D01*
X105392192Y-127330327D01*
X105534838Y-126986799D01*
X105534879Y-126939923D01*
X106469831Y-126004971D01*
X137764821Y-126004971D01*
X137922058Y-126385515D01*
X138212954Y-126676919D01*
X138593223Y-126834820D01*
X139004971Y-126835179D01*
X139385515Y-126677942D01*
X139676919Y-126387046D01*
X139834820Y-126006777D01*
X139835179Y-125595029D01*
X139677942Y-125214485D01*
X139387046Y-124923081D01*
X139006777Y-124765180D01*
X138595029Y-124764821D01*
X138214485Y-124922058D01*
X137923081Y-125212954D01*
X137765180Y-125593223D01*
X137764821Y-126004971D01*
X106469831Y-126004971D01*
X106737401Y-125737401D01*
X106902148Y-125490839D01*
X106960000Y-125200000D01*
X106960000Y-124815477D01*
X107006883Y-124928943D01*
X107269673Y-125192192D01*
X107613201Y-125334838D01*
X107660077Y-125334879D01*
X107662599Y-125337401D01*
X107909160Y-125502148D01*
X107957414Y-125511746D01*
X108200000Y-125560000D01*
X122237537Y-125560000D01*
X122269673Y-125592192D01*
X122613201Y-125734838D01*
X122985167Y-125735162D01*
X123328943Y-125593117D01*
X123592192Y-125330327D01*
X123734838Y-124986799D01*
X123735162Y-124614833D01*
X123593117Y-124271057D01*
X123330327Y-124007808D01*
X122986799Y-123865162D01*
X122614833Y-123864838D01*
X122271057Y-124006883D01*
X122237882Y-124040000D01*
X110834802Y-124040000D01*
X112069831Y-122804971D01*
X116564821Y-122804971D01*
X116722058Y-123185515D01*
X117012954Y-123476919D01*
X117393223Y-123634820D01*
X117804971Y-123635179D01*
X118185515Y-123477942D01*
X118476919Y-123187046D01*
X118634820Y-122806777D01*
X118635179Y-122395029D01*
X118477942Y-122014485D01*
X118187046Y-121723081D01*
X117806777Y-121565180D01*
X117395029Y-121564821D01*
X117014485Y-121722058D01*
X116723081Y-122012954D01*
X116565180Y-122393223D01*
X116564821Y-122804971D01*
X112069831Y-122804971D01*
X112337401Y-122537401D01*
X112502148Y-122290839D01*
X112560000Y-122000000D01*
X112560000Y-119646447D01*
X158698758Y-119646447D01*
X158840803Y-119990223D01*
X158873920Y-120023398D01*
X158873920Y-123833085D01*
X158851482Y-123887121D01*
X158851158Y-124259087D01*
X158993203Y-124602863D01*
X159255993Y-124866112D01*
X159599521Y-125008758D01*
X159971487Y-125009082D01*
X160315263Y-124867037D01*
X160578512Y-124604247D01*
X160721158Y-124260719D01*
X160721482Y-123888753D01*
X160579437Y-123544977D01*
X160393920Y-123359136D01*
X160393920Y-120276661D01*
X178602758Y-120276661D01*
X178814990Y-120790303D01*
X179207630Y-121183629D01*
X179720900Y-121396757D01*
X180276661Y-121397242D01*
X180790303Y-121185010D01*
X181183629Y-120792370D01*
X181396757Y-120279100D01*
X181397242Y-119723339D01*
X181185010Y-119209697D01*
X180792370Y-118816371D01*
X180279100Y-118603243D01*
X179723339Y-118602758D01*
X179209697Y-118814990D01*
X178816371Y-119207630D01*
X178603243Y-119720900D01*
X178602758Y-120276661D01*
X160393920Y-120276661D01*
X160393920Y-120023743D01*
X160426112Y-119991607D01*
X160568758Y-119648079D01*
X160569082Y-119276113D01*
X160427037Y-118932337D01*
X160164247Y-118669088D01*
X159820719Y-118526442D01*
X159448753Y-118526118D01*
X159104977Y-118668163D01*
X158841728Y-118930953D01*
X158699082Y-119274481D01*
X158698758Y-119646447D01*
X112560000Y-119646447D01*
X112560000Y-117404971D01*
X122564821Y-117404971D01*
X122722058Y-117785515D01*
X123012954Y-118076919D01*
X123393223Y-118234820D01*
X123804971Y-118235179D01*
X124185515Y-118077942D01*
X124476919Y-117787046D01*
X124634820Y-117406777D01*
X124634995Y-117204971D01*
X169964821Y-117204971D01*
X170122058Y-117585515D01*
X170412954Y-117876919D01*
X170793223Y-118034820D01*
X171204971Y-118035179D01*
X171585515Y-117877942D01*
X171876919Y-117587046D01*
X172034820Y-117206777D01*
X172035179Y-116795029D01*
X171877942Y-116414485D01*
X171587046Y-116123081D01*
X171206777Y-115965180D01*
X170795029Y-115964821D01*
X170414485Y-116122058D01*
X170123081Y-116412954D01*
X169965180Y-116793223D01*
X169964821Y-117204971D01*
X124634995Y-117204971D01*
X124635179Y-116995029D01*
X124477942Y-116614485D01*
X124187046Y-116323081D01*
X123806777Y-116165180D01*
X123395029Y-116164821D01*
X123014485Y-116322058D01*
X122723081Y-116612954D01*
X122565180Y-116993223D01*
X122564821Y-117404971D01*
X112560000Y-117404971D01*
X112560000Y-112162463D01*
X112592192Y-112130327D01*
X112734838Y-111786799D01*
X112735162Y-111414833D01*
X112593117Y-111071057D01*
X112330327Y-110807808D01*
X111986799Y-110665162D01*
X111614833Y-110664838D01*
X111271057Y-110806883D01*
X111007808Y-111069673D01*
X110865162Y-111413201D01*
X110864838Y-111785167D01*
X111006883Y-112128943D01*
X111040000Y-112162118D01*
X111040000Y-121685198D01*
X109660320Y-123064878D01*
X109614833Y-123064838D01*
X109271057Y-123206883D01*
X109007808Y-123469673D01*
X108865162Y-123813201D01*
X108864964Y-124040000D01*
X108662923Y-124040000D01*
X108593117Y-123871057D01*
X108330327Y-123607808D01*
X107986799Y-123465162D01*
X107614833Y-123464838D01*
X107271057Y-123606883D01*
X107007808Y-123869673D01*
X106960000Y-123984807D01*
X106960000Y-121562463D01*
X106992192Y-121530327D01*
X107134838Y-121186799D01*
X107135162Y-120814833D01*
X106993117Y-120471057D01*
X106730327Y-120207808D01*
X106386799Y-120065162D01*
X106014833Y-120064838D01*
X105671057Y-120206883D01*
X105407808Y-120469673D01*
X105265162Y-120813201D01*
X105264838Y-121185167D01*
X105406883Y-121528943D01*
X105440000Y-121562118D01*
X105440000Y-124885198D01*
X104460320Y-125864878D01*
X104414833Y-125864838D01*
X104071057Y-126006883D01*
X103807808Y-126269673D01*
X103665162Y-126613201D01*
X103664838Y-126985167D01*
X71247000Y-126985167D01*
X71247000Y-125804971D01*
X97164821Y-125804971D01*
X97322058Y-126185515D01*
X97612954Y-126476919D01*
X97993223Y-126634820D01*
X98404971Y-126635179D01*
X98785515Y-126477942D01*
X99076919Y-126187046D01*
X99234820Y-125806777D01*
X99235179Y-125395029D01*
X99077942Y-125014485D01*
X98787046Y-124723081D01*
X98406777Y-124565180D01*
X97995029Y-124564821D01*
X97614485Y-124722058D01*
X97323081Y-125012954D01*
X97165180Y-125393223D01*
X97164821Y-125804971D01*
X71247000Y-125804971D01*
X71247000Y-120276661D01*
X73602758Y-120276661D01*
X73814990Y-120790303D01*
X74207630Y-121183629D01*
X74720900Y-121396757D01*
X75276661Y-121397242D01*
X75790303Y-121185010D01*
X76183629Y-120792370D01*
X76396757Y-120279100D01*
X76397242Y-119723339D01*
X76185010Y-119209697D01*
X75792370Y-118816371D01*
X75279100Y-118603243D01*
X74723339Y-118602758D01*
X74209697Y-118814990D01*
X73816371Y-119207630D01*
X73603243Y-119720900D01*
X73602758Y-120276661D01*
X71247000Y-120276661D01*
X71247000Y-113573307D01*
X79394878Y-113573307D01*
X79536923Y-113917083D01*
X79570040Y-113950258D01*
X79570040Y-117082717D01*
X79537848Y-117114853D01*
X79395202Y-117458381D01*
X79394878Y-117830347D01*
X79536923Y-118174123D01*
X79799713Y-118437372D01*
X80143241Y-118580018D01*
X80515207Y-118580342D01*
X80858983Y-118438297D01*
X80942847Y-118354579D01*
X90204786Y-118354579D01*
X90392408Y-118808657D01*
X90739515Y-119156371D01*
X91193266Y-119344785D01*
X91684579Y-119345214D01*
X92138657Y-119157592D01*
X92486371Y-118810485D01*
X92674785Y-118356734D01*
X92675214Y-117865421D01*
X92487592Y-117411343D01*
X92325000Y-117248467D01*
X92325000Y-116404971D01*
X96964821Y-116404971D01*
X97122058Y-116785515D01*
X97412954Y-117076919D01*
X97793223Y-117234820D01*
X98204971Y-117235179D01*
X98585515Y-117077942D01*
X98876919Y-116787046D01*
X99034820Y-116406777D01*
X99035179Y-115995029D01*
X98877942Y-115614485D01*
X98587046Y-115323081D01*
X98206777Y-115165180D01*
X97795029Y-115164821D01*
X97414485Y-115322058D01*
X97123081Y-115612954D01*
X96965180Y-115993223D01*
X96964821Y-116404971D01*
X92325000Y-116404971D01*
X92325000Y-108887007D01*
X129717358Y-108887007D01*
X129859403Y-109230783D01*
X130122193Y-109494032D01*
X130465721Y-109636678D01*
X130512597Y-109636719D01*
X134505160Y-113629282D01*
X134505160Y-114233960D01*
X134563012Y-114524799D01*
X134727759Y-114771361D01*
X135499919Y-115543521D01*
X135746481Y-115708268D01*
X136037320Y-115766120D01*
X146634358Y-115766120D01*
X147009718Y-116141480D01*
X147009678Y-116186967D01*
X147151723Y-116530743D01*
X147414513Y-116793992D01*
X147758041Y-116936638D01*
X148130007Y-116936962D01*
X148473783Y-116794917D01*
X148737032Y-116532127D01*
X148879678Y-116188599D01*
X148880002Y-115816633D01*
X148737957Y-115472857D01*
X148475167Y-115209608D01*
X148131639Y-115066962D01*
X148084763Y-115066921D01*
X147486561Y-114468719D01*
X147239999Y-114303972D01*
X146949160Y-114246120D01*
X137450712Y-114246120D01*
X137576905Y-113942214D01*
X137577334Y-113450901D01*
X137389712Y-112996823D01*
X137227120Y-112833947D01*
X137227120Y-110116661D01*
X178602758Y-110116661D01*
X178814990Y-110630303D01*
X179207630Y-111023629D01*
X179720900Y-111236757D01*
X180276661Y-111237242D01*
X180790303Y-111025010D01*
X181183629Y-110632370D01*
X181396757Y-110119100D01*
X181397242Y-109563339D01*
X181185010Y-109049697D01*
X180792370Y-108656371D01*
X180279100Y-108443243D01*
X179723339Y-108442758D01*
X179209697Y-108654990D01*
X178816371Y-109047630D01*
X178603243Y-109560900D01*
X178602758Y-110116661D01*
X137227120Y-110116661D01*
X137227120Y-109609412D01*
X137269377Y-109591952D01*
X137617091Y-109244845D01*
X137805505Y-108791094D01*
X137805934Y-108299781D01*
X137618312Y-107845703D01*
X137271205Y-107497989D01*
X136817454Y-107309575D01*
X136326141Y-107309146D01*
X135872063Y-107496768D01*
X135524349Y-107843875D01*
X135335935Y-108297626D01*
X135335506Y-108788939D01*
X135457120Y-109083266D01*
X135457120Y-112431638D01*
X131587642Y-108562160D01*
X131587682Y-108516673D01*
X131445637Y-108172897D01*
X131182847Y-107909648D01*
X130839319Y-107767002D01*
X130467353Y-107766678D01*
X130123577Y-107908723D01*
X129860328Y-108171513D01*
X129717682Y-108515041D01*
X129717358Y-108887007D01*
X92325000Y-108887007D01*
X92325000Y-107046580D01*
X95616579Y-103755000D01*
X127408426Y-103755000D01*
X127569515Y-103916371D01*
X128023266Y-104104785D01*
X128422455Y-104105134D01*
X127949946Y-104420853D01*
X127730000Y-104750026D01*
X127510054Y-104420853D01*
X127028285Y-104098946D01*
X126460000Y-103985907D01*
X125891715Y-104098946D01*
X125409946Y-104420853D01*
X125190000Y-104750026D01*
X124970054Y-104420853D01*
X124488285Y-104098946D01*
X123920000Y-103985907D01*
X123351715Y-104098946D01*
X122869946Y-104420853D01*
X122650000Y-104750026D01*
X122430054Y-104420853D01*
X121948285Y-104098946D01*
X121380000Y-103985907D01*
X120811715Y-104098946D01*
X120329946Y-104420853D01*
X120110000Y-104750026D01*
X119890054Y-104420853D01*
X119408285Y-104098946D01*
X118840000Y-103985907D01*
X118271715Y-104098946D01*
X117789946Y-104420853D01*
X117570000Y-104750026D01*
X117350054Y-104420853D01*
X116868285Y-104098946D01*
X116300000Y-103985907D01*
X115731715Y-104098946D01*
X115249946Y-104420853D01*
X115222150Y-104462452D01*
X115213162Y-104414683D01*
X115074090Y-104198559D01*
X114861890Y-104053569D01*
X114610000Y-104002560D01*
X112910000Y-104002560D01*
X112674683Y-104046838D01*
X112458559Y-104185910D01*
X112313569Y-104398110D01*
X112262560Y-104650000D01*
X112262560Y-106350000D01*
X112306838Y-106585317D01*
X112445910Y-106801441D01*
X112658110Y-106946431D01*
X112910000Y-106997440D01*
X114610000Y-106997440D01*
X114845317Y-106953162D01*
X115061441Y-106814090D01*
X115206431Y-106601890D01*
X115220086Y-106534459D01*
X115249946Y-106579147D01*
X115731715Y-106901054D01*
X116300000Y-107014093D01*
X116868285Y-106901054D01*
X117350054Y-106579147D01*
X117570000Y-106249974D01*
X117789946Y-106579147D01*
X118271715Y-106901054D01*
X118840000Y-107014093D01*
X119408285Y-106901054D01*
X119890054Y-106579147D01*
X120110000Y-106249974D01*
X120329946Y-106579147D01*
X120811715Y-106901054D01*
X121380000Y-107014093D01*
X121948285Y-106901054D01*
X122430054Y-106579147D01*
X122650000Y-106249974D01*
X122869946Y-106579147D01*
X123351715Y-106901054D01*
X123920000Y-107014093D01*
X124488285Y-106901054D01*
X124970054Y-106579147D01*
X125190000Y-106249974D01*
X125409946Y-106579147D01*
X125891715Y-106901054D01*
X126460000Y-107014093D01*
X127028285Y-106901054D01*
X127510054Y-106579147D01*
X127730000Y-106249974D01*
X127949946Y-106579147D01*
X128431715Y-106901054D01*
X129000000Y-107014093D01*
X129568285Y-106901054D01*
X130050054Y-106579147D01*
X130270000Y-106249974D01*
X130489946Y-106579147D01*
X130971715Y-106901054D01*
X131540000Y-107014093D01*
X132108285Y-106901054D01*
X132590054Y-106579147D01*
X132817702Y-106238447D01*
X132884817Y-106381358D01*
X133313076Y-106771645D01*
X133723110Y-106941476D01*
X133953000Y-106820155D01*
X133953000Y-105627000D01*
X133933000Y-105627000D01*
X133933000Y-105373000D01*
X133953000Y-105373000D01*
X133953000Y-104179845D01*
X134207000Y-104179845D01*
X134207000Y-105373000D01*
X134227000Y-105373000D01*
X134227000Y-105627000D01*
X134207000Y-105627000D01*
X134207000Y-106820155D01*
X134436890Y-106941476D01*
X134846924Y-106771645D01*
X135275183Y-106381358D01*
X135342298Y-106238447D01*
X135569946Y-106579147D01*
X136051715Y-106901054D01*
X136620000Y-107014093D01*
X136665859Y-107004971D01*
X154764821Y-107004971D01*
X154922058Y-107385515D01*
X155212954Y-107676919D01*
X155593223Y-107834820D01*
X156004971Y-107835179D01*
X156385515Y-107677942D01*
X156676919Y-107387046D01*
X156834820Y-107006777D01*
X156835179Y-106595029D01*
X156677942Y-106214485D01*
X156387046Y-105923081D01*
X156006777Y-105765180D01*
X155595029Y-105764821D01*
X155214485Y-105922058D01*
X154923081Y-106212954D01*
X154765180Y-106593223D01*
X154764821Y-107004971D01*
X136665859Y-107004971D01*
X137188285Y-106901054D01*
X137670054Y-106579147D01*
X137991961Y-106097378D01*
X138105000Y-105529093D01*
X138105000Y-105470907D01*
X137991961Y-104902622D01*
X137670054Y-104420853D01*
X137188285Y-104098946D01*
X136620000Y-103985907D01*
X136051715Y-104098946D01*
X135569946Y-104420853D01*
X135342298Y-104761553D01*
X135275183Y-104618642D01*
X134846924Y-104228355D01*
X134436890Y-104058524D01*
X134207000Y-104179845D01*
X133953000Y-104179845D01*
X133723110Y-104058524D01*
X133313076Y-104228355D01*
X132884817Y-104618642D01*
X132817702Y-104761553D01*
X132590054Y-104420853D01*
X132108285Y-104098946D01*
X131540000Y-103985907D01*
X130971715Y-104098946D01*
X130489946Y-104420853D01*
X130270000Y-104750026D01*
X130050054Y-104420853D01*
X129568285Y-104098946D01*
X129000000Y-103985907D01*
X128620751Y-104061344D01*
X128968657Y-103917592D01*
X129316371Y-103570485D01*
X129504785Y-103116734D01*
X129505214Y-102625421D01*
X129317592Y-102171343D01*
X128970485Y-101823629D01*
X128516734Y-101635215D01*
X128025421Y-101634786D01*
X127571343Y-101822408D01*
X127408467Y-101985000D01*
X95250005Y-101985000D01*
X95250000Y-101984999D01*
X94967516Y-102041190D01*
X94911325Y-102052367D01*
X94624210Y-102244210D01*
X94624208Y-102244213D01*
X90814210Y-106054210D01*
X90622367Y-106341325D01*
X90614404Y-106381358D01*
X90554999Y-106680000D01*
X90555000Y-106680005D01*
X90555000Y-117248426D01*
X90393629Y-117409515D01*
X90205215Y-117863266D01*
X90204786Y-118354579D01*
X80942847Y-118354579D01*
X81122232Y-118175507D01*
X81264878Y-117831979D01*
X81265202Y-117460013D01*
X81123157Y-117116237D01*
X81090040Y-117083062D01*
X81090040Y-113950603D01*
X81122232Y-113918467D01*
X81264878Y-113574939D01*
X81265202Y-113202973D01*
X81123157Y-112859197D01*
X80860367Y-112595948D01*
X80516839Y-112453302D01*
X80144873Y-112452978D01*
X79801097Y-112595023D01*
X79537848Y-112857813D01*
X79395202Y-113201341D01*
X79394878Y-113573307D01*
X71247000Y-113573307D01*
X71247000Y-110820213D01*
X74199392Y-110820213D01*
X74268857Y-111062397D01*
X74792302Y-111249144D01*
X75347368Y-111221362D01*
X75731143Y-111062397D01*
X75800608Y-110820213D01*
X75000000Y-110019605D01*
X74199392Y-110820213D01*
X71247000Y-110820213D01*
X71247000Y-109632302D01*
X73590856Y-109632302D01*
X73618638Y-110187368D01*
X73777603Y-110571143D01*
X74019787Y-110640608D01*
X74820395Y-109840000D01*
X75179605Y-109840000D01*
X75980213Y-110640608D01*
X76222397Y-110571143D01*
X76409144Y-110047698D01*
X76381362Y-109492632D01*
X76222397Y-109108857D01*
X75980213Y-109039392D01*
X75179605Y-109840000D01*
X74820395Y-109840000D01*
X74019787Y-109039392D01*
X73777603Y-109108857D01*
X73590856Y-109632302D01*
X71247000Y-109632302D01*
X71247000Y-108859787D01*
X74199392Y-108859787D01*
X75000000Y-109660395D01*
X75800608Y-108859787D01*
X75731143Y-108617603D01*
X75207698Y-108430856D01*
X74652632Y-108458638D01*
X74268857Y-108617603D01*
X74199392Y-108859787D01*
X71247000Y-108859787D01*
X71247000Y-102204971D01*
X85964821Y-102204971D01*
X86122058Y-102585515D01*
X86412954Y-102876919D01*
X86793223Y-103034820D01*
X87204971Y-103035179D01*
X87585515Y-102877942D01*
X87876919Y-102587046D01*
X88034820Y-102206777D01*
X88034821Y-102204971D01*
X91964821Y-102204971D01*
X92122058Y-102585515D01*
X92412954Y-102876919D01*
X92793223Y-103034820D01*
X93204971Y-103035179D01*
X93585515Y-102877942D01*
X93876919Y-102587046D01*
X94034820Y-102206777D01*
X94035179Y-101795029D01*
X93877942Y-101414485D01*
X93587046Y-101123081D01*
X93206777Y-100965180D01*
X92795029Y-100964821D01*
X92414485Y-101122058D01*
X92123081Y-101412954D01*
X91965180Y-101793223D01*
X91964821Y-102204971D01*
X88034821Y-102204971D01*
X88035179Y-101795029D01*
X87877942Y-101414485D01*
X87587046Y-101123081D01*
X87206777Y-100965180D01*
X86795029Y-100964821D01*
X86414485Y-101122058D01*
X86123081Y-101412954D01*
X85965180Y-101793223D01*
X85964821Y-102204971D01*
X71247000Y-102204971D01*
X71247000Y-99604971D01*
X141364821Y-99604971D01*
X141522058Y-99985515D01*
X141812954Y-100276919D01*
X142193223Y-100434820D01*
X142604971Y-100435179D01*
X142985515Y-100277942D01*
X143276919Y-99987046D01*
X143434820Y-99606777D01*
X143435179Y-99195029D01*
X143277942Y-98814485D01*
X142987046Y-98523081D01*
X142606777Y-98365180D01*
X142195029Y-98364821D01*
X141814485Y-98522058D01*
X141523081Y-98812954D01*
X141365180Y-99193223D01*
X141364821Y-99604971D01*
X71247000Y-99604971D01*
X71247000Y-98404971D01*
X114764821Y-98404971D01*
X114922058Y-98785515D01*
X115212954Y-99076919D01*
X115593223Y-99234820D01*
X116004971Y-99235179D01*
X116385515Y-99077942D01*
X116676919Y-98787046D01*
X116834820Y-98406777D01*
X116835179Y-97995029D01*
X116677942Y-97614485D01*
X116387046Y-97323081D01*
X116102605Y-97204971D01*
X162964821Y-97204971D01*
X163122058Y-97585515D01*
X163412954Y-97876919D01*
X163793223Y-98034820D01*
X164204971Y-98035179D01*
X164585515Y-97877942D01*
X164876919Y-97587046D01*
X165034820Y-97206777D01*
X165035179Y-96795029D01*
X164877942Y-96414485D01*
X164587046Y-96123081D01*
X164206777Y-95965180D01*
X163795029Y-95964821D01*
X163414485Y-96122058D01*
X163123081Y-96412954D01*
X162965180Y-96793223D01*
X162964821Y-97204971D01*
X116102605Y-97204971D01*
X116006777Y-97165180D01*
X115595029Y-97164821D01*
X115214485Y-97322058D01*
X114923081Y-97612954D01*
X114765180Y-97993223D01*
X114764821Y-98404971D01*
X71247000Y-98404971D01*
X71247000Y-97404971D01*
X85964821Y-97404971D01*
X86122058Y-97785515D01*
X86412954Y-98076919D01*
X86793223Y-98234820D01*
X87204971Y-98235179D01*
X87585515Y-98077942D01*
X87876919Y-97787046D01*
X88034820Y-97406777D01*
X88035179Y-96995029D01*
X87877942Y-96614485D01*
X87587046Y-96323081D01*
X87206777Y-96165180D01*
X86795029Y-96164821D01*
X86414485Y-96322058D01*
X86123081Y-96612954D01*
X85965180Y-96993223D01*
X85964821Y-97404971D01*
X71247000Y-97404971D01*
X71247000Y-95472325D01*
X72614587Y-95472325D01*
X72976916Y-96349229D01*
X73647242Y-97020726D01*
X74523513Y-97384585D01*
X75472325Y-97385413D01*
X76349229Y-97023084D01*
X77020726Y-96352758D01*
X77384585Y-95476487D01*
X77384588Y-95472325D01*
X177614587Y-95472325D01*
X177976916Y-96349229D01*
X178647242Y-97020726D01*
X179523513Y-97384585D01*
X180472325Y-97385413D01*
X181349229Y-97023084D01*
X182020726Y-96352758D01*
X182384585Y-95476487D01*
X182385413Y-94527675D01*
X182023084Y-93650771D01*
X181352758Y-92979274D01*
X180476487Y-92615415D01*
X179527675Y-92614587D01*
X178650771Y-92976916D01*
X177979274Y-93647242D01*
X177615415Y-94523513D01*
X177614587Y-95472325D01*
X77384588Y-95472325D01*
X77385413Y-94527675D01*
X77023084Y-93650771D01*
X76352758Y-92979274D01*
X75476487Y-92615415D01*
X74527675Y-92614587D01*
X73650771Y-92976916D01*
X72979274Y-93647242D01*
X72615415Y-94523513D01*
X72614587Y-95472325D01*
X71247000Y-95472325D01*
X71247000Y-91567000D01*
X184023000Y-91567000D01*
X184023000Y-139315000D01*
X184023000Y-139315000D01*
G37*
X184023000Y-139315000D02*
X71247000Y-139315000D01*
X71247000Y-135472325D01*
X72614587Y-135472325D01*
X72976916Y-136349229D01*
X73647242Y-137020726D01*
X74523513Y-137384585D01*
X75472325Y-137385413D01*
X76349229Y-137023084D01*
X77020726Y-136352758D01*
X77384585Y-135476487D01*
X77384588Y-135472325D01*
X177614587Y-135472325D01*
X177976916Y-136349229D01*
X178647242Y-137020726D01*
X179523513Y-137384585D01*
X180472325Y-137385413D01*
X181349229Y-137023084D01*
X182020726Y-136352758D01*
X182384585Y-135476487D01*
X182385413Y-134527675D01*
X182023084Y-133650771D01*
X181352758Y-132979274D01*
X180476487Y-132615415D01*
X179527675Y-132614587D01*
X178650771Y-132976916D01*
X177979274Y-133647242D01*
X177615415Y-134523513D01*
X177614587Y-135472325D01*
X77384588Y-135472325D01*
X77385413Y-134527675D01*
X77023084Y-133650771D01*
X76352758Y-132979274D01*
X75476487Y-132615415D01*
X74527675Y-132614587D01*
X73650771Y-132976916D01*
X72979274Y-133647242D01*
X72615415Y-134523513D01*
X72614587Y-135472325D01*
X71247000Y-135472325D01*
X71247000Y-131604971D01*
X85164821Y-131604971D01*
X85322058Y-131985515D01*
X85612954Y-132276919D01*
X85993223Y-132434820D01*
X86404971Y-132435179D01*
X86785515Y-132277942D01*
X87058962Y-132004971D01*
X113164821Y-132004971D01*
X113322058Y-132385515D01*
X113612954Y-132676919D01*
X113993223Y-132834820D01*
X114404971Y-132835179D01*
X114785515Y-132677942D01*
X115076919Y-132387046D01*
X115234820Y-132006777D01*
X115235179Y-131595029D01*
X115077942Y-131214485D01*
X114787046Y-130923081D01*
X114406777Y-130765180D01*
X113995029Y-130764821D01*
X113614485Y-130922058D01*
X113323081Y-131212954D01*
X113165180Y-131593223D01*
X113164821Y-132004971D01*
X87058962Y-132004971D01*
X87076919Y-131987046D01*
X87234820Y-131606777D01*
X87235179Y-131195029D01*
X87077942Y-130814485D01*
X86787046Y-130523081D01*
X86406777Y-130365180D01*
X85995029Y-130364821D01*
X85614485Y-130522058D01*
X85323081Y-130812954D01*
X85165180Y-131193223D01*
X85164821Y-131604971D01*
X71247000Y-131604971D01*
X71247000Y-129604971D01*
X103964821Y-129604971D01*
X104122058Y-129985515D01*
X104412954Y-130276919D01*
X104793223Y-130434820D01*
X105204971Y-130435179D01*
X105585515Y-130277942D01*
X105876919Y-129987046D01*
X106034820Y-129606777D01*
X106034995Y-129404971D01*
X166564821Y-129404971D01*
X166722058Y-129785515D01*
X167012954Y-130076919D01*
X167393223Y-130234820D01*
X167804971Y-130235179D01*
X168185515Y-130077942D01*
X168476919Y-129787046D01*
X168634820Y-129406777D01*
X168635179Y-128995029D01*
X168477942Y-128614485D01*
X168187046Y-128323081D01*
X167806777Y-128165180D01*
X167395029Y-128164821D01*
X167014485Y-128322058D01*
X166723081Y-128612954D01*
X166565180Y-128993223D01*
X166564821Y-129404971D01*
X106034995Y-129404971D01*
X106035179Y-129195029D01*
X105877942Y-128814485D01*
X105587046Y-128523081D01*
X105206777Y-128365180D01*
X104795029Y-128364821D01*
X104414485Y-128522058D01*
X104123081Y-128812954D01*
X103965180Y-129193223D01*
X103964821Y-129604971D01*
X71247000Y-129604971D01*
X71247000Y-126985167D01*
X103664838Y-126985167D01*
X103806883Y-127328943D01*
X104069673Y-127592192D01*
X104413201Y-127734838D01*
X104785167Y-127735162D01*
X105128943Y-127593117D01*
X105392192Y-127330327D01*
X105534838Y-126986799D01*
X105534879Y-126939923D01*
X106469831Y-126004971D01*
X137764821Y-126004971D01*
X137922058Y-126385515D01*
X138212954Y-126676919D01*
X138593223Y-126834820D01*
X139004971Y-126835179D01*
X139385515Y-126677942D01*
X139676919Y-126387046D01*
X139834820Y-126006777D01*
X139835179Y-125595029D01*
X139677942Y-125214485D01*
X139387046Y-124923081D01*
X139006777Y-124765180D01*
X138595029Y-124764821D01*
X138214485Y-124922058D01*
X137923081Y-125212954D01*
X137765180Y-125593223D01*
X137764821Y-126004971D01*
X106469831Y-126004971D01*
X106737401Y-125737401D01*
X106902148Y-125490839D01*
X106960000Y-125200000D01*
X106960000Y-124815477D01*
X107006883Y-124928943D01*
X107269673Y-125192192D01*
X107613201Y-125334838D01*
X107660077Y-125334879D01*
X107662599Y-125337401D01*
X107909160Y-125502148D01*
X107957414Y-125511746D01*
X108200000Y-125560000D01*
X122237537Y-125560000D01*
X122269673Y-125592192D01*
X122613201Y-125734838D01*
X122985167Y-125735162D01*
X123328943Y-125593117D01*
X123592192Y-125330327D01*
X123734838Y-124986799D01*
X123735162Y-124614833D01*
X123593117Y-124271057D01*
X123330327Y-124007808D01*
X122986799Y-123865162D01*
X122614833Y-123864838D01*
X122271057Y-124006883D01*
X122237882Y-124040000D01*
X110834802Y-124040000D01*
X112069831Y-122804971D01*
X116564821Y-122804971D01*
X116722058Y-123185515D01*
X117012954Y-123476919D01*
X117393223Y-123634820D01*
X117804971Y-123635179D01*
X118185515Y-123477942D01*
X118476919Y-123187046D01*
X118634820Y-122806777D01*
X118635179Y-122395029D01*
X118477942Y-122014485D01*
X118187046Y-121723081D01*
X117806777Y-121565180D01*
X117395029Y-121564821D01*
X117014485Y-121722058D01*
X116723081Y-122012954D01*
X116565180Y-122393223D01*
X116564821Y-122804971D01*
X112069831Y-122804971D01*
X112337401Y-122537401D01*
X112502148Y-122290839D01*
X112560000Y-122000000D01*
X112560000Y-119646447D01*
X158698758Y-119646447D01*
X158840803Y-119990223D01*
X158873920Y-120023398D01*
X158873920Y-123833085D01*
X158851482Y-123887121D01*
X158851158Y-124259087D01*
X158993203Y-124602863D01*
X159255993Y-124866112D01*
X159599521Y-125008758D01*
X159971487Y-125009082D01*
X160315263Y-124867037D01*
X160578512Y-124604247D01*
X160721158Y-124260719D01*
X160721482Y-123888753D01*
X160579437Y-123544977D01*
X160393920Y-123359136D01*
X160393920Y-120276661D01*
X178602758Y-120276661D01*
X178814990Y-120790303D01*
X179207630Y-121183629D01*
X179720900Y-121396757D01*
X180276661Y-121397242D01*
X180790303Y-121185010D01*
X181183629Y-120792370D01*
X181396757Y-120279100D01*
X181397242Y-119723339D01*
X181185010Y-119209697D01*
X180792370Y-118816371D01*
X180279100Y-118603243D01*
X179723339Y-118602758D01*
X179209697Y-118814990D01*
X178816371Y-119207630D01*
X178603243Y-119720900D01*
X178602758Y-120276661D01*
X160393920Y-120276661D01*
X160393920Y-120023743D01*
X160426112Y-119991607D01*
X160568758Y-119648079D01*
X160569082Y-119276113D01*
X160427037Y-118932337D01*
X160164247Y-118669088D01*
X159820719Y-118526442D01*
X159448753Y-118526118D01*
X159104977Y-118668163D01*
X158841728Y-118930953D01*
X158699082Y-119274481D01*
X158698758Y-119646447D01*
X112560000Y-119646447D01*
X112560000Y-117404971D01*
X122564821Y-117404971D01*
X122722058Y-117785515D01*
X123012954Y-118076919D01*
X123393223Y-118234820D01*
X123804971Y-118235179D01*
X124185515Y-118077942D01*
X124476919Y-117787046D01*
X124634820Y-117406777D01*
X124634995Y-117204971D01*
X169964821Y-117204971D01*
X170122058Y-117585515D01*
X170412954Y-117876919D01*
X170793223Y-118034820D01*
X171204971Y-118035179D01*
X171585515Y-117877942D01*
X171876919Y-117587046D01*
X172034820Y-117206777D01*
X172035179Y-116795029D01*
X171877942Y-116414485D01*
X171587046Y-116123081D01*
X171206777Y-115965180D01*
X170795029Y-115964821D01*
X170414485Y-116122058D01*
X170123081Y-116412954D01*
X169965180Y-116793223D01*
X169964821Y-117204971D01*
X124634995Y-117204971D01*
X124635179Y-116995029D01*
X124477942Y-116614485D01*
X124187046Y-116323081D01*
X123806777Y-116165180D01*
X123395029Y-116164821D01*
X123014485Y-116322058D01*
X122723081Y-116612954D01*
X122565180Y-116993223D01*
X122564821Y-117404971D01*
X112560000Y-117404971D01*
X112560000Y-112162463D01*
X112592192Y-112130327D01*
X112734838Y-111786799D01*
X112735162Y-111414833D01*
X112593117Y-111071057D01*
X112330327Y-110807808D01*
X111986799Y-110665162D01*
X111614833Y-110664838D01*
X111271057Y-110806883D01*
X111007808Y-111069673D01*
X110865162Y-111413201D01*
X110864838Y-111785167D01*
X111006883Y-112128943D01*
X111040000Y-112162118D01*
X111040000Y-121685198D01*
X109660320Y-123064878D01*
X109614833Y-123064838D01*
X109271057Y-123206883D01*
X109007808Y-123469673D01*
X108865162Y-123813201D01*
X108864964Y-124040000D01*
X108662923Y-124040000D01*
X108593117Y-123871057D01*
X108330327Y-123607808D01*
X107986799Y-123465162D01*
X107614833Y-123464838D01*
X107271057Y-123606883D01*
X107007808Y-123869673D01*
X106960000Y-123984807D01*
X106960000Y-121562463D01*
X106992192Y-121530327D01*
X107134838Y-121186799D01*
X107135162Y-120814833D01*
X106993117Y-120471057D01*
X106730327Y-120207808D01*
X106386799Y-120065162D01*
X106014833Y-120064838D01*
X105671057Y-120206883D01*
X105407808Y-120469673D01*
X105265162Y-120813201D01*
X105264838Y-121185167D01*
X105406883Y-121528943D01*
X105440000Y-121562118D01*
X105440000Y-124885198D01*
X104460320Y-125864878D01*
X104414833Y-125864838D01*
X104071057Y-126006883D01*
X103807808Y-126269673D01*
X103665162Y-126613201D01*
X103664838Y-126985167D01*
X71247000Y-126985167D01*
X71247000Y-125804971D01*
X97164821Y-125804971D01*
X97322058Y-126185515D01*
X97612954Y-126476919D01*
X97993223Y-126634820D01*
X98404971Y-126635179D01*
X98785515Y-126477942D01*
X99076919Y-126187046D01*
X99234820Y-125806777D01*
X99235179Y-125395029D01*
X99077942Y-125014485D01*
X98787046Y-124723081D01*
X98406777Y-124565180D01*
X97995029Y-124564821D01*
X97614485Y-124722058D01*
X97323081Y-125012954D01*
X97165180Y-125393223D01*
X97164821Y-125804971D01*
X71247000Y-125804971D01*
X71247000Y-120276661D01*
X73602758Y-120276661D01*
X73814990Y-120790303D01*
X74207630Y-121183629D01*
X74720900Y-121396757D01*
X75276661Y-121397242D01*
X75790303Y-121185010D01*
X76183629Y-120792370D01*
X76396757Y-120279100D01*
X76397242Y-119723339D01*
X76185010Y-119209697D01*
X75792370Y-118816371D01*
X75279100Y-118603243D01*
X74723339Y-118602758D01*
X74209697Y-118814990D01*
X73816371Y-119207630D01*
X73603243Y-119720900D01*
X73602758Y-120276661D01*
X71247000Y-120276661D01*
X71247000Y-113573307D01*
X79394878Y-113573307D01*
X79536923Y-113917083D01*
X79570040Y-113950258D01*
X79570040Y-117082717D01*
X79537848Y-117114853D01*
X79395202Y-117458381D01*
X79394878Y-117830347D01*
X79536923Y-118174123D01*
X79799713Y-118437372D01*
X80143241Y-118580018D01*
X80515207Y-118580342D01*
X80858983Y-118438297D01*
X80942847Y-118354579D01*
X90204786Y-118354579D01*
X90392408Y-118808657D01*
X90739515Y-119156371D01*
X91193266Y-119344785D01*
X91684579Y-119345214D01*
X92138657Y-119157592D01*
X92486371Y-118810485D01*
X92674785Y-118356734D01*
X92675214Y-117865421D01*
X92487592Y-117411343D01*
X92325000Y-117248467D01*
X92325000Y-116404971D01*
X96964821Y-116404971D01*
X97122058Y-116785515D01*
X97412954Y-117076919D01*
X97793223Y-117234820D01*
X98204971Y-117235179D01*
X98585515Y-117077942D01*
X98876919Y-116787046D01*
X99034820Y-116406777D01*
X99035179Y-115995029D01*
X98877942Y-115614485D01*
X98587046Y-115323081D01*
X98206777Y-115165180D01*
X97795029Y-115164821D01*
X97414485Y-115322058D01*
X97123081Y-115612954D01*
X96965180Y-115993223D01*
X96964821Y-116404971D01*
X92325000Y-116404971D01*
X92325000Y-108887007D01*
X129717358Y-108887007D01*
X129859403Y-109230783D01*
X130122193Y-109494032D01*
X130465721Y-109636678D01*
X130512597Y-109636719D01*
X134505160Y-113629282D01*
X134505160Y-114233960D01*
X134563012Y-114524799D01*
X134727759Y-114771361D01*
X135499919Y-115543521D01*
X135746481Y-115708268D01*
X136037320Y-115766120D01*
X146634358Y-115766120D01*
X147009718Y-116141480D01*
X147009678Y-116186967D01*
X147151723Y-116530743D01*
X147414513Y-116793992D01*
X147758041Y-116936638D01*
X148130007Y-116936962D01*
X148473783Y-116794917D01*
X148737032Y-116532127D01*
X148879678Y-116188599D01*
X148880002Y-115816633D01*
X148737957Y-115472857D01*
X148475167Y-115209608D01*
X148131639Y-115066962D01*
X148084763Y-115066921D01*
X147486561Y-114468719D01*
X147239999Y-114303972D01*
X146949160Y-114246120D01*
X137450712Y-114246120D01*
X137576905Y-113942214D01*
X137577334Y-113450901D01*
X137389712Y-112996823D01*
X137227120Y-112833947D01*
X137227120Y-110116661D01*
X178602758Y-110116661D01*
X178814990Y-110630303D01*
X179207630Y-111023629D01*
X179720900Y-111236757D01*
X180276661Y-111237242D01*
X180790303Y-111025010D01*
X181183629Y-110632370D01*
X181396757Y-110119100D01*
X181397242Y-109563339D01*
X181185010Y-109049697D01*
X180792370Y-108656371D01*
X180279100Y-108443243D01*
X179723339Y-108442758D01*
X179209697Y-108654990D01*
X178816371Y-109047630D01*
X178603243Y-109560900D01*
X178602758Y-110116661D01*
X137227120Y-110116661D01*
X137227120Y-109609412D01*
X137269377Y-109591952D01*
X137617091Y-109244845D01*
X137805505Y-108791094D01*
X137805934Y-108299781D01*
X137618312Y-107845703D01*
X137271205Y-107497989D01*
X136817454Y-107309575D01*
X136326141Y-107309146D01*
X135872063Y-107496768D01*
X135524349Y-107843875D01*
X135335935Y-108297626D01*
X135335506Y-108788939D01*
X135457120Y-109083266D01*
X135457120Y-112431638D01*
X131587642Y-108562160D01*
X131587682Y-108516673D01*
X131445637Y-108172897D01*
X131182847Y-107909648D01*
X130839319Y-107767002D01*
X130467353Y-107766678D01*
X130123577Y-107908723D01*
X129860328Y-108171513D01*
X129717682Y-108515041D01*
X129717358Y-108887007D01*
X92325000Y-108887007D01*
X92325000Y-107046580D01*
X95616579Y-103755000D01*
X127408426Y-103755000D01*
X127569515Y-103916371D01*
X128023266Y-104104785D01*
X128422455Y-104105134D01*
X127949946Y-104420853D01*
X127730000Y-104750026D01*
X127510054Y-104420853D01*
X127028285Y-104098946D01*
X126460000Y-103985907D01*
X125891715Y-104098946D01*
X125409946Y-104420853D01*
X125190000Y-104750026D01*
X124970054Y-104420853D01*
X124488285Y-104098946D01*
X123920000Y-103985907D01*
X123351715Y-104098946D01*
X122869946Y-104420853D01*
X122650000Y-104750026D01*
X122430054Y-104420853D01*
X121948285Y-104098946D01*
X121380000Y-103985907D01*
X120811715Y-104098946D01*
X120329946Y-104420853D01*
X120110000Y-104750026D01*
X119890054Y-104420853D01*
X119408285Y-104098946D01*
X118840000Y-103985907D01*
X118271715Y-104098946D01*
X117789946Y-104420853D01*
X117570000Y-104750026D01*
X117350054Y-104420853D01*
X116868285Y-104098946D01*
X116300000Y-103985907D01*
X115731715Y-104098946D01*
X115249946Y-104420853D01*
X115222150Y-104462452D01*
X115213162Y-104414683D01*
X115074090Y-104198559D01*
X114861890Y-104053569D01*
X114610000Y-104002560D01*
X112910000Y-104002560D01*
X112674683Y-104046838D01*
X112458559Y-104185910D01*
X112313569Y-104398110D01*
X112262560Y-104650000D01*
X112262560Y-106350000D01*
X112306838Y-106585317D01*
X112445910Y-106801441D01*
X112658110Y-106946431D01*
X112910000Y-106997440D01*
X114610000Y-106997440D01*
X114845317Y-106953162D01*
X115061441Y-106814090D01*
X115206431Y-106601890D01*
X115220086Y-106534459D01*
X115249946Y-106579147D01*
X115731715Y-106901054D01*
X116300000Y-107014093D01*
X116868285Y-106901054D01*
X117350054Y-106579147D01*
X117570000Y-106249974D01*
X117789946Y-106579147D01*
X118271715Y-106901054D01*
X118840000Y-107014093D01*
X119408285Y-106901054D01*
X119890054Y-106579147D01*
X120110000Y-106249974D01*
X120329946Y-106579147D01*
X120811715Y-106901054D01*
X121380000Y-107014093D01*
X121948285Y-106901054D01*
X122430054Y-106579147D01*
X122650000Y-106249974D01*
X122869946Y-106579147D01*
X123351715Y-106901054D01*
X123920000Y-107014093D01*
X124488285Y-106901054D01*
X124970054Y-106579147D01*
X125190000Y-106249974D01*
X125409946Y-106579147D01*
X125891715Y-106901054D01*
X126460000Y-107014093D01*
X127028285Y-106901054D01*
X127510054Y-106579147D01*
X127730000Y-106249974D01*
X127949946Y-106579147D01*
X128431715Y-106901054D01*
X129000000Y-107014093D01*
X129568285Y-106901054D01*
X130050054Y-106579147D01*
X130270000Y-106249974D01*
X130489946Y-106579147D01*
X130971715Y-106901054D01*
X131540000Y-107014093D01*
X132108285Y-106901054D01*
X132590054Y-106579147D01*
X132817702Y-106238447D01*
X132884817Y-106381358D01*
X133313076Y-106771645D01*
X133723110Y-106941476D01*
X133953000Y-106820155D01*
X133953000Y-105627000D01*
X133933000Y-105627000D01*
X133933000Y-105373000D01*
X133953000Y-105373000D01*
X133953000Y-104179845D01*
X134207000Y-104179845D01*
X134207000Y-105373000D01*
X134227000Y-105373000D01*
X134227000Y-105627000D01*
X134207000Y-105627000D01*
X134207000Y-106820155D01*
X134436890Y-106941476D01*
X134846924Y-106771645D01*
X135275183Y-106381358D01*
X135342298Y-106238447D01*
X135569946Y-106579147D01*
X136051715Y-106901054D01*
X136620000Y-107014093D01*
X136665859Y-107004971D01*
X154764821Y-107004971D01*
X154922058Y-107385515D01*
X155212954Y-107676919D01*
X155593223Y-107834820D01*
X156004971Y-107835179D01*
X156385515Y-107677942D01*
X156676919Y-107387046D01*
X156834820Y-107006777D01*
X156835179Y-106595029D01*
X156677942Y-106214485D01*
X156387046Y-105923081D01*
X156006777Y-105765180D01*
X155595029Y-105764821D01*
X155214485Y-105922058D01*
X154923081Y-106212954D01*
X154765180Y-106593223D01*
X154764821Y-107004971D01*
X136665859Y-107004971D01*
X137188285Y-106901054D01*
X137670054Y-106579147D01*
X137991961Y-106097378D01*
X138105000Y-105529093D01*
X138105000Y-105470907D01*
X137991961Y-104902622D01*
X137670054Y-104420853D01*
X137188285Y-104098946D01*
X136620000Y-103985907D01*
X136051715Y-104098946D01*
X135569946Y-104420853D01*
X135342298Y-104761553D01*
X135275183Y-104618642D01*
X134846924Y-104228355D01*
X134436890Y-104058524D01*
X134207000Y-104179845D01*
X133953000Y-104179845D01*
X133723110Y-104058524D01*
X133313076Y-104228355D01*
X132884817Y-104618642D01*
X132817702Y-104761553D01*
X132590054Y-104420853D01*
X132108285Y-104098946D01*
X131540000Y-103985907D01*
X130971715Y-104098946D01*
X130489946Y-104420853D01*
X130270000Y-104750026D01*
X130050054Y-104420853D01*
X129568285Y-104098946D01*
X129000000Y-103985907D01*
X128620751Y-104061344D01*
X128968657Y-103917592D01*
X129316371Y-103570485D01*
X129504785Y-103116734D01*
X129505214Y-102625421D01*
X129317592Y-102171343D01*
X128970485Y-101823629D01*
X128516734Y-101635215D01*
X128025421Y-101634786D01*
X127571343Y-101822408D01*
X127408467Y-101985000D01*
X95250005Y-101985000D01*
X95250000Y-101984999D01*
X94967516Y-102041190D01*
X94911325Y-102052367D01*
X94624210Y-102244210D01*
X94624208Y-102244213D01*
X90814210Y-106054210D01*
X90622367Y-106341325D01*
X90614404Y-106381358D01*
X90554999Y-106680000D01*
X90555000Y-106680005D01*
X90555000Y-117248426D01*
X90393629Y-117409515D01*
X90205215Y-117863266D01*
X90204786Y-118354579D01*
X80942847Y-118354579D01*
X81122232Y-118175507D01*
X81264878Y-117831979D01*
X81265202Y-117460013D01*
X81123157Y-117116237D01*
X81090040Y-117083062D01*
X81090040Y-113950603D01*
X81122232Y-113918467D01*
X81264878Y-113574939D01*
X81265202Y-113202973D01*
X81123157Y-112859197D01*
X80860367Y-112595948D01*
X80516839Y-112453302D01*
X80144873Y-112452978D01*
X79801097Y-112595023D01*
X79537848Y-112857813D01*
X79395202Y-113201341D01*
X79394878Y-113573307D01*
X71247000Y-113573307D01*
X71247000Y-110820213D01*
X74199392Y-110820213D01*
X74268857Y-111062397D01*
X74792302Y-111249144D01*
X75347368Y-111221362D01*
X75731143Y-111062397D01*
X75800608Y-110820213D01*
X75000000Y-110019605D01*
X74199392Y-110820213D01*
X71247000Y-110820213D01*
X71247000Y-109632302D01*
X73590856Y-109632302D01*
X73618638Y-110187368D01*
X73777603Y-110571143D01*
X74019787Y-110640608D01*
X74820395Y-109840000D01*
X75179605Y-109840000D01*
X75980213Y-110640608D01*
X76222397Y-110571143D01*
X76409144Y-110047698D01*
X76381362Y-109492632D01*
X76222397Y-109108857D01*
X75980213Y-109039392D01*
X75179605Y-109840000D01*
X74820395Y-109840000D01*
X74019787Y-109039392D01*
X73777603Y-109108857D01*
X73590856Y-109632302D01*
X71247000Y-109632302D01*
X71247000Y-108859787D01*
X74199392Y-108859787D01*
X75000000Y-109660395D01*
X75800608Y-108859787D01*
X75731143Y-108617603D01*
X75207698Y-108430856D01*
X74652632Y-108458638D01*
X74268857Y-108617603D01*
X74199392Y-108859787D01*
X71247000Y-108859787D01*
X71247000Y-102204971D01*
X85964821Y-102204971D01*
X86122058Y-102585515D01*
X86412954Y-102876919D01*
X86793223Y-103034820D01*
X87204971Y-103035179D01*
X87585515Y-102877942D01*
X87876919Y-102587046D01*
X88034820Y-102206777D01*
X88034821Y-102204971D01*
X91964821Y-102204971D01*
X92122058Y-102585515D01*
X92412954Y-102876919D01*
X92793223Y-103034820D01*
X93204971Y-103035179D01*
X93585515Y-102877942D01*
X93876919Y-102587046D01*
X94034820Y-102206777D01*
X94035179Y-101795029D01*
X93877942Y-101414485D01*
X93587046Y-101123081D01*
X93206777Y-100965180D01*
X92795029Y-100964821D01*
X92414485Y-101122058D01*
X92123081Y-101412954D01*
X91965180Y-101793223D01*
X91964821Y-102204971D01*
X88034821Y-102204971D01*
X88035179Y-101795029D01*
X87877942Y-101414485D01*
X87587046Y-101123081D01*
X87206777Y-100965180D01*
X86795029Y-100964821D01*
X86414485Y-101122058D01*
X86123081Y-101412954D01*
X85965180Y-101793223D01*
X85964821Y-102204971D01*
X71247000Y-102204971D01*
X71247000Y-99604971D01*
X141364821Y-99604971D01*
X141522058Y-99985515D01*
X141812954Y-100276919D01*
X142193223Y-100434820D01*
X142604971Y-100435179D01*
X142985515Y-100277942D01*
X143276919Y-99987046D01*
X143434820Y-99606777D01*
X143435179Y-99195029D01*
X143277942Y-98814485D01*
X142987046Y-98523081D01*
X142606777Y-98365180D01*
X142195029Y-98364821D01*
X141814485Y-98522058D01*
X141523081Y-98812954D01*
X141365180Y-99193223D01*
X141364821Y-99604971D01*
X71247000Y-99604971D01*
X71247000Y-98404971D01*
X114764821Y-98404971D01*
X114922058Y-98785515D01*
X115212954Y-99076919D01*
X115593223Y-99234820D01*
X116004971Y-99235179D01*
X116385515Y-99077942D01*
X116676919Y-98787046D01*
X116834820Y-98406777D01*
X116835179Y-97995029D01*
X116677942Y-97614485D01*
X116387046Y-97323081D01*
X116102605Y-97204971D01*
X162964821Y-97204971D01*
X163122058Y-97585515D01*
X163412954Y-97876919D01*
X163793223Y-98034820D01*
X164204971Y-98035179D01*
X164585515Y-97877942D01*
X164876919Y-97587046D01*
X165034820Y-97206777D01*
X165035179Y-96795029D01*
X164877942Y-96414485D01*
X164587046Y-96123081D01*
X164206777Y-95965180D01*
X163795029Y-95964821D01*
X163414485Y-96122058D01*
X163123081Y-96412954D01*
X162965180Y-96793223D01*
X162964821Y-97204971D01*
X116102605Y-97204971D01*
X116006777Y-97165180D01*
X115595029Y-97164821D01*
X115214485Y-97322058D01*
X114923081Y-97612954D01*
X114765180Y-97993223D01*
X114764821Y-98404971D01*
X71247000Y-98404971D01*
X71247000Y-97404971D01*
X85964821Y-97404971D01*
X86122058Y-97785515D01*
X86412954Y-98076919D01*
X86793223Y-98234820D01*
X87204971Y-98235179D01*
X87585515Y-98077942D01*
X87876919Y-97787046D01*
X88034820Y-97406777D01*
X88035179Y-96995029D01*
X87877942Y-96614485D01*
X87587046Y-96323081D01*
X87206777Y-96165180D01*
X86795029Y-96164821D01*
X86414485Y-96322058D01*
X86123081Y-96612954D01*
X85965180Y-96993223D01*
X85964821Y-97404971D01*
X71247000Y-97404971D01*
X71247000Y-95472325D01*
X72614587Y-95472325D01*
X72976916Y-96349229D01*
X73647242Y-97020726D01*
X74523513Y-97384585D01*
X75472325Y-97385413D01*
X76349229Y-97023084D01*
X77020726Y-96352758D01*
X77384585Y-95476487D01*
X77384588Y-95472325D01*
X177614587Y-95472325D01*
X177976916Y-96349229D01*
X178647242Y-97020726D01*
X179523513Y-97384585D01*
X180472325Y-97385413D01*
X181349229Y-97023084D01*
X182020726Y-96352758D01*
X182384585Y-95476487D01*
X182385413Y-94527675D01*
X182023084Y-93650771D01*
X181352758Y-92979274D01*
X180476487Y-92615415D01*
X179527675Y-92614587D01*
X178650771Y-92976916D01*
X177979274Y-93647242D01*
X177615415Y-94523513D01*
X177614587Y-95472325D01*
X77384588Y-95472325D01*
X77385413Y-94527675D01*
X77023084Y-93650771D01*
X76352758Y-92979274D01*
X75476487Y-92615415D01*
X74527675Y-92614587D01*
X73650771Y-92976916D01*
X72979274Y-93647242D01*
X72615415Y-94523513D01*
X72614587Y-95472325D01*
X71247000Y-95472325D01*
X71247000Y-91567000D01*
X184023000Y-91567000D01*
X184023000Y-139315000D01*
M02*
